G04 DipTrace 3.3.1.3*
G04 Bottom.gbr*
%MOIN*%
G04 #@! TF.FileFunction,Copper,L2,Bot*
G04 #@! TF.Part,Single*
%AMOUTLINE0*
4,1,8,
0.05456,0.0226,
0.05456,-0.0226,
0.0226,-0.05456,
-0.0226,-0.05456,
-0.05456,-0.0226,
-0.05456,0.0226,
-0.0226,0.05456,
0.0226,0.05456,
0.05456,0.0226,
0*%
G04 #@! TA.AperFunction,Conductor*
%ADD14C,0.012992*%
%ADD15C,0.03*%
G04 #@! TA.AperFunction,CopperBalancing*
%ADD16C,0.013*%
%ADD18C,0.025*%
G04 #@! TA.AperFunction,ComponentPad*
%ADD23R,0.059055X0.059055*%
%ADD24C,0.059055*%
%ADD30R,0.06378X0.06378*%
%ADD31C,0.06378*%
%ADD37C,0.075*%
G04 #@! TA.AperFunction,ViaPad*
%ADD41C,0.04*%
G04 #@! TA.AperFunction,ComponentPad*
%ADD92OUTLINE0*%
%FSLAX26Y26*%
G04*
G70*
G90*
G75*
G01*
G04 Bottom*
%LPD*%
X1593700Y1043700D2*
D14*
X1293700Y1343700D1*
X1093700D1*
X731200Y1706200D1*
Y2431200D1*
X893700Y2593700D1*
X2043700D1*
X2193700Y2743700D1*
Y2893700D1*
X1293700Y993700D2*
D15*
X1943700D1*
X2843700D2*
X1943700D1*
Y1043700D1*
X1793700Y1193700D1*
X1543700D1*
X1343700Y1393700D1*
X1243700D1*
X1193700Y1443700D1*
Y1543700D1*
X2843700Y993700D2*
Y1243700D1*
X2643700Y1443700D1*
X943700Y1568700D2*
X1068700D1*
X1093700Y1543700D1*
X1193700D1*
X656200Y631200D2*
X943700Y918700D1*
Y1431200D1*
X693700Y1681200D1*
Y2543700D1*
X843700Y2693700D1*
X1493700D1*
X1593700Y2793700D1*
Y2893700D1*
X2293700Y1343700D2*
D14*
Y1393700D1*
X2243700Y1443700D1*
X1793700D1*
X1743700Y1393700D1*
Y1343700D1*
Y1393700D2*
X1593700Y1543700D1*
Y1893700D1*
X3181298Y1081102D2*
X2943700Y843503D1*
Y568700D1*
X3174949D1*
X3193700Y587451D1*
X2943700Y568700D2*
X2868700Y493700D1*
X2243700D1*
Y581200D1*
Y493700D2*
X1355313D1*
X1343700Y505313D1*
Y581200D1*
X643700Y868700D2*
Y818700D1*
X518700Y693700D1*
Y618700D1*
X556200Y581200D1*
X1343700D1*
Y718700D1*
X1168700Y893700D1*
Y993700D1*
X1243700Y1068700D1*
X1981298Y1081102D2*
X1818700Y1243700D1*
X1643700D1*
X1343700Y1168700D2*
X1243700Y1068700D1*
X3181298Y1081102D2*
Y1406298D1*
X3193700Y1418700D1*
X868503Y1868503D2*
X943306Y1793700D1*
X1243700D1*
X1293700Y1843700D1*
Y1893700D1*
X781200Y1443700D2*
X743700D1*
Y1368700D1*
X693700Y1318700D1*
X643700D1*
X868503Y1868503D2*
Y1718700D1*
X568700D2*
Y1331200D1*
X581200Y1318700D1*
X643700D1*
X2281298Y1081102D2*
X2793798D1*
X3181298D2*
X2893798D1*
X2993700Y2093700D2*
Y2193700D1*
X2893700Y2293700D1*
X2143700D1*
X2093700Y2243700D1*
Y2093700D1*
X2943700Y1993700D2*
Y2143700D1*
X2843700Y2243700D1*
X2243700D1*
X2193700Y2193700D1*
Y2093700D1*
X3043700Y1893700D2*
Y2243700D1*
X2693700Y2593700D1*
X2343700D1*
X2293700Y2643700D1*
Y2893700D1*
X2743700Y3043700D2*
X2693700D1*
X2643700Y2993700D1*
X1443700D1*
X1393700Y2943700D1*
Y2893700D1*
X568700Y1893700D2*
Y2293700D1*
X843700D2*
X1268700D1*
X1393700Y2168700D1*
Y2093700D1*
X3118700Y1168700D2*
X2793700Y1493700D1*
X2443700D1*
X2393700Y1543700D1*
X3493700Y587451D2*
Y693700D1*
X3143700D1*
X3043700Y793700D1*
X2218700Y1043700D2*
Y1218700D1*
Y1393700D1*
X2543700Y581200D2*
Y693700D1*
X2243700D1*
X2143700Y793700D1*
X3193700Y1593700D2*
X3243700D1*
X3293700Y1543700D1*
X3443700D1*
X3493700Y1593700D1*
Y2943700D1*
X2893700Y3543700D1*
X1893700D1*
X1693700Y3343700D1*
Y3093700D1*
X3389369Y1598031D2*
X3393700Y1602361D1*
Y2893700D1*
X2843700Y3443700D1*
X1943700D1*
X1793700Y3293700D1*
Y3093700D1*
X2043700Y1543700D2*
Y1643700D1*
X2143700Y1743700D1*
X3043700D1*
X3143700Y1843700D1*
Y2293700D1*
X2743700Y2693700D1*
X2493700D1*
X2393700Y2793700D1*
Y2893700D1*
X943700Y1743700D2*
X1493700D1*
X2493700Y2893700D2*
Y2793700D1*
X2543700Y2743700D1*
X2793700D1*
X3243700Y2293700D1*
Y1843700D1*
X3093700Y1693700D1*
X2193700D1*
X2143700Y1643700D1*
Y1543700D1*
D41*
X1593700Y1043700D3*
X1293700Y993700D3*
X1943700D3*
X2843700D3*
X2643700Y1443700D3*
X2843700Y993700D3*
X943700Y1568700D3*
X656200Y631200D3*
X3181298Y1081102D3*
X1243700Y1068700D3*
X1981298Y1081102D3*
X1643700Y1243700D3*
X1343700Y1168700D3*
X3193700Y1418700D3*
X3181298Y1081102D3*
X868503Y1868503D3*
X781200Y1443700D3*
X868503Y1718700D3*
X568700D3*
X868503Y1868503D3*
X2281298Y1081102D3*
X2793798D3*
X2893798D3*
X3181298D3*
X2993700Y2093700D3*
X2943700Y1993700D3*
X3043700Y1893700D3*
X2743700Y3043700D3*
X568700Y1893700D3*
Y2293700D3*
X843700D3*
X3118700Y1168700D3*
X3043700Y793700D3*
X2218700Y1043700D3*
Y1393700D3*
X2143700Y793700D3*
X3193700Y1593700D3*
X3389369Y1598031D3*
X2043700Y1543700D3*
X943700Y1743700D3*
X1493700D3*
X2143700Y1543700D3*
X643700Y1318700D3*
Y868700D3*
X3643700D3*
Y1318700D3*
Y3431200D3*
X3418700Y3656200D3*
X643700Y3431200D3*
X434718Y3830331D2*
D18*
X621842D1*
X665561D2*
X790210D1*
X1047189D2*
X3621868D1*
X3665551D2*
X3852710D1*
X434718Y3805462D2*
X546126D1*
X741277D2*
X790210D1*
X1047189D2*
X3546116D1*
X3741266D2*
X3852710D1*
X434718Y3780594D2*
X512897D1*
X774505D2*
X790210D1*
X1047189D2*
X3512887D1*
X3774531D2*
X3852710D1*
X434718Y3755725D2*
X490685D1*
X1047189D2*
X3490675D1*
X3796707D2*
X3852710D1*
X434718Y3730856D2*
X475040D1*
X1047189D2*
X3475029D1*
X3812353D2*
X3852710D1*
X434718Y3705987D2*
X464203D1*
X1047189D2*
X3464192D1*
X3823190D2*
X3852710D1*
X434718Y3681119D2*
X457349D1*
X1047189D2*
X1135165D1*
X1252231D2*
X3376958D1*
X3830080D2*
X3852710D1*
X434718Y3656250D2*
X453976D1*
X1047189D2*
X1135165D1*
X1252231D2*
X3369709D1*
X3833417D2*
X3852710D1*
X434718Y3631381D2*
X453976D1*
X1045000D2*
X1135165D1*
X1252231D2*
X3376886D1*
X3833417D2*
X3852710D1*
X434718Y3606512D2*
X457277D1*
X1016544D2*
X1135165D1*
X1252231D2*
X3457303D1*
X3830116D2*
X3852710D1*
X434718Y3581644D2*
X464131D1*
X823272D2*
X1149985D1*
X1237411D2*
X3464121D1*
X3823262D2*
X3852710D1*
X434718Y3556775D2*
X474932D1*
X812471D2*
X1136708D1*
X1250688D2*
X1857621D1*
X2929781D2*
X3474922D1*
X3812496D2*
X3852710D1*
X434718Y3531906D2*
X490506D1*
X796897D2*
X1136421D1*
X1250976D2*
X1832754D1*
X2954649D2*
X3490496D1*
X3796887D2*
X3852710D1*
X434718Y3507037D2*
X512646D1*
X774756D2*
X1148837D1*
X1238560D2*
X1807886D1*
X1906185D2*
X2881182D1*
X2979517D2*
X3512636D1*
X3774782D2*
X3852710D1*
X434718Y3482169D2*
X545732D1*
X741671D2*
X1150452D1*
X1236945D2*
X1783018D1*
X1881317D2*
X2906086D1*
X3004385D2*
X3545721D1*
X3741661D2*
X3852710D1*
X434718Y3457300D2*
X602716D1*
X684687D2*
X1136852D1*
X1250545D2*
X1758151D1*
X1856449D2*
X1908146D1*
X2879256D2*
X2930953D1*
X3029252D2*
X3602705D1*
X3684677D2*
X3852710D1*
X434718Y3432431D2*
X594713D1*
X692689D2*
X1136313D1*
X1251083D2*
X1733283D1*
X1831582D2*
X1883279D1*
X2904124D2*
X2955821D1*
X3054120D2*
X3594703D1*
X3692679D2*
X3852710D1*
X434718Y3407562D2*
X601173D1*
X686230D2*
X1148371D1*
X1239026D2*
X1708415D1*
X1806714D2*
X1858411D1*
X1956710D2*
X2830657D1*
X2928992D2*
X2980689D1*
X3078988D2*
X3601162D1*
X3686256D2*
X3852710D1*
X434718Y3382693D2*
X1683547D1*
X1781846D2*
X1833543D1*
X1931842D2*
X2855561D1*
X2953860D2*
X3005557D1*
X3103855D2*
X3852710D1*
X434718Y3357825D2*
X1661371D1*
X1756978D2*
X1808675D1*
X1906974D2*
X2880428D1*
X2978727D2*
X3030424D1*
X3128723D2*
X3852710D1*
X434718Y3332956D2*
X785187D1*
X902217D2*
X1658213D1*
X1732111D2*
X1783808D1*
X1882107D2*
X2905296D1*
X3003595D2*
X3055292D1*
X3153591D2*
X3852710D1*
X434718Y3308087D2*
X785187D1*
X902217D2*
X1658213D1*
X1729204D2*
X1761488D1*
X1857239D2*
X2930164D1*
X3028463D2*
X3080160D1*
X3178459D2*
X3852710D1*
X434718Y3283218D2*
X785187D1*
X902217D2*
X1658213D1*
X1729204D2*
X1758186D1*
X1832371D2*
X2955032D1*
X3053331D2*
X3105028D1*
X3203362D2*
X3852710D1*
X434718Y3258350D2*
X785187D1*
X902217D2*
X1658213D1*
X1729204D2*
X1758186D1*
X1829213D2*
X2979899D1*
X3078198D2*
X3129895D1*
X3228230D2*
X3852710D1*
X434718Y3233481D2*
X786263D1*
X901141D2*
X1658213D1*
X1729204D2*
X1758186D1*
X1829213D2*
X3004767D1*
X3103066D2*
X3154763D1*
X3253098D2*
X3852710D1*
X434718Y3208612D2*
X786909D1*
X900495D2*
X1658213D1*
X1729204D2*
X1758186D1*
X1829213D2*
X3029635D1*
X3127934D2*
X3179631D1*
X3277966D2*
X3852710D1*
X434718Y3183743D2*
X800689D1*
X886715D2*
X1658213D1*
X1729204D2*
X1758186D1*
X1829213D2*
X3054503D1*
X3152837D2*
X3204499D1*
X3302833D2*
X3852710D1*
X434718Y3158875D2*
X787268D1*
X900136D2*
X1658213D1*
X1729204D2*
X1758186D1*
X1829213D2*
X3079370D1*
X3177705D2*
X3229366D1*
X3327701D2*
X3852710D1*
X434718Y3134006D2*
X786012D1*
X901392D2*
X1332815D1*
X1538444D2*
X1548942D1*
X1638453D2*
X1648984D1*
X1738462D2*
X1748964D1*
X1838436D2*
X1848938D1*
X1938445D2*
X1948947D1*
X2038454D2*
X2048956D1*
X2138463D2*
X2148965D1*
X2238437D2*
X2248939D1*
X2338446D2*
X2348983D1*
X2438455D2*
X2448980D1*
X2538464D2*
X3104238D1*
X3202573D2*
X3254234D1*
X3352569D2*
X3852710D1*
X434718Y3109137D2*
X797100D1*
X890304D2*
X1332815D1*
X2552495D2*
X3129106D1*
X3227441D2*
X3279102D1*
X3377437D2*
X3852710D1*
X434718Y3084268D2*
X1332815D1*
X2553823D2*
X2718483D1*
X2768912D2*
X3153974D1*
X3252308D2*
X3303970D1*
X3402304D2*
X3852710D1*
X434718Y3059399D2*
X1332815D1*
X2543452D2*
X2660243D1*
X2789977D2*
X3178841D1*
X3277176D2*
X3328837D1*
X3427172D2*
X3852710D1*
X434718Y3034531D2*
X2635375D1*
X2791771D2*
X3203709D1*
X3302044D2*
X3353705D1*
X3452040D2*
X3852710D1*
X434718Y3009662D2*
X1410505D1*
X2777884D2*
X3228577D1*
X3326912D2*
X3378573D1*
X3476907D2*
X3852710D1*
X434718Y2984793D2*
X1385637D1*
X2683975D2*
X3253445D1*
X3351779D2*
X3403440D1*
X3501775D2*
X3852710D1*
X434718Y2959924D2*
X1362456D1*
X1459104D2*
X3278312D1*
X3376647D2*
X3428308D1*
X3524921D2*
X3852710D1*
X434718Y2935056D2*
X1342360D1*
X2545031D2*
X3303180D1*
X3401515D2*
X3453176D1*
X3529191D2*
X3852710D1*
X434718Y2910187D2*
X784110D1*
X903294D2*
X1329370D1*
X2558057D2*
X2584097D1*
X2703280D2*
X3328048D1*
X3424768D2*
X3458200D1*
X3529191D2*
X3852710D1*
X434718Y2885318D2*
X764087D1*
X923317D2*
X1327756D1*
X2723304D2*
X3352916D1*
X3429182D2*
X3458200D1*
X3529191D2*
X3852710D1*
X434718Y2860449D2*
X755188D1*
X932216D2*
X1336511D1*
X2732203D2*
X3358191D1*
X3429182D2*
X3458200D1*
X3529191D2*
X3852710D1*
X434718Y2835581D2*
X753932D1*
X933436D2*
X1364393D1*
X1423004D2*
X1464403D1*
X1523014D2*
X1549699D1*
X1637699D2*
X1664385D1*
X1722996D2*
X1764394D1*
X1823005D2*
X1864404D1*
X1923015D2*
X1964413D1*
X2022988D2*
X2064386D1*
X2122997D2*
X2158187D1*
X2229178D2*
X2258197D1*
X2329188D2*
X2358206D1*
X2429197D2*
X2458215D1*
X2529206D2*
X2553954D1*
X2733459D2*
X3358191D1*
X3429182D2*
X3458200D1*
X3529191D2*
X3852710D1*
X434718Y2810712D2*
X760032D1*
X927372D2*
X1549520D1*
X1637699D2*
X2158187D1*
X2229178D2*
X2258197D1*
X2329188D2*
X2358206D1*
X2429197D2*
X2458215D1*
X2529206D2*
X2560019D1*
X2727394D2*
X3358191D1*
X3429182D2*
X3458200D1*
X3529191D2*
X3852710D1*
X434718Y2785843D2*
X775390D1*
X912014D2*
X1524652D1*
X1636946D2*
X2158187D1*
X2229178D2*
X2258197D1*
X2329188D2*
X2359139D1*
X2450727D2*
X2459137D1*
X2550737D2*
X2575377D1*
X2712000D2*
X3358191D1*
X3429182D2*
X3458200D1*
X3529191D2*
X3852710D1*
X434718Y2760974D2*
X812279D1*
X875125D2*
X1499784D1*
X1622162D2*
X2158187D1*
X2229178D2*
X2258197D1*
X2329188D2*
X2377260D1*
X2825574D2*
X3358191D1*
X3429182D2*
X3458200D1*
X3529191D2*
X3852710D1*
X434718Y2736106D2*
X1474917D1*
X1597294D2*
X2136944D1*
X2228317D2*
X2258197D1*
X2329188D2*
X2402128D1*
X2850441D2*
X3358191D1*
X3429182D2*
X3458200D1*
X3529191D2*
X3852710D1*
X434718Y2711237D2*
X800043D1*
X1572426D2*
X2112076D1*
X2210411D2*
X2258197D1*
X2329188D2*
X2426996D1*
X2875309D2*
X3358191D1*
X3429182D2*
X3458200D1*
X3529191D2*
X3852710D1*
X434718Y2686368D2*
X775175D1*
X1547558D2*
X2087209D1*
X2185543D2*
X2258197D1*
X2329188D2*
X2451864D1*
X2900213D2*
X3358191D1*
X3429182D2*
X3458200D1*
X3529191D2*
X3852710D1*
X434718Y2661499D2*
X750307D1*
X1522368D2*
X2062341D1*
X2160676D2*
X2258197D1*
X2329188D2*
X2484016D1*
X2925080D2*
X3358191D1*
X3429182D2*
X3458200D1*
X3529191D2*
X3852710D1*
X434718Y2636630D2*
X725440D1*
X847817D2*
X2037473D1*
X2135808D2*
X2258986D1*
X2349929D2*
X2751604D1*
X2949948D2*
X3358191D1*
X3429182D2*
X3458200D1*
X3529191D2*
X3852710D1*
X434718Y2611762D2*
X700572D1*
X822949D2*
X862589D1*
X2110940D2*
X2276462D1*
X2724811D2*
X2776472D1*
X2974816D2*
X3358191D1*
X3429182D2*
X3458200D1*
X3529191D2*
X3852710D1*
X434718Y2586893D2*
X675704D1*
X798081D2*
X837721D1*
X2086072D2*
X2301329D1*
X2749679D2*
X2801340D1*
X2999684D2*
X3358191D1*
X3429182D2*
X3458200D1*
X3529191D2*
X3852710D1*
X434718Y2562024D2*
X653958D1*
X773213D2*
X812853D1*
X2055427D2*
X2331975D1*
X2774546D2*
X2826207D1*
X3024551D2*
X3358191D1*
X3429182D2*
X3458200D1*
X3529191D2*
X3852710D1*
X434718Y2537155D2*
X649688D1*
X748346D2*
X787986D1*
X886320D2*
X2701079D1*
X2799414D2*
X2851075D1*
X3049419D2*
X3358191D1*
X3429182D2*
X3458200D1*
X3529191D2*
X3852710D1*
X434718Y2512287D2*
X649688D1*
X737688D2*
X763118D1*
X861453D2*
X2725947D1*
X2824282D2*
X2875943D1*
X3074287D2*
X3358191D1*
X3429182D2*
X3458200D1*
X3529191D2*
X3852710D1*
X434718Y2487418D2*
X649688D1*
X836585D2*
X2750815D1*
X2849150D2*
X2900811D1*
X3099155D2*
X3358191D1*
X3429182D2*
X3458200D1*
X3529191D2*
X3852710D1*
X434718Y2462549D2*
X649688D1*
X811717D2*
X2775683D1*
X2874017D2*
X2925678D1*
X3124022D2*
X3358191D1*
X3429182D2*
X3458200D1*
X3529191D2*
X3852710D1*
X434718Y2437680D2*
X649688D1*
X786849D2*
X2800550D1*
X2898885D2*
X2950546D1*
X3148890D2*
X3358191D1*
X3429182D2*
X3458200D1*
X3529191D2*
X3852710D1*
X434718Y2412812D2*
X649688D1*
X766683D2*
X2825418D1*
X2923753D2*
X2975414D1*
X3173758D2*
X3358191D1*
X3429182D2*
X3458200D1*
X3529191D2*
X3852710D1*
X434718Y2387943D2*
X649688D1*
X766683D2*
X2850286D1*
X2948621D2*
X3000282D1*
X3198626D2*
X3358191D1*
X3429182D2*
X3458200D1*
X3529191D2*
X3852710D1*
X434718Y2363074D2*
X649688D1*
X766683D2*
X2875153D1*
X2973488D2*
X3025149D1*
X3223493D2*
X3358191D1*
X3429182D2*
X3458200D1*
X3529191D2*
X3852710D1*
X434718Y2338205D2*
X552729D1*
X584678D2*
X649688D1*
X766683D2*
X827709D1*
X859658D2*
X2900021D1*
X2998356D2*
X3050017D1*
X3248361D2*
X3358191D1*
X3429182D2*
X3458200D1*
X3529191D2*
X3852710D1*
X434718Y2313336D2*
X524057D1*
X613349D2*
X649688D1*
X766683D2*
X799038D1*
X1298235D2*
X2114158D1*
X3023224D2*
X3074885D1*
X3272726D2*
X3358191D1*
X3429182D2*
X3458200D1*
X3529191D2*
X3852710D1*
X434718Y2288468D2*
X520003D1*
X617404D2*
X649688D1*
X766683D2*
X794983D1*
X1323103D2*
X2089290D1*
X3048091D2*
X3099753D1*
X3179212D2*
X3199762D1*
X3279186D2*
X3358191D1*
X3429182D2*
X3458200D1*
X3529191D2*
X3852710D1*
X434718Y2263599D2*
X530768D1*
X606639D2*
X649688D1*
X766683D2*
X805748D1*
X1347970D2*
X2064889D1*
X3072529D2*
X3108221D1*
X3179212D2*
X3208195D1*
X3279186D2*
X3358191D1*
X3429182D2*
X3458200D1*
X3529191D2*
X3852710D1*
X434718Y2238730D2*
X533208D1*
X604199D2*
X649688D1*
X766683D2*
X1274503D1*
X1372838D2*
X2058214D1*
X2137889D2*
X2189550D1*
X3079203D2*
X3108221D1*
X3179212D2*
X3208195D1*
X3279186D2*
X3358191D1*
X3429182D2*
X3458200D1*
X3529191D2*
X3852710D1*
X434718Y2213861D2*
X533208D1*
X604199D2*
X649688D1*
X766683D2*
X788703D1*
X898700D2*
X1299371D1*
X1397706D2*
X2058214D1*
X2129205D2*
X2165077D1*
X3079203D2*
X3108221D1*
X3179212D2*
X3208195D1*
X3279186D2*
X3358191D1*
X3429182D2*
X3458200D1*
X3529191D2*
X3852710D1*
X434718Y2188993D2*
X533208D1*
X604199D2*
X649688D1*
X921236D2*
X1324239D1*
X1422215D2*
X2058214D1*
X2129205D2*
X2158187D1*
X2238149D2*
X2566191D1*
X2721222D2*
X2849245D1*
X3079203D2*
X3108221D1*
X3179212D2*
X3208195D1*
X3279186D2*
X3358191D1*
X3429182D2*
X3458200D1*
X3529191D2*
X3852710D1*
X434718Y2164124D2*
X533208D1*
X604199D2*
X649688D1*
X931427D2*
X1349107D1*
X1429212D2*
X2058214D1*
X2129205D2*
X2158187D1*
X2229178D2*
X2556000D1*
X2731414D2*
X2874113D1*
X3079203D2*
X3108221D1*
X3179212D2*
X3208195D1*
X3279186D2*
X3358191D1*
X3429182D2*
X3458200D1*
X3529191D2*
X3852710D1*
X434718Y2139255D2*
X533208D1*
X604199D2*
X649688D1*
X933723D2*
X946235D1*
X2541156D2*
X2553667D1*
X2733710D2*
X2898981D1*
X3079203D2*
X3108221D1*
X3179212D2*
X3208195D1*
X3279186D2*
X3358191D1*
X3429182D2*
X3458200D1*
X3529191D2*
X3852710D1*
X434718Y2114386D2*
X533208D1*
X604199D2*
X649688D1*
X2728794D2*
X2908203D1*
X3079203D2*
X3108221D1*
X3179212D2*
X3208195D1*
X3279186D2*
X3358191D1*
X3429182D2*
X3458200D1*
X3529191D2*
X3852710D1*
X434718Y2089518D2*
X533208D1*
X604199D2*
X649688D1*
X915064D2*
X927324D1*
X2560067D2*
X2572327D1*
X2715086D2*
X2908203D1*
X3079203D2*
X3108221D1*
X3179212D2*
X3208195D1*
X3279186D2*
X3358191D1*
X3429182D2*
X3458200D1*
X3529191D2*
X3852710D1*
X434718Y2064649D2*
X533208D1*
X604199D2*
X649688D1*
X766683D2*
X803380D1*
X884024D2*
X934178D1*
X2553213D2*
X2603367D1*
X2684011D2*
X2908203D1*
X3079203D2*
X3108221D1*
X3179212D2*
X3208195D1*
X3279186D2*
X3358191D1*
X3429182D2*
X3458200D1*
X3529191D2*
X3852710D1*
X434718Y2039780D2*
X533208D1*
X604199D2*
X649688D1*
X766683D2*
X956713D1*
X1030683D2*
X1056722D1*
X1130692D2*
X1156732D1*
X1230665D2*
X1256741D1*
X1330674D2*
X1356714D1*
X1430684D2*
X1456723D1*
X1530693D2*
X1556733D1*
X1630666D2*
X1656706D1*
X1730675D2*
X1756715D1*
X1830685D2*
X1856724D1*
X1930694D2*
X1956734D1*
X2030667D2*
X2056707D1*
X2130676D2*
X2156716D1*
X2230686D2*
X2256725D1*
X2330659D2*
X2356735D1*
X2430668D2*
X2456708D1*
X2530677D2*
X2908203D1*
X2979194D2*
X3008212D1*
X3079203D2*
X3108221D1*
X3179212D2*
X3208195D1*
X3279186D2*
X3358191D1*
X3429182D2*
X3458200D1*
X3529191D2*
X3852710D1*
X434718Y2014911D2*
X533208D1*
X604199D2*
X649688D1*
X766683D2*
X2899806D1*
X2987591D2*
X3008212D1*
X3079203D2*
X3108221D1*
X3179212D2*
X3208195D1*
X3279186D2*
X3358191D1*
X3429182D2*
X3458200D1*
X3529191D2*
X3852710D1*
X434718Y1990043D2*
X533208D1*
X604199D2*
X649688D1*
X766683D2*
X2894854D1*
X2992543D2*
X3008212D1*
X3079203D2*
X3108221D1*
X3179212D2*
X3208195D1*
X3279186D2*
X3358191D1*
X3429182D2*
X3458200D1*
X3529191D2*
X3852710D1*
X434718Y1965174D2*
X533208D1*
X604199D2*
X649688D1*
X766683D2*
X2904471D1*
X2982926D2*
X3008212D1*
X3079203D2*
X3108221D1*
X3179212D2*
X3208195D1*
X3279186D2*
X3358191D1*
X3429182D2*
X3458200D1*
X3529191D2*
X3852710D1*
X434718Y1940305D2*
X533208D1*
X604199D2*
X649688D1*
X766683D2*
X932814D1*
X1131374D2*
X1156014D1*
X1231383D2*
X1256023D1*
X1331392D2*
X1356032D1*
X1431365D2*
X1456042D1*
X1531375D2*
X1556015D1*
X1631384D2*
X1656024D1*
X1731393D2*
X1756033D1*
X1831366D2*
X1856007D1*
X1931376D2*
X1956016D1*
X2031385D2*
X2056025D1*
X2131358D2*
X2156034D1*
X2231367D2*
X2256008D1*
X2331377D2*
X2356017D1*
X2431386D2*
X2456026D1*
X2531359D2*
X3008212D1*
X3079203D2*
X3108221D1*
X3179212D2*
X3208195D1*
X3279186D2*
X3358191D1*
X3429182D2*
X3458200D1*
X3529191D2*
X3852710D1*
X434718Y1915436D2*
X525098D1*
X612309D2*
X649688D1*
X766683D2*
X932814D1*
X2550378D2*
X3000102D1*
X3087313D2*
X3108221D1*
X3179212D2*
X3208195D1*
X3279186D2*
X3358191D1*
X3429182D2*
X3458200D1*
X3529191D2*
X3852710D1*
X434718Y1890567D2*
X519823D1*
X617584D2*
X649688D1*
X766683D2*
X932814D1*
X2554504D2*
X2994791D1*
X3092588D2*
X3108221D1*
X3179212D2*
X3208195D1*
X3279186D2*
X3358191D1*
X3429182D2*
X3458200D1*
X3529191D2*
X3852710D1*
X434718Y1865699D2*
X529081D1*
X608326D2*
X649688D1*
X766683D2*
X932814D1*
X2547435D2*
X3004085D1*
X3083330D2*
X3108221D1*
X3179212D2*
X3208195D1*
X3279186D2*
X3358191D1*
X3429182D2*
X3458200D1*
X3529191D2*
X3852710D1*
X434718Y1840830D2*
X649688D1*
X766683D2*
X932814D1*
X1054581D2*
X1066411D1*
X1120967D2*
X1166420D1*
X1220976D2*
X1266430D1*
X1320986D2*
X1366403D1*
X1420995D2*
X1466412D1*
X1520968D2*
X1558204D1*
X1629195D2*
X1666431D1*
X1720987D2*
X1766404D1*
X1820996D2*
X1866413D1*
X1920969D2*
X1966422D1*
X2020978D2*
X2066432D1*
X2120988D2*
X2166405D1*
X2220997D2*
X2266414D1*
X2320970D2*
X2366423D1*
X2420979D2*
X2466433D1*
X2520989D2*
X3091679D1*
X3179069D2*
X3191652D1*
X3279078D2*
X3358191D1*
X3429182D2*
X3458200D1*
X3529191D2*
X3852710D1*
X434718Y1815961D2*
X649688D1*
X766683D2*
X1558204D1*
X1629195D2*
X3066811D1*
X3265119D2*
X3358191D1*
X3429182D2*
X3458200D1*
X3529191D2*
X3852710D1*
X434718Y1791092D2*
X649688D1*
X766683D2*
X1558204D1*
X1629195D2*
X3041943D1*
X3240251D2*
X3358191D1*
X3429182D2*
X3458200D1*
X3529191D2*
X3852710D1*
X434718Y1766224D2*
X649688D1*
X766683D2*
X900518D1*
X1536865D2*
X1558204D1*
X1629195D2*
X2117064D1*
X3215384D2*
X3358191D1*
X3429182D2*
X3458200D1*
X3529191D2*
X3852710D1*
X434718Y1741355D2*
X649688D1*
X766683D2*
X894777D1*
X1542642D2*
X1558204D1*
X1629195D2*
X2092196D1*
X3190516D2*
X3358191D1*
X3429182D2*
X3458200D1*
X3529191D2*
X3852710D1*
X434718Y1716486D2*
X649688D1*
X770092D2*
X903497D1*
X1533922D2*
X1558204D1*
X1629195D2*
X2067329D1*
X3165648D2*
X3358191D1*
X3429182D2*
X3458200D1*
X3529191D2*
X3852710D1*
X434718Y1691617D2*
X649688D1*
X794959D2*
X1558204D1*
X1629195D2*
X2042461D1*
X3140780D2*
X3358191D1*
X3429182D2*
X3458200D1*
X3529191D2*
X3852710D1*
X434718Y1666749D2*
X652308D1*
X819827D2*
X1558204D1*
X1629195D2*
X2017593D1*
X3115231D2*
X3358191D1*
X3429182D2*
X3458200D1*
X3529191D2*
X3852710D1*
X434718Y1641880D2*
X671829D1*
X844695D2*
X1558204D1*
X1629195D2*
X2008192D1*
X2091060D2*
X2108201D1*
X2191034D2*
X3358191D1*
X3429182D2*
X3458200D1*
X3529191D2*
X3852710D1*
X434718Y1617011D2*
X696696D1*
X869563D2*
X1558204D1*
X1629195D2*
X2008192D1*
X2079183D2*
X2108201D1*
X2179192D2*
X3150959D1*
X3269569D2*
X3344411D1*
X3434313D2*
X3458200D1*
X3529191D2*
X3852710D1*
X434718Y1592142D2*
X721564D1*
X1106434D2*
X1135165D1*
X1252231D2*
X1263056D1*
X1324359D2*
X1363066D1*
X1424368D2*
X1558204D1*
X1629195D2*
X1685162D1*
X1802228D2*
X1813053D1*
X1874356D2*
X1913063D1*
X1974365D2*
X2008192D1*
X2079183D2*
X2108201D1*
X2179192D2*
X2235159D1*
X2352225D2*
X2363050D1*
X2424353D2*
X2463059D1*
X2524362D2*
X3144715D1*
X3294436D2*
X3340751D1*
X3529155D2*
X3852710D1*
X434718Y1567273D2*
X746432D1*
X1447011D2*
X1558204D1*
X1629195D2*
X1685162D1*
X2086288D2*
X2101132D1*
X2186297D2*
X2235159D1*
X2547041D2*
X3152933D1*
X3516452D2*
X3852710D1*
X434718Y1542405D2*
X771300D1*
X1452214D2*
X1558240D1*
X1644159D2*
X1685162D1*
X2192684D2*
X2235159D1*
X2552208D2*
X3245837D1*
X3491584D2*
X3852710D1*
X434718Y1517536D2*
X796167D1*
X969033D2*
X1058660D1*
X1445755D2*
X1570692D1*
X1669026D2*
X1685162D1*
X2084637D2*
X2102746D1*
X2184646D2*
X2235159D1*
X2819007D2*
X3271100D1*
X3466322D2*
X3852710D1*
X434718Y1492667D2*
X821035D1*
X993901D2*
X1135165D1*
X1252231D2*
X1268080D1*
X1319335D2*
X1368089D1*
X1419308D2*
X1595559D1*
X1802228D2*
X1818077D1*
X1869332D2*
X1918086D1*
X1969341D2*
X2235159D1*
X2352225D2*
X2368074D1*
X2843910D2*
X3852710D1*
X434718Y1467798D2*
X845903D1*
X1018769D2*
X1149698D1*
X1237698D2*
X1620427D1*
X1718762D2*
X1768665D1*
X2268723D2*
X2420752D1*
X2868778D2*
X3852710D1*
X434718Y1442930D2*
X870770D1*
X1043637D2*
X1149698D1*
X1255676D2*
X1645295D1*
X2293626D2*
X2594719D1*
X2705649D2*
X2795311D1*
X2893646D2*
X3852710D1*
X434718Y1418061D2*
X895638D1*
X1068504D2*
X1158562D1*
X1380517D2*
X1670162D1*
X2318494D2*
X2602398D1*
X2730516D2*
X2820179D1*
X2918514D2*
X3852710D1*
X434718Y1393192D2*
X899693D1*
X1093372D2*
X1183035D1*
X1405385D2*
X1685162D1*
X1802228D2*
X1814955D1*
X1872454D2*
X1914929D1*
X1972463D2*
X2169706D1*
X2352225D2*
X2364952D1*
X2422451D2*
X2464925D1*
X2522460D2*
X2633007D1*
X2755384D2*
X2845047D1*
X2943381D2*
X3852710D1*
X434718Y1368323D2*
X899693D1*
X987693D2*
X1019905D1*
X1430253D2*
X1685162D1*
X1996541D2*
X2177242D1*
X2546538D2*
X2657875D1*
X2780252D2*
X2869914D1*
X2968249D2*
X3852710D1*
X434718Y1343455D2*
X601854D1*
X685548D2*
X899693D1*
X987693D2*
X1044773D1*
X1455121D2*
X1685162D1*
X2002211D2*
X2183199D1*
X2552244D2*
X2682742D1*
X2805120D2*
X2894782D1*
X2993117D2*
X3601844D1*
X3685574D2*
X3852710D1*
X434718Y1318586D2*
X594713D1*
X692689D2*
X899693D1*
X987693D2*
X1069784D1*
X1479988D2*
X1685162D1*
X1996290D2*
X2183199D1*
X2546287D2*
X2707610D1*
X2829987D2*
X2919650D1*
X3017985D2*
X3594703D1*
X3692715D2*
X3852710D1*
X434718Y1293717D2*
X601998D1*
X685405D2*
X899693D1*
X987693D2*
X1294527D1*
X1504856D2*
X1685162D1*
X1802228D2*
X1815888D1*
X1871521D2*
X1915897D1*
X1971530D2*
X2183199D1*
X2352225D2*
X2365885D1*
X2421518D2*
X2465894D1*
X2521527D2*
X2732478D1*
X2854855D2*
X2944518D1*
X3042852D2*
X3601988D1*
X3685430D2*
X3852710D1*
X434718Y1268848D2*
X573901D1*
X713502D2*
X899693D1*
X987693D2*
X1319395D1*
X1529724D2*
X2183199D1*
X2254190D2*
X2757346D1*
X2879220D2*
X2969385D1*
X3067720D2*
X3573890D1*
X3713492D2*
X3852710D1*
X434718Y1243980D2*
X528866D1*
X758537D2*
X899693D1*
X987693D2*
X1344262D1*
X1554628D2*
X2183199D1*
X2254190D2*
X2782213D1*
X2887689D2*
X2994253D1*
X3092588D2*
X3528856D1*
X3758562D2*
X3852710D1*
X434718Y1219111D2*
X501630D1*
X785773D2*
X899693D1*
X987693D2*
X1369130D1*
X1829464D2*
X2183199D1*
X2254190D2*
X2799689D1*
X2887689D2*
X3019121D1*
X3117456D2*
X3501655D1*
X3785763D2*
X3852710D1*
X434718Y1194242D2*
X482791D1*
X804612D2*
X899693D1*
X987693D2*
X1393998D1*
X1854332D2*
X2183199D1*
X2254190D2*
X2799689D1*
X2887689D2*
X3043989D1*
X3160050D2*
X3482780D1*
X3804602D2*
X3852710D1*
X434718Y1169373D2*
X469514D1*
X817889D2*
X899693D1*
X987693D2*
X1418866D1*
X1879200D2*
X2183199D1*
X2254190D2*
X2799689D1*
X2887689D2*
X3068856D1*
X3167693D2*
X3469503D1*
X3817879D2*
X3852710D1*
X434718Y1144504D2*
X460578D1*
X826824D2*
X899693D1*
X987693D2*
X1443733D1*
X1542068D2*
X1781691D1*
X1904068D2*
X2183199D1*
X2254190D2*
X2799689D1*
X2887689D2*
X3076500D1*
X3160911D2*
X3460568D1*
X3826814D2*
X3852710D1*
X434718Y1119636D2*
X455375D1*
X832028D2*
X899693D1*
X987693D2*
X1468601D1*
X1566936D2*
X1806558D1*
X1928971D2*
X2183199D1*
X2254190D2*
X2799689D1*
X2887689D2*
X3455365D1*
X3832017D2*
X3852710D1*
X434718Y1094767D2*
X453581D1*
X833822D2*
X899693D1*
X987693D2*
X1493469D1*
X1591804D2*
X1831426D1*
X1953839D2*
X2183199D1*
X2254190D2*
X2799689D1*
X2887689D2*
X3453571D1*
X3833812D2*
X3852710D1*
X434718Y1069898D2*
X455088D1*
X832315D2*
X899693D1*
X987693D2*
X1518337D1*
X1634613D2*
X1856330D1*
X1978384D2*
X2177780D1*
X2259608D2*
X2799689D1*
X2887689D2*
X3455078D1*
X3832304D2*
X3852710D1*
X434718Y1045029D2*
X460004D1*
X827399D2*
X899693D1*
X987693D2*
X1543204D1*
X1642687D2*
X1881197D1*
X1987678D2*
X2169706D1*
X2267682D2*
X2799689D1*
X2887689D2*
X3459994D1*
X3827424D2*
X3852710D1*
X434718Y1020161D2*
X468581D1*
X818822D2*
X899693D1*
X987693D2*
X1252973D1*
X2887689D2*
X3468570D1*
X3818812D2*
X3852710D1*
X434718Y995292D2*
X481463D1*
X805940D2*
X899693D1*
X987693D2*
X1244720D1*
X2892677D2*
X3481453D1*
X3805965D2*
X3852710D1*
X434718Y970423D2*
X499764D1*
X787639D2*
X899693D1*
X987693D2*
X1250928D1*
X2886469D2*
X3499754D1*
X3787665D2*
X3852710D1*
X434718Y945554D2*
X526067D1*
X761336D2*
X899693D1*
X987693D2*
X3526057D1*
X3761361D2*
X3852710D1*
X434718Y920686D2*
X568590D1*
X718813D2*
X884478D1*
X987693D2*
X3568579D1*
X3718803D2*
X3852710D1*
X434718Y895817D2*
X603433D1*
X683970D2*
X859610D1*
X980803D2*
X3603423D1*
X3683959D2*
X3852710D1*
X434718Y870948D2*
X594749D1*
X692653D2*
X834743D1*
X957156D2*
X3594739D1*
X3692643D2*
X3852710D1*
X434718Y846079D2*
X600563D1*
X686840D2*
X809875D1*
X932252D2*
X3600588D1*
X3686830D2*
X3852710D1*
X434718Y821210D2*
X785007D1*
X907384D2*
X2103715D1*
X2183677D2*
X3003727D1*
X3083689D2*
X3852710D1*
X434718Y796342D2*
X760140D1*
X882517D2*
X2094780D1*
X2192612D2*
X2994791D1*
X3092624D2*
X3852710D1*
X434718Y771473D2*
X735272D1*
X857649D2*
X2100342D1*
X2215076D2*
X3000353D1*
X3115087D2*
X3852710D1*
X434718Y746604D2*
X710404D1*
X832781D2*
X2141645D1*
X2239944D2*
X3041620D1*
X3139955D2*
X3852710D1*
X434718Y721735D2*
X685536D1*
X807913D2*
X2166513D1*
X2563583D2*
X3066488D1*
X3513617D2*
X3852710D1*
X434718Y696867D2*
X660669D1*
X783046D2*
X2191380D1*
X2579049D2*
X3091356D1*
X3529047D2*
X3852710D1*
X434718Y671998D2*
X631387D1*
X758178D2*
X2216248D1*
X2579193D2*
X3116223D1*
X3529191D2*
X3852710D1*
X434718Y647129D2*
X610000D1*
X733310D2*
X1292481D1*
X1394907D2*
X1442477D1*
X1544903D2*
X1592509D1*
X1694899D2*
X2192493D1*
X2294918D2*
X2342489D1*
X2444914D2*
X2492485D1*
X2594910D2*
X2642480D1*
X2744906D2*
X3136247D1*
X3251160D2*
X3286243D1*
X3401156D2*
X3436239D1*
X3551152D2*
X3586235D1*
X3701148D2*
X3852710D1*
X434718Y622260D2*
X608062D1*
X708443D2*
X1267614D1*
X1719767D2*
X2167625D1*
X2769774D2*
X3113137D1*
X3724293D2*
X3852710D1*
X434718Y597392D2*
X621770D1*
X690608D2*
X1260150D1*
X1727266D2*
X2160125D1*
X2777274D2*
X3110123D1*
X3727271D2*
X3852710D1*
X434718Y572523D2*
X1260150D1*
X1727266D2*
X2160125D1*
X2777274D2*
X3110123D1*
X3727271D2*
X3852710D1*
X434718Y547654D2*
X1262518D1*
X1724898D2*
X2162494D1*
X2774905D2*
X3116475D1*
X3720920D2*
X3852710D1*
X434718Y522785D2*
X1284982D1*
X1402407D2*
X1434978D1*
X1552439D2*
X1584973D1*
X1702434D2*
X2184993D1*
X2302418D2*
X2334989D1*
X2452414D2*
X2484985D1*
X2602410D2*
X2634981D1*
X2752406D2*
X3141235D1*
X3246172D2*
X3291231D1*
X3396168D2*
X3441227D1*
X3546164D2*
X3591222D1*
X3696160D2*
X3852710D1*
X434718Y497917D2*
X3852710D1*
X434718Y473048D2*
X3852710D1*
X434718Y448179D2*
X3852710D1*
X831106Y1084517D2*
X829311Y1066240D1*
X825737Y1048226D1*
X820420Y1030647D1*
X813409Y1013672D1*
X804772Y997465D1*
X794592Y982179D1*
X782967Y967961D1*
X770007Y954948D1*
X755837Y943265D1*
X740593Y933023D1*
X724421Y924320D1*
X707475Y917240D1*
X689918Y911850D1*
X671919Y908203D1*
X668822Y907809D1*
X673679Y904246D1*
X678900Y899085D1*
X683243Y893166D1*
X686601Y886637D1*
X688890Y879662D1*
X690052Y872413D1*
X690055Y865029D1*
X688899Y857779D1*
X686617Y850802D1*
X683265Y844270D1*
X678927Y838347D1*
X673711Y833181D1*
X667747Y828901D1*
X661183Y825612D1*
X654184Y823397D1*
X646923Y822312D1*
X639582Y822383D1*
X632344Y823608D1*
X625388Y825957D1*
X618889Y829372D1*
X613009Y833767D1*
X607893Y839033D1*
X603670Y845038D1*
X600445Y851633D1*
X598298Y858654D1*
X597283Y865925D1*
X597425Y873265D1*
X598720Y880491D1*
X601136Y887423D1*
X604613Y893889D1*
X609065Y899727D1*
X614380Y904791D1*
X618500Y907772D1*
X607942Y909508D1*
X590106Y913886D1*
X572784Y919987D1*
X556141Y927752D1*
X540336Y937107D1*
X525523Y947962D1*
X511841Y960213D1*
X499423Y973744D1*
X488386Y988423D1*
X478838Y1004112D1*
X470870Y1020658D1*
X464557Y1037904D1*
X459960Y1055685D1*
X457124Y1073830D1*
X456075Y1092166D1*
X456824Y1110516D1*
X459363Y1128705D1*
X463668Y1146558D1*
X469698Y1163906D1*
X477395Y1180580D1*
X486685Y1196422D1*
X497480Y1211281D1*
X509675Y1225012D1*
X523155Y1237486D1*
X537789Y1248582D1*
X553438Y1258194D1*
X569952Y1266230D1*
X587172Y1272614D1*
X604934Y1277283D1*
X618552Y1279582D1*
X613009Y1283767D1*
X607893Y1289033D1*
X603670Y1295038D1*
X600445Y1301633D1*
X598298Y1308654D1*
X597283Y1315925D1*
X597425Y1323265D1*
X598720Y1330491D1*
X601136Y1337423D1*
X604613Y1343889D1*
X609065Y1349727D1*
X614380Y1354791D1*
X620426Y1358956D1*
X627052Y1362118D1*
X634092Y1364197D1*
X641373Y1365142D1*
X648711Y1364929D1*
X655925Y1363564D1*
X662833Y1361081D1*
X669265Y1357542D1*
X675060Y1353034D1*
X680073Y1347670D1*
X684179Y1341585D1*
X687276Y1334929D1*
X689287Y1327868D1*
X690162Y1320579D1*
X689874Y1313201D1*
X688433Y1306002D1*
X685877Y1299120D1*
X682270Y1292726D1*
X677701Y1286980D1*
X672285Y1282024D1*
X668906Y1279632D1*
X686938Y1276281D1*
X704581Y1271180D1*
X721640Y1264378D1*
X737952Y1255940D1*
X753362Y1245949D1*
X767721Y1234499D1*
X780892Y1221700D1*
X792748Y1207674D1*
X803177Y1192557D1*
X812077Y1176492D1*
X819365Y1159635D1*
X824969Y1142145D1*
X828837Y1124192D1*
X830931Y1105946D1*
X831331Y1093700D1*
X831106Y1084517D1*
X3831106D2*
X3829311Y1066240D1*
X3825737Y1048226D1*
X3820420Y1030647D1*
X3813409Y1013672D1*
X3804772Y997465D1*
X3794592Y982179D1*
X3782967Y967961D1*
X3770007Y954948D1*
X3755837Y943265D1*
X3740593Y933023D1*
X3724421Y924320D1*
X3707475Y917240D1*
X3689918Y911850D1*
X3671919Y908203D1*
X3668822Y907809D1*
X3673679Y904246D1*
X3678900Y899085D1*
X3683243Y893166D1*
X3686601Y886637D1*
X3688890Y879662D1*
X3690052Y872413D1*
X3690055Y865029D1*
X3688899Y857779D1*
X3686617Y850802D1*
X3683265Y844270D1*
X3678927Y838347D1*
X3673711Y833181D1*
X3667747Y828901D1*
X3661183Y825612D1*
X3654184Y823397D1*
X3646923Y822312D1*
X3639582Y822383D1*
X3632344Y823608D1*
X3625388Y825957D1*
X3618889Y829372D1*
X3613009Y833767D1*
X3607893Y839033D1*
X3603670Y845038D1*
X3600445Y851633D1*
X3598298Y858654D1*
X3597283Y865925D1*
X3597425Y873265D1*
X3598720Y880491D1*
X3601136Y887423D1*
X3604613Y893889D1*
X3609065Y899727D1*
X3614380Y904791D1*
X3618500Y907772D1*
X3607942Y909508D1*
X3590106Y913886D1*
X3572784Y919987D1*
X3556141Y927752D1*
X3540336Y937107D1*
X3525523Y947962D1*
X3511841Y960213D1*
X3499423Y973744D1*
X3488386Y988423D1*
X3478838Y1004112D1*
X3470870Y1020658D1*
X3464557Y1037904D1*
X3459960Y1055685D1*
X3457124Y1073830D1*
X3456075Y1092166D1*
X3456824Y1110516D1*
X3459363Y1128705D1*
X3463668Y1146558D1*
X3469698Y1163906D1*
X3477395Y1180580D1*
X3486685Y1196422D1*
X3497480Y1211281D1*
X3509675Y1225012D1*
X3523155Y1237486D1*
X3537789Y1248582D1*
X3553438Y1258194D1*
X3569952Y1266230D1*
X3587172Y1272614D1*
X3604934Y1277283D1*
X3618552Y1279582D1*
X3613009Y1283767D1*
X3607893Y1289033D1*
X3603670Y1295038D1*
X3600445Y1301633D1*
X3598298Y1308654D1*
X3597283Y1315925D1*
X3597425Y1323265D1*
X3598720Y1330491D1*
X3601136Y1337423D1*
X3604613Y1343889D1*
X3609065Y1349727D1*
X3614380Y1354791D1*
X3620426Y1358956D1*
X3627052Y1362118D1*
X3634092Y1364197D1*
X3641373Y1365142D1*
X3648711Y1364929D1*
X3655925Y1363564D1*
X3662833Y1361081D1*
X3669265Y1357542D1*
X3675060Y1353034D1*
X3680073Y1347670D1*
X3684179Y1341585D1*
X3687276Y1334929D1*
X3689287Y1327868D1*
X3690162Y1320579D1*
X3689874Y1313201D1*
X3688433Y1306002D1*
X3685877Y1299120D1*
X3682270Y1292726D1*
X3677701Y1286980D1*
X3672285Y1282024D1*
X3668906Y1279632D1*
X3686938Y1276281D1*
X3704581Y1271180D1*
X3721640Y1264378D1*
X3737952Y1255940D1*
X3753362Y1245949D1*
X3767721Y1234499D1*
X3780892Y1221700D1*
X3792748Y1207674D1*
X3803177Y1192557D1*
X3812077Y1176492D1*
X3819365Y1159635D1*
X3824969Y1142145D1*
X3828837Y1124192D1*
X3830931Y1105946D1*
X3831331Y1093700D1*
X3831106Y1084517D1*
Y3634517D2*
X3829311Y3616240D1*
X3825737Y3598226D1*
X3820420Y3580647D1*
X3813409Y3563672D1*
X3804772Y3547465D1*
X3794592Y3532179D1*
X3782967Y3517961D1*
X3770007Y3504948D1*
X3755837Y3493265D1*
X3740593Y3483023D1*
X3724421Y3474320D1*
X3707475Y3467240D1*
X3689918Y3461850D1*
X3680433Y3459712D1*
X3684179Y3454085D1*
X3687276Y3447429D1*
X3689287Y3440368D1*
X3690162Y3433079D1*
X3689874Y3425701D1*
X3688433Y3418502D1*
X3685877Y3411620D1*
X3682270Y3405226D1*
X3677701Y3399480D1*
X3672285Y3394524D1*
X3666156Y3390482D1*
X3659468Y3387455D1*
X3652386Y3385519D1*
X3645088Y3384721D1*
X3637756Y3385082D1*
X3630571Y3386592D1*
X3623714Y3389214D1*
X3617355Y3392883D1*
X3611653Y3397507D1*
X3606749Y3402971D1*
X3602767Y3409138D1*
X3599805Y3415855D1*
X3597937Y3422955D1*
X3597209Y3430260D1*
X3597641Y3437589D1*
X3599221Y3444759D1*
X3601909Y3451590D1*
X3605639Y3457913D1*
X3606969Y3459705D1*
X3590106Y3463886D1*
X3572784Y3469987D1*
X3556141Y3477752D1*
X3540336Y3487107D1*
X3525523Y3497962D1*
X3511841Y3510213D1*
X3499423Y3523744D1*
X3488386Y3538423D1*
X3478838Y3554112D1*
X3470870Y3570658D1*
X3464557Y3587904D1*
X3459960Y3605685D1*
X3457124Y3623830D1*
X3456670Y3629373D1*
X3452701Y3624480D1*
X3447285Y3619524D1*
X3441156Y3615482D1*
X3434468Y3612455D1*
X3427386Y3610519D1*
X3420088Y3609721D1*
X3412756Y3610082D1*
X3405571Y3611592D1*
X3398714Y3614214D1*
X3392355Y3617883D1*
X3386653Y3622507D1*
X3381749Y3627971D1*
X3377767Y3634138D1*
X3374805Y3640855D1*
X3372937Y3647955D1*
X3372209Y3655260D1*
X3372641Y3662589D1*
X3374221Y3669759D1*
X3376909Y3676590D1*
X3380639Y3682913D1*
X3385318Y3688571D1*
X3390828Y3693421D1*
X3397034Y3697344D1*
X3403780Y3700241D1*
X3410897Y3702041D1*
X3418209Y3702697D1*
X3425533Y3702195D1*
X3432687Y3700546D1*
X3439492Y3697792D1*
X3445779Y3694001D1*
X3451391Y3689268D1*
X3456189Y3683711D1*
X3459366Y3678737D1*
X3463668Y3696558D1*
X3469698Y3713906D1*
X3477395Y3730580D1*
X3486685Y3746422D1*
X3497480Y3761281D1*
X3509675Y3775012D1*
X3523155Y3787486D1*
X3537789Y3798582D1*
X3553438Y3808194D1*
X3569952Y3816230D1*
X3587172Y3822614D1*
X3604934Y3827283D1*
X3623068Y3830193D1*
X3641398Y3831317D1*
X3659751Y3830643D1*
X3677951Y3828179D1*
X3695822Y3823947D1*
X3713193Y3817988D1*
X3729899Y3810359D1*
X3745780Y3801133D1*
X3760682Y3790400D1*
X3774463Y3778260D1*
X3786992Y3764832D1*
X3798147Y3750243D1*
X3807824Y3734634D1*
X3815927Y3718153D1*
X3822381Y3700959D1*
X3827123Y3683216D1*
X3830107Y3665095D1*
X3831306Y3646769D1*
X3831106Y3634517D1*
X827407Y3605683D2*
X823294Y3589371D1*
X817122Y3572074D1*
X809289Y3555463D1*
X799869Y3539697D1*
X788954Y3524928D1*
X776646Y3511296D1*
X763065Y3498933D1*
X748341Y3487957D1*
X732614Y3478473D1*
X716035Y3470572D1*
X698763Y3464330D1*
X680963Y3459806D1*
X680433Y3459712D1*
X684179Y3454085D1*
X687276Y3447429D1*
X689287Y3440368D1*
X690162Y3433079D1*
X689874Y3425701D1*
X688433Y3418502D1*
X685877Y3411620D1*
X682270Y3405226D1*
X677701Y3399480D1*
X672285Y3394524D1*
X666156Y3390482D1*
X659468Y3387455D1*
X652386Y3385519D1*
X645088Y3384721D1*
X637756Y3385082D1*
X630571Y3386592D1*
X623714Y3389214D1*
X617355Y3392883D1*
X611653Y3397507D1*
X606749Y3402971D1*
X602767Y3409138D1*
X599805Y3415855D1*
X597937Y3422955D1*
X597209Y3430260D1*
X597641Y3437589D1*
X599221Y3444759D1*
X601909Y3451590D1*
X605639Y3457913D1*
X606969Y3459705D1*
X590106Y3463886D1*
X572784Y3469987D1*
X556141Y3477752D1*
X540336Y3487107D1*
X525523Y3497962D1*
X511841Y3510213D1*
X499423Y3523744D1*
X488386Y3538423D1*
X478838Y3554112D1*
X470870Y3570658D1*
X464557Y3587904D1*
X459960Y3605685D1*
X457124Y3623830D1*
X456075Y3642166D1*
X456824Y3660516D1*
X459363Y3678705D1*
X463668Y3696558D1*
X469698Y3713906D1*
X477395Y3730580D1*
X486685Y3746422D1*
X497480Y3761281D1*
X509675Y3775012D1*
X523155Y3787486D1*
X537789Y3798582D1*
X553438Y3808194D1*
X569952Y3816230D1*
X587172Y3822614D1*
X604934Y3827283D1*
X623068Y3830193D1*
X641398Y3831317D1*
X659751Y3830643D1*
X677951Y3828179D1*
X695822Y3823947D1*
X713193Y3817988D1*
X729899Y3810359D1*
X745780Y3801133D1*
X760682Y3790400D1*
X774463Y3778260D1*
X786992Y3764832D1*
X792681Y3757758D1*
X792700Y3855166D1*
X432184Y3855200D1*
X432200Y432184D1*
X3855216Y432200D1*
X3855200Y3855216D1*
X1044727Y3855200D1*
X1044662Y3642719D1*
X1042252Y3630357D1*
X1041127Y3627642D1*
X1033763Y3616830D1*
X1031525Y3614920D1*
X1021384Y3608328D1*
X1018586Y3607419D1*
X1006687Y3605210D1*
X829241Y3605355D1*
X1146859Y1599728D2*
X1249728D1*
Y1578448D1*
X1254083Y1583317D1*
X1260768Y1589027D1*
X1268264Y1593621D1*
X1276387Y1596985D1*
X1284935Y1599038D1*
X1293700Y1599728D1*
X1302465Y1599038D1*
X1311013Y1596985D1*
X1319136Y1593621D1*
X1326632Y1589027D1*
X1333317Y1583317D1*
X1339027Y1576632D1*
X1343700Y1568964D1*
X1348373Y1576632D1*
X1354083Y1583317D1*
X1360768Y1589027D1*
X1368264Y1593621D1*
X1376387Y1596985D1*
X1384935Y1599038D1*
X1393700Y1599728D1*
X1402465Y1599038D1*
X1411013Y1596985D1*
X1419136Y1593621D1*
X1426632Y1589027D1*
X1433317Y1583317D1*
X1439027Y1576632D1*
X1443621Y1569136D1*
X1446985Y1561013D1*
X1449038Y1552465D1*
X1449728Y1543700D1*
X1449038Y1534935D1*
X1446985Y1526387D1*
X1443621Y1518264D1*
X1439027Y1510768D1*
X1433317Y1504083D1*
X1426632Y1498373D1*
X1419136Y1493779D1*
X1411013Y1490415D1*
X1402465Y1488362D1*
X1393700Y1487672D1*
X1384935Y1488362D1*
X1376387Y1490415D1*
X1368264Y1493779D1*
X1360768Y1498373D1*
X1354083Y1504083D1*
X1348373Y1510768D1*
X1343700Y1518436D1*
X1339027Y1510768D1*
X1333317Y1504083D1*
X1326632Y1498373D1*
X1319136Y1493779D1*
X1311013Y1490415D1*
X1302465Y1488362D1*
X1293700Y1487672D1*
X1284935Y1488362D1*
X1276387Y1490415D1*
X1268264Y1493779D1*
X1260768Y1498373D1*
X1254083Y1504083D1*
X1249724Y1509054D1*
X1249728Y1487672D1*
X1235194D1*
X1235200Y1460915D1*
X1260878Y1435212D1*
X1346956Y1435072D1*
X1353388Y1434053D1*
X1359581Y1432041D1*
X1365384Y1429085D1*
X1370652Y1425257D1*
X1399028Y1397062D1*
X1560888Y1235202D1*
X1796956Y1235072D1*
X1803388Y1234053D1*
X1809581Y1232041D1*
X1815384Y1229085D1*
X1820652Y1225257D1*
X1849028Y1197062D1*
X1975257Y1070652D1*
X1979085Y1065384D1*
X1982041Y1059581D1*
X1984053Y1053388D1*
X1985072Y1046956D1*
X1985200Y1043687D1*
X1989632Y1035200D1*
X2172964D1*
X2172200Y1043700D1*
X2172772Y1050974D1*
X2174476Y1058069D1*
X2177268Y1064811D1*
X2181081Y1071032D1*
X2185713Y1076465D1*
X2185704Y1360909D1*
X2181081Y1366368D1*
X2177268Y1372589D1*
X2174476Y1379331D1*
X2172772Y1386426D1*
X2172200Y1393700D1*
X2172772Y1400974D1*
X2174476Y1408069D1*
X2175448Y1410705D1*
X1807384Y1410704D1*
X1796403Y1399739D1*
X1799728Y1399727D1*
Y1378448D1*
X1804083Y1383317D1*
X1810768Y1389027D1*
X1818264Y1393621D1*
X1826387Y1396985D1*
X1834935Y1399038D1*
X1843700Y1399728D1*
X1852465Y1399038D1*
X1861013Y1396985D1*
X1869136Y1393621D1*
X1876632Y1389027D1*
X1883317Y1383317D1*
X1889027Y1376632D1*
X1893700Y1368964D1*
X1898373Y1376632D1*
X1904083Y1383317D1*
X1910768Y1389027D1*
X1918264Y1393621D1*
X1926387Y1396985D1*
X1934935Y1399038D1*
X1943700Y1399728D1*
X1952465Y1399038D1*
X1961013Y1396985D1*
X1969136Y1393621D1*
X1976632Y1389027D1*
X1983317Y1383317D1*
X1989027Y1376632D1*
X1993621Y1369136D1*
X1996985Y1361013D1*
X1999038Y1352465D1*
X1999728Y1343700D1*
X1999038Y1334935D1*
X1996985Y1326387D1*
X1993621Y1318264D1*
X1989027Y1310768D1*
X1983317Y1304083D1*
X1976632Y1298373D1*
X1969136Y1293779D1*
X1961013Y1290415D1*
X1952465Y1288362D1*
X1943700Y1287672D1*
X1934935Y1288362D1*
X1926387Y1290415D1*
X1918264Y1293779D1*
X1910768Y1298373D1*
X1904083Y1304083D1*
X1898373Y1310768D1*
X1893700Y1318436D1*
X1889027Y1310768D1*
X1883317Y1304083D1*
X1876632Y1298373D1*
X1869136Y1293779D1*
X1861013Y1290415D1*
X1852465Y1288362D1*
X1843700Y1287672D1*
X1834935Y1288362D1*
X1826387Y1290415D1*
X1818264Y1293779D1*
X1810768Y1298373D1*
X1804083Y1304083D1*
X1799724Y1309054D1*
X1799728Y1287672D1*
X1687673D1*
Y1399727D1*
X1691010D1*
X1568610Y1522271D1*
X1565566Y1526460D1*
X1563216Y1531073D1*
X1561616Y1535997D1*
X1560806Y1541111D1*
X1560704Y1608004D1*
Y1845522D1*
X1555779Y1849300D1*
X1549300Y1855779D1*
X1543713Y1863551D1*
X1538100Y1855779D1*
X1531621Y1849300D1*
X1524209Y1843915D1*
X1516045Y1839755D1*
X1507331Y1836924D1*
X1498281Y1835490D1*
X1489119D1*
X1480069Y1836924D1*
X1471355Y1839755D1*
X1463191Y1843915D1*
X1455779Y1849300D1*
X1449300Y1855779D1*
X1443713Y1863551D1*
X1438100Y1855779D1*
X1431621Y1849300D1*
X1424209Y1843915D1*
X1416045Y1839755D1*
X1407331Y1836924D1*
X1398281Y1835490D1*
X1389119D1*
X1380069Y1836924D1*
X1371355Y1839755D1*
X1363191Y1843915D1*
X1355779Y1849300D1*
X1349300Y1855779D1*
X1343713Y1863551D1*
X1339800Y1857864D1*
X1334936Y1852361D1*
X1329421Y1847512D1*
X1323340Y1843393D1*
X1316791Y1840070D1*
X1309876Y1837596D1*
X1302705Y1836009D1*
X1295392Y1835335D1*
X1288052Y1835584D1*
X1280801Y1836753D1*
X1273755Y1838822D1*
X1267024Y1841760D1*
X1260715Y1845520D1*
X1254928Y1850042D1*
X1249754Y1855254D1*
X1245275Y1861075D1*
X1243703Y1863553D1*
X1238100Y1855779D1*
X1231621Y1849300D1*
X1224209Y1843915D1*
X1216045Y1839755D1*
X1207331Y1836924D1*
X1198281Y1835490D1*
X1189119D1*
X1180069Y1836924D1*
X1171355Y1839755D1*
X1163191Y1843915D1*
X1155779Y1849300D1*
X1149300Y1855779D1*
X1143713Y1863551D1*
X1138100Y1855779D1*
X1131621Y1849300D1*
X1124209Y1843915D1*
X1116045Y1839755D1*
X1107331Y1836924D1*
X1098281Y1835490D1*
X1089119D1*
X1080069Y1836924D1*
X1071355Y1839755D1*
X1063191Y1843915D1*
X1055779Y1849300D1*
X1052084Y1852767D1*
X1052090Y1835310D1*
X935310D1*
Y1952090D1*
X1052090D1*
Y1934686D1*
X1059379Y1940938D1*
X1067192Y1945726D1*
X1075657Y1949232D1*
X1084566Y1951371D1*
X1093700Y1952090D1*
X1102834Y1951371D1*
X1111743Y1949232D1*
X1120208Y1945726D1*
X1128021Y1940938D1*
X1134988Y1934988D1*
X1140938Y1928021D1*
X1143687Y1923849D1*
X1149300Y1931621D1*
X1155779Y1938100D1*
X1163191Y1943485D1*
X1171355Y1947645D1*
X1180069Y1950476D1*
X1189119Y1951910D1*
X1198281D1*
X1207331Y1950476D1*
X1216045Y1947645D1*
X1224209Y1943485D1*
X1231621Y1938100D1*
X1238100Y1931621D1*
X1243687Y1923849D1*
X1247779Y1929764D1*
X1252669Y1935243D1*
X1258209Y1940065D1*
X1264310Y1944154D1*
X1270876Y1947444D1*
X1277803Y1949884D1*
X1284982Y1951435D1*
X1292298Y1952073D1*
X1299637Y1951787D1*
X1306882Y1950582D1*
X1313918Y1948478D1*
X1320634Y1945507D1*
X1326924Y1941716D1*
X1332689Y1937165D1*
X1337837Y1931927D1*
X1342286Y1926084D1*
X1343699Y1923844D1*
X1349300Y1931621D1*
X1355779Y1938100D1*
X1363191Y1943485D1*
X1371355Y1947645D1*
X1380069Y1950476D1*
X1389119Y1951910D1*
X1398281D1*
X1407331Y1950476D1*
X1416045Y1947645D1*
X1424209Y1943485D1*
X1431621Y1938100D1*
X1438100Y1931621D1*
X1443687Y1923849D1*
X1449300Y1931621D1*
X1455779Y1938100D1*
X1463191Y1943485D1*
X1471355Y1947645D1*
X1480069Y1950476D1*
X1489119Y1951910D1*
X1498281D1*
X1507331Y1950476D1*
X1516045Y1947645D1*
X1524209Y1943485D1*
X1531621Y1938100D1*
X1538100Y1931621D1*
X1543687Y1923849D1*
X1549300Y1931621D1*
X1555779Y1938100D1*
X1563191Y1943485D1*
X1571355Y1947645D1*
X1580069Y1950476D1*
X1589119Y1951910D1*
X1598281D1*
X1607331Y1950476D1*
X1616045Y1947645D1*
X1624209Y1943485D1*
X1631621Y1938100D1*
X1638100Y1931621D1*
X1643687Y1923849D1*
X1649300Y1931621D1*
X1655779Y1938100D1*
X1663191Y1943485D1*
X1671355Y1947645D1*
X1680069Y1950476D1*
X1689119Y1951910D1*
X1698281D1*
X1707331Y1950476D1*
X1716045Y1947645D1*
X1724209Y1943485D1*
X1731621Y1938100D1*
X1738100Y1931621D1*
X1743687Y1923849D1*
X1749300Y1931621D1*
X1755779Y1938100D1*
X1763191Y1943485D1*
X1771355Y1947645D1*
X1780069Y1950476D1*
X1789119Y1951910D1*
X1798281D1*
X1807331Y1950476D1*
X1816045Y1947645D1*
X1824209Y1943485D1*
X1831621Y1938100D1*
X1838100Y1931621D1*
X1843687Y1923849D1*
X1849300Y1931621D1*
X1855779Y1938100D1*
X1863191Y1943485D1*
X1871355Y1947645D1*
X1880069Y1950476D1*
X1889119Y1951910D1*
X1898281D1*
X1907331Y1950476D1*
X1916045Y1947645D1*
X1924209Y1943485D1*
X1931621Y1938100D1*
X1938100Y1931621D1*
X1943687Y1923849D1*
X1949300Y1931621D1*
X1955779Y1938100D1*
X1963191Y1943485D1*
X1971355Y1947645D1*
X1980069Y1950476D1*
X1989119Y1951910D1*
X1998281D1*
X2007331Y1950476D1*
X2016045Y1947645D1*
X2024209Y1943485D1*
X2031621Y1938100D1*
X2038100Y1931621D1*
X2043687Y1923849D1*
X2049300Y1931621D1*
X2055779Y1938100D1*
X2063191Y1943485D1*
X2071355Y1947645D1*
X2080069Y1950476D1*
X2089119Y1951910D1*
X2098281D1*
X2107331Y1950476D1*
X2116045Y1947645D1*
X2124209Y1943485D1*
X2131621Y1938100D1*
X2138100Y1931621D1*
X2143687Y1923849D1*
X2149300Y1931621D1*
X2155779Y1938100D1*
X2163191Y1943485D1*
X2171355Y1947645D1*
X2180069Y1950476D1*
X2189119Y1951910D1*
X2198281D1*
X2207331Y1950476D1*
X2216045Y1947645D1*
X2224209Y1943485D1*
X2231621Y1938100D1*
X2238100Y1931621D1*
X2243687Y1923849D1*
X2249300Y1931621D1*
X2255779Y1938100D1*
X2263191Y1943485D1*
X2271355Y1947645D1*
X2280069Y1950476D1*
X2289119Y1951910D1*
X2298281D1*
X2307331Y1950476D1*
X2316045Y1947645D1*
X2324209Y1943485D1*
X2331621Y1938100D1*
X2338100Y1931621D1*
X2343687Y1923849D1*
X2349300Y1931621D1*
X2355779Y1938100D1*
X2363191Y1943485D1*
X2371355Y1947645D1*
X2380069Y1950476D1*
X2389119Y1951910D1*
X2398281D1*
X2407331Y1950476D1*
X2416045Y1947645D1*
X2424209Y1943485D1*
X2431621Y1938100D1*
X2438100Y1931621D1*
X2443687Y1923849D1*
X2449300Y1931621D1*
X2455779Y1938100D1*
X2463191Y1943485D1*
X2471355Y1947645D1*
X2480069Y1950476D1*
X2489119Y1951910D1*
X2498281D1*
X2507331Y1950476D1*
X2516045Y1947645D1*
X2524209Y1943485D1*
X2531621Y1938100D1*
X2538100Y1931621D1*
X2543485Y1924209D1*
X2547645Y1916045D1*
X2550476Y1907331D1*
X2551910Y1898281D1*
Y1889119D1*
X2550476Y1880069D1*
X2547645Y1871355D1*
X2543485Y1863191D1*
X2538100Y1855779D1*
X2531621Y1849300D1*
X2524209Y1843915D1*
X2516045Y1839755D1*
X2507331Y1836924D1*
X2498281Y1835490D1*
X2489119D1*
X2480069Y1836924D1*
X2471355Y1839755D1*
X2463191Y1843915D1*
X2455779Y1849300D1*
X2449300Y1855779D1*
X2443713Y1863551D1*
X2438100Y1855779D1*
X2431621Y1849300D1*
X2424209Y1843915D1*
X2416045Y1839755D1*
X2407331Y1836924D1*
X2398281Y1835490D1*
X2389119D1*
X2380069Y1836924D1*
X2371355Y1839755D1*
X2363191Y1843915D1*
X2355779Y1849300D1*
X2349300Y1855779D1*
X2343713Y1863551D1*
X2338100Y1855779D1*
X2331621Y1849300D1*
X2324209Y1843915D1*
X2316045Y1839755D1*
X2307331Y1836924D1*
X2298281Y1835490D1*
X2289119D1*
X2280069Y1836924D1*
X2271355Y1839755D1*
X2263191Y1843915D1*
X2255779Y1849300D1*
X2249300Y1855779D1*
X2243713Y1863551D1*
X2238100Y1855779D1*
X2231621Y1849300D1*
X2224209Y1843915D1*
X2216045Y1839755D1*
X2207331Y1836924D1*
X2198281Y1835490D1*
X2189119D1*
X2180069Y1836924D1*
X2171355Y1839755D1*
X2163191Y1843915D1*
X2155779Y1849300D1*
X2149300Y1855779D1*
X2143713Y1863551D1*
X2138100Y1855779D1*
X2131621Y1849300D1*
X2124209Y1843915D1*
X2116045Y1839755D1*
X2107331Y1836924D1*
X2098281Y1835490D1*
X2089119D1*
X2080069Y1836924D1*
X2071355Y1839755D1*
X2063191Y1843915D1*
X2055779Y1849300D1*
X2049300Y1855779D1*
X2043713Y1863551D1*
X2038100Y1855779D1*
X2031621Y1849300D1*
X2024209Y1843915D1*
X2016045Y1839755D1*
X2007331Y1836924D1*
X1998281Y1835490D1*
X1989119D1*
X1980069Y1836924D1*
X1971355Y1839755D1*
X1963191Y1843915D1*
X1955779Y1849300D1*
X1949300Y1855779D1*
X1943713Y1863551D1*
X1938100Y1855779D1*
X1931621Y1849300D1*
X1924209Y1843915D1*
X1916045Y1839755D1*
X1907331Y1836924D1*
X1898281Y1835490D1*
X1889119D1*
X1880069Y1836924D1*
X1871355Y1839755D1*
X1863191Y1843915D1*
X1855779Y1849300D1*
X1849300Y1855779D1*
X1843713Y1863551D1*
X1838100Y1855779D1*
X1831621Y1849300D1*
X1824209Y1843915D1*
X1816045Y1839755D1*
X1807331Y1836924D1*
X1798281Y1835490D1*
X1789119D1*
X1780069Y1836924D1*
X1771355Y1839755D1*
X1763191Y1843915D1*
X1755779Y1849300D1*
X1749300Y1855779D1*
X1743713Y1863551D1*
X1738100Y1855779D1*
X1731621Y1849300D1*
X1724209Y1843915D1*
X1716045Y1839755D1*
X1707331Y1836924D1*
X1698281Y1835490D1*
X1689119D1*
X1680069Y1836924D1*
X1671355Y1839755D1*
X1663191Y1843915D1*
X1655779Y1849300D1*
X1649300Y1855779D1*
X1643713Y1863551D1*
X1638100Y1855779D1*
X1631621Y1849300D1*
X1626695Y1845576D1*
X1626696Y1557358D1*
X1687648Y1496416D1*
X1687673Y1599727D1*
X1799728D1*
Y1578448D1*
X1804083Y1583317D1*
X1810768Y1589027D1*
X1818264Y1593621D1*
X1826387Y1596985D1*
X1834935Y1599038D1*
X1843700Y1599728D1*
X1852465Y1599038D1*
X1861013Y1596985D1*
X1869136Y1593621D1*
X1876632Y1589027D1*
X1883317Y1583317D1*
X1889027Y1576632D1*
X1893700Y1568964D1*
X1898373Y1576632D1*
X1904083Y1583317D1*
X1910768Y1589027D1*
X1918264Y1593621D1*
X1926387Y1596985D1*
X1934935Y1599038D1*
X1943700Y1599728D1*
X1952465Y1599038D1*
X1961013Y1596985D1*
X1969136Y1593621D1*
X1976632Y1589027D1*
X1983317Y1583317D1*
X1989027Y1576632D1*
X1993621Y1569136D1*
X1996985Y1561013D1*
X1998558Y1554875D1*
X2000740Y1561495D1*
X2004052Y1567996D1*
X2008341Y1573899D1*
X2010713Y1576465D1*
X2010806Y1646289D1*
X2011616Y1651403D1*
X2013216Y1656327D1*
X2015566Y1660940D1*
X2018610Y1665129D1*
X2065838Y1712502D1*
X2122271Y1768790D1*
X2126460Y1771834D1*
X2131073Y1774184D1*
X2135997Y1775784D1*
X2141111Y1776594D1*
X2208004Y1776696D1*
X3030004D1*
X3110725Y1857388D1*
X3110704Y2280016D1*
X2730041Y2660696D1*
X2491111Y2660806D1*
X2485997Y2661616D1*
X2481073Y2663216D1*
X2476460Y2665566D1*
X2472271Y2668610D1*
X2424898Y2715838D1*
X2368610Y2772271D1*
X2365566Y2776460D1*
X2363216Y2781073D1*
X2361616Y2785997D1*
X2360806Y2791111D1*
X2360704Y2838878D1*
X2356082Y2841923D1*
X2348445Y2848445D1*
X2343734Y2853785D1*
X2338955Y2848445D1*
X2331318Y2841923D1*
X2326712Y2838891D1*
X2326696Y2657403D1*
X2357351Y2626713D1*
X2696289Y2626594D1*
X2701403Y2625784D1*
X2706327Y2624184D1*
X2710940Y2621834D1*
X2715129Y2618790D1*
X2762502Y2571562D1*
X3068790Y2265129D1*
X3071834Y2260940D1*
X3074184Y2256327D1*
X3075784Y2251403D1*
X3076594Y2246289D1*
X3076696Y2179396D1*
Y1926448D1*
X3081319Y1921032D1*
X3085132Y1914811D1*
X3087924Y1908069D1*
X3089628Y1900974D1*
X3090200Y1893700D1*
X3089628Y1886426D1*
X3087924Y1879331D1*
X3085132Y1872589D1*
X3081319Y1866368D1*
X3076580Y1860820D1*
X3071032Y1856081D1*
X3064811Y1852268D1*
X3058069Y1849476D1*
X3050974Y1847772D1*
X3043700Y1847200D1*
X3036426Y1847772D1*
X3029331Y1849476D1*
X3022589Y1852268D1*
X3016368Y1856081D1*
X3010820Y1860820D1*
X3006081Y1866368D1*
X3002268Y1872589D1*
X2999476Y1879331D1*
X2997772Y1886426D1*
X2997200Y1893700D1*
X2997772Y1900974D1*
X2999476Y1908069D1*
X3002268Y1914811D1*
X3006081Y1921032D1*
X3010713Y1926465D1*
X3010704Y2050406D1*
X3004555Y2048485D1*
X2997348Y2047343D1*
X2990052D1*
X2982845Y2048485D1*
X2976695Y2050448D1*
X2976696Y2026466D1*
X2981319Y2021032D1*
X2985132Y2014811D1*
X2987924Y2008069D1*
X2989628Y2000974D1*
X2990200Y1993700D1*
X2989628Y1986426D1*
X2987924Y1979331D1*
X2985132Y1972589D1*
X2981319Y1966368D1*
X2976580Y1960820D1*
X2971032Y1956081D1*
X2964811Y1952268D1*
X2958069Y1949476D1*
X2950974Y1947772D1*
X2943700Y1947200D1*
X2936426Y1947772D1*
X2929331Y1949476D1*
X2922589Y1952268D1*
X2916368Y1956081D1*
X2910820Y1960820D1*
X2906081Y1966368D1*
X2902268Y1972589D1*
X2899476Y1979331D1*
X2897772Y1986426D1*
X2897200Y1993700D1*
X2897772Y2000974D1*
X2899476Y2008069D1*
X2902268Y2014811D1*
X2906081Y2021032D1*
X2910713Y2026465D1*
X2910704Y2130024D1*
X2830012Y2210725D1*
X2700199Y2210704D1*
X2705665Y2205665D1*
X2710335Y2200612D1*
X2714595Y2195208D1*
X2718418Y2189487D1*
X2721780Y2183484D1*
X2724661Y2177235D1*
X2727042Y2170780D1*
X2728910Y2164157D1*
X2730252Y2157409D1*
X2731061Y2150575D1*
X2731331Y2143700D1*
X2731061Y2136825D1*
X2730252Y2129991D1*
X2728910Y2123243D1*
X2727042Y2116620D1*
X2724661Y2110165D1*
X2721780Y2103916D1*
X2718418Y2097913D1*
X2714595Y2092192D1*
X2710335Y2086788D1*
X2705665Y2081735D1*
X2700612Y2077065D1*
X2695208Y2072805D1*
X2689487Y2068982D1*
X2683484Y2065620D1*
X2677235Y2062739D1*
X2670780Y2060358D1*
X2664157Y2058490D1*
X2657409Y2057148D1*
X2650575Y2056339D1*
X2643700Y2056069D1*
X2636825Y2056339D1*
X2629991Y2057148D1*
X2623243Y2058490D1*
X2616620Y2060358D1*
X2610165Y2062739D1*
X2603916Y2065620D1*
X2597913Y2068982D1*
X2592192Y2072805D1*
X2586788Y2077065D1*
X2581735Y2081735D1*
X2577065Y2086788D1*
X2572805Y2092192D1*
X2568982Y2097913D1*
X2565620Y2103916D1*
X2562739Y2110165D1*
X2560358Y2116620D1*
X2558490Y2123243D1*
X2557148Y2129991D1*
X2556339Y2136825D1*
X2556069Y2143700D1*
X2556339Y2150575D1*
X2557148Y2157409D1*
X2558490Y2164157D1*
X2560358Y2170780D1*
X2562739Y2177235D1*
X2565620Y2183484D1*
X2568982Y2189487D1*
X2572805Y2195208D1*
X2577065Y2200612D1*
X2581735Y2205665D1*
X2587274Y2210718D1*
X2257388Y2210704D1*
X2226713Y2180049D1*
X2226696Y2148522D1*
X2231318Y2145477D1*
X2238955Y2138955D1*
X2243666Y2133615D1*
X2248445Y2138955D1*
X2256082Y2145477D1*
X2264645Y2150724D1*
X2273923Y2154568D1*
X2283688Y2156912D1*
X2293700Y2157700D1*
X2303712Y2156912D1*
X2313477Y2154568D1*
X2322755Y2150724D1*
X2331318Y2145477D1*
X2338955Y2138955D1*
X2343666Y2133615D1*
X2348445Y2138955D1*
X2356082Y2145477D1*
X2364645Y2150724D1*
X2373923Y2154568D1*
X2383688Y2156912D1*
X2393700Y2157700D1*
X2403712Y2156912D1*
X2413477Y2154568D1*
X2422755Y2150724D1*
X2431318Y2145477D1*
X2438955Y2138955D1*
X2443666Y2133615D1*
X2448445Y2138955D1*
X2456082Y2145477D1*
X2464645Y2150724D1*
X2473923Y2154568D1*
X2483688Y2156912D1*
X2493700Y2157700D1*
X2503712Y2156912D1*
X2513477Y2154568D1*
X2522755Y2150724D1*
X2531318Y2145477D1*
X2538955Y2138955D1*
X2545477Y2131318D1*
X2550724Y2122755D1*
X2554568Y2113477D1*
X2556912Y2103712D1*
X2557700Y2093700D1*
X2556912Y2083688D1*
X2554568Y2073923D1*
X2550724Y2064645D1*
X2545477Y2056082D1*
X2538955Y2048445D1*
X2531318Y2041923D1*
X2522755Y2036676D1*
X2513477Y2032832D1*
X2503712Y2030488D1*
X2493700Y2029700D1*
X2483688Y2030488D1*
X2473923Y2032832D1*
X2464645Y2036676D1*
X2456082Y2041923D1*
X2448445Y2048445D1*
X2443734Y2053785D1*
X2438955Y2048445D1*
X2431318Y2041923D1*
X2422755Y2036676D1*
X2413477Y2032832D1*
X2403712Y2030488D1*
X2393700Y2029700D1*
X2383688Y2030488D1*
X2373923Y2032832D1*
X2364645Y2036676D1*
X2356082Y2041923D1*
X2348445Y2048445D1*
X2343734Y2053785D1*
X2338955Y2048445D1*
X2331318Y2041923D1*
X2322755Y2036676D1*
X2313477Y2032832D1*
X2303712Y2030488D1*
X2293700Y2029700D1*
X2283688Y2030488D1*
X2273923Y2032832D1*
X2264645Y2036676D1*
X2256082Y2041923D1*
X2248445Y2048445D1*
X2243734Y2053785D1*
X2238955Y2048445D1*
X2231318Y2041923D1*
X2222755Y2036676D1*
X2213477Y2032832D1*
X2203712Y2030488D1*
X2193700Y2029700D1*
X2183688Y2030488D1*
X2173923Y2032832D1*
X2164645Y2036676D1*
X2156082Y2041923D1*
X2148445Y2048445D1*
X2143734Y2053785D1*
X2138955Y2048445D1*
X2131318Y2041923D1*
X2122755Y2036676D1*
X2113477Y2032832D1*
X2103712Y2030488D1*
X2093700Y2029700D1*
X2083688Y2030488D1*
X2073923Y2032832D1*
X2064645Y2036676D1*
X2056082Y2041923D1*
X2048445Y2048445D1*
X2043734Y2053785D1*
X2038955Y2048445D1*
X2031318Y2041923D1*
X2022755Y2036676D1*
X2013477Y2032832D1*
X2003712Y2030488D1*
X1993700Y2029700D1*
X1983688Y2030488D1*
X1973923Y2032832D1*
X1964645Y2036676D1*
X1956082Y2041923D1*
X1948445Y2048445D1*
X1943734Y2053785D1*
X1938955Y2048445D1*
X1931318Y2041923D1*
X1922755Y2036676D1*
X1913477Y2032832D1*
X1903712Y2030488D1*
X1893700Y2029700D1*
X1883688Y2030488D1*
X1873923Y2032832D1*
X1864645Y2036676D1*
X1856082Y2041923D1*
X1848445Y2048445D1*
X1843734Y2053785D1*
X1838955Y2048445D1*
X1831318Y2041923D1*
X1822755Y2036676D1*
X1813477Y2032832D1*
X1803712Y2030488D1*
X1793700Y2029700D1*
X1783688Y2030488D1*
X1773923Y2032832D1*
X1764645Y2036676D1*
X1756082Y2041923D1*
X1748445Y2048445D1*
X1743734Y2053785D1*
X1738955Y2048445D1*
X1731318Y2041923D1*
X1722755Y2036676D1*
X1713477Y2032832D1*
X1703712Y2030488D1*
X1693700Y2029700D1*
X1683688Y2030488D1*
X1673923Y2032832D1*
X1664645Y2036676D1*
X1656082Y2041923D1*
X1648445Y2048445D1*
X1643734Y2053785D1*
X1638955Y2048445D1*
X1631318Y2041923D1*
X1622755Y2036676D1*
X1613477Y2032832D1*
X1603712Y2030488D1*
X1593700Y2029700D1*
X1583688Y2030488D1*
X1573923Y2032832D1*
X1564645Y2036676D1*
X1556082Y2041923D1*
X1548445Y2048445D1*
X1543734Y2053785D1*
X1538955Y2048445D1*
X1531318Y2041923D1*
X1522755Y2036676D1*
X1513477Y2032832D1*
X1503712Y2030488D1*
X1493700Y2029700D1*
X1483688Y2030488D1*
X1473923Y2032832D1*
X1464645Y2036676D1*
X1456082Y2041923D1*
X1448445Y2048445D1*
X1443734Y2053785D1*
X1438955Y2048445D1*
X1431318Y2041923D1*
X1422755Y2036676D1*
X1413477Y2032832D1*
X1403712Y2030488D1*
X1393700Y2029700D1*
X1383688Y2030488D1*
X1373923Y2032832D1*
X1364645Y2036676D1*
X1356082Y2041923D1*
X1348445Y2048445D1*
X1343734Y2053785D1*
X1338114Y2047620D1*
X1332542Y2042834D1*
X1326458Y2038719D1*
X1319943Y2035328D1*
X1313082Y2032705D1*
X1305966Y2030886D1*
X1298688Y2029895D1*
X1291344Y2029743D1*
X1284032Y2030434D1*
X1276847Y2031959D1*
X1269884Y2034296D1*
X1263234Y2037416D1*
X1256986Y2041278D1*
X1251221Y2045830D1*
X1246016Y2051012D1*
X1243704Y2053746D1*
X1238955Y2048445D1*
X1231318Y2041923D1*
X1222755Y2036676D1*
X1213477Y2032832D1*
X1203712Y2030488D1*
X1193700Y2029700D1*
X1183688Y2030488D1*
X1173923Y2032832D1*
X1164645Y2036676D1*
X1156082Y2041923D1*
X1148445Y2048445D1*
X1143734Y2053785D1*
X1138955Y2048445D1*
X1131318Y2041923D1*
X1122755Y2036676D1*
X1113477Y2032832D1*
X1103712Y2030488D1*
X1093700Y2029700D1*
X1083688Y2030488D1*
X1073923Y2032832D1*
X1064645Y2036676D1*
X1056082Y2041923D1*
X1048445Y2048445D1*
X1043734Y2053785D1*
X1038955Y2048445D1*
X1031318Y2041923D1*
X1022755Y2036676D1*
X1013477Y2032832D1*
X1003712Y2030488D1*
X993700Y2029700D1*
X983688Y2030488D1*
X973923Y2032832D1*
X964645Y2036676D1*
X956082Y2041923D1*
X948445Y2048445D1*
X941923Y2056082D1*
X936676Y2064645D1*
X932832Y2073923D1*
X930488Y2083688D1*
X929700Y2093700D1*
X930488Y2103712D1*
X932832Y2113477D1*
X936676Y2122755D1*
X941923Y2131318D1*
X948445Y2138955D1*
X956082Y2145477D1*
X964645Y2150724D1*
X973923Y2154568D1*
X983688Y2156912D1*
X993700Y2157700D1*
X1003712Y2156912D1*
X1013477Y2154568D1*
X1022755Y2150724D1*
X1031318Y2145477D1*
X1038955Y2138955D1*
X1043666Y2133615D1*
X1048445Y2138955D1*
X1056082Y2145477D1*
X1064645Y2150724D1*
X1073923Y2154568D1*
X1083688Y2156912D1*
X1093700Y2157700D1*
X1103712Y2156912D1*
X1113477Y2154568D1*
X1122755Y2150724D1*
X1131318Y2145477D1*
X1138955Y2138955D1*
X1143666Y2133615D1*
X1148445Y2138955D1*
X1156082Y2145477D1*
X1164645Y2150724D1*
X1173923Y2154568D1*
X1183688Y2156912D1*
X1193700Y2157700D1*
X1203712Y2156912D1*
X1213477Y2154568D1*
X1222755Y2150724D1*
X1231318Y2145477D1*
X1238955Y2138955D1*
X1243666Y2133615D1*
X1248714Y2139222D1*
X1254226Y2144076D1*
X1260258Y2148267D1*
X1266730Y2151740D1*
X1273558Y2154448D1*
X1280651Y2156356D1*
X1287916Y2157438D1*
X1295257Y2157681D1*
X1302577Y2157081D1*
X1309781Y2155647D1*
X1316772Y2153396D1*
X1323460Y2150360D1*
X1329756Y2146577D1*
X1335577Y2142097D1*
X1340847Y2136980D1*
X1343694Y2133647D1*
X1348445Y2138955D1*
X1356082Y2145477D1*
X1360688Y2148509D1*
X1360704Y2155026D1*
X1255044Y2260693D1*
X876450Y2260704D1*
X871032Y2256081D1*
X864811Y2252268D1*
X858069Y2249476D1*
X850974Y2247772D1*
X843700Y2247200D1*
X836426Y2247772D1*
X829331Y2249476D1*
X822589Y2252268D1*
X816368Y2256081D1*
X810820Y2260820D1*
X806081Y2266368D1*
X802268Y2272589D1*
X799476Y2279331D1*
X797772Y2286426D1*
X797200Y2293700D1*
X797772Y2300974D1*
X799476Y2308069D1*
X802268Y2314811D1*
X806081Y2321032D1*
X810820Y2326580D1*
X816368Y2331319D1*
X822589Y2335132D1*
X829331Y2337924D1*
X836426Y2339628D1*
X843700Y2340200D1*
X850974Y2339628D1*
X858069Y2337924D1*
X864811Y2335132D1*
X871032Y2331319D1*
X876465Y2326687D1*
X1271289Y2326594D1*
X1276403Y2325784D1*
X1281327Y2324184D1*
X1285940Y2321834D1*
X1290129Y2318790D1*
X1337502Y2271562D1*
X1418790Y2190129D1*
X1421834Y2185940D1*
X1424184Y2181327D1*
X1425784Y2176403D1*
X1426594Y2171289D1*
X1426696Y2148569D1*
X1435265Y2142366D1*
X1442366Y2135265D1*
X1443666Y2133615D1*
X1448445Y2138955D1*
X1456082Y2145477D1*
X1464645Y2150724D1*
X1473923Y2154568D1*
X1483688Y2156912D1*
X1493700Y2157700D1*
X1503712Y2156912D1*
X1513477Y2154568D1*
X1522755Y2150724D1*
X1531318Y2145477D1*
X1538955Y2138955D1*
X1543666Y2133615D1*
X1548445Y2138955D1*
X1556082Y2145477D1*
X1564645Y2150724D1*
X1573923Y2154568D1*
X1583688Y2156912D1*
X1593700Y2157700D1*
X1603712Y2156912D1*
X1613477Y2154568D1*
X1622755Y2150724D1*
X1631318Y2145477D1*
X1638955Y2138955D1*
X1643666Y2133615D1*
X1648445Y2138955D1*
X1656082Y2145477D1*
X1664645Y2150724D1*
X1673923Y2154568D1*
X1683688Y2156912D1*
X1693700Y2157700D1*
X1703712Y2156912D1*
X1713477Y2154568D1*
X1722755Y2150724D1*
X1731318Y2145477D1*
X1738955Y2138955D1*
X1743666Y2133615D1*
X1748445Y2138955D1*
X1756082Y2145477D1*
X1764645Y2150724D1*
X1773923Y2154568D1*
X1783688Y2156912D1*
X1793700Y2157700D1*
X1803712Y2156912D1*
X1813477Y2154568D1*
X1822755Y2150724D1*
X1831318Y2145477D1*
X1838955Y2138955D1*
X1843666Y2133615D1*
X1848445Y2138955D1*
X1856082Y2145477D1*
X1864645Y2150724D1*
X1873923Y2154568D1*
X1883688Y2156912D1*
X1893700Y2157700D1*
X1903712Y2156912D1*
X1913477Y2154568D1*
X1922755Y2150724D1*
X1931318Y2145477D1*
X1938955Y2138955D1*
X1943666Y2133615D1*
X1948445Y2138955D1*
X1956082Y2145477D1*
X1964645Y2150724D1*
X1973923Y2154568D1*
X1983688Y2156912D1*
X1993700Y2157700D1*
X2003712Y2156912D1*
X2013477Y2154568D1*
X2022755Y2150724D1*
X2031318Y2145477D1*
X2038955Y2138955D1*
X2043666Y2133615D1*
X2048445Y2138955D1*
X2056082Y2145477D1*
X2060688Y2148509D1*
X2060806Y2246289D1*
X2061615Y2251403D1*
X2063215Y2256327D1*
X2065566Y2260940D1*
X2068609Y2265129D1*
X2115838Y2312502D1*
X2122271Y2318790D1*
X2126460Y2321834D1*
X2131073Y2324185D1*
X2135997Y2325785D1*
X2141111Y2326594D1*
X2208004Y2326696D1*
X2896289Y2326594D1*
X2901403Y2325784D1*
X2906327Y2324184D1*
X2910940Y2321834D1*
X2915129Y2318790D1*
X2962502Y2271562D1*
X3010687Y2223377D1*
X3010704Y2230042D1*
X2680027Y2560709D1*
X2341111Y2560806D1*
X2335997Y2561616D1*
X2331073Y2563216D1*
X2326460Y2565566D1*
X2322271Y2568610D1*
X2274898Y2615838D1*
X2268610Y2622271D1*
X2265566Y2626460D1*
X2263216Y2631073D1*
X2261616Y2635997D1*
X2260806Y2641111D1*
X2260704Y2708004D1*
Y2838874D1*
X2256082Y2841923D1*
X2248445Y2848445D1*
X2243734Y2853785D1*
X2238955Y2848445D1*
X2231318Y2841923D1*
X2226712Y2838891D1*
X2226594Y2741111D1*
X2225784Y2735997D1*
X2224184Y2731073D1*
X2221834Y2726460D1*
X2218790Y2722271D1*
X2171562Y2674898D1*
X2065129Y2568610D1*
X2060940Y2565566D1*
X2056327Y2563216D1*
X2051403Y2561616D1*
X2046289Y2560806D1*
X1979396Y2560704D1*
X907355D1*
X764204Y2417541D1*
X764196Y2180549D1*
X768982Y2189487D1*
X772805Y2195208D1*
X777065Y2200612D1*
X781735Y2205665D1*
X786788Y2210335D1*
X792192Y2214595D1*
X797913Y2218418D1*
X803916Y2221780D1*
X810165Y2224661D1*
X816620Y2227042D1*
X823243Y2228910D1*
X829991Y2230252D1*
X836825Y2231061D1*
X843700Y2231331D1*
X850575Y2231061D1*
X857409Y2230252D1*
X864157Y2228910D1*
X870780Y2227042D1*
X877235Y2224661D1*
X883484Y2221780D1*
X889487Y2218418D1*
X895208Y2214595D1*
X900612Y2210335D1*
X905665Y2205665D1*
X910335Y2200612D1*
X914595Y2195208D1*
X918418Y2189487D1*
X921780Y2183484D1*
X924661Y2177235D1*
X927042Y2170780D1*
X928910Y2164157D1*
X930252Y2157409D1*
X931061Y2150575D1*
X931331Y2143700D1*
X931061Y2136825D1*
X930252Y2129991D1*
X928910Y2123243D1*
X927042Y2116620D1*
X924661Y2110165D1*
X921780Y2103916D1*
X918418Y2097913D1*
X914595Y2092192D1*
X910335Y2086788D1*
X905665Y2081735D1*
X900612Y2077065D1*
X895208Y2072805D1*
X889487Y2068982D1*
X883484Y2065620D1*
X877235Y2062739D1*
X870780Y2060358D1*
X864157Y2058490D1*
X857409Y2057148D1*
X850575Y2056339D1*
X843700Y2056069D1*
X836825Y2056339D1*
X829991Y2057148D1*
X823243Y2058490D1*
X816620Y2060358D1*
X810165Y2062739D1*
X803916Y2065620D1*
X797913Y2068982D1*
X792192Y2072805D1*
X786788Y2077065D1*
X781735Y2081735D1*
X777065Y2086788D1*
X772805Y2092192D1*
X768982Y2097913D1*
X764191Y2107016D1*
X764196Y1719868D1*
X899848Y1584215D1*
X902268Y1589811D1*
X906081Y1596032D1*
X910820Y1601580D1*
X916368Y1606319D1*
X922589Y1610132D1*
X929331Y1612924D1*
X936426Y1614628D1*
X943700Y1615200D1*
X950974Y1614628D1*
X958069Y1612924D1*
X964668Y1610197D1*
X1071956Y1610072D1*
X1078388Y1609053D1*
X1084581Y1607041D1*
X1090384Y1604085D1*
X1095652Y1600257D1*
X1110910Y1585180D1*
X1137658Y1585200D1*
X1137672Y1599728D1*
X1146859D1*
X1152230Y1487672D2*
X1137672D1*
Y1502206D1*
X1090444Y1502328D1*
X1084012Y1503347D1*
X1077819Y1505359D1*
X1072016Y1508315D1*
X1066748Y1512143D1*
X1051490Y1527220D1*
X964672Y1527200D1*
X959180Y1524886D1*
X1107357Y1376707D1*
X1202034Y1376696D1*
X1162143Y1416748D1*
X1158315Y1422016D1*
X1155359Y1427819D1*
X1153347Y1434012D1*
X1152328Y1440444D1*
X1152200Y1480445D1*
Y1487658D1*
X899555Y3139304D2*
X898180Y3130621D1*
X895463Y3122259D1*
X891471Y3114426D1*
X886304Y3107313D1*
X880087Y3101096D1*
X872974Y3095929D1*
X865141Y3091937D1*
X856779Y3089220D1*
X848096Y3087845D1*
X839304D1*
X830621Y3089220D1*
X822259Y3091937D1*
X814426Y3095929D1*
X807313Y3101096D1*
X801096Y3107313D1*
X795929Y3114426D1*
X791937Y3122259D1*
X789220Y3130621D1*
X787845Y3139304D1*
Y3148096D1*
X789220Y3156779D1*
X791937Y3165141D1*
X795929Y3172974D1*
X801096Y3180087D1*
X803838Y3183052D1*
X799076Y3188561D1*
X795029Y3194688D1*
X791817Y3201292D1*
X789497Y3208260D1*
X788108Y3215471D1*
X787674Y3222802D1*
X788202Y3230127D1*
X789684Y3237320D1*
X792095Y3244257D1*
X792492Y3245156D1*
X787672Y3245153D1*
Y3357208D1*
X899728D1*
Y3245153D1*
X895008Y3244946D1*
X897511Y3238042D1*
X899090Y3230870D1*
X899717Y3223553D1*
X899457Y3216937D1*
X898258Y3209692D1*
X896122Y3202666D1*
X893085Y3195979D1*
X889200Y3189747D1*
X884533Y3184077D1*
X883558Y3183073D1*
X889027Y3176632D1*
X893621Y3169136D1*
X896985Y3161013D1*
X899038Y3152465D1*
X899728Y3143700D1*
X899555Y3139304D1*
X1146859Y3699728D2*
X1249728D1*
Y3587672D1*
X1228448D1*
X1233763Y3582867D1*
X1238542Y3577290D1*
X1242550Y3571137D1*
X1245719Y3564512D1*
X1247994Y3557529D1*
X1249336Y3550309D1*
X1249728Y3543700D1*
X1249246Y3536372D1*
X1247811Y3529170D1*
X1245445Y3522217D1*
X1242191Y3515634D1*
X1238104Y3509533D1*
X1233253Y3504019D1*
X1227724Y3499186D1*
X1221609Y3495118D1*
X1219136Y3493621D1*
X1226632Y3489027D1*
X1233317Y3483317D1*
X1239027Y3476632D1*
X1243621Y3469136D1*
X1246985Y3461013D1*
X1249038Y3452465D1*
X1249728Y3443700D1*
X1249038Y3434935D1*
X1246985Y3426387D1*
X1243621Y3418264D1*
X1239027Y3410768D1*
X1233317Y3404083D1*
X1226632Y3398373D1*
X1219136Y3393779D1*
X1211013Y3390415D1*
X1202465Y3388362D1*
X1193700Y3387672D1*
X1184935Y3388362D1*
X1176387Y3390415D1*
X1168264Y3393779D1*
X1160768Y3398373D1*
X1154083Y3404083D1*
X1148373Y3410768D1*
X1143779Y3418264D1*
X1140415Y3426387D1*
X1138362Y3434935D1*
X1137672Y3443700D1*
X1138362Y3452465D1*
X1140415Y3461013D1*
X1143779Y3469136D1*
X1148373Y3476632D1*
X1154083Y3483317D1*
X1160768Y3489027D1*
X1168436Y3493700D1*
X1162366Y3497254D1*
X1156560Y3501751D1*
X1151393Y3506969D1*
X1146952Y3512818D1*
X1143314Y3519197D1*
X1140542Y3525998D1*
X1138684Y3533103D1*
X1137770Y3540390D1*
X1137818Y3547733D1*
X1138825Y3555008D1*
X1140776Y3562088D1*
X1143635Y3568852D1*
X1147355Y3575184D1*
X1151871Y3580975D1*
X1157106Y3586126D1*
X1158986Y3587669D1*
X1137672Y3587672D1*
Y3699728D1*
X1146859D1*
X1415700Y538563D2*
X1383674Y506630D1*
X1379168Y503473D1*
X1374106Y501316D1*
X1368709Y500249D1*
X1347927Y500140D1*
X1319237Y500205D1*
X1313818Y501160D1*
X1308714Y503213D1*
X1304143Y506275D1*
X1289370Y520893D1*
X1269130Y541226D1*
X1265973Y545732D1*
X1263816Y550794D1*
X1262749Y556191D1*
X1262640Y576973D1*
X1262705Y605663D1*
X1263660Y611082D1*
X1265713Y616186D1*
X1268775Y620757D1*
X1283393Y635530D1*
X1303726Y655770D1*
X1308232Y658927D1*
X1313293Y661084D1*
X1318691Y662151D1*
X1339473Y662260D1*
X1368163Y662195D1*
X1373582Y661240D1*
X1378686Y659187D1*
X1383257Y656125D1*
X1398030Y641507D1*
X1418256Y621189D1*
X1418989Y621010D1*
X1452362Y654499D1*
X1455524Y657199D1*
X1459070Y659372D1*
X1462911Y660963D1*
X1466955Y661934D1*
X1471100Y662260D1*
X1518379Y662179D1*
X1522486Y661528D1*
X1526441Y660243D1*
X1530146Y658355D1*
X1533510Y655911D1*
X1566999Y622538D1*
X1568416Y621004D1*
X1568989Y621010D1*
X1602362Y654499D1*
X1605524Y657199D1*
X1609069Y659372D1*
X1612911Y660963D1*
X1616955Y661934D1*
X1621100Y662261D1*
X1668379Y662179D1*
X1672486Y661528D1*
X1676441Y660243D1*
X1680146Y658355D1*
X1683510Y655911D1*
X1716999Y622538D1*
X1719699Y619376D1*
X1721872Y615831D1*
X1723463Y611989D1*
X1724434Y607945D1*
X1724760Y603792D1*
X1724679Y556521D1*
X1724028Y552414D1*
X1722743Y548459D1*
X1720855Y544754D1*
X1718411Y541390D1*
X1685038Y507901D1*
X1681876Y505201D1*
X1678331Y503028D1*
X1674489Y501437D1*
X1670445Y500466D1*
X1666300Y500140D1*
X1619021Y500221D1*
X1614914Y500872D1*
X1610959Y502157D1*
X1607254Y504045D1*
X1603890Y506489D1*
X1570401Y539862D1*
X1568984Y541396D1*
X1568411Y541390D1*
X1535038Y507901D1*
X1531876Y505201D1*
X1528331Y503028D1*
X1524489Y501436D1*
X1520445Y500466D1*
X1516300Y500139D1*
X1469021Y500221D1*
X1464914Y500872D1*
X1460959Y502157D1*
X1457254Y504045D1*
X1453890Y506489D1*
X1420401Y539862D1*
X1418625Y541643D1*
X1415700Y538563D1*
X1799728Y1508976D2*
Y1487672D1*
X1696417D1*
X1743724Y1440340D1*
X1772271Y1468790D1*
X1776460Y1471834D1*
X1781073Y1474184D1*
X1785997Y1475784D1*
X1791111Y1476594D1*
X1858004Y1476696D1*
X2246289Y1476594D1*
X2251403Y1475784D1*
X2256327Y1474184D1*
X2260940Y1471834D1*
X2265129Y1468790D1*
X2312502Y1421562D1*
X2318790Y1415129D1*
X2321834Y1410940D1*
X2324184Y1406327D1*
X2325786Y1401393D1*
X2329536Y1399728D1*
X2349728D1*
Y1378448D1*
X2354083Y1383317D1*
X2360768Y1389027D1*
X2368264Y1393621D1*
X2376387Y1396985D1*
X2384935Y1399038D1*
X2393700Y1399728D1*
X2402465Y1399038D1*
X2411013Y1396985D1*
X2419136Y1393621D1*
X2426632Y1389027D1*
X2433317Y1383317D1*
X2439027Y1376632D1*
X2443700Y1368964D1*
X2448373Y1376632D1*
X2454083Y1383317D1*
X2460768Y1389027D1*
X2468264Y1393621D1*
X2476387Y1396985D1*
X2484935Y1399038D1*
X2493700Y1399728D1*
X2502465Y1399038D1*
X2511013Y1396985D1*
X2519136Y1393621D1*
X2526632Y1389027D1*
X2533317Y1383317D1*
X2539027Y1376632D1*
X2543621Y1369136D1*
X2546985Y1361013D1*
X2549038Y1352465D1*
X2549728Y1343700D1*
X2549038Y1334935D1*
X2546985Y1326387D1*
X2543621Y1318264D1*
X2539027Y1310768D1*
X2533317Y1304083D1*
X2526632Y1298373D1*
X2519136Y1293779D1*
X2511013Y1290415D1*
X2502465Y1288362D1*
X2493700Y1287672D1*
X2484935Y1288362D1*
X2476387Y1290415D1*
X2468264Y1293779D1*
X2460768Y1298373D1*
X2454083Y1304083D1*
X2448373Y1310768D1*
X2443700Y1318436D1*
X2439027Y1310768D1*
X2433317Y1304083D1*
X2426632Y1298373D1*
X2419136Y1293779D1*
X2411013Y1290415D1*
X2402465Y1288362D1*
X2393700Y1287672D1*
X2384935Y1288362D1*
X2376387Y1290415D1*
X2368264Y1293779D1*
X2360768Y1298373D1*
X2354083Y1304083D1*
X2349724Y1309054D1*
X2349728Y1287672D1*
X2251728D1*
X2251696Y1076491D1*
X2256319Y1071032D1*
X2260132Y1064811D1*
X2262924Y1058069D1*
X2264628Y1050974D1*
X2265200Y1043700D1*
X2264628Y1036426D1*
X2264385Y1035209D1*
X2802229Y1035200D1*
X2802200Y1226481D1*
X2629201Y1399509D1*
X2622589Y1402268D1*
X2616368Y1406081D1*
X2610820Y1410820D1*
X2606081Y1416368D1*
X2602268Y1422589D1*
X2599476Y1429331D1*
X2597772Y1436426D1*
X2597200Y1443700D1*
X2597772Y1450974D1*
X2599476Y1458069D1*
X2600448Y1460705D1*
X2441111Y1460806D1*
X2435997Y1461615D1*
X2431073Y1463215D1*
X2426460Y1465566D1*
X2422271Y1468609D1*
X2402378Y1488358D1*
X2393700Y1487672D1*
X2384935Y1488362D1*
X2376387Y1490415D1*
X2368264Y1493779D1*
X2360768Y1498373D1*
X2354083Y1504083D1*
X2349724Y1509054D1*
X2349728Y1487672D1*
X2237673D1*
Y1599727D1*
X2349728D1*
Y1578448D1*
X2354083Y1583317D1*
X2360768Y1589027D1*
X2368264Y1593621D1*
X2376387Y1596985D1*
X2384935Y1599038D1*
X2393700Y1599728D1*
X2402465Y1599038D1*
X2411013Y1596985D1*
X2419136Y1593621D1*
X2426632Y1589027D1*
X2433317Y1583317D1*
X2439027Y1576632D1*
X2443700Y1568964D1*
X2448373Y1576632D1*
X2454083Y1583317D1*
X2460768Y1589027D1*
X2468264Y1593621D1*
X2476387Y1596985D1*
X2484935Y1599038D1*
X2493700Y1599728D1*
X2502465Y1599038D1*
X2511013Y1596985D1*
X2519136Y1593621D1*
X2526632Y1589027D1*
X2533317Y1583317D1*
X2539027Y1576632D1*
X2543621Y1569136D1*
X2546985Y1561013D1*
X2549038Y1552465D1*
X2549728Y1543700D1*
X2549038Y1534935D1*
X2547074Y1526701D1*
X2796289Y1526594D1*
X2801403Y1525785D1*
X2806327Y1524185D1*
X2810940Y1521834D1*
X2815129Y1518791D1*
X2862502Y1471562D1*
X3118855Y1215209D1*
X3125974Y1214628D1*
X3133069Y1212924D1*
X3139811Y1210132D1*
X3146032Y1206319D1*
X3151580Y1201580D1*
X3156319Y1196032D1*
X3160132Y1189811D1*
X3162924Y1183069D1*
X3164628Y1175974D1*
X3165200Y1168700D1*
X3164628Y1161426D1*
X3162924Y1154331D1*
X3160132Y1147589D1*
X3156319Y1141368D1*
X3151580Y1135820D1*
X3146032Y1131081D1*
X3139811Y1127268D1*
X3133069Y1124476D1*
X3125974Y1122772D1*
X3118700Y1122200D1*
X3111426Y1122772D1*
X3104331Y1124476D1*
X3097589Y1127268D1*
X3091368Y1131081D1*
X3085820Y1135820D1*
X3081081Y1141368D1*
X3077268Y1147589D1*
X3074476Y1154331D1*
X3072772Y1161426D1*
X3072206Y1168543D1*
X2780046Y1460690D1*
X2686945Y1460704D1*
X2692532Y1453558D1*
X2875257Y1270652D1*
X2879085Y1265384D1*
X2882041Y1259581D1*
X2884053Y1253388D1*
X2885072Y1246956D1*
X2885200Y1206955D1*
Y1014651D1*
X2887924Y1008069D1*
X2889628Y1000974D1*
X2890200Y993700D1*
X2889628Y986426D1*
X2887924Y979331D1*
X2885132Y972589D1*
X2881319Y966368D1*
X2876580Y960820D1*
X2871032Y956081D1*
X2864811Y952268D1*
X2858069Y949476D1*
X2850974Y947772D1*
X2843700Y947200D1*
X2836426Y947772D1*
X2829331Y949476D1*
X2822732Y952203D1*
X1964645Y952200D1*
X1958069Y949476D1*
X1950974Y947772D1*
X1943700Y947200D1*
X1936426Y947772D1*
X1929331Y949476D1*
X1922732Y952203D1*
X1314686Y952200D1*
X1308069Y949476D1*
X1300974Y947772D1*
X1293700Y947200D1*
X1286426Y947772D1*
X1279331Y949476D1*
X1272589Y952268D1*
X1266368Y956081D1*
X1260820Y960820D1*
X1256081Y966368D1*
X1252268Y972589D1*
X1249476Y979331D1*
X1247772Y986426D1*
X1247200Y993700D1*
X1247772Y1000974D1*
X1249476Y1008069D1*
X1252268Y1014811D1*
X1256081Y1021032D1*
X1260820Y1026580D1*
X1266368Y1031319D1*
X1272589Y1035132D1*
X1279331Y1037924D1*
X1286426Y1039628D1*
X1293700Y1040200D1*
X1300974Y1039628D1*
X1308069Y1037924D1*
X1314668Y1035197D1*
X1548011Y1035200D1*
X1547343Y1040052D1*
X1547206Y1043543D1*
X1280014Y1310722D1*
X1091111Y1310806D1*
X1085997Y1311615D1*
X1081073Y1313215D1*
X1076460Y1315566D1*
X1072271Y1318609D1*
X1024898Y1365838D1*
X985188Y1405549D1*
X985072Y915444D1*
X984053Y909012D1*
X982041Y902819D1*
X979085Y897016D1*
X975257Y891748D1*
X947062Y863372D1*
X700402Y616712D1*
X697632Y610089D1*
X693819Y603868D1*
X689080Y598320D1*
X683532Y593581D1*
X677311Y589768D1*
X670569Y586976D1*
X663474Y585272D1*
X656200Y584700D1*
X648926Y585272D1*
X641831Y586976D1*
X635089Y589768D1*
X628868Y593581D1*
X623320Y598320D1*
X618581Y603868D1*
X614768Y610089D1*
X611976Y616831D1*
X610272Y623926D1*
X609700Y631200D1*
X610272Y638474D1*
X611976Y645569D1*
X614768Y652311D1*
X618581Y658532D1*
X623320Y664080D1*
X628868Y668819D1*
X635089Y672632D1*
X641684Y675370D1*
X902188Y935878D1*
X902200Y1414009D1*
X662143Y1654248D1*
X658315Y1659516D1*
X655359Y1665319D1*
X653346Y1671512D1*
X652328Y1677944D1*
X652200Y1717945D1*
X652328Y2546956D1*
X653347Y2553388D1*
X655359Y2559581D1*
X658315Y2565384D1*
X662143Y2570652D1*
X690338Y2599028D1*
X816748Y2725257D1*
X822016Y2729085D1*
X827819Y2732041D1*
X834012Y2734053D1*
X840444Y2735072D1*
X880445Y2735200D1*
X1476518D1*
X1552225Y2810915D1*
X1552135Y2845034D1*
X1545034Y2852135D1*
X1543734Y2853785D1*
X1538955Y2848445D1*
X1531318Y2841923D1*
X1522755Y2836676D1*
X1513477Y2832832D1*
X1503712Y2830488D1*
X1493700Y2829700D1*
X1483688Y2830488D1*
X1473923Y2832832D1*
X1464645Y2836676D1*
X1456082Y2841923D1*
X1448445Y2848445D1*
X1443734Y2853785D1*
X1438955Y2848445D1*
X1431318Y2841923D1*
X1422755Y2836676D1*
X1413477Y2832832D1*
X1403712Y2830488D1*
X1393700Y2829700D1*
X1383688Y2830488D1*
X1373923Y2832832D1*
X1364645Y2836676D1*
X1356082Y2841923D1*
X1348445Y2848445D1*
X1341923Y2856082D1*
X1336676Y2864645D1*
X1332832Y2873923D1*
X1330488Y2883688D1*
X1329700Y2893700D1*
X1330488Y2903712D1*
X1332832Y2913477D1*
X1336676Y2922755D1*
X1341923Y2931318D1*
X1348445Y2938955D1*
X1356082Y2945477D1*
X1361110Y2948862D1*
X1362319Y2953896D1*
X1364300Y2958680D1*
X1367006Y2963095D1*
X1370376Y2967039D1*
X1422271Y3018790D1*
X1426460Y3021834D1*
X1431073Y3024184D1*
X1435997Y3025784D1*
X1441111Y3026594D1*
X1508004Y3026696D1*
X2630067D1*
X2672271Y3068790D1*
X2676460Y3071834D1*
X2681073Y3074184D1*
X2685997Y3075784D1*
X2691111Y3076594D1*
X2710960Y3076696D1*
X2716368Y3081319D1*
X2722589Y3085132D1*
X2729331Y3087924D1*
X2736426Y3089628D1*
X2743700Y3090200D1*
X2750974Y3089628D1*
X2758069Y3087924D1*
X2764811Y3085132D1*
X2771032Y3081319D1*
X2776580Y3076580D1*
X2781319Y3071032D1*
X2785132Y3064811D1*
X2787924Y3058069D1*
X2789628Y3050974D1*
X2790200Y3043700D1*
X2789628Y3036426D1*
X2787924Y3029331D1*
X2785132Y3022589D1*
X2781319Y3016368D1*
X2776580Y3010820D1*
X2771032Y3006081D1*
X2764811Y3002268D1*
X2758069Y2999476D1*
X2750974Y2997772D1*
X2743700Y2997200D1*
X2736426Y2997772D1*
X2729331Y2999476D1*
X2722589Y3002268D1*
X2716368Y3006081D1*
X2710935Y3010713D1*
X2704040Y3007377D1*
X2665129Y2968610D1*
X2660940Y2965566D1*
X2656327Y2963216D1*
X2651403Y2961616D1*
X2646289Y2960806D1*
X2579396Y2960704D1*
X1457333D1*
X1437268Y2940605D1*
X1442366Y2935265D1*
X1443666Y2933615D1*
X1448445Y2938955D1*
X1456082Y2945477D1*
X1464645Y2950724D1*
X1473923Y2954568D1*
X1483688Y2956912D1*
X1493700Y2957700D1*
X1503712Y2956912D1*
X1513477Y2954568D1*
X1522755Y2950724D1*
X1531318Y2945477D1*
X1538955Y2938955D1*
X1543666Y2933615D1*
X1548445Y2938955D1*
X1556082Y2945477D1*
X1564645Y2950724D1*
X1573923Y2954568D1*
X1583688Y2956912D1*
X1593700Y2957700D1*
X1603712Y2956912D1*
X1613477Y2954568D1*
X1622755Y2950724D1*
X1631318Y2945477D1*
X1638955Y2938955D1*
X1643666Y2933615D1*
X1648445Y2938955D1*
X1656082Y2945477D1*
X1664645Y2950724D1*
X1673923Y2954568D1*
X1683688Y2956912D1*
X1693700Y2957700D1*
X1703712Y2956912D1*
X1713477Y2954568D1*
X1722755Y2950724D1*
X1731318Y2945477D1*
X1738955Y2938955D1*
X1743666Y2933615D1*
X1748445Y2938955D1*
X1756082Y2945477D1*
X1764645Y2950724D1*
X1773923Y2954568D1*
X1783688Y2956912D1*
X1793700Y2957700D1*
X1803712Y2956912D1*
X1813477Y2954568D1*
X1822755Y2950724D1*
X1831318Y2945477D1*
X1838955Y2938955D1*
X1843666Y2933615D1*
X1848445Y2938955D1*
X1856082Y2945477D1*
X1864645Y2950724D1*
X1873923Y2954568D1*
X1883688Y2956912D1*
X1893700Y2957700D1*
X1903712Y2956912D1*
X1913477Y2954568D1*
X1922755Y2950724D1*
X1931318Y2945477D1*
X1938955Y2938955D1*
X1943666Y2933615D1*
X1948445Y2938955D1*
X1956082Y2945477D1*
X1964645Y2950724D1*
X1973923Y2954568D1*
X1983688Y2956912D1*
X1993700Y2957700D1*
X2003712Y2956912D1*
X2013477Y2954568D1*
X2022755Y2950724D1*
X2031318Y2945477D1*
X2038955Y2938955D1*
X2043666Y2933615D1*
X2048445Y2938955D1*
X2056082Y2945477D1*
X2064645Y2950724D1*
X2073923Y2954568D1*
X2083688Y2956912D1*
X2093700Y2957700D1*
X2103712Y2956912D1*
X2113477Y2954568D1*
X2122755Y2950724D1*
X2131318Y2945477D1*
X2138955Y2938955D1*
X2143666Y2933615D1*
X2148445Y2938955D1*
X2156082Y2945477D1*
X2164645Y2950724D1*
X2173923Y2954568D1*
X2183688Y2956912D1*
X2193700Y2957700D1*
X2203712Y2956912D1*
X2213477Y2954568D1*
X2222755Y2950724D1*
X2231318Y2945477D1*
X2238955Y2938955D1*
X2243666Y2933615D1*
X2248445Y2938955D1*
X2256082Y2945477D1*
X2264645Y2950724D1*
X2273923Y2954568D1*
X2283688Y2956912D1*
X2293700Y2957700D1*
X2303712Y2956912D1*
X2313477Y2954568D1*
X2322755Y2950724D1*
X2331318Y2945477D1*
X2338955Y2938955D1*
X2343666Y2933615D1*
X2348445Y2938955D1*
X2356082Y2945477D1*
X2364645Y2950724D1*
X2373923Y2954568D1*
X2383688Y2956912D1*
X2393700Y2957700D1*
X2403712Y2956912D1*
X2413477Y2954568D1*
X2422755Y2950724D1*
X2431318Y2945477D1*
X2438955Y2938955D1*
X2443666Y2933615D1*
X2448445Y2938955D1*
X2456082Y2945477D1*
X2464645Y2950724D1*
X2473923Y2954568D1*
X2483688Y2956912D1*
X2493700Y2957700D1*
X2503712Y2956912D1*
X2513477Y2954568D1*
X2522755Y2950724D1*
X2531318Y2945477D1*
X2538955Y2938955D1*
X2545477Y2931318D1*
X2550724Y2922755D1*
X2554568Y2913477D1*
X2556912Y2903712D1*
X2557700Y2893700D1*
X2556912Y2883688D1*
X2554568Y2873923D1*
X2550724Y2864645D1*
X2545477Y2856082D1*
X2538955Y2848445D1*
X2531318Y2841923D1*
X2526712Y2838891D1*
X2526696Y2807399D1*
X2557351Y2776713D1*
X2587228Y2776696D1*
X2581735Y2781735D1*
X2577065Y2786788D1*
X2572805Y2792192D1*
X2568982Y2797913D1*
X2565620Y2803916D1*
X2562739Y2810165D1*
X2560358Y2816620D1*
X2558490Y2823243D1*
X2557148Y2829991D1*
X2556339Y2836825D1*
X2556069Y2843700D1*
X2556339Y2850575D1*
X2557148Y2857409D1*
X2558490Y2864157D1*
X2560358Y2870780D1*
X2562739Y2877235D1*
X2565620Y2883484D1*
X2568982Y2889487D1*
X2572805Y2895208D1*
X2577065Y2900612D1*
X2581735Y2905665D1*
X2586788Y2910335D1*
X2592192Y2914595D1*
X2597913Y2918418D1*
X2603916Y2921780D1*
X2610165Y2924661D1*
X2616620Y2927042D1*
X2623243Y2928910D1*
X2629991Y2930252D1*
X2636825Y2931061D1*
X2643700Y2931331D1*
X2650575Y2931061D1*
X2657409Y2930252D1*
X2664157Y2928910D1*
X2670780Y2927042D1*
X2677235Y2924661D1*
X2683484Y2921780D1*
X2689487Y2918418D1*
X2695208Y2914595D1*
X2700612Y2910335D1*
X2705665Y2905665D1*
X2710335Y2900612D1*
X2714595Y2895208D1*
X2718418Y2889487D1*
X2721780Y2883484D1*
X2724661Y2877235D1*
X2727042Y2870780D1*
X2728910Y2864157D1*
X2730252Y2857409D1*
X2731061Y2850575D1*
X2731331Y2843700D1*
X2731061Y2836825D1*
X2730252Y2829991D1*
X2728910Y2823243D1*
X2727042Y2816620D1*
X2724661Y2810165D1*
X2721780Y2803916D1*
X2718418Y2797913D1*
X2714595Y2792192D1*
X2710335Y2786788D1*
X2705665Y2781735D1*
X2700126Y2776682D1*
X2796289Y2776594D1*
X2801403Y2775784D1*
X2806327Y2774184D1*
X2810940Y2771834D1*
X2815129Y2768790D1*
X2862502Y2721562D1*
X3268790Y2315129D1*
X3271834Y2310940D1*
X3274184Y2306327D1*
X3275784Y2301403D1*
X3276594Y2296289D1*
X3276696Y2229396D1*
X3276594Y1841111D1*
X3275784Y1835997D1*
X3274184Y1831073D1*
X3271834Y1826460D1*
X3268790Y1822271D1*
X3221562Y1774898D1*
X3115129Y1668610D1*
X3110940Y1665566D1*
X3106327Y1663215D1*
X3101403Y1661615D1*
X3096289Y1660806D1*
X3029396Y1660704D1*
X2207396D1*
X2176713Y1630049D1*
X2176696Y1576489D1*
X2181319Y1571032D1*
X2185132Y1564811D1*
X2187924Y1558069D1*
X2189628Y1550974D1*
X2190200Y1543700D1*
X2189628Y1536426D1*
X2187924Y1529331D1*
X2185132Y1522589D1*
X2181319Y1516368D1*
X2176580Y1510820D1*
X2171032Y1506081D1*
X2164811Y1502268D1*
X2158069Y1499476D1*
X2150974Y1497772D1*
X2143700Y1497200D1*
X2136426Y1497772D1*
X2129331Y1499476D1*
X2122589Y1502268D1*
X2116368Y1506081D1*
X2110820Y1510820D1*
X2106081Y1516368D1*
X2102268Y1522589D1*
X2099476Y1529331D1*
X2097772Y1536426D1*
X2097200Y1543700D1*
X2097772Y1550974D1*
X2099476Y1558069D1*
X2102268Y1564811D1*
X2106081Y1571032D1*
X2110713Y1576465D1*
X2110806Y1646289D1*
X2111615Y1651403D1*
X2113215Y1656327D1*
X2115566Y1660940D1*
X2118609Y1665129D1*
X2164037Y1710700D1*
X2157396Y1710704D1*
X2076675Y1630012D1*
X2076696Y1576489D1*
X2081319Y1571032D1*
X2085132Y1564811D1*
X2087924Y1558069D1*
X2089628Y1550974D1*
X2090200Y1543700D1*
X2089628Y1536426D1*
X2087924Y1529331D1*
X2085132Y1522589D1*
X2081319Y1516368D1*
X2076580Y1510820D1*
X2071032Y1506081D1*
X2064811Y1502268D1*
X2058069Y1499476D1*
X2050974Y1497772D1*
X2043700Y1497200D1*
X2036426Y1497772D1*
X2029331Y1499476D1*
X2022589Y1502268D1*
X2016368Y1506081D1*
X2010820Y1510820D1*
X2006081Y1516368D1*
X2002268Y1522589D1*
X1999476Y1529331D1*
X1998589Y1532474D1*
X1996985Y1526387D1*
X1993621Y1518264D1*
X1989027Y1510768D1*
X1983317Y1504083D1*
X1976632Y1498373D1*
X1969136Y1493779D1*
X1961013Y1490415D1*
X1952465Y1488362D1*
X1943700Y1487672D1*
X1934935Y1488362D1*
X1926387Y1490415D1*
X1918264Y1493779D1*
X1910768Y1498373D1*
X1904083Y1504083D1*
X1898373Y1510768D1*
X1893700Y1518436D1*
X1889027Y1510768D1*
X1883317Y1504083D1*
X1876632Y1498373D1*
X1869136Y1493779D1*
X1861013Y1490415D1*
X1852465Y1488362D1*
X1843700Y1487672D1*
X1834935Y1488362D1*
X1826387Y1490415D1*
X1818264Y1493779D1*
X1810768Y1498373D1*
X1804083Y1504083D1*
X1799724Y1509054D1*
X2315700Y538563D2*
X2283674Y506630D1*
X2279168Y503474D1*
X2274106Y501316D1*
X2268709Y500250D1*
X2247927Y500140D1*
X2219237Y500205D1*
X2213818Y501160D1*
X2208714Y503213D1*
X2204143Y506276D1*
X2189370Y520893D1*
X2169130Y541226D1*
X2165973Y545733D1*
X2163816Y550794D1*
X2162749Y556191D1*
X2162640Y576973D1*
X2162705Y605664D1*
X2163660Y611082D1*
X2165713Y616187D1*
X2168775Y620757D1*
X2183393Y635530D1*
X2203726Y655770D1*
X2208232Y658927D1*
X2213293Y661085D1*
X2218691Y662151D1*
X2233681Y662261D1*
X2228720Y664300D1*
X2224305Y667006D1*
X2220368Y670368D1*
X2143561Y747175D1*
X2136426Y747772D1*
X2129331Y749476D1*
X2122589Y752268D1*
X2116368Y756081D1*
X2110820Y760820D1*
X2106081Y766368D1*
X2102268Y772589D1*
X2099476Y779331D1*
X2097772Y786426D1*
X2097200Y793700D1*
X2097772Y800974D1*
X2099476Y808069D1*
X2102268Y814811D1*
X2106081Y821032D1*
X2110820Y826580D1*
X2116368Y831319D1*
X2122589Y835132D1*
X2129331Y837924D1*
X2136426Y839628D1*
X2143700Y840200D1*
X2150974Y839628D1*
X2158069Y837924D1*
X2164811Y835132D1*
X2171032Y831319D1*
X2176580Y826580D1*
X2181319Y821032D1*
X2185132Y814811D1*
X2187924Y808069D1*
X2189628Y800974D1*
X2190194Y793857D1*
X2257388Y726675D1*
X2546289Y726594D1*
X2551403Y725784D1*
X2556327Y724184D1*
X2560940Y721834D1*
X2565129Y718790D1*
X2568790Y715129D1*
X2571834Y710940D1*
X2574184Y706327D1*
X2575784Y701403D1*
X2576594Y696289D1*
X2576696Y660148D1*
X2581876Y657200D1*
X2585038Y654499D1*
X2618416Y621004D1*
X2618989Y621010D1*
X2652362Y654499D1*
X2655524Y657200D1*
X2659069Y659372D1*
X2662911Y660964D1*
X2666955Y661935D1*
X2671100Y662261D1*
X2718379Y662179D1*
X2722486Y661529D1*
X2726441Y660244D1*
X2730146Y658356D1*
X2733510Y655912D1*
X2766999Y622538D1*
X2769699Y619376D1*
X2771872Y615831D1*
X2773463Y611989D1*
X2774434Y607946D1*
X2774760Y603792D1*
X2774679Y556521D1*
X2774028Y552414D1*
X2772743Y548459D1*
X2770855Y544754D1*
X2768411Y541390D1*
X2735038Y507902D1*
X2731876Y505201D1*
X2728331Y503028D1*
X2724489Y501437D1*
X2720445Y500466D1*
X2716300Y500140D1*
X2669021Y500222D1*
X2664914Y500872D1*
X2660959Y502157D1*
X2657254Y504045D1*
X2653890Y506489D1*
X2620401Y539862D1*
X2618984Y541397D1*
X2618411Y541390D1*
X2585038Y507902D1*
X2581876Y505201D1*
X2578331Y503028D1*
X2574489Y501437D1*
X2570445Y500466D1*
X2566300Y500140D1*
X2519021Y500222D1*
X2514914Y500872D1*
X2510959Y502157D1*
X2507254Y504045D1*
X2503890Y506489D1*
X2470401Y539862D1*
X2468984Y541397D1*
X2468411Y541390D1*
X2435038Y507902D1*
X2431876Y505201D1*
X2428330Y503028D1*
X2424489Y501437D1*
X2420445Y500466D1*
X2416300Y500140D1*
X2369021Y500222D1*
X2364914Y500872D1*
X2360959Y502157D1*
X2357254Y504045D1*
X2353890Y506489D1*
X2320401Y539862D1*
X2318625Y541643D1*
X2315700Y538563D1*
X2286337Y653200D2*
X2318256Y621190D1*
X2318989Y621010D1*
X2352362Y654499D1*
X2355524Y657200D1*
X2359069Y659372D1*
X2360967Y660246D1*
X2359973Y660704D1*
X2275329Y660675D1*
X2280279Y658273D1*
X2284627Y654901D1*
X2286337Y653200D1*
X2466993Y622544D2*
X2468416Y621004D1*
X2468989Y621011D1*
X2502362Y654499D1*
X2505524Y657200D1*
X2509077Y659376D1*
X2506955Y660704D1*
X2425246D1*
X2430146Y658356D1*
X2433510Y655911D1*
X2466540Y622997D1*
X3265700Y544814D2*
X3233674Y512881D1*
X3229167Y509724D1*
X3224106Y507567D1*
X3218709Y506500D1*
X3197927Y506391D1*
X3169237Y506456D1*
X3163818Y507411D1*
X3158714Y509464D1*
X3154143Y512526D1*
X3139370Y527144D1*
X3119130Y547477D1*
X3115973Y551984D1*
X3113816Y557045D1*
X3112749Y562442D1*
X3112640Y583224D1*
X3112705Y611914D1*
X3113660Y617333D1*
X3115713Y622437D1*
X3118775Y627008D1*
X3133393Y641781D1*
X3152316Y660704D1*
X3141111Y660805D1*
X3135997Y661615D1*
X3131073Y663215D1*
X3126460Y665566D1*
X3122271Y668609D1*
X3074898Y715838D1*
X3043561Y747175D1*
X3036426Y747772D1*
X3029331Y749476D1*
X3022589Y752268D1*
X3016368Y756081D1*
X3010820Y760820D1*
X3006081Y766368D1*
X3002268Y772589D1*
X2999476Y779331D1*
X2997772Y786426D1*
X2997200Y793700D1*
X2997772Y800974D1*
X2999476Y808069D1*
X3002268Y814811D1*
X3006081Y821032D1*
X3010820Y826580D1*
X3016368Y831319D1*
X3022589Y835132D1*
X3029331Y837924D1*
X3036426Y839628D1*
X3043700Y840200D1*
X3050974Y839628D1*
X3058069Y837924D1*
X3064811Y835132D1*
X3071032Y831319D1*
X3076580Y826580D1*
X3081319Y821032D1*
X3085132Y814811D1*
X3087924Y808069D1*
X3089628Y800974D1*
X3090194Y793857D1*
X3157388Y726675D1*
X3496289Y726595D1*
X3501403Y725785D1*
X3506327Y724185D1*
X3510940Y721834D1*
X3515129Y718791D1*
X3518791Y715129D1*
X3521834Y710940D1*
X3524185Y706327D1*
X3525785Y701403D1*
X3526595Y696289D1*
X3526696Y666392D1*
X3531876Y663450D1*
X3535038Y660750D1*
X3568416Y627255D1*
X3568989Y627261D1*
X3602362Y660750D1*
X3605524Y663450D1*
X3609069Y665623D1*
X3612911Y667214D1*
X3616955Y668185D1*
X3621100Y668511D1*
X3668379Y668430D1*
X3672486Y667779D1*
X3676441Y666494D1*
X3680146Y664606D1*
X3683510Y662162D1*
X3716999Y628789D1*
X3719699Y625627D1*
X3721872Y622081D1*
X3723463Y618240D1*
X3724434Y614196D1*
X3724760Y610043D1*
X3724679Y562772D1*
X3724028Y558665D1*
X3722743Y554710D1*
X3720855Y551005D1*
X3718411Y547641D1*
X3685038Y514152D1*
X3681876Y511452D1*
X3678330Y509279D1*
X3674489Y507688D1*
X3670445Y506717D1*
X3666300Y506391D1*
X3619021Y506472D1*
X3614914Y507123D1*
X3610959Y508408D1*
X3607254Y510296D1*
X3603890Y512740D1*
X3570401Y546113D1*
X3568984Y547647D1*
X3568411Y547641D1*
X3535038Y514152D1*
X3531876Y511452D1*
X3528331Y509279D1*
X3524489Y507688D1*
X3520445Y506717D1*
X3516300Y506391D1*
X3469021Y506472D1*
X3464914Y507123D1*
X3460959Y508408D1*
X3457254Y510296D1*
X3453890Y512740D1*
X3420401Y546113D1*
X3418984Y547647D1*
X3418411Y547641D1*
X3385038Y514152D1*
X3381876Y511452D1*
X3378331Y509279D1*
X3374489Y507687D1*
X3370445Y506717D1*
X3366300Y506390D1*
X3319021Y506472D1*
X3314914Y507123D1*
X3310959Y508408D1*
X3307254Y510296D1*
X3303890Y512740D1*
X3270401Y546113D1*
X3268625Y547894D1*
X3265700Y544814D1*
X3235084Y660704D2*
X3268256Y627440D1*
X3268989Y627261D1*
X3302338Y660726D1*
X3235083Y660704D1*
X3416993Y628795D2*
X3418416Y627255D1*
X3418989Y627261D1*
X3452339Y660726D1*
X3385079Y660704D1*
X3416540Y629248D1*
X3420872Y629259D1*
X1344497Y3152090D2*
X1452090D1*
Y3134686D1*
X1459379Y3140938D1*
X1467192Y3145726D1*
X1475657Y3149232D1*
X1484566Y3151371D1*
X1493700Y3152090D1*
X1502834Y3151371D1*
X1511743Y3149232D1*
X1520208Y3145726D1*
X1528021Y3140938D1*
X1534988Y3134988D1*
X1540938Y3128021D1*
X1543687Y3123849D1*
X1549300Y3131621D1*
X1555779Y3138100D1*
X1563191Y3143485D1*
X1571355Y3147645D1*
X1580069Y3150476D1*
X1589119Y3151910D1*
X1598281D1*
X1607331Y3150476D1*
X1616045Y3147645D1*
X1624209Y3143485D1*
X1631621Y3138100D1*
X1638100Y3131621D1*
X1643687Y3123849D1*
X1649300Y3131621D1*
X1655779Y3138100D1*
X1660705Y3141824D1*
X1660806Y3346289D1*
X1661616Y3351403D1*
X1663216Y3356327D1*
X1665566Y3360940D1*
X1668610Y3365129D1*
X1715838Y3412502D1*
X1872271Y3568790D1*
X1876460Y3571834D1*
X1881073Y3574184D1*
X1885997Y3575784D1*
X1891111Y3576594D1*
X1958004Y3576696D1*
X2896289Y3576594D1*
X2901403Y3575784D1*
X2906327Y3574184D1*
X2910940Y3571834D1*
X2915129Y3568790D1*
X2962502Y3521562D1*
X3518790Y2965129D1*
X3521834Y2960940D1*
X3524184Y2956327D1*
X3525784Y2951403D1*
X3526594Y2946289D1*
X3526696Y2879396D1*
X3526594Y1591111D1*
X3525784Y1585997D1*
X3524184Y1581073D1*
X3521834Y1576460D1*
X3518790Y1572271D1*
X3471562Y1524898D1*
X3465129Y1518610D1*
X3460940Y1515566D1*
X3456327Y1513216D1*
X3451403Y1511616D1*
X3446289Y1510806D1*
X3379396Y1510704D1*
X3291111Y1510806D1*
X3285997Y1511616D1*
X3281073Y1513216D1*
X3276460Y1515566D1*
X3272271Y1518610D1*
X3230049Y1560687D1*
X3223899Y1558341D1*
X3217996Y1554052D1*
X3211495Y1550740D1*
X3204555Y1548485D1*
X3197348Y1547343D1*
X3190052D1*
X3182845Y1548485D1*
X3175905Y1550740D1*
X3169404Y1554052D1*
X3163501Y1558341D1*
X3158341Y1563501D1*
X3154052Y1569404D1*
X3150740Y1575905D1*
X3148485Y1582845D1*
X3147343Y1590052D1*
Y1597348D1*
X3148485Y1604555D1*
X3150740Y1611495D1*
X3154052Y1617996D1*
X3158341Y1623899D1*
X3163501Y1629059D1*
X3169404Y1633348D1*
X3175905Y1636660D1*
X3182845Y1638915D1*
X3190052Y1640057D1*
X3197348D1*
X3204555Y1638915D1*
X3211495Y1636660D1*
X3217996Y1633348D1*
X3223899Y1629059D1*
X3226465Y1626687D1*
X3246289Y1626594D1*
X3251403Y1625784D1*
X3256327Y1624184D1*
X3260940Y1621834D1*
X3265129Y1618790D1*
X3307351Y1576713D1*
X3348065Y1576696D1*
X3345145Y1583661D1*
X3343442Y1590757D1*
X3342869Y1598031D1*
X3343442Y1605305D1*
X3345145Y1612400D1*
X3347937Y1619141D1*
X3351750Y1625363D1*
X3356489Y1630911D1*
X3360704Y1634599D1*
Y2880018D1*
X2830030Y3410706D1*
X1957396Y3410704D1*
X1826689Y3280025D1*
X1826696Y3141874D1*
X1831621Y3138100D1*
X1838100Y3131621D1*
X1843687Y3123849D1*
X1849300Y3131621D1*
X1855779Y3138100D1*
X1863191Y3143485D1*
X1871355Y3147645D1*
X1880069Y3150476D1*
X1889119Y3151910D1*
X1898281D1*
X1907331Y3150476D1*
X1916045Y3147645D1*
X1924209Y3143485D1*
X1931621Y3138100D1*
X1938100Y3131621D1*
X1943687Y3123849D1*
X1949300Y3131621D1*
X1955779Y3138100D1*
X1963191Y3143485D1*
X1971355Y3147645D1*
X1980069Y3150476D1*
X1989119Y3151910D1*
X1998281D1*
X2007331Y3150476D1*
X2016045Y3147645D1*
X2024209Y3143485D1*
X2031621Y3138100D1*
X2038100Y3131621D1*
X2043687Y3123849D1*
X2049300Y3131621D1*
X2055779Y3138100D1*
X2063191Y3143485D1*
X2071355Y3147645D1*
X2080069Y3150476D1*
X2089119Y3151910D1*
X2098281D1*
X2107331Y3150476D1*
X2116045Y3147645D1*
X2124209Y3143485D1*
X2131621Y3138100D1*
X2138100Y3131621D1*
X2143687Y3123849D1*
X2149300Y3131621D1*
X2155779Y3138100D1*
X2163191Y3143485D1*
X2171355Y3147645D1*
X2180069Y3150476D1*
X2189119Y3151910D1*
X2198281D1*
X2207331Y3150476D1*
X2216045Y3147645D1*
X2224209Y3143485D1*
X2231621Y3138100D1*
X2238100Y3131621D1*
X2243687Y3123849D1*
X2249300Y3131621D1*
X2255779Y3138100D1*
X2263191Y3143485D1*
X2271355Y3147645D1*
X2280069Y3150476D1*
X2289119Y3151910D1*
X2298281D1*
X2307331Y3150476D1*
X2316045Y3147645D1*
X2324209Y3143485D1*
X2331621Y3138100D1*
X2338100Y3131621D1*
X2343687Y3123849D1*
X2349300Y3131621D1*
X2355779Y3138100D1*
X2363191Y3143485D1*
X2371355Y3147645D1*
X2380069Y3150476D1*
X2389119Y3151910D1*
X2398281D1*
X2407331Y3150476D1*
X2416045Y3147645D1*
X2424209Y3143485D1*
X2431621Y3138100D1*
X2438100Y3131621D1*
X2443687Y3123849D1*
X2449300Y3131621D1*
X2455779Y3138100D1*
X2463191Y3143485D1*
X2471355Y3147645D1*
X2480069Y3150476D1*
X2489119Y3151910D1*
X2498281D1*
X2507331Y3150476D1*
X2516045Y3147645D1*
X2524209Y3143485D1*
X2531621Y3138100D1*
X2538100Y3131621D1*
X2543485Y3124209D1*
X2547645Y3116045D1*
X2550476Y3107331D1*
X2551910Y3098281D1*
Y3089119D1*
X2550476Y3080069D1*
X2547645Y3071355D1*
X2543485Y3063191D1*
X2538100Y3055779D1*
X2531621Y3049300D1*
X2524209Y3043915D1*
X2516045Y3039755D1*
X2507331Y3036924D1*
X2498281Y3035490D1*
X2489119D1*
X2480069Y3036924D1*
X2471355Y3039755D1*
X2463191Y3043915D1*
X2455779Y3049300D1*
X2449300Y3055779D1*
X2443713Y3063551D1*
X2438100Y3055779D1*
X2431621Y3049300D1*
X2424209Y3043915D1*
X2416045Y3039755D1*
X2407331Y3036924D1*
X2398281Y3035490D1*
X2389119D1*
X2380069Y3036924D1*
X2371355Y3039755D1*
X2363191Y3043915D1*
X2355779Y3049300D1*
X2349300Y3055779D1*
X2343713Y3063551D1*
X2338100Y3055779D1*
X2331621Y3049300D1*
X2324209Y3043915D1*
X2316045Y3039755D1*
X2307331Y3036924D1*
X2298281Y3035490D1*
X2289119D1*
X2280069Y3036924D1*
X2271355Y3039755D1*
X2263191Y3043915D1*
X2255779Y3049300D1*
X2249300Y3055779D1*
X2243713Y3063551D1*
X2238100Y3055779D1*
X2231621Y3049300D1*
X2224209Y3043915D1*
X2216045Y3039755D1*
X2207331Y3036924D1*
X2198281Y3035490D1*
X2189119D1*
X2180069Y3036924D1*
X2171355Y3039755D1*
X2163191Y3043915D1*
X2155779Y3049300D1*
X2149300Y3055779D1*
X2143713Y3063551D1*
X2138100Y3055779D1*
X2131621Y3049300D1*
X2124209Y3043915D1*
X2116045Y3039755D1*
X2107331Y3036924D1*
X2098281Y3035490D1*
X2089119D1*
X2080069Y3036924D1*
X2071355Y3039755D1*
X2063191Y3043915D1*
X2055779Y3049300D1*
X2049300Y3055779D1*
X2043713Y3063551D1*
X2038100Y3055779D1*
X2031621Y3049300D1*
X2024209Y3043915D1*
X2016045Y3039755D1*
X2007331Y3036924D1*
X1998281Y3035490D1*
X1989119D1*
X1980069Y3036924D1*
X1971355Y3039755D1*
X1963191Y3043915D1*
X1955779Y3049300D1*
X1949300Y3055779D1*
X1943713Y3063551D1*
X1938100Y3055779D1*
X1931621Y3049300D1*
X1924209Y3043915D1*
X1916045Y3039755D1*
X1907331Y3036924D1*
X1898281Y3035490D1*
X1889119D1*
X1880069Y3036924D1*
X1871355Y3039755D1*
X1863191Y3043915D1*
X1855779Y3049300D1*
X1849300Y3055779D1*
X1843713Y3063551D1*
X1838100Y3055779D1*
X1831621Y3049300D1*
X1824209Y3043915D1*
X1816045Y3039755D1*
X1807331Y3036924D1*
X1798281Y3035490D1*
X1789119D1*
X1780069Y3036924D1*
X1771355Y3039755D1*
X1763191Y3043915D1*
X1755779Y3049300D1*
X1749300Y3055779D1*
X1743713Y3063551D1*
X1738100Y3055779D1*
X1731621Y3049300D1*
X1724209Y3043915D1*
X1716045Y3039755D1*
X1707331Y3036924D1*
X1698281Y3035490D1*
X1689119D1*
X1680069Y3036924D1*
X1671355Y3039755D1*
X1663191Y3043915D1*
X1655779Y3049300D1*
X1649300Y3055779D1*
X1643713Y3063551D1*
X1638100Y3055779D1*
X1631621Y3049300D1*
X1624209Y3043915D1*
X1616045Y3039755D1*
X1607331Y3036924D1*
X1598281Y3035490D1*
X1589119D1*
X1580069Y3036924D1*
X1571355Y3039755D1*
X1563191Y3043915D1*
X1555779Y3049300D1*
X1549300Y3055779D1*
X1543713Y3063551D1*
X1538100Y3055779D1*
X1531621Y3049300D1*
X1524209Y3043915D1*
X1516045Y3039755D1*
X1507331Y3036924D1*
X1498281Y3035490D1*
X1489119D1*
X1480069Y3036924D1*
X1471355Y3039755D1*
X1463191Y3043915D1*
X1455779Y3049300D1*
X1452084Y3052767D1*
X1452090Y3035310D1*
X1335310D1*
Y3152090D1*
X1344497D1*
X1726695Y3141824D2*
X1731621Y3138100D1*
X1738100Y3131621D1*
X1743687Y3123849D1*
X1749300Y3131621D1*
X1755779Y3138100D1*
X1760705Y3141824D1*
X1760805Y3296289D1*
X1761615Y3301403D1*
X1763215Y3306327D1*
X1765566Y3310940D1*
X1768609Y3315129D1*
X1815838Y3362502D1*
X1922271Y3468791D1*
X1926460Y3471834D1*
X1931073Y3474185D1*
X1935997Y3475785D1*
X1941111Y3476594D1*
X2008004Y3476696D1*
X2846289Y3476594D1*
X2851403Y3475785D1*
X2856327Y3474185D1*
X2860940Y3471834D1*
X2865129Y3468791D1*
X2912502Y3421562D1*
X3418791Y2915129D1*
X3421834Y2910940D1*
X3424185Y2906327D1*
X3425785Y2901403D1*
X3426594Y2896289D1*
X3426696Y2829396D1*
Y1625732D1*
X3430801Y1619141D1*
X3433593Y1612400D1*
X3435297Y1605305D1*
X3435869Y1598031D1*
X3435297Y1590757D1*
X3433593Y1583661D1*
X3431261Y1577917D1*
X3460687Y1607351D1*
X3460704Y2930063D1*
X2880043Y3510693D1*
X1907351Y3510704D1*
X1726702Y3330038D1*
X1726696Y3141851D1*
X2126712Y2148509D2*
X2131318Y2145477D1*
X2138955Y2138955D1*
X2143666Y2133615D1*
X2148445Y2138955D1*
X2156082Y2145477D1*
X2160688Y2148509D1*
X2160806Y2196289D1*
X2161616Y2201403D1*
X2163216Y2206327D1*
X2165566Y2210940D1*
X2168610Y2215129D1*
X2214037Y2260700D1*
X2157392Y2260704D1*
X2126713Y2230049D1*
X2126696Y2148571D1*
X2460688Y2838891D2*
X2456082Y2841923D1*
X2448445Y2848445D1*
X2443734Y2853785D1*
X2438955Y2848445D1*
X2431318Y2841923D1*
X2426712Y2838891D1*
X2426696Y2807399D1*
X2507388Y2726675D1*
X2513872Y2726864D1*
X2468610Y2772271D1*
X2465566Y2776460D1*
X2463216Y2781073D1*
X2461616Y2785997D1*
X2460806Y2791111D1*
X2460704Y2838878D1*
X2160688Y2838891D2*
X2156082Y2841923D1*
X2148445Y2848445D1*
X2143734Y2853785D1*
X2138955Y2848445D1*
X2131318Y2841923D1*
X2122755Y2836676D1*
X2113477Y2832832D1*
X2103712Y2830488D1*
X2093700Y2829700D1*
X2083688Y2830488D1*
X2073923Y2832832D1*
X2064645Y2836676D1*
X2056082Y2841923D1*
X2048445Y2848445D1*
X2043734Y2853785D1*
X2038955Y2848445D1*
X2031318Y2841923D1*
X2022755Y2836676D1*
X2013477Y2832832D1*
X2003712Y2830488D1*
X1993700Y2829700D1*
X1983688Y2830488D1*
X1973923Y2832832D1*
X1964645Y2836676D1*
X1956082Y2841923D1*
X1948445Y2848445D1*
X1943734Y2853785D1*
X1938955Y2848445D1*
X1931318Y2841923D1*
X1922755Y2836676D1*
X1913477Y2832832D1*
X1903712Y2830488D1*
X1893700Y2829700D1*
X1883688Y2830488D1*
X1873923Y2832832D1*
X1864645Y2836676D1*
X1856082Y2841923D1*
X1848445Y2848445D1*
X1843734Y2853785D1*
X1838955Y2848445D1*
X1831318Y2841923D1*
X1822755Y2836676D1*
X1813477Y2832832D1*
X1803712Y2830488D1*
X1793700Y2829700D1*
X1783688Y2830488D1*
X1773923Y2832832D1*
X1764645Y2836676D1*
X1756082Y2841923D1*
X1748445Y2848445D1*
X1743734Y2853785D1*
X1738955Y2848445D1*
X1731318Y2841923D1*
X1722755Y2836676D1*
X1713477Y2832832D1*
X1703712Y2830488D1*
X1693700Y2829700D1*
X1683688Y2830488D1*
X1673923Y2832832D1*
X1664645Y2836676D1*
X1656082Y2841923D1*
X1648445Y2848445D1*
X1643734Y2853785D1*
X1638955Y2848445D1*
X1635188Y2844973D1*
X1635072Y2790444D1*
X1634053Y2784012D1*
X1632041Y2777819D1*
X1629085Y2772016D1*
X1625257Y2766748D1*
X1597062Y2738372D1*
X1520652Y2662143D1*
X1515384Y2658315D1*
X1509581Y2655359D1*
X1503388Y2653347D1*
X1496956Y2652328D1*
X1456955Y2652200D1*
X860882D1*
X735188Y2526498D1*
X735200Y2481872D1*
X872271Y2618790D1*
X876460Y2621834D1*
X881073Y2624184D1*
X885997Y2625784D1*
X891111Y2626594D1*
X958004Y2626696D1*
X2030045D1*
X2160712Y2757375D1*
X2160704Y2838829D1*
X931061Y2836825D2*
X930252Y2829991D1*
X928910Y2823243D1*
X927042Y2816620D1*
X924661Y2810165D1*
X921780Y2803916D1*
X918418Y2797913D1*
X914595Y2792192D1*
X910335Y2786788D1*
X905665Y2781735D1*
X900612Y2777065D1*
X895208Y2772805D1*
X889487Y2768982D1*
X883484Y2765620D1*
X877235Y2762739D1*
X870780Y2760358D1*
X864157Y2758490D1*
X857409Y2757148D1*
X850575Y2756339D1*
X843700Y2756069D1*
X836825Y2756339D1*
X829991Y2757148D1*
X823243Y2758490D1*
X816620Y2760358D1*
X810165Y2762739D1*
X803916Y2765620D1*
X797913Y2768982D1*
X792192Y2772805D1*
X786788Y2777065D1*
X781735Y2781735D1*
X777065Y2786788D1*
X772805Y2792192D1*
X768982Y2797913D1*
X765620Y2803916D1*
X762739Y2810165D1*
X760358Y2816620D1*
X758490Y2823243D1*
X757148Y2829991D1*
X756339Y2836825D1*
X756069Y2843700D1*
X756339Y2850575D1*
X757148Y2857409D1*
X758490Y2864157D1*
X760358Y2870780D1*
X762739Y2877235D1*
X765620Y2883484D1*
X768982Y2889487D1*
X772805Y2895208D1*
X777065Y2900612D1*
X781735Y2905665D1*
X786788Y2910335D1*
X792192Y2914595D1*
X797913Y2918418D1*
X803916Y2921780D1*
X810165Y2924661D1*
X816620Y2927042D1*
X823243Y2928910D1*
X829991Y2930252D1*
X836825Y2931061D1*
X843700Y2931331D1*
X850575Y2931061D1*
X857409Y2930252D1*
X864157Y2928910D1*
X870780Y2927042D1*
X877235Y2924661D1*
X883484Y2921780D1*
X889487Y2918418D1*
X895208Y2914595D1*
X900612Y2910335D1*
X905665Y2905665D1*
X910335Y2900612D1*
X914595Y2895208D1*
X918418Y2889487D1*
X921780Y2883484D1*
X924661Y2877235D1*
X927042Y2870780D1*
X928910Y2864157D1*
X930252Y2857409D1*
X931061Y2850575D1*
X931331Y2843700D1*
X931061Y2836825D1*
X1529285Y1154779D2*
X1593887Y1090177D1*
X1600974Y1089628D1*
X1608069Y1087924D1*
X1614811Y1085132D1*
X1621032Y1081319D1*
X1626580Y1076580D1*
X1631319Y1071032D1*
X1635132Y1064811D1*
X1637924Y1058069D1*
X1639628Y1050974D1*
X1640200Y1043700D1*
X1639628Y1036426D1*
X1639385Y1035209D1*
X1893504Y1035200D1*
X1776498Y1152212D1*
X1540444Y1152328D1*
X1534012Y1153347D1*
X1530864Y1154235D1*
X2885197Y1014668D2*
X2887924Y1008069D1*
X2889628Y1000974D1*
X2890200Y993700D1*
X2889628Y986426D1*
X2887924Y979331D1*
X2885132Y972589D1*
X2881319Y966368D1*
X2876580Y960820D1*
X2871032Y956081D1*
X2864811Y952268D1*
X2858069Y949476D1*
X2850974Y947772D1*
X2843700Y947200D1*
X2836426Y947772D1*
X2829331Y949476D1*
X2822732Y952203D1*
X2960704Y2173327D2*
Y2180001D1*
X2880012Y2260725D1*
X2873528Y2260536D1*
X2960687Y2173377D1*
X535704Y1926462D2*
Y2260903D1*
X531081Y2266368D1*
X527268Y2272589D1*
X524476Y2279331D1*
X522772Y2286426D1*
X522200Y2293700D1*
X522772Y2300974D1*
X524476Y2308069D1*
X527268Y2314811D1*
X531081Y2321032D1*
X535820Y2326580D1*
X541368Y2331319D1*
X547589Y2335132D1*
X554331Y2337924D1*
X561426Y2339628D1*
X568700Y2340200D1*
X575974Y2339628D1*
X583069Y2337924D1*
X589811Y2335132D1*
X596032Y2331319D1*
X601580Y2326580D1*
X606319Y2321032D1*
X610132Y2314811D1*
X612924Y2308069D1*
X614628Y2300974D1*
X615200Y2293700D1*
X614628Y2286426D1*
X612924Y2279331D1*
X610132Y2272589D1*
X606319Y2266368D1*
X601687Y2260935D1*
X601696Y1926497D1*
X606319Y1921032D1*
X610132Y1914811D1*
X612924Y1908069D1*
X614628Y1900974D1*
X615200Y1893700D1*
X614628Y1886426D1*
X612924Y1879331D1*
X610132Y1872589D1*
X606319Y1866368D1*
X601580Y1860820D1*
X596032Y1856081D1*
X589811Y1852268D1*
X583069Y1849476D1*
X575974Y1847772D1*
X568700Y1847200D1*
X561426Y1847772D1*
X554331Y1849476D1*
X547589Y1852268D1*
X541368Y1856081D1*
X535820Y1860820D1*
X531081Y1866368D1*
X527268Y1872589D1*
X524476Y1879331D1*
X522772Y1886426D1*
X522200Y1893700D1*
X522772Y1900974D1*
X524476Y1908069D1*
X527268Y1914811D1*
X531081Y1921032D1*
X535713Y1926465D1*
X3167006Y1820343D2*
X3073377Y1726713D1*
X3080004Y1726696D1*
X3210712Y1857375D1*
X3210704Y2280016D1*
X2780054Y2710682D1*
X2773527Y2710536D1*
X3168790Y2315129D1*
X3171834Y2310940D1*
X3174184Y2306327D1*
X3175784Y2301403D1*
X3176594Y2296289D1*
X3176696Y2229396D1*
X3176594Y1841111D1*
X3175784Y1835997D1*
X3174184Y1831073D1*
X3171834Y1826460D1*
X3168790Y1822271D1*
X3167024Y1820361D1*
X976462Y1776696D2*
X1460971D1*
X1466368Y1781319D1*
X1472589Y1785132D1*
X1479331Y1787924D1*
X1486426Y1789628D1*
X1493700Y1790200D1*
X1500974Y1789628D1*
X1508069Y1787924D1*
X1514811Y1785132D1*
X1521032Y1781319D1*
X1526580Y1776580D1*
X1531319Y1771032D1*
X1535132Y1764811D1*
X1537924Y1758069D1*
X1539628Y1750974D1*
X1540200Y1743700D1*
X1539628Y1736426D1*
X1537924Y1729331D1*
X1535132Y1722589D1*
X1531319Y1716368D1*
X1526580Y1710820D1*
X1521032Y1706081D1*
X1514811Y1702268D1*
X1508069Y1699476D1*
X1500974Y1697772D1*
X1493700Y1697200D1*
X1486426Y1697772D1*
X1479331Y1699476D1*
X1472589Y1702268D1*
X1466368Y1706081D1*
X1460935Y1710713D1*
X976429Y1710704D1*
X971032Y1706081D1*
X964811Y1702268D1*
X958069Y1699476D1*
X950974Y1697772D1*
X943700Y1697200D1*
X936426Y1697772D1*
X929331Y1699476D1*
X922589Y1702268D1*
X916368Y1706081D1*
X910820Y1710820D1*
X906081Y1716368D1*
X902268Y1722589D1*
X899476Y1729331D1*
X897772Y1736426D1*
X897200Y1743700D1*
X897772Y1750974D1*
X899476Y1758069D1*
X902268Y1764811D1*
X906081Y1771032D1*
X910820Y1776580D1*
X916368Y1781319D1*
X922589Y1785132D1*
X929331Y1787924D1*
X936426Y1789628D1*
X943700Y1790200D1*
X950974Y1789628D1*
X958069Y1787924D1*
X964811Y1785132D1*
X971032Y1781319D1*
X976465Y1776687D1*
X1343700Y662242D2*
D16*
Y500158D1*
X2243700Y662242D2*
Y500158D1*
X3193700Y587451D2*
Y506409D1*
X1293700Y1952054D2*
Y1835346D1*
X643700Y1365164D2*
Y1318700D1*
Y868700D2*
Y822236D1*
X3643700Y868700D2*
Y822236D1*
Y1365164D2*
Y1318700D1*
Y3431200D2*
Y3384736D1*
X3418700Y3702664D2*
Y3609736D1*
X643700Y3431200D2*
Y3384736D1*
X1293700Y2157664D2*
Y2029736D1*
D23*
X1193700Y1543700D3*
D24*
X1293700D3*
X1393700D3*
X843700Y3143700D3*
Y3222440D3*
D23*
Y3301180D3*
X1193700Y3643700D3*
D24*
Y3543700D3*
Y3443700D3*
D92*
X1343700Y581200D3*
X1493700D3*
X1643700D3*
D23*
X1743700Y1543700D3*
D24*
X1843700D3*
X1943700D3*
D23*
X1743700Y1343700D3*
D24*
X1843700D3*
X1943700D3*
D92*
X2243700Y581200D3*
X2393700D3*
X2543700D3*
X2693700D3*
D23*
X2293700Y1543700D3*
D24*
X2393700D3*
X2493700D3*
D23*
X2293700Y1343700D3*
D24*
X2393700D3*
X2493700D3*
D92*
X3193700Y587451D3*
X3343700D3*
X3493700D3*
X3643700D3*
D30*
X993700Y1893700D3*
D31*
X1093700D3*
X1193700D3*
X1293700D3*
X1393700D3*
X1493700D3*
X1593700D3*
X1693700D3*
X1793700D3*
X1893700D3*
X1993700D3*
X2093700D3*
X2193700D3*
X2293700D3*
X2393700D3*
X2493700D3*
D30*
X1393700Y3093700D3*
D31*
X1493700D3*
X1593700D3*
X1693700D3*
X1793700D3*
X1893700D3*
X1993700D3*
X2093700D3*
X2193700D3*
X2293700D3*
X2393700D3*
X2493700D3*
D37*
X993700Y2093700D3*
X1093700D3*
X1193700D3*
X1293700D3*
X1393700D3*
X1493700D3*
X1593700D3*
X1693700D3*
X1793700D3*
X1893700D3*
X1993700D3*
X2093700D3*
X2193700D3*
X2293700D3*
X2393700D3*
X2493700D3*
Y2893700D3*
X2393700D3*
X2293700D3*
X2193700D3*
X2093700D3*
X1993700D3*
X1893700D3*
X1793700D3*
X1693700D3*
X1593700D3*
X1493700D3*
X1393700D3*
M02*
