G04 DipTrace 3.3.1.3*
G04 TopDimension.gbr*
%MOIN*%
G04 #@! TF.FileFunction,Drawing,Top*
G04 #@! TF.Part,Single*
%ADD13C,0.001378*%
%ADD91C,0.006176*%
%FSLAX26Y26*%
G04*
G70*
G90*
G75*
G01*
G04 TopDimension*
%LPD*%
X3893700Y3893700D2*
D13*
X4100885D1*
X3893700Y393700D2*
X4100885D1*
X4081200Y2143700D2*
Y3854330D1*
G36*
Y3893700D2*
X4089074Y3854330D1*
X4073326D1*
X4081200Y3893700D1*
G37*
Y2143700D2*
D13*
Y433070D1*
G36*
Y393700D2*
X4073326Y433070D1*
X4089074D1*
X4081200Y393700D1*
G37*
X3893700Y3893700D2*
D13*
Y4100885D1*
X393700Y3893700D2*
Y4100885D1*
X2143700Y4081200D2*
X3854330D1*
G36*
X3893700D2*
X3854330Y4073326D1*
Y4089074D1*
X3893700Y4081200D1*
G37*
X2143700D2*
D13*
X433070D1*
G36*
X393700D2*
X433070Y4089074D1*
Y4073326D1*
X393700Y4081200D1*
G37*
X643700Y3643700D2*
D13*
Y3975885D1*
X3643700Y3643700D2*
Y3975885D1*
X2143700Y3956200D2*
X683070D1*
G36*
X643700D2*
X683070Y3964074D1*
Y3948326D1*
X643700Y3956200D1*
G37*
X2143700D2*
D13*
X3604330D1*
G36*
X3643700D2*
X3604330Y3948326D1*
Y3964074D1*
X3643700Y3956200D1*
G37*
Y3643700D2*
D13*
X3975885D1*
X3643700Y1093700D2*
X3975885D1*
X3956200Y2368700D2*
Y3604330D1*
G36*
Y3643700D2*
X3964074Y3604330D1*
X3948326D1*
X3956200Y3643700D1*
G37*
Y2368700D2*
D13*
Y1133070D1*
G36*
Y1093700D2*
X3948326Y1133070D1*
X3964074D1*
X3956200Y1093700D1*
G37*
X643700Y3643700D2*
D13*
Y3975885D1*
X393700Y3893700D2*
Y3975885D1*
X518700Y3956200D2*
X604330D1*
G36*
X643700D2*
X604330Y3948326D1*
Y3964074D1*
X643700Y3956200D1*
G37*
X518700D2*
D13*
X433070D1*
G36*
X393700D2*
X433070Y3964074D1*
Y3948326D1*
X393700Y3956200D1*
G37*
X3643700Y3643700D2*
D13*
Y3975885D1*
X3893700Y3893700D2*
Y3975885D1*
X3768700Y3956200D2*
X3683070D1*
G36*
X3643700D2*
X3683070Y3964074D1*
Y3948326D1*
X3643700Y3956200D1*
G37*
X3768700D2*
D13*
X3854330D1*
G36*
X3893700D2*
X3854330Y3948326D1*
Y3964074D1*
X3893700Y3956200D1*
G37*
X3643700Y3643700D2*
D13*
X3975885D1*
X3893700Y3893700D2*
X3975885D1*
X3956200Y3768700D2*
Y3683070D1*
G36*
Y3643700D2*
X3948326Y3683070D1*
X3964074D1*
X3956200Y3643700D1*
G37*
Y3768700D2*
D13*
Y3854330D1*
G36*
Y3893700D2*
X3964074Y3854330D1*
X3948326D1*
X3956200Y3893700D1*
G37*
X3643700Y1093700D2*
D13*
X3975885D1*
X3893700Y393700D2*
X3975885D1*
X3956200Y743700D2*
Y1054330D1*
G36*
Y1093700D2*
X3964074Y1054330D1*
X3948326D1*
X3956200Y1093700D1*
G37*
Y743700D2*
D13*
Y433070D1*
G36*
Y393700D2*
X3948326Y433070D1*
X3964074D1*
X3956200Y393700D1*
G37*
X4133559Y2177835D2*
D91*
Y2156832D1*
X4118260Y2168284D1*
Y2162536D1*
X4116359Y2158734D1*
X4114457Y2156832D1*
X4108709Y2154887D1*
X4104907D1*
X4099159Y2156832D1*
X4095312Y2160635D1*
X4093411Y2166383D1*
Y2172131D1*
X4095312Y2177835D1*
X4097258Y2179736D1*
X4101060Y2181682D1*
X4097258Y2140634D2*
X4095312Y2142536D1*
X4093411Y2140634D1*
X4095312Y2138689D1*
X4097258Y2140634D1*
X4133559Y2103389D2*
Y2122491D1*
X4116359Y2124392D1*
X4118260Y2122491D1*
X4120205Y2116743D1*
Y2111039D1*
X4118260Y2105291D1*
X4114457Y2101444D1*
X4108709Y2099543D1*
X4104907D1*
X4099159Y2101444D1*
X4095312Y2105291D1*
X4093411Y2111039D1*
Y2116743D1*
X4095312Y2122491D1*
X4097258Y2124392D1*
X4101060Y2126337D1*
X2109565Y4133559D2*
X2130568D1*
X2119116Y4118260D1*
X2124864D1*
X2128666Y4116359D1*
X2130568Y4114457D1*
X2132513Y4108709D1*
Y4104907D1*
X2130568Y4099159D1*
X2126765Y4095312D1*
X2121017Y4093411D1*
X2115269D1*
X2109565Y4095312D1*
X2107664Y4097258D1*
X2105718Y4101060D1*
X2146766Y4097258D2*
X2144864Y4095312D1*
X2146766Y4093411D1*
X2148711Y4095312D1*
X2146766Y4097258D1*
X2184011Y4133559D2*
X2164909D1*
X2163008Y4116359D1*
X2164909Y4118260D1*
X2170657Y4120205D1*
X2176361D1*
X2182109Y4118260D1*
X2185956Y4114457D1*
X2187857Y4108709D1*
Y4104907D1*
X2185956Y4099159D1*
X2182109Y4095312D1*
X2176361Y4093411D1*
X2170657D1*
X2164909Y4095312D1*
X2163008Y4097258D1*
X2161063Y4101060D1*
X2137237Y4008559D2*
X2158240D1*
X2146788Y3993260D1*
X2152536D1*
X2156338Y3991359D1*
X2158240Y3989457D1*
X2160185Y3983709D1*
Y3979907D1*
X2158240Y3974159D1*
X2154437Y3970312D1*
X2148689Y3968411D1*
X2142941D1*
X2137237Y3970312D1*
X2135336Y3972258D1*
X2133391Y3976060D1*
X3999008Y2424309D2*
X4000909D1*
X4004756Y2422408D1*
X4006657Y2420507D1*
X4008559Y2416660D1*
Y2409011D1*
X4006657Y2405208D1*
X4004756Y2403307D1*
X4000909Y2401361D1*
X3997107D1*
X3993260Y2403307D1*
X3987556Y2407109D1*
X3968411Y2426255D1*
Y2399460D1*
X3972258Y2385207D2*
X3970312Y2387109D1*
X3968411Y2385207D1*
X3970312Y2383262D1*
X3972258Y2385207D1*
X4008559Y2347962D2*
Y2367064D1*
X3991359Y2368965D1*
X3993260Y2367064D1*
X3995205Y2361316D1*
Y2355612D1*
X3993260Y2349864D1*
X3989457Y2346017D1*
X3983709Y2344116D1*
X3979907D1*
X3974159Y2346017D1*
X3970312Y2349864D1*
X3968411Y2355612D1*
Y2361316D1*
X3970312Y2367064D1*
X3972258Y2368965D1*
X3976060Y2370910D1*
X4008559Y2308816D2*
Y2327918D1*
X3991359Y2329819D1*
X3993260Y2327918D1*
X3995205Y2322170D1*
Y2316466D1*
X3993260Y2310718D1*
X3989457Y2306871D1*
X3983709Y2304970D1*
X3979907D1*
X3974159Y2306871D1*
X3970312Y2310718D1*
X3968411Y2316466D1*
Y2322170D1*
X3970312Y2327918D1*
X3972258Y2329819D1*
X3976060Y2331764D1*
X472641Y4008559D2*
X466893Y4006657D1*
X463047Y4000909D1*
X461145Y3991359D1*
Y3985611D1*
X463047Y3976060D1*
X466893Y3970312D1*
X472641Y3968411D1*
X476444D1*
X482192Y3970312D1*
X485995Y3976060D1*
X487940Y3985611D1*
Y3991359D1*
X485995Y4000909D1*
X482192Y4006657D1*
X476444Y4008559D1*
X472641D1*
X485995Y4000909D2*
X463047Y3976060D1*
X502193Y3972258D2*
X500291Y3970312D1*
X502193Y3968411D1*
X504138Y3970312D1*
X502193Y3972258D1*
X518435Y3999008D2*
Y4000909D1*
X520336Y4004756D1*
X522238Y4006657D1*
X526084Y4008559D1*
X533734D1*
X537536Y4006657D1*
X539438Y4004756D1*
X541383Y4000909D1*
Y3997107D1*
X539438Y3993260D1*
X535635Y3987556D1*
X516490Y3968411D1*
X543284D1*
X578584Y4008559D2*
X559482D1*
X557581Y3991359D1*
X559482Y3993260D1*
X565230Y3995205D1*
X570934D1*
X576682Y3993260D1*
X580529Y3989457D1*
X582430Y3983709D1*
Y3979907D1*
X580529Y3974159D1*
X576682Y3970312D1*
X570934Y3968411D1*
X565230D1*
X559482Y3970312D1*
X557581Y3972258D1*
X555636Y3976060D1*
X3722641Y4008559D2*
X3716893Y4006657D1*
X3713047Y4000909D1*
X3711145Y3991359D1*
Y3985611D1*
X3713047Y3976060D1*
X3716893Y3970312D1*
X3722641Y3968411D1*
X3726444D1*
X3732192Y3970312D1*
X3735995Y3976060D1*
X3737940Y3985611D1*
Y3991359D1*
X3735995Y4000909D1*
X3732192Y4006657D1*
X3726444Y4008559D1*
X3722641D1*
X3735995Y4000909D2*
X3713047Y3976060D1*
X3752193Y3972258D2*
X3750291Y3970312D1*
X3752193Y3968411D1*
X3754138Y3970312D1*
X3752193Y3972258D1*
X3768435Y3999008D2*
Y4000909D1*
X3770336Y4004756D1*
X3772238Y4006657D1*
X3776084Y4008559D1*
X3783734D1*
X3787536Y4006657D1*
X3789438Y4004756D1*
X3791383Y4000909D1*
Y3997107D1*
X3789438Y3993260D1*
X3785635Y3987556D1*
X3766490Y3968411D1*
X3793284D1*
X3828584Y4008559D2*
X3809482D1*
X3807581Y3991359D1*
X3809482Y3993260D1*
X3815230Y3995205D1*
X3820934D1*
X3826682Y3993260D1*
X3830529Y3989457D1*
X3832430Y3983709D1*
Y3979907D1*
X3830529Y3974159D1*
X3826682Y3970312D1*
X3820934Y3968411D1*
X3815230D1*
X3809482Y3970312D1*
X3807581Y3972258D1*
X3805636Y3976060D1*
X4008559Y3814759D2*
X4006657Y3820507D1*
X4000909Y3824353D1*
X3991359Y3826255D1*
X3985611D1*
X3976060Y3824353D1*
X3970312Y3820507D1*
X3968411Y3814759D1*
Y3810956D1*
X3970312Y3805208D1*
X3976060Y3801405D1*
X3985611Y3799460D1*
X3991359D1*
X4000909Y3801405D1*
X4006657Y3805208D1*
X4008559Y3810956D1*
Y3814759D1*
X4000909Y3801405D2*
X3976060Y3824353D1*
X3972258Y3785207D2*
X3970312Y3787109D1*
X3968411Y3785207D1*
X3970312Y3783262D1*
X3972258Y3785207D1*
X3999008Y3768965D2*
X4000909D1*
X4004756Y3767064D1*
X4006657Y3765162D1*
X4008559Y3761316D1*
Y3753666D1*
X4006657Y3749864D1*
X4004756Y3747962D1*
X4000909Y3746017D1*
X3997107D1*
X3993260Y3747962D1*
X3987556Y3751765D1*
X3968411Y3770910D1*
Y3744116D1*
X4008559Y3708816D2*
Y3727918D1*
X3991359Y3729819D1*
X3993260Y3727918D1*
X3995205Y3722170D1*
Y3716466D1*
X3993260Y3710718D1*
X3989457Y3706871D1*
X3983709Y3704970D1*
X3979907D1*
X3974159Y3706871D1*
X3970312Y3710718D1*
X3968411Y3716466D1*
Y3722170D1*
X3970312Y3727918D1*
X3972258Y3729819D1*
X3976060Y3731764D1*
X4008559Y770186D2*
X4006657Y775934D1*
X4000909Y779780D1*
X3991359Y781682D1*
X3985611D1*
X3976060Y779780D1*
X3970312Y775934D1*
X3968411Y770186D1*
Y766383D1*
X3970312Y760635D1*
X3976060Y756832D1*
X3985611Y754887D1*
X3991359D1*
X4000909Y756832D1*
X4006657Y760635D1*
X4008559Y766383D1*
Y770186D1*
X4000909Y756832D2*
X3976060Y779780D1*
X3972258Y740634D2*
X3970312Y742536D1*
X3968411Y740634D1*
X3970312Y738689D1*
X3972258Y740634D1*
X3968411Y718688D2*
X4008559Y699543D1*
Y726337D1*
M02*
