%TF.GenerationSoftware,Novarm,DipTrace,3.3.1.3*%
%TF.CreationDate,2019-12-24T00:16:22-05:00*%
%FSLAX26Y26*%
%MOIN*%
%TF.FileFunction,Soldermask,Bot*%
%TF.Part,Single*%
%AMOUTLINE1*
4,1,8,
0.0585,0.024232,
0.0585,-0.024232,
0.024232,-0.0585,
-0.024232,-0.0585,
-0.0585,-0.024232,
-0.0585,0.024232,
-0.024232,0.0585,
0.024232,0.0585,
0.0585,0.024232,
0*%
%ADD43C,0.1285*%
%ADD44C,0.13*%
%ADD45C,0.1*%
%ADD57C,0.08288*%
%ADD67C,0.07166*%
%ADD69R,0.07166X0.07166*%
%ADD79C,0.066935*%
%ADD81R,0.066935X0.066935*%
%ADD93OUTLINE1*%
G75*
G01*
%LPD*%
D43*
X643700Y1093700D3*
X3643700D3*
D44*
Y3643700D3*
D43*
X643700D3*
D81*
X1193700Y1543700D3*
D79*
X1293700D3*
X1393700D3*
X843700Y3143700D3*
Y3222440D3*
D81*
Y3301180D3*
X1193700Y3643700D3*
D79*
Y3543700D3*
Y3443700D3*
D93*
X1343700Y581200D3*
X1493700D3*
X1643700D3*
D81*
X1743700Y1543700D3*
D79*
X1843700D3*
X1943700D3*
D81*
X1743700Y1343700D3*
D79*
X1843700D3*
X1943700D3*
D93*
X2243700Y581200D3*
X2393700D3*
X2543700D3*
X2693700D3*
D81*
X2293700Y1543700D3*
D79*
X2393700D3*
X2493700D3*
D81*
X2293700Y1343700D3*
D79*
X2393700D3*
X2493700D3*
D93*
X3193700Y587451D3*
X3343700D3*
X3493700D3*
X3643700D3*
D69*
X993700Y1893700D3*
D67*
X1093700D3*
X1193700D3*
X1293700D3*
X1393700D3*
X1493700D3*
X1593700D3*
X1693700D3*
X1793700D3*
X1893700D3*
X1993700D3*
X2093700D3*
X2193700D3*
X2293700D3*
X2393700D3*
X2493700D3*
D69*
X1393700Y3093700D3*
D67*
X1493700D3*
X1593700D3*
X1693700D3*
X1793700D3*
X1893700D3*
X1993700D3*
X2093700D3*
X2193700D3*
X2293700D3*
X2393700D3*
X2493700D3*
D57*
X993700Y2093700D3*
X1093700D3*
X1193700D3*
X1293700D3*
X1393700D3*
X1493700D3*
X1593700D3*
X1693700D3*
X1793700D3*
X1893700D3*
X1993700D3*
X2093700D3*
X2193700D3*
X2293700D3*
X2393700D3*
X2493700D3*
Y2893700D3*
X2393700D3*
X2293700D3*
X2193700D3*
X2093700D3*
X1993700D3*
X1893700D3*
X1793700D3*
X1693700D3*
X1593700D3*
X1493700D3*
X1393700D3*
D45*
X2643700Y2143700D3*
Y2843700D3*
X843700Y2143700D3*
Y2843700D3*
M02*
