M48
INCH
T01C0.0191
T02C0.0276
T03C0.0354
T04C0.0402
T05C0.0512
T06C0.1
T07C0.1285
T08C0.13
%
T01
X+006437Y+013187
X+007812Y+014437
X+009437Y+015687
X+008685Y+017187
X+009437Y+017437
X+008685Y+018685
X+005687Y+018937
X+005687Y+017187
X+005687Y+022937
X+008437Y+022937
X+014937Y+017437
X+016437Y+012437
X+015937Y+010437
X+013437Y+011687
X+012437Y+010687
X+012937Y+009937
X+019437Y+009937
X+019813Y+010811
X+022187Y+010437
X+022813Y+010811
X+021437Y+007937
X+022187Y+013937
X+021437Y+015437
X+020437Y+015437
X+026437Y+014437
X+027938Y+010811
X+028938Y+010811
X+028437Y+009937
X+030437Y+007937
X+031813Y+010811
X+031187Y+011687
X+031937Y+014187
X+031937Y+015937
X+033894Y+015980
X+036437Y+013187
X+036437Y+008687
X+030437Y+018937
X+029437Y+019937
X+029937Y+020937
X+027437Y+030437
X+034187Y+036562
X+036437Y+034312
X+006437Y+034312
X+006437Y+008687
X+006562Y+006312
T02
X+008437Y+031437
X+008437Y+032224
X+008437Y+033012
T03
X+011937Y+015437
X+012937Y+015437
X+013937Y+015437
X+017437Y+015437
X+018437Y+015437
X+019437Y+015437
X+019437Y+013437
X+018437Y+013437
X+017437Y+013437
X+022937Y+013437
X+023937Y+013437
X+024937Y+013437
X+024937Y+015437
X+023937Y+015437
X+022937Y+015437
X+022937Y+020937
X+023937Y+020937
X+024937Y+020937
X+021937Y+020937
X+020937Y+020937
X+019937Y+020937
X+018937Y+020937
X+017937Y+020937
X+016937Y+020937
X+015937Y+020937
X+014937Y+020937
X+013937Y+020937
X+012937Y+020937
X+011937Y+020937
X+010937Y+020937
X+009937Y+020937
X+013937Y+028937
X+014937Y+028937
X+015937Y+028937
X+016937Y+028937
X+017937Y+028937
X+018937Y+028937
X+019937Y+028937
X+020937Y+028937
X+021937Y+028937
X+022937Y+028937
X+023937Y+028937
X+024937Y+028937
X+011937Y+034437
X+011937Y+035437
X+011937Y+036437
T04
X+009937Y+018937
X+010937Y+018937
X+011937Y+018937
X+012937Y+018937
X+013937Y+018937
X+014937Y+018937
X+015937Y+018937
X+016937Y+018937
X+017937Y+018937
X+018937Y+018937
X+019937Y+018937
X+020937Y+018937
X+021937Y+018937
X+022937Y+018937
X+023937Y+018937
X+024937Y+018937
X+024937Y+030937
X+023937Y+030937
X+022937Y+030937
X+021937Y+030937
X+020937Y+030937
X+019937Y+030937
X+018937Y+030937
X+017937Y+030937
X+016937Y+030937
X+015937Y+030937
X+014937Y+030937
X+013937Y+030937
T05
X+013437Y+005812
X+014937Y+005812
X+016437Y+005812
X+022437Y+005812
X+023937Y+005812
X+025437Y+005812
X+026937Y+005812
X+031937Y+005875
X+033437Y+005875
X+034937Y+005875
X+036437Y+005875
T06
X+026437Y+021437
X+026437Y+028437
X+008437Y+028437
X+008437Y+021437
T07
X+006437Y+010937
X+006437Y+036437
X+036437Y+010937
T08
X+036437Y+036437
T00
M30
