%TF.GenerationSoftware,Novarm,DipTrace,3.3.1.3*%
%TF.CreationDate,2019-12-24T00:16:21-05:00*%
%FSLAX26Y26*%
%MOIN*%
%TF.FileFunction,Copper,L1,Top*%
%TF.Part,Single*%
%AMOUTLINE0*
4,1,8,
0.05456,0.0226,
0.05456,-0.0226,
0.0226,-0.05456,
-0.0226,-0.05456,
-0.05456,-0.0226,
-0.05456,0.0226,
-0.0226,0.05456,
0.0226,0.05456,
0.05456,0.0226,
0*%
%TA.AperFunction,Conductor*%
%ADD14C,0.012992*%
%ADD15C,0.03*%
%ADD16C,0.013*%
%ADD17C,0.015*%
%TA.AperFunction,CopperBalancing*%
%ADD18C,0.025*%
%ADD21R,0.059055X0.051181*%
%ADD22R,0.051181X0.059055*%
%TA.AperFunction,ComponentPad*%
%ADD23R,0.059055X0.059055*%
%ADD24C,0.059055*%
%ADD26R,0.015748X0.05315*%
%ADD27R,0.062992X0.055118*%
%ADD28R,0.090551X0.051181*%
%ADD29R,0.070866X0.074803*%
%TA.AperFunction,ComponentPad*%
%ADD30R,0.06378X0.06378*%
%ADD31C,0.06378*%
%ADD32R,0.133858X0.055118*%
%ADD33R,0.122047X0.03937*%
%ADD34R,0.096063X0.048425*%
%ADD36R,0.041339X0.025591*%
%TA.AperFunction,ComponentPad*%
%ADD37C,0.075*%
%ADD39R,0.017717X0.033465*%
%ADD40R,0.070866X0.062992*%
%TA.AperFunction,ViaPad*%
%ADD41C,0.04*%
%TA.AperFunction,ComponentPad*%
%ADD92OUTLINE0*%
%TA.AperFunction,CopperBalancing*%
%ADD95C,0.013*%
G75*
G01*
%LPD*%
X2193700Y3093700D2*
D14*
Y2893700D1*
X1343700Y893700D2*
X1493700D1*
Y1043700D2*
Y893700D1*
Y1043700D2*
X1593700D1*
X1093700Y1893700D2*
D15*
Y2093700D1*
X2643700Y1843700D2*
Y1693700D1*
X1193700Y1543700D2*
Y1643700D1*
X1093700Y1743700D1*
Y1793700D1*
Y1893700D1*
Y2093700D2*
Y2193700D1*
X643700Y2643700D1*
Y3193700D1*
X751180Y3301180D1*
X843700D1*
X1143700Y993700D2*
X1293700D1*
X1943700D2*
X1793700D1*
X2693700D2*
X2843700D1*
X2643700Y1443700D2*
Y1693700D1*
X493700Y1783464D2*
X583464D1*
X593700Y1793700D1*
X781200D1*
Y1568700D2*
D16*
Y1615447D1*
X752947Y1643700D1*
X518700D1*
X504330Y1629330D1*
Y1593700D1*
X781200Y1793700D2*
D15*
X1093700D1*
X781200Y1568700D2*
X943700D1*
X1493700Y1118503D2*
D16*
X1218503D1*
X1143700Y1043700D1*
Y993700D1*
X2143700Y1118503D2*
X2093897D1*
X2068700Y1143700D1*
X1893700D1*
X1793700Y1043700D1*
Y993700D1*
X3043700Y1118503D2*
X2981397D1*
X2931200Y1168700D1*
X2768700D1*
X2693700Y1093700D1*
Y993700D1*
X843700Y3301180D2*
D15*
X923720D1*
X1041239Y3418700D1*
Y3591239D1*
X1093700Y3643700D1*
X1193700D1*
X2393700D1*
X2631200Y3406200D1*
X2856200D1*
X1593700Y3093700D2*
D14*
Y2893700D1*
X2856200Y3256200D2*
D15*
X1706200D1*
X1593700Y3143700D1*
Y3093700D1*
X681200Y556200D2*
D17*
Y606200D1*
X656200Y631200D1*
X1493700Y2093700D2*
D14*
Y1893700D1*
X2293700Y1543700D2*
Y1593700D1*
X2243700Y1643700D1*
X1793700D1*
X1743700Y1593700D1*
Y1543700D1*
Y1593700D2*
X1493700Y1843700D1*
Y1893700D1*
X1593700D2*
Y2093700D1*
X1293700D2*
Y1893700D1*
X3131003Y3406200D2*
X3131200D1*
X3243700Y3293700D1*
Y3193700D1*
Y3043700D1*
Y2848669D1*
Y2693700D1*
Y2543700D1*
Y2443700D1*
X3293700Y2393700D1*
Y2293700D1*
Y2193700D1*
Y2093700D1*
Y1993700D1*
Y1893700D1*
Y1843700D1*
X3393700Y1743700D1*
X3793700D1*
X3843700Y1693700D1*
Y1593700D1*
X3743700Y1493700D1*
X3118503Y3043700D2*
X3243700D1*
X3118503Y2843700D2*
X3238731D1*
X3243700Y2848669D1*
X3118503Y2693700D2*
X3243700D1*
X3118503Y2543700D2*
X3243700D1*
X3185826Y2293700D2*
X3293700D1*
X3185826Y2193700D2*
X3293700D1*
X3185826Y2093700D2*
X3293700D1*
X3185826Y1993700D2*
X3293700D1*
X3185826Y1893700D2*
X3293700D1*
X3743700Y1493700D2*
X3389369D1*
X3193700D1*
X2839369D1*
X3643700D2*
X3743700D1*
X3131003Y3256200D2*
X3243700D1*
Y3193700D1*
X781200Y1868503D2*
Y1968700D1*
X618700Y2093700D1*
X493700D1*
X504330Y1479527D2*
Y1433070D1*
X518700Y1418700D1*
X756200D1*
X781200Y1443700D1*
Y1493897D1*
X843700Y3222440D2*
X772440D1*
X718700Y3168700D1*
Y2768700D1*
X1293700Y2193700D1*
Y2093700D1*
X843700Y3222440D2*
X964960D1*
X1093700Y3351180D1*
Y3493700D1*
X1143700Y3543700D1*
X1193700D1*
X3253149Y1081102D2*
X3181298D1*
X1243700Y1068700D2*
X1318700D1*
X1331102Y1081102D1*
X1403149D1*
X2053149D2*
X1981298D1*
X1643700Y1243700D2*
X1418700D1*
X1343700Y1168700D1*
X3193700Y1418700D2*
Y1493700D1*
X781200Y1868503D2*
X868503D1*
X781200Y1493897D2*
D3*
X868503Y1718700D2*
X568700D1*
X2353149Y1081102D2*
X2281298D1*
X2793798D2*
X2953149D1*
X2893798D2*
X2953149D1*
X1893700Y2093700D2*
Y1893700D1*
X2847243Y2293700D2*
X1943700D1*
X1893700Y2243700D1*
Y2093700D1*
X1993700Y1893700D2*
Y2093700D1*
X2847243Y2193700D2*
X2793700D1*
X2743700Y2243700D1*
X2043700D1*
X1993700Y2193700D1*
Y2093700D1*
X2093700D2*
Y1893700D1*
X2847243Y2093700D2*
X2993700D1*
X2193700Y1893700D2*
Y2093700D1*
X2847243Y1993700D2*
X2943700D1*
X2293700Y2893700D2*
Y3093700D1*
X2847243Y1893700D2*
X3043700D1*
X1493700Y2893700D2*
Y3093700D1*
X1793700Y1893700D2*
Y2093700D1*
X1193700Y3443700D2*
Y2893700D1*
X1793700Y2293700D1*
Y2093700D1*
X2093700Y2893700D2*
Y2793700D1*
X2143700Y2743700D1*
X2693700D1*
X2793700Y2843700D1*
X2843700D1*
X2093700Y2893700D2*
Y3093700D1*
X1993700D2*
Y2893700D1*
X2843700Y2693700D2*
X2043700D1*
X1993700Y2743700D1*
Y2893700D1*
X2843700Y2543700D2*
X1993700D1*
X1893700Y2643700D1*
Y2893700D1*
Y3093700D1*
X1393700D2*
Y2893700D1*
X2843700Y3043700D2*
X2743700D1*
X1393700Y1893700D2*
Y2093700D1*
X493700Y2018897D2*
Y1893700D1*
X568700D1*
Y2293700D2*
X843700D1*
X1193700Y1893700D2*
Y2093700D1*
X2493700D2*
Y1893700D1*
X2693700Y581200D2*
Y693700D1*
X2643700Y743700D1*
X2493700D1*
X2443700Y793700D1*
Y843700D1*
X3043700Y2843700D2*
X2918503D1*
X2893700Y918503D2*
X3043700D1*
Y1043700D1*
X3068700D1*
X3118700Y1093700D1*
Y1168700D1*
X3043700Y793700D2*
Y843700D1*
X3193700Y918503D2*
X3343700D1*
Y1043700D1*
X2393700Y1343700D2*
Y1293700D1*
X2443700Y1243700D1*
X3343700D1*
X3443700Y1143700D1*
Y1093700D1*
X3393700Y1043700D1*
X3343700D1*
X2931003Y3406200D2*
X3056200D1*
X3343700Y843700D2*
X3593700D1*
X3643700Y793700D1*
Y587451D1*
X3056200Y3256200D2*
X2931003D1*
X2918503Y3043700D2*
X3043700D1*
X2918503Y2693700D2*
X3043700D1*
Y2543700D2*
X2918503D1*
X1293700Y1543700D2*
Y1493700D1*
X1193700Y1393700D1*
X1018503D1*
Y1668700D1*
X1493700Y818897D2*
Y731200D1*
X1643700Y581200D1*
X1493700D2*
Y593700D1*
X1343700Y743700D1*
Y818897D1*
X1143700Y832283D2*
Y793700D1*
X1193700Y743700D1*
X1343700D1*
X1993700Y918503D2*
X2143700D1*
Y1043700D1*
X2218700D1*
Y1393700D2*
Y1543700D1*
X2168700Y1593700D1*
X1893700D1*
X1843700Y1543700D1*
X2143700Y793700D2*
Y843700D1*
X2393700Y581200D2*
Y693700D1*
X2343700Y743700D1*
X2043700D1*
X1843700D1*
X1793700Y793700D1*
Y832283D1*
X2293700Y843700D2*
Y793700D1*
X2343700Y743700D1*
X1993700Y843700D2*
Y793700D1*
X2043700Y743700D1*
X1843700Y1343700D2*
Y1243700D1*
X1893700Y1193700D1*
X2493700D1*
X2543700Y1143700D1*
Y1093700D1*
X2493700Y1043700D1*
X2443700D1*
Y918503D2*
Y1043700D1*
X2293700Y918503D2*
X2443700D1*
X3343700Y587451D2*
Y693700D1*
X3293700Y743700D1*
X3243700D1*
X3193700Y793700D1*
Y843700D1*
X2893700D2*
Y793700D1*
X2943700Y743700D1*
X3240281D1*
X3193700Y793700D1*
X2693700Y832283D2*
Y793700D1*
X2743700Y743700D1*
X2943700D1*
X732381Y556200D2*
Y682381D1*
X756003Y706003D1*
Y743700D1*
X706791Y556200D2*
Y680609D1*
X681200Y706200D1*
Y743700D1*
X1693700Y2093700D2*
Y1893700D1*
X843700Y3143700D2*
Y3093700D1*
X1693700Y2243700D1*
Y2093700D1*
X993700Y1893700D2*
Y2093700D1*
X1693700Y2893700D2*
Y3093700D1*
X3193700Y1651180D2*
X2839369D1*
X3193700D2*
Y1593700D1*
X2718503Y1843700D2*
X2743700D1*
X2843700Y1743700D1*
Y1655511D1*
X2839369Y1651180D1*
X1793700Y3093700D2*
Y2893700D1*
X3743700Y1651180D2*
X3389369D1*
Y1598031D1*
X2718503Y1693700D2*
Y1618897D1*
X2793700Y1543700D1*
X3335039D1*
X3389369Y1598031D1*
X2393700Y3093700D2*
Y2893700D1*
X1943700Y1543700D2*
X2043700D1*
X464960Y1593700D2*
Y1639960D1*
X493700Y1668700D1*
X718700D1*
X943700D1*
Y1743700D1*
X1493700D2*
Y1643700D1*
X1668700Y1468700D1*
X1918700D1*
X1943700Y1493700D1*
Y1543700D1*
X2493700Y2893700D2*
Y3093700D1*
X2143700Y1543700D2*
Y1443700D1*
X2043700Y1343700D1*
X1943700D1*
X943700Y1393700D2*
X493700D1*
X464960Y1422440D1*
Y1479527D1*
X943700Y1393700D2*
Y1343700D1*
X968700Y1318700D1*
X1543700D1*
X1643700Y1418700D1*
X1918700D1*
X1943700Y1393700D1*
Y1343700D1*
X2293700Y2093700D2*
Y1893700D1*
X2493700Y1543700D2*
Y1593700D1*
X2293700Y1793700D1*
Y1893700D1*
X2393700D2*
Y2093700D1*
X2493700Y1343700D2*
X2543700D1*
X2593700Y1393700D1*
Y1593700D1*
X2393700Y1793700D1*
Y1893700D1*
D41*
X1593700Y1043700D3*
X1293700Y993700D3*
X1943700D3*
X2843700D3*
X2643700Y1443700D3*
X2843700Y993700D3*
X943700Y1568700D3*
X656200Y631200D3*
X3181298Y1081102D3*
X1243700Y1068700D3*
X1981298Y1081102D3*
X1643700Y1243700D3*
X1343700Y1168700D3*
X3193700Y1418700D3*
X3181298Y1081102D3*
X868503Y1868503D3*
X781200Y1443700D3*
X868503Y1718700D3*
X568700D3*
X868503Y1868503D3*
X2281298Y1081102D3*
X2793798D3*
X2893798D3*
X3181298D3*
X2993700Y2093700D3*
X2943700Y1993700D3*
X3043700Y1893700D3*
X2743700Y3043700D3*
X568700Y1893700D3*
Y2293700D3*
X843700D3*
X3118700Y1168700D3*
X3043700Y793700D3*
X2218700Y1043700D3*
Y1393700D3*
X2143700Y793700D3*
X3193700Y1593700D3*
X3389369Y1598031D3*
X2043700Y1543700D3*
X943700Y1743700D3*
X1493700D3*
X2143700Y1543700D3*
X643700Y1318700D3*
Y868700D3*
X3643700D3*
Y1318700D3*
Y3431200D3*
X3418700Y3656200D3*
X643700Y3431200D3*
X434718Y3830331D2*
D18*
X621842D1*
X665561D2*
X790210D1*
X1047189D2*
X3621868D1*
X3665551D2*
X3852710D1*
X434718Y3805462D2*
X546126D1*
X741277D2*
X790210D1*
X1047189D2*
X3546116D1*
X3741266D2*
X3852710D1*
X434718Y3780594D2*
X512897D1*
X774505D2*
X790210D1*
X1047189D2*
X3512887D1*
X3774531D2*
X3852710D1*
X434718Y3755725D2*
X490685D1*
X1047189D2*
X3490675D1*
X3796707D2*
X3852710D1*
X434718Y3730856D2*
X475040D1*
X1047189D2*
X3475029D1*
X3812353D2*
X3852710D1*
X434718Y3705987D2*
X464203D1*
X1047189D2*
X3464192D1*
X3823190D2*
X3852710D1*
X434718Y3681119D2*
X457349D1*
X1047189D2*
X1073265D1*
X2414161D2*
X3376958D1*
X3830080D2*
X3852710D1*
X434718Y3656250D2*
X453976D1*
X2442331D2*
X3369709D1*
X3833417D2*
X3852710D1*
X434718Y3631381D2*
X453976D1*
X2467198D2*
X3376886D1*
X3833417D2*
X3852710D1*
X434718Y3606512D2*
X457277D1*
X2492066D2*
X3457303D1*
X3830116D2*
X3852710D1*
X434718Y3581644D2*
X464131D1*
X823272D2*
X997226D1*
X1092834D2*
X1149985D1*
X1237411D2*
X2394557D1*
X2516934D2*
X3464121D1*
X3823262D2*
X3852710D1*
X434718Y3556775D2*
X474932D1*
X812471D2*
X997226D1*
X1085226D2*
X1136708D1*
X1250688D2*
X2419424D1*
X2541801D2*
X3474922D1*
X3812496D2*
X3852710D1*
X434718Y3531906D2*
X490506D1*
X796897D2*
X997226D1*
X1085226D2*
X1136421D1*
X1250976D2*
X2444292D1*
X2566669D2*
X3490496D1*
X3796887D2*
X3852710D1*
X434718Y3507037D2*
X512646D1*
X774756D2*
X997226D1*
X1085226D2*
X1148837D1*
X1238560D2*
X2469160D1*
X2591537D2*
X3512636D1*
X3774782D2*
X3852710D1*
X434718Y3482169D2*
X545732D1*
X741671D2*
X997226D1*
X1085226D2*
X1150452D1*
X1236945D2*
X2494028D1*
X2616405D2*
X3545721D1*
X3741661D2*
X3852710D1*
X434718Y3457300D2*
X602716D1*
X684687D2*
X997226D1*
X1085226D2*
X1136852D1*
X1250545D2*
X2518895D1*
X2641272D2*
X2801627D1*
X2985581D2*
X3001609D1*
X3185600D2*
X3602705D1*
X3684677D2*
X3852710D1*
X434718Y3432431D2*
X594713D1*
X692689D2*
X993781D1*
X1085226D2*
X1136313D1*
X1251083D2*
X2543763D1*
X3185600D2*
X3594703D1*
X3692679D2*
X3852710D1*
X434718Y3407562D2*
X601173D1*
X686230D2*
X968914D1*
X1083719D2*
X1148371D1*
X1239026D2*
X2568631D1*
X3185600D2*
X3601162D1*
X3686256D2*
X3852710D1*
X434718Y3382693D2*
X944046D1*
X1066423D2*
X1158203D1*
X1229194D2*
X2593534D1*
X3185600D2*
X3852710D1*
X434718Y3357825D2*
X919178D1*
X1041555D2*
X1158203D1*
X1229194D2*
X2801627D1*
X2985581D2*
X3001609D1*
X3185600D2*
X3852710D1*
X434718Y3332956D2*
X721995D1*
X1016688D2*
X1158203D1*
X1229194D2*
X3852710D1*
X434718Y3308087D2*
X696912D1*
X991820D2*
X1158203D1*
X1229194D2*
X2801627D1*
X2985581D2*
X3001609D1*
X3185600D2*
X3852710D1*
X434718Y3283218D2*
X672044D1*
X966952D2*
X1158203D1*
X1229194D2*
X1672028D1*
X3185600D2*
X3852710D1*
X434718Y3258350D2*
X647176D1*
X769553D2*
X785187D1*
X902217D2*
X1158203D1*
X1229194D2*
X1647161D1*
X3185600D2*
X3852710D1*
X434718Y3233481D2*
X622308D1*
X744686D2*
X786263D1*
X901141D2*
X1158203D1*
X1229194D2*
X1622293D1*
X3185600D2*
X3852710D1*
X434718Y3208612D2*
X602464D1*
X719818D2*
X786909D1*
X900495D2*
X1158203D1*
X1229194D2*
X1597425D1*
X1719802D2*
X2801627D1*
X2985581D2*
X3001609D1*
X3185600D2*
X3852710D1*
X434718Y3183743D2*
X599701D1*
X694950D2*
X800689D1*
X886715D2*
X1158203D1*
X1229194D2*
X1572558D1*
X1694935D2*
X3852710D1*
X434718Y3158875D2*
X599701D1*
X687701D2*
X787268D1*
X900136D2*
X1158203D1*
X1229194D2*
X1552570D1*
X1670067D2*
X3852710D1*
X434718Y3134006D2*
X599701D1*
X687701D2*
X786012D1*
X901392D2*
X1158203D1*
X1229194D2*
X1332815D1*
X1538444D2*
X1548942D1*
X1738462D2*
X1748964D1*
X1838436D2*
X1848938D1*
X1938445D2*
X1948947D1*
X2038454D2*
X2048956D1*
X2138463D2*
X2148965D1*
X2238437D2*
X2248939D1*
X2338446D2*
X2348983D1*
X2438455D2*
X2448980D1*
X2538464D2*
X3852710D1*
X434718Y3109137D2*
X599701D1*
X687701D2*
X797100D1*
X890304D2*
X1158203D1*
X1229194D2*
X1332815D1*
X2552495D2*
X3852710D1*
X434718Y3084268D2*
X599701D1*
X687701D2*
X809588D1*
X902289D2*
X1158203D1*
X1229194D2*
X1332815D1*
X2553823D2*
X2718483D1*
X2768912D2*
X2789103D1*
X2973094D2*
X2989122D1*
X3173076D2*
X3852710D1*
X434718Y3059399D2*
X599701D1*
X687701D2*
X828822D1*
X927157D2*
X1158203D1*
X1229194D2*
X1332815D1*
X2543452D2*
X2697419D1*
X3173076D2*
X3852710D1*
X434718Y3034531D2*
X599701D1*
X687701D2*
X853690D1*
X952024D2*
X1158203D1*
X1229194D2*
X1358221D1*
X1429212D2*
X1458195D1*
X1529186D2*
X1558204D1*
X1629195D2*
X1658213D1*
X1729204D2*
X1758186D1*
X1829213D2*
X1858196D1*
X1929187D2*
X1958205D1*
X2029196D2*
X2058214D1*
X2129205D2*
X2158187D1*
X2229178D2*
X2258197D1*
X2329188D2*
X2358206D1*
X2429197D2*
X2458215D1*
X2529206D2*
X2695625D1*
X3173076D2*
X3852710D1*
X434718Y3009662D2*
X599701D1*
X687701D2*
X878557D1*
X976892D2*
X1158203D1*
X1229194D2*
X1358221D1*
X1429212D2*
X1458195D1*
X1529186D2*
X1558204D1*
X1629195D2*
X1658213D1*
X1729204D2*
X1758186D1*
X1829213D2*
X1858196D1*
X1929187D2*
X1958205D1*
X2029196D2*
X2058214D1*
X2129205D2*
X2158187D1*
X2229178D2*
X2258197D1*
X2329188D2*
X2358206D1*
X2429197D2*
X2458215D1*
X2529206D2*
X2709512D1*
X2777884D2*
X2789105D1*
X2973094D2*
X2989122D1*
X3173076D2*
X3852710D1*
X434718Y2984793D2*
X599701D1*
X687701D2*
X903461D1*
X1001760D2*
X1158203D1*
X1229194D2*
X1358221D1*
X1429212D2*
X1458195D1*
X1529186D2*
X1558204D1*
X1629195D2*
X1658213D1*
X1729204D2*
X1758186D1*
X1829213D2*
X1858196D1*
X1929187D2*
X1958205D1*
X2029196D2*
X2058214D1*
X2129205D2*
X2158187D1*
X2229178D2*
X2258197D1*
X2329188D2*
X2358206D1*
X2429197D2*
X2458215D1*
X2529206D2*
X3852710D1*
X434718Y2959924D2*
X599701D1*
X687701D2*
X928329D1*
X1026628D2*
X1158203D1*
X1229194D2*
X1358221D1*
X1429212D2*
X1458195D1*
X1529186D2*
X1558204D1*
X1629195D2*
X1658213D1*
X1729204D2*
X1758186D1*
X1829213D2*
X1858196D1*
X1929187D2*
X1958205D1*
X2029196D2*
X2058214D1*
X2129205D2*
X2158187D1*
X2229178D2*
X2258197D1*
X2329188D2*
X2358206D1*
X2429197D2*
X2458215D1*
X2529206D2*
X3852710D1*
X434718Y2935056D2*
X599701D1*
X687701D2*
X953196D1*
X1051495D2*
X1158203D1*
X1229194D2*
X1342360D1*
X2545031D2*
X3852710D1*
X434718Y2910187D2*
X599701D1*
X687701D2*
X784110D1*
X903294D2*
X978064D1*
X1076363D2*
X1158203D1*
X1229194D2*
X1329370D1*
X2558057D2*
X2584097D1*
X2703280D2*
X3852710D1*
X434718Y2885318D2*
X599701D1*
X687701D2*
X764087D1*
X923317D2*
X1002932D1*
X1101231D2*
X1159279D1*
X1251263D2*
X1327756D1*
X2723304D2*
X2789103D1*
X2973094D2*
X2989122D1*
X3173076D2*
X3852710D1*
X434718Y2860449D2*
X599701D1*
X687701D2*
X755188D1*
X932216D2*
X1027800D1*
X1126099D2*
X1177796D1*
X1276130D2*
X1336511D1*
X2732203D2*
X2761293D1*
X3173076D2*
X3852710D1*
X434718Y2835581D2*
X599701D1*
X687701D2*
X753932D1*
X933436D2*
X1052667D1*
X1150966D2*
X1202663D1*
X1300998D2*
X1364393D1*
X1423004D2*
X1464403D1*
X1523014D2*
X1564412D1*
X1622987D2*
X1664385D1*
X1722996D2*
X1764394D1*
X1823005D2*
X1858196D1*
X1929187D2*
X1958205D1*
X2029196D2*
X2058214D1*
X2129205D2*
X2164395D1*
X2223006D2*
X2264405D1*
X2323016D2*
X2364414D1*
X2422989D2*
X2464387D1*
X2522998D2*
X2553954D1*
X3173076D2*
X3852710D1*
X434718Y2810712D2*
X599701D1*
X687701D2*
X760032D1*
X927372D2*
X1077535D1*
X1175834D2*
X1227531D1*
X1325866D2*
X1858196D1*
X1929187D2*
X1958205D1*
X2029196D2*
X2058214D1*
X2129205D2*
X2560019D1*
X3173076D2*
X3852710D1*
X434718Y2785843D2*
X599701D1*
X687701D2*
X775390D1*
X912014D2*
X1102403D1*
X1200738D2*
X1252399D1*
X1350734D2*
X1858196D1*
X1929187D2*
X1958205D1*
X2029196D2*
X2059147D1*
X2150736D2*
X2575377D1*
X2784989D2*
X3852710D1*
X434718Y2760974D2*
X599701D1*
X687701D2*
X812279D1*
X875125D2*
X1127271D1*
X1225605D2*
X1277267D1*
X1375601D2*
X1858196D1*
X1929187D2*
X1958205D1*
X2029196D2*
X2077269D1*
X2760121D2*
X3852710D1*
X434718Y2736106D2*
X599701D1*
X687701D2*
X1152138D1*
X1250473D2*
X1302134D1*
X1400469D2*
X1858196D1*
X1929187D2*
X1959102D1*
X2050475D2*
X2102136D1*
X2735253D2*
X2789103D1*
X2973094D2*
X2989122D1*
X3173076D2*
X3852710D1*
X434718Y2711237D2*
X599701D1*
X687701D2*
X1177006D1*
X1275341D2*
X1327002D1*
X1425337D2*
X1858196D1*
X1929187D2*
X1977008D1*
X3173076D2*
X3852710D1*
X434718Y2686368D2*
X599701D1*
X687701D2*
X1201874D1*
X1300209D2*
X1351870D1*
X1450205D2*
X1858196D1*
X1929187D2*
X2001876D1*
X3173076D2*
X3852710D1*
X434718Y2661499D2*
X599701D1*
X687701D2*
X1226742D1*
X1325076D2*
X1376738D1*
X1475072D2*
X1858196D1*
X1929187D2*
X2033992D1*
X3173076D2*
X3852710D1*
X434718Y2636630D2*
X600311D1*
X711959D2*
X1251609D1*
X1349944D2*
X1401605D1*
X1499940D2*
X1858985D1*
X1949928D2*
X3852710D1*
X434718Y2611762D2*
X614450D1*
X736827D2*
X1276477D1*
X1374812D2*
X1426473D1*
X1524808D2*
X1876461D1*
X1974795D2*
X3852710D1*
X434718Y2586893D2*
X639317D1*
X761695D2*
X1301345D1*
X1399680D2*
X1451341D1*
X1549675D2*
X1901328D1*
X1999663D2*
X2789103D1*
X2973094D2*
X2989122D1*
X3173076D2*
X3852710D1*
X434718Y2562024D2*
X664185D1*
X786562D2*
X1326213D1*
X1424547D2*
X1476208D1*
X1574543D2*
X1926196D1*
X3173076D2*
X3852710D1*
X434718Y2537155D2*
X689053D1*
X811430D2*
X1351080D1*
X1449415D2*
X1501076D1*
X1599411D2*
X1951064D1*
X3173076D2*
X3852710D1*
X434718Y2512287D2*
X713921D1*
X836298D2*
X1375948D1*
X1474283D2*
X1525944D1*
X1624279D2*
X1981099D1*
X3173076D2*
X3852710D1*
X434718Y2487418D2*
X738788D1*
X861166D2*
X1400816D1*
X1499151D2*
X1550812D1*
X1649146D2*
X3852710D1*
X434718Y2462549D2*
X763656D1*
X886033D2*
X1425684D1*
X1524018D2*
X1575679D1*
X1674014D2*
X3852710D1*
X434718Y2437680D2*
X788524D1*
X910901D2*
X1450551D1*
X1548886D2*
X1600547D1*
X1698882D2*
X3852710D1*
X434718Y2412812D2*
X813392D1*
X935769D2*
X1475419D1*
X1573754D2*
X1625415D1*
X1723750D2*
X3852710D1*
X434718Y2387943D2*
X838259D1*
X960637D2*
X1500287D1*
X1598622D2*
X1650283D1*
X1748617D2*
X3852710D1*
X434718Y2363074D2*
X863127D1*
X985504D2*
X1525154D1*
X1623489D2*
X1675150D1*
X1773485D2*
X3852710D1*
X434718Y2338205D2*
X552729D1*
X584678D2*
X827709D1*
X859658D2*
X887995D1*
X1010372D2*
X1550022D1*
X1648357D2*
X1700018D1*
X1798353D2*
X2770228D1*
X2924291D2*
X3108795D1*
X3262858D2*
X3852710D1*
X434718Y2313336D2*
X524057D1*
X888366D2*
X912863D1*
X1035240D2*
X1574890D1*
X1673225D2*
X1724886D1*
X1822718D2*
X1914175D1*
X2924291D2*
X3108795D1*
X3262858D2*
X3852710D1*
X434718Y2288468D2*
X520003D1*
X892421D2*
X937730D1*
X1060108D2*
X1599758D1*
X1698092D2*
X1749754D1*
X1829213D2*
X1889307D1*
X2924291D2*
X3108795D1*
X3262858D2*
X3852710D1*
X434718Y2263599D2*
X530768D1*
X881655D2*
X962598D1*
X1084975D2*
X1624625D1*
X1722530D2*
X1758186D1*
X1829213D2*
X1864870D1*
X2924291D2*
X3108795D1*
X3262858D2*
X3852710D1*
X434718Y2238730D2*
X987466D1*
X1109843D2*
X1649493D1*
X1729204D2*
X1758186D1*
X1829213D2*
X1858196D1*
X1937907D2*
X1989568D1*
X2924291D2*
X3108795D1*
X3262858D2*
X3852710D1*
X626017Y2213861D2*
X788703D1*
X898700D2*
X1012334D1*
X1132486D2*
X1658213D1*
X1729204D2*
X1758186D1*
X1829213D2*
X1858196D1*
X1929187D2*
X1965095D1*
X2924291D2*
X3108795D1*
X3262858D2*
X3852710D1*
X659640Y2188993D2*
X766168D1*
X921236D2*
X1037201D1*
X1137689D2*
X1658213D1*
X1729204D2*
X1758186D1*
X1829213D2*
X1858196D1*
X1929187D2*
X1958205D1*
X2038167D2*
X2566191D1*
X2721222D2*
X2749236D1*
X2924291D2*
X3108795D1*
X3262858D2*
X3852710D1*
X693299Y2164124D2*
X755977D1*
X931427D2*
X1049689D1*
X1137689D2*
X1658213D1*
X1729204D2*
X1758186D1*
X1829213D2*
X1858196D1*
X1929187D2*
X1958205D1*
X2029196D2*
X2556000D1*
X2731414D2*
X2770228D1*
X2924291D2*
X3108795D1*
X3262858D2*
X3852710D1*
X726959Y2139255D2*
X753680D1*
X933723D2*
X946235D1*
X2541156D2*
X2553667D1*
X2733710D2*
X2770228D1*
X2924291D2*
X2981873D1*
X3005533D2*
X3108795D1*
X3262858D2*
X3852710D1*
X2728794Y2114386D2*
X2770228D1*
X3037829D2*
X3108795D1*
X3262858D2*
X3852710D1*
X915064Y2089518D2*
X927324D1*
X2560067D2*
X2572327D1*
X2715086D2*
X2770228D1*
X3042529D2*
X3108795D1*
X3262858D2*
X3852710D1*
X884024Y2064649D2*
X934178D1*
X2553213D2*
X2603367D1*
X2684011D2*
X2770228D1*
X3032518D2*
X3108795D1*
X3262858D2*
X3852710D1*
X861524Y2039780D2*
X956713D1*
X1030683D2*
X1049689D1*
X1137689D2*
X1156732D1*
X1230665D2*
X1256741D1*
X1330674D2*
X1356714D1*
X1430684D2*
X1456723D1*
X1530693D2*
X1556733D1*
X1630666D2*
X1656706D1*
X1730675D2*
X1756715D1*
X1830685D2*
X1856724D1*
X1930694D2*
X1956734D1*
X2030667D2*
X2056707D1*
X2130676D2*
X2156716D1*
X2230686D2*
X2256725D1*
X2330659D2*
X2356735D1*
X2430668D2*
X2456708D1*
X2530677D2*
X2770228D1*
X2924291D2*
X2934967D1*
X2952424D2*
X3108795D1*
X3262858D2*
X3852710D1*
X895184Y2014911D2*
X958220D1*
X1029211D2*
X1049689D1*
X1137689D2*
X1158203D1*
X1229194D2*
X1358221D1*
X1429212D2*
X1458195D1*
X1529186D2*
X1558204D1*
X1629195D2*
X1658213D1*
X1729204D2*
X1758186D1*
X1829213D2*
X1858196D1*
X1929187D2*
X1958205D1*
X2029196D2*
X2058214D1*
X2129205D2*
X2158187D1*
X2229178D2*
X2258197D1*
X2329188D2*
X2358206D1*
X2429197D2*
X2458215D1*
X2529206D2*
X2770228D1*
X2987591D2*
X3108795D1*
X3262858D2*
X3852710D1*
X921164Y1990043D2*
X958220D1*
X1029211D2*
X1049689D1*
X1137689D2*
X1158203D1*
X1229194D2*
X1358221D1*
X1429212D2*
X1458195D1*
X1529186D2*
X1558204D1*
X1629195D2*
X1658213D1*
X1729204D2*
X1758186D1*
X1829213D2*
X1858196D1*
X1929187D2*
X1958205D1*
X2029196D2*
X2058214D1*
X2129205D2*
X2158187D1*
X2229178D2*
X2258197D1*
X2329188D2*
X2358206D1*
X2429197D2*
X2458215D1*
X2529206D2*
X2770228D1*
X2992543D2*
X3108795D1*
X3262858D2*
X3852710D1*
X922707Y1965174D2*
X958220D1*
X1029211D2*
X1049689D1*
X1137689D2*
X1158203D1*
X1229194D2*
X1358221D1*
X1429212D2*
X1458195D1*
X1529186D2*
X1558204D1*
X1629195D2*
X1658213D1*
X1729204D2*
X1758186D1*
X1829213D2*
X1858196D1*
X1929187D2*
X1958205D1*
X2029196D2*
X2058214D1*
X2129205D2*
X2158187D1*
X2229178D2*
X2258197D1*
X2329188D2*
X2358206D1*
X2429197D2*
X2458215D1*
X2529206D2*
X2770228D1*
X2982926D2*
X3108795D1*
X3262858D2*
X3852710D1*
X922707Y1940305D2*
X932828D1*
X1137689D2*
X1156014D1*
X1231383D2*
X1256023D1*
X1331392D2*
X1356032D1*
X1431365D2*
X1456042D1*
X1531375D2*
X1556015D1*
X1631384D2*
X1656024D1*
X1731393D2*
X1756033D1*
X1831366D2*
X1856007D1*
X1931376D2*
X1956016D1*
X2031385D2*
X2056025D1*
X2131358D2*
X2156034D1*
X2231367D2*
X2256008D1*
X2331377D2*
X2356017D1*
X2431386D2*
X2456026D1*
X2531359D2*
X2770228D1*
X2924291D2*
X3108795D1*
X3262858D2*
X3852710D1*
X922707Y1915436D2*
X932828D1*
X2550378D2*
X2770228D1*
X3087313D2*
X3108795D1*
X3262858D2*
X3852710D1*
X922707Y1890567D2*
X932828D1*
X2554504D2*
X2589121D1*
X3092588D2*
X3108795D1*
X3262858D2*
X3852710D1*
X922707Y1865699D2*
X932828D1*
X2547435D2*
X2589121D1*
X3083330D2*
X3108795D1*
X3262858D2*
X3852710D1*
X922707Y1840830D2*
X932828D1*
X1137689D2*
X1166420D1*
X1220976D2*
X1266430D1*
X1320986D2*
X1366403D1*
X1420995D2*
X1458338D1*
X1545728D2*
X1566421D1*
X1620977D2*
X1666431D1*
X1720987D2*
X1766404D1*
X1820996D2*
X1866413D1*
X1920969D2*
X1966422D1*
X2020978D2*
X2066432D1*
X2120988D2*
X2166405D1*
X2220997D2*
X2258197D1*
X2329188D2*
X2358206D1*
X2429197D2*
X2466433D1*
X2520989D2*
X2589121D1*
X2795718D2*
X3852710D1*
X1137689Y1815961D2*
X1472261D1*
X1570596D2*
X2258197D1*
X2329188D2*
X2358206D1*
X2429197D2*
X2589121D1*
X2820586D2*
X3852710D1*
X1137689Y1791092D2*
X1497129D1*
X1595464D2*
X2258304D1*
X2345479D2*
X2358296D1*
X2445488D2*
X2589121D1*
X2845453D2*
X3852710D1*
X1137689Y1766224D2*
X1450515D1*
X1620331D2*
X2272012D1*
X2470356D2*
X2599706D1*
X2687707D2*
X2772022D1*
X2870321D2*
X3852710D1*
X992645Y1741355D2*
X1049761D1*
X1157246D2*
X1444774D1*
X1645199D2*
X2296880D1*
X2495224D2*
X2589121D1*
X2773111D2*
X2796890D1*
X2879185D2*
X3852710D1*
X1182114Y1716486D2*
X1453494D1*
X1533922D2*
X1571768D1*
X1670067D2*
X2321748D1*
X2520092D2*
X2589121D1*
X2773111D2*
X2808194D1*
X2879185D2*
X3852710D1*
X1073098Y1691617D2*
X1084604D1*
X1206982D2*
X1458195D1*
X1529186D2*
X1596636D1*
X1694935D2*
X2346615D1*
X2544959D2*
X2589121D1*
X2929387D2*
X3103664D1*
X3283707D2*
X3299340D1*
X3479384D2*
X3653661D1*
X3833740D2*
X3852710D1*
X1073098Y1666749D2*
X1109472D1*
X1230701D2*
X1458195D1*
X1529186D2*
X1621504D1*
X1719802D2*
X1767588D1*
X2269799D2*
X2371483D1*
X2569827D2*
X2589121D1*
X3283707D2*
X3299340D1*
X3833740D2*
X3852710D1*
X1073098Y1641880D2*
X1134340D1*
X1237698D2*
X1458266D1*
X1544688D2*
X1646371D1*
X2294667D2*
X2396351D1*
X3283707D2*
X3299340D1*
X3833740D2*
X3852710D1*
X1073098Y1617011D2*
X1149698D1*
X1237698D2*
X1471221D1*
X1569555D2*
X1671239D1*
X2319535D2*
X2421219D1*
X2929387D2*
X3103664D1*
X3283707D2*
X3299340D1*
X3479384D2*
X3653661D1*
X3833740D2*
X3852710D1*
X1054007Y1592142D2*
X1135165D1*
X1252231D2*
X1263056D1*
X1324359D2*
X1363066D1*
X1424368D2*
X1496088D1*
X1594423D2*
X1685162D1*
X1802228D2*
X1813053D1*
X2219418D2*
X2235159D1*
X2352225D2*
X2363050D1*
X2424353D2*
X2446086D1*
X2529206D2*
X2546095D1*
X2687707D2*
X2696069D1*
X2794426D2*
X3144715D1*
X3242691D2*
X3334328D1*
X3438009D2*
X3852710D1*
X1054007Y1567273D2*
X1135165D1*
X1447011D2*
X1520956D1*
X1619291D2*
X1685162D1*
X2547041D2*
X2558188D1*
X2687707D2*
X2720959D1*
X3426741D2*
X3852710D1*
X1054007Y1542405D2*
X1135165D1*
X1452214D2*
X1545824D1*
X1644159D2*
X1685162D1*
X2687707D2*
X2745827D1*
X3382891D2*
X3852710D1*
X922707Y1517536D2*
X983016D1*
X1054007D2*
X1135165D1*
X1445755D2*
X1570692D1*
X1669026D2*
X1685162D1*
X2084637D2*
X2102746D1*
X2545749D2*
X2558188D1*
X2687707D2*
X2749344D1*
X3479384D2*
X3653661D1*
X3833740D2*
X3852710D1*
X922707Y1492667D2*
X983016D1*
X1054007D2*
X1135165D1*
X1329167D2*
X1368089D1*
X1419308D2*
X1595559D1*
X1979173D2*
X2108201D1*
X2352225D2*
X2368074D1*
X2419329D2*
X2468083D1*
X2519338D2*
X2558188D1*
X2687707D2*
X2749344D1*
X2929387D2*
X3103664D1*
X3283707D2*
X3299340D1*
X3479384D2*
X3653661D1*
X3833740D2*
X3852710D1*
X922707Y1467798D2*
X983016D1*
X1054007D2*
X1218632D1*
X1316967D2*
X1620427D1*
X1966973D2*
X2108201D1*
X2254190D2*
X2558188D1*
X2687707D2*
X2749344D1*
X2929387D2*
X3103664D1*
X3283707D2*
X3299340D1*
X3479384D2*
X3653661D1*
X3833740D2*
X3852710D1*
X1073098Y1442930D2*
X1193764D1*
X1292099D2*
X1618812D1*
X1943612D2*
X2093775D1*
X2254190D2*
X2558188D1*
X2692694D2*
X3852710D1*
X1267231Y1418061D2*
X1593909D1*
X1968516D2*
X2068908D1*
X2167242D2*
X2176596D1*
X2260792D2*
X2558188D1*
X2684979D2*
X3852710D1*
X1242363Y1393192D2*
X1569041D1*
X1979209D2*
X2044040D1*
X2142339D2*
X2169706D1*
X2352225D2*
X2364952D1*
X2422451D2*
X2464925D1*
X2522460D2*
X2544014D1*
X2629179D2*
X3852710D1*
X1217280Y1368323D2*
X1544173D1*
X1642472D2*
X1685162D1*
X2117471D2*
X2177242D1*
X2617481D2*
X3852710D1*
X1617604Y1343455D2*
X1685162D1*
X2092603D2*
X2235159D1*
X2592613D2*
X3601844D1*
X3685574D2*
X3852710D1*
X1592737Y1318586D2*
X1685162D1*
X2067592D2*
X2235159D1*
X2567602D2*
X3594703D1*
X3692715D2*
X3852710D1*
X905052Y1293717D2*
X944656D1*
X1567761D2*
X1685162D1*
X1879200D2*
X1915897D1*
X1971530D2*
X2235159D1*
X2442833D2*
X2465894D1*
X2521527D2*
X3601988D1*
X3685430D2*
X3852710D1*
X434718Y1268848D2*
X573901D1*
X713502D2*
X1808209D1*
X1879200D2*
X2369402D1*
X3367568D2*
X3573890D1*
X3713492D2*
X3852710D1*
X434718Y1243980D2*
X528866D1*
X758537D2*
X1808209D1*
X1892585D2*
X2394269D1*
X3392580D2*
X3528856D1*
X3758562D2*
X3852710D1*
X434718Y1219111D2*
X501630D1*
X785773D2*
X1819118D1*
X3417447D2*
X3501655D1*
X3785763D2*
X3852710D1*
X434718Y1194242D2*
X482791D1*
X804612D2*
X1843985D1*
X2542304D2*
X2745289D1*
X2954613D2*
X3077361D1*
X3160050D2*
X3343980D1*
X3442315D2*
X3482780D1*
X3804602D2*
X3852710D1*
X434718Y1169373D2*
X469514D1*
X817889D2*
X1868925D1*
X2567207D2*
X2720206D1*
X2979696D2*
X3069718D1*
X3167693D2*
X3368848D1*
X3817879D2*
X3852710D1*
X434718Y1144504D2*
X460578D1*
X826824D2*
X1195666D1*
X1543360D2*
X1845349D1*
X2193366D2*
X2394018D1*
X2579193D2*
X2695338D1*
X3160911D2*
X3294030D1*
X3826814D2*
X3852710D1*
X434718Y1119636D2*
X455375D1*
X832028D2*
X1170475D1*
X1543360D2*
X1820481D1*
X2193366D2*
X2303483D1*
X2493358D2*
X2508202D1*
X2579193D2*
X2670470D1*
X2768805D2*
X2903466D1*
X3154201D2*
X3203494D1*
X3393369D2*
X3408213D1*
X3832017D2*
X3852710D1*
X434718Y1094767D2*
X453581D1*
X833822D2*
X1145607D1*
X1543360D2*
X1795614D1*
X1893948D2*
X2003491D1*
X2193366D2*
X2303483D1*
X2579193D2*
X2658234D1*
X2743937D2*
X2903466D1*
X3154201D2*
X3203494D1*
X3833812D2*
X3852710D1*
X434718Y1069898D2*
X455088D1*
X832315D2*
X1120740D1*
X1219074D2*
X1353485D1*
X1634613D2*
X1770746D1*
X1869081D2*
X2003491D1*
X2259608D2*
X2303483D1*
X2569073D2*
X2658198D1*
X2729189D2*
X2903466D1*
X3144046D2*
X3203494D1*
X3832304D2*
X3852710D1*
X434718Y1045029D2*
X460004D1*
X827399D2*
X1047787D1*
X1239636D2*
X1353485D1*
X1642687D2*
X1697757D1*
X1889642D2*
X2003491D1*
X2267682D2*
X2303483D1*
X2544206D2*
X2597769D1*
X2789618D2*
X2903466D1*
X3119178D2*
X3203494D1*
X3444181D2*
X3459994D1*
X3827424D2*
X3852710D1*
X434718Y1020161D2*
X468581D1*
X818822D2*
X1047787D1*
X1334442D2*
X1444020D1*
X1636300D2*
X1697757D1*
X1984448D2*
X2094027D1*
X2261295D2*
X2394018D1*
X2519338D2*
X2597769D1*
X2884424D2*
X2994038D1*
X3094310D2*
X3294030D1*
X3419313D2*
X3468570D1*
X3818812D2*
X3852710D1*
X434718Y995292D2*
X481463D1*
X805940D2*
X1047787D1*
X1342660D2*
X1458195D1*
X1529186D2*
X1697757D1*
X1992666D2*
X2108201D1*
X2179192D2*
X2408193D1*
X2479184D2*
X2597769D1*
X2892677D2*
X3008212D1*
X3079203D2*
X3308204D1*
X3379195D2*
X3481453D1*
X3805965D2*
X3852710D1*
X434718Y970423D2*
X499764D1*
X787639D2*
X1047787D1*
X1336452D2*
X1458195D1*
X1529186D2*
X1697757D1*
X2052234D2*
X2085163D1*
X2202229D2*
X2235159D1*
X2352225D2*
X2385155D1*
X2502221D2*
X2597769D1*
X2952245D2*
X2985174D1*
X3102241D2*
X3135170D1*
X3252237D2*
X3285166D1*
X3402233D2*
X3499754D1*
X3787665D2*
X3852710D1*
X434718Y945554D2*
X526067D1*
X761336D2*
X1047787D1*
X1239636D2*
X1285161D1*
X1402227D2*
X1435157D1*
X1552223D2*
X1697757D1*
X1889642D2*
X1935167D1*
X2202229D2*
X2235159D1*
X2502221D2*
X2597769D1*
X2789618D2*
X2835178D1*
X3102241D2*
X3135170D1*
X3402233D2*
X3526057D1*
X3761361D2*
X3852710D1*
X434718Y920686D2*
X568590D1*
X718813D2*
X1285161D1*
X1552223D2*
X1935167D1*
X2202229D2*
X2235159D1*
X2502221D2*
X2835178D1*
X3102241D2*
X3135170D1*
X3402233D2*
X3568579D1*
X3718803D2*
X3852710D1*
X434718Y895817D2*
X603433D1*
X683970D2*
X1285161D1*
X1552223D2*
X1935167D1*
X2202229D2*
X2235159D1*
X2502221D2*
X2835178D1*
X3102241D2*
X3135170D1*
X3402233D2*
X3603423D1*
X3683959D2*
X3852710D1*
X434718Y870948D2*
X594749D1*
X692653D2*
X1047787D1*
X1239636D2*
X1285161D1*
X1552223D2*
X1697757D1*
X1889642D2*
X1935167D1*
X2052234D2*
X2085163D1*
X2202229D2*
X2235159D1*
X2352225D2*
X2385155D1*
X2502221D2*
X2597769D1*
X2789618D2*
X2835178D1*
X2952245D2*
X2985174D1*
X3102241D2*
X3135170D1*
X3252237D2*
X3285166D1*
X3692643D2*
X3852710D1*
X434718Y846079D2*
X600563D1*
X686840D2*
X1047787D1*
X1239636D2*
X1285161D1*
X1402227D2*
X1435157D1*
X1552223D2*
X1697757D1*
X1889642D2*
X1935167D1*
X2052234D2*
X2085163D1*
X2202229D2*
X2235159D1*
X2352225D2*
X2385155D1*
X2502221D2*
X2597769D1*
X2789618D2*
X2835178D1*
X2952245D2*
X2985174D1*
X3102241D2*
X3135170D1*
X3252237D2*
X3285166D1*
X3686830D2*
X3852710D1*
X434718Y821210D2*
X1047787D1*
X1239636D2*
X1285161D1*
X1402227D2*
X1435157D1*
X1552223D2*
X1697757D1*
X1889642D2*
X1935167D1*
X2052234D2*
X2085163D1*
X2202229D2*
X2235159D1*
X2352225D2*
X2385155D1*
X2502221D2*
X2597769D1*
X2789618D2*
X2835178D1*
X2952245D2*
X2985174D1*
X3102241D2*
X3135170D1*
X3252237D2*
X3285166D1*
X3665335D2*
X3852710D1*
X434718Y796342D2*
X626614D1*
X810605D2*
X1047787D1*
X1239636D2*
X1285161D1*
X1402227D2*
X1435157D1*
X1552223D2*
X1697757D1*
X1889642D2*
X1935167D1*
X2052234D2*
X2085163D1*
X2202229D2*
X2235159D1*
X2352225D2*
X2385155D1*
X2502221D2*
X2597769D1*
X2789618D2*
X2835178D1*
X2952245D2*
X2985174D1*
X3102241D2*
X3135170D1*
X3252237D2*
X3285166D1*
X3402233D2*
X3591904D1*
X3679079D2*
X3852710D1*
X434718Y771473D2*
X626614D1*
X810605D2*
X1116828D1*
X1402227D2*
X1435157D1*
X1552223D2*
X1766799D1*
X2365108D2*
X2416805D1*
X3314029D2*
X3608196D1*
X3679187D2*
X3852710D1*
X434718Y746604D2*
X626614D1*
X810605D2*
X1141624D1*
X1389955D2*
X1458195D1*
X1529186D2*
X1791630D1*
X2389975D2*
X2441637D1*
X3339973D2*
X3608196D1*
X3679187D2*
X3852710D1*
X434718Y721735D2*
X626614D1*
X810605D2*
X1166492D1*
X1414823D2*
X1459594D1*
X1552331D2*
X1816498D1*
X2414843D2*
X2466504D1*
X3364841D2*
X3608196D1*
X3679187D2*
X3852710D1*
X434718Y696867D2*
X626614D1*
X810605D2*
X1341356D1*
X1439690D2*
X1478864D1*
X1577199D2*
X2341376D1*
X2429053D2*
X2641368D1*
X2729045D2*
X3291374D1*
X3379051D2*
X3608196D1*
X3679187D2*
X3852710D1*
X434718Y671998D2*
X631387D1*
X771168D2*
X1366223D1*
X1464558D2*
X1503732D1*
X1602066D2*
X2358206D1*
X2429197D2*
X2658198D1*
X2729189D2*
X3308204D1*
X3379195D2*
X3608196D1*
X3679187D2*
X3852710D1*
X434718Y647129D2*
X610000D1*
X767867D2*
X1292481D1*
X1694899D2*
X2192493D1*
X2294918D2*
X2342489D1*
X2444914D2*
X2492485D1*
X2594910D2*
X2642480D1*
X2744906D2*
X3136247D1*
X3251160D2*
X3286243D1*
X3401156D2*
X3436239D1*
X3551152D2*
X3586235D1*
X3701148D2*
X3852710D1*
X434718Y622260D2*
X608062D1*
X767867D2*
X1267614D1*
X1719767D2*
X2167625D1*
X2769774D2*
X3113137D1*
X3724293D2*
X3852710D1*
X434718Y597392D2*
X545911D1*
X918867D2*
X1260150D1*
X1727266D2*
X2160125D1*
X2777274D2*
X3110123D1*
X3727271D2*
X3852710D1*
X434718Y572523D2*
X545911D1*
X918867D2*
X1260150D1*
X1727266D2*
X2160125D1*
X2777274D2*
X3110123D1*
X3727271D2*
X3852710D1*
X434718Y547654D2*
X545911D1*
X918867D2*
X1262518D1*
X1724898D2*
X2162494D1*
X2774905D2*
X3116475D1*
X3720920D2*
X3852710D1*
X434718Y522785D2*
X545911D1*
X918867D2*
X1284982D1*
X1402407D2*
X1434978D1*
X1552439D2*
X1584973D1*
X1702434D2*
X2184993D1*
X2302418D2*
X2334989D1*
X2452414D2*
X2484985D1*
X2602410D2*
X2634981D1*
X2752406D2*
X3141235D1*
X3246172D2*
X3291231D1*
X3396168D2*
X3441227D1*
X3546164D2*
X3591222D1*
X3696160D2*
X3852710D1*
X434718Y497917D2*
X510457D1*
X954285D2*
X3852710D1*
X434718Y473048D2*
X510457D1*
X954285D2*
X3852710D1*
X434718Y448179D2*
X510457D1*
X954285D2*
X3852710D1*
X3080750Y3462227D2*
X3183094D1*
Y3350172D1*
X3004110D1*
Y3373174D1*
X2983104Y3373204D1*
X2983094Y3350172D1*
X2804110D1*
Y3364705D1*
X2627944Y3364828D1*
X2621512Y3365847D1*
X2615319Y3367859D1*
X2609516Y3370815D1*
X2604248Y3374643D1*
X2575872Y3402838D1*
X2376509Y3602201D1*
X1249748Y3602200D1*
X1249728Y3587672D1*
X1228448D1*
X1233763Y3582867D1*
X1238542Y3577290D1*
X1242550Y3571137D1*
X1245719Y3564512D1*
X1247994Y3557529D1*
X1249336Y3550309D1*
X1249728Y3543700D1*
X1249246Y3536372D1*
X1247811Y3529170D1*
X1245445Y3522217D1*
X1242191Y3515634D1*
X1238104Y3509533D1*
X1233253Y3504019D1*
X1227724Y3499186D1*
X1221609Y3495118D1*
X1219136Y3493621D1*
X1226632Y3489027D1*
X1233317Y3483317D1*
X1239027Y3476632D1*
X1243621Y3469136D1*
X1246985Y3461013D1*
X1249038Y3452465D1*
X1249728Y3443700D1*
X1249038Y3434935D1*
X1246985Y3426387D1*
X1243621Y3418264D1*
X1239027Y3410768D1*
X1233317Y3404083D1*
X1226700Y3398426D1*
X1226696Y2907339D1*
X1818791Y2315129D1*
X1821834Y2310940D1*
X1824185Y2306327D1*
X1825785Y2301403D1*
X1826594Y2296289D1*
X1826696Y2229396D1*
Y2148548D1*
X1835265Y2142366D1*
X1842366Y2135265D1*
X1843666Y2133615D1*
X1848445Y2138955D1*
X1856082Y2145477D1*
X1860688Y2148509D1*
X1860806Y2246289D1*
X1861616Y2251403D1*
X1863216Y2256327D1*
X1865566Y2260940D1*
X1868610Y2265129D1*
X1915838Y2312502D1*
X1922271Y2318791D1*
X1926460Y2321834D1*
X1931073Y2324185D1*
X1935997Y2325785D1*
X1941111Y2326595D1*
X2008004Y2326696D1*
X2772732D1*
X2772712Y2344412D1*
X2921775D1*
Y2126721D1*
X2960960Y2126696D1*
X2966368Y2131319D1*
X2972589Y2135132D1*
X2979331Y2137924D1*
X2986426Y2139628D1*
X2993700Y2140200D1*
X3000974Y2139628D1*
X3008069Y2137924D1*
X3014811Y2135132D1*
X3021032Y2131319D1*
X3026580Y2126580D1*
X3031319Y2121032D1*
X3035132Y2114811D1*
X3037924Y2108069D1*
X3039628Y2100974D1*
X3040200Y2093700D1*
X3039628Y2086426D1*
X3037924Y2079331D1*
X3035132Y2072589D1*
X3031319Y2066368D1*
X3026580Y2060820D1*
X3021032Y2056081D1*
X3014811Y2052268D1*
X3008069Y2049476D1*
X3000974Y2047772D1*
X2993700Y2047200D1*
X2986426Y2047772D1*
X2979331Y2049476D1*
X2972589Y2052268D1*
X2966368Y2056081D1*
X2960935Y2060713D1*
X2921752Y2060704D1*
X2921775Y2034688D1*
X2925905Y2036660D1*
X2932845Y2038915D1*
X2940052Y2040057D1*
X2947348D1*
X2954555Y2038915D1*
X2961495Y2036660D1*
X2967996Y2033348D1*
X2973899Y2029059D1*
X2979059Y2023899D1*
X2983348Y2017996D1*
X2986660Y2011495D1*
X2988915Y2004555D1*
X2990057Y1997348D1*
Y1990052D1*
X2988915Y1982845D1*
X2986660Y1975905D1*
X2983348Y1969404D1*
X2979059Y1963501D1*
X2973899Y1958341D1*
X2967996Y1954052D1*
X2961495Y1950740D1*
X2954555Y1948485D1*
X2947348Y1947343D1*
X2940052D1*
X2932845Y1948485D1*
X2925905Y1950740D1*
X2921775Y1952549D1*
Y1926722D1*
X3010911Y1926696D1*
X3016368Y1931319D1*
X3022589Y1935132D1*
X3029331Y1937924D1*
X3036426Y1939628D1*
X3043700Y1940200D1*
X3050974Y1939628D1*
X3058069Y1937924D1*
X3064811Y1935132D1*
X3071032Y1931319D1*
X3076580Y1926580D1*
X3081319Y1921032D1*
X3085132Y1914811D1*
X3087924Y1908069D1*
X3089628Y1900974D1*
X3090200Y1893700D1*
X3089628Y1886426D1*
X3087924Y1879331D1*
X3085132Y1872589D1*
X3081319Y1866368D1*
X3076580Y1860820D1*
X3071032Y1856081D1*
X3064811Y1852268D1*
X3058069Y1849476D1*
X3050974Y1847772D1*
X3043700Y1847200D1*
X3036426Y1847772D1*
X3029331Y1849476D1*
X3022589Y1852268D1*
X3016368Y1856081D1*
X3010935Y1860713D1*
X2921801Y1860704D1*
X2921775Y1842987D1*
X2791049D1*
X2868790Y1765129D1*
X2871834Y1760940D1*
X2874184Y1756327D1*
X2875784Y1751403D1*
X2876594Y1746289D1*
X2876696Y1697374D1*
X2926893Y1697365D1*
Y1684196D1*
X3106168Y1684176D1*
X3106177Y1697365D1*
X3281224D1*
Y1604995D1*
X3238773D1*
X3240057Y1597348D1*
Y1590052D1*
X3238915Y1582845D1*
X3236952Y1576695D1*
X3321377Y1576696D1*
X3342891Y1598216D1*
X3343407Y1605007D1*
X3301846Y1604995D1*
Y1697365D1*
X3476893D1*
Y1684196D1*
X3656168Y1684176D1*
X3656177Y1697365D1*
X3831224D1*
Y1604995D1*
X3656177D1*
Y1618165D1*
X3476901Y1618184D1*
X3476893Y1604995D1*
X3435375D1*
X3435869Y1598031D1*
X3435297Y1590757D1*
X3433593Y1583661D1*
X3430801Y1576920D1*
X3426989Y1570699D1*
X3422250Y1565150D1*
X3416701Y1560411D1*
X3410480Y1556599D1*
X3403739Y1553807D1*
X3396643Y1552103D1*
X3389526Y1551537D1*
X3377863Y1539860D1*
X3476893Y1539885D1*
Y1447515D1*
X3301846D1*
Y1510707D1*
X3281224Y1510489D1*
Y1447515D1*
X3106177D1*
Y1510707D1*
X2926893Y1510489D1*
Y1447515D1*
X2751846D1*
Y1538897D1*
X2693413Y1597468D1*
X2690369Y1601656D1*
X2688019Y1606270D1*
X2686419Y1611194D1*
X2685609Y1616308D1*
X2685507Y1637664D1*
X2685200Y1620209D1*
Y1464651D1*
X2687924Y1458069D1*
X2689628Y1450974D1*
X2690200Y1443700D1*
X2689628Y1436426D1*
X2687924Y1429331D1*
X2685132Y1422589D1*
X2681319Y1416368D1*
X2676580Y1410820D1*
X2671032Y1406081D1*
X2664811Y1402268D1*
X2658069Y1399476D1*
X2650974Y1397772D1*
X2643700Y1397200D1*
X2636426Y1397772D1*
X2629331Y1399476D1*
X2626695Y1400448D1*
X2626594Y1391111D1*
X2625784Y1385997D1*
X2624184Y1381073D1*
X2621834Y1376460D1*
X2618790Y1372271D1*
X2571562Y1324898D1*
X2565129Y1318610D1*
X2560940Y1315566D1*
X2556327Y1313216D1*
X2551403Y1311616D1*
X2546289Y1310806D1*
X2543690Y1310704D1*
X2536304Y1307313D1*
X2530087Y1301096D1*
X2522974Y1295929D1*
X2515141Y1291937D1*
X2506779Y1289220D1*
X2498096Y1287845D1*
X2489304D1*
X2480621Y1289220D1*
X2472259Y1291937D1*
X2464426Y1295929D1*
X2457313Y1301096D1*
X2451096Y1307313D1*
X2445929Y1314426D1*
X2443621Y1318264D1*
X2439027Y1310768D1*
X2433317Y1304083D1*
X2431589Y1302484D1*
X2457351Y1276713D1*
X3346289Y1276594D1*
X3351403Y1275785D1*
X3356327Y1274185D1*
X3360940Y1271834D1*
X3365129Y1268790D1*
X3412502Y1221562D1*
X3468797Y1165121D1*
X3473342Y1172337D1*
X3481846Y1188615D1*
X3491901Y1203984D1*
X3503410Y1218296D1*
X3516262Y1231414D1*
X3530336Y1243213D1*
X3545496Y1253580D1*
X3561597Y1262414D1*
X3578484Y1269633D1*
X3595996Y1275166D1*
X3613965Y1278960D1*
X3618552Y1279582D1*
X3613009Y1283767D1*
X3607893Y1289033D1*
X3603670Y1295038D1*
X3600445Y1301633D1*
X3598298Y1308654D1*
X3597283Y1315925D1*
X3597425Y1323265D1*
X3598720Y1330491D1*
X3601136Y1337423D1*
X3604613Y1343889D1*
X3609065Y1349727D1*
X3614380Y1354791D1*
X3620426Y1358956D1*
X3627052Y1362118D1*
X3634092Y1364197D1*
X3641373Y1365142D1*
X3648711Y1364929D1*
X3655925Y1363564D1*
X3662833Y1361081D1*
X3669265Y1357542D1*
X3675060Y1353034D1*
X3680073Y1347670D1*
X3684179Y1341585D1*
X3687276Y1334929D1*
X3689287Y1327868D1*
X3690162Y1320579D1*
X3689874Y1313201D1*
X3688433Y1306002D1*
X3685877Y1299120D1*
X3682270Y1292726D1*
X3677701Y1286980D1*
X3672285Y1282024D1*
X3668906Y1279632D1*
X3686938Y1276281D1*
X3704581Y1271180D1*
X3721640Y1264378D1*
X3737952Y1255940D1*
X3753362Y1245949D1*
X3767721Y1234499D1*
X3780892Y1221700D1*
X3792748Y1207674D1*
X3803177Y1192557D1*
X3812077Y1176492D1*
X3819365Y1159635D1*
X3824969Y1142145D1*
X3828837Y1124192D1*
X3830931Y1105946D1*
X3831331Y1093700D1*
X3830432Y1075357D1*
X3827745Y1057189D1*
X3823294Y1039371D1*
X3817122Y1022074D1*
X3809289Y1005463D1*
X3799869Y989697D1*
X3788954Y974928D1*
X3776646Y961296D1*
X3763065Y948933D1*
X3748341Y937957D1*
X3732614Y928473D1*
X3716035Y920572D1*
X3698763Y914330D1*
X3680963Y909806D1*
X3668822Y907809D1*
X3673679Y904246D1*
X3678900Y899085D1*
X3683243Y893166D1*
X3686601Y886637D1*
X3688890Y879662D1*
X3690052Y872413D1*
X3690055Y865029D1*
X3688899Y857779D1*
X3686617Y850802D1*
X3683265Y844270D1*
X3678927Y838347D1*
X3673711Y833181D1*
X3667747Y828901D1*
X3661183Y825612D1*
X3659203Y824865D1*
X3668790Y815129D1*
X3671834Y810940D1*
X3674184Y806327D1*
X3675784Y801403D1*
X3676594Y796289D1*
X3676696Y729396D1*
Y666419D1*
X3681876Y663450D1*
X3685038Y660750D1*
X3718411Y627261D1*
X3720855Y623897D1*
X3722743Y620192D1*
X3724028Y616237D1*
X3724679Y612130D1*
X3724760Y564851D1*
X3724434Y560706D1*
X3723463Y556662D1*
X3721872Y552820D1*
X3719699Y549275D1*
X3716999Y546113D1*
X3683510Y512740D1*
X3680146Y510296D1*
X3676441Y508408D1*
X3672486Y507123D1*
X3668379Y506472D1*
X3621100Y506391D1*
X3616955Y506717D1*
X3612911Y507688D1*
X3609069Y509279D1*
X3605524Y511452D1*
X3602362Y514152D1*
X3568984Y547647D1*
X3568411Y547641D1*
X3535038Y514152D1*
X3531876Y511452D1*
X3528331Y509279D1*
X3524489Y507687D1*
X3520445Y506717D1*
X3516300Y506390D1*
X3469021Y506472D1*
X3464914Y507123D1*
X3460959Y508408D1*
X3457254Y510296D1*
X3453890Y512740D1*
X3420401Y546113D1*
X3418984Y547647D1*
X3418411Y547641D1*
X3385038Y514152D1*
X3381876Y511452D1*
X3378330Y509279D1*
X3374489Y507688D1*
X3370445Y506717D1*
X3366300Y506391D1*
X3319021Y506472D1*
X3314914Y507123D1*
X3310959Y508408D1*
X3307254Y510296D1*
X3303890Y512740D1*
X3270401Y546113D1*
X3268625Y547894D1*
X3254007Y533121D1*
X3233674Y512881D1*
X3229168Y509724D1*
X3224107Y507567D1*
X3218709Y506500D1*
X3197927Y506391D1*
X3169237Y506456D1*
X3163818Y507411D1*
X3158714Y509464D1*
X3154143Y512526D1*
X3139370Y527144D1*
X3119130Y547477D1*
X3115973Y551983D1*
X3113816Y557044D1*
X3112749Y562442D1*
X3112640Y583224D1*
X3112705Y611914D1*
X3113660Y617333D1*
X3115713Y622437D1*
X3118775Y627008D1*
X3133393Y641781D1*
X3153726Y662021D1*
X3158232Y665178D1*
X3163293Y667335D1*
X3168691Y668402D1*
X3189473Y668511D1*
X3218163Y668446D1*
X3223582Y667491D1*
X3228686Y665438D1*
X3233257Y662376D1*
X3248030Y647758D1*
X3268256Y627440D1*
X3268989Y627261D1*
X3302362Y660750D1*
X3305524Y663450D1*
X3309077Y665626D1*
X3310704Y670128D1*
Y680068D1*
X3280049Y710687D1*
X2741111Y710806D1*
X2735997Y711616D1*
X2731073Y713216D1*
X2726460Y715566D1*
X2722271Y718610D1*
X2674898Y765838D1*
X2668610Y772271D1*
X2665561Y776468D1*
X2658520Y778224D1*
X2600271D1*
Y886342D1*
X2787129D1*
Y778224D1*
X2756006Y778057D1*
X2757351Y776713D1*
X2865455Y776696D1*
X2863216Y781073D1*
X2861616Y785997D1*
X2860805Y791121D1*
X2857864Y791609D1*
X2837672D1*
Y947618D1*
X2832845Y948485D1*
X2825905Y950740D1*
X2822732Y952203D1*
X2787111Y952200D1*
X2787129Y939641D1*
X2600271D1*
Y1047759D1*
X2660664D1*
X2660802Y1096289D1*
X2661612Y1101404D1*
X2663212Y1106329D1*
X2665563Y1110943D1*
X2668607Y1115132D1*
X2715836Y1162505D1*
X2747268Y1193793D1*
X2751457Y1196837D1*
X2756071Y1199188D1*
X2760996Y1200788D1*
X2766111Y1201598D1*
X2833004Y1201700D1*
X2933789Y1201598D1*
X2938904Y1200788D1*
X2943829Y1199188D1*
X2948443Y1196837D1*
X2952632Y1193793D1*
X2995057Y1151512D1*
X2996531Y1152698D1*
Y1157798D1*
X3073485Y1157845D1*
X3072343Y1165052D1*
Y1172348D1*
X3073485Y1179555D1*
X3075740Y1186495D1*
X3079052Y1192996D1*
X3083341Y1198899D1*
X3088501Y1204059D1*
X3094404Y1208348D1*
X3098820Y1210699D1*
X2523528Y1210536D1*
X2568791Y1165129D1*
X2571834Y1160940D1*
X2574185Y1156327D1*
X2575785Y1151403D1*
X2576595Y1146289D1*
X2576696Y1093700D1*
X2576290Y1088538D1*
X2575081Y1083504D1*
X2573100Y1078720D1*
X2570395Y1074305D1*
X2567024Y1070361D1*
X2515129Y1018610D1*
X2510940Y1015566D1*
X2506327Y1013216D1*
X2501403Y1011616D1*
X2496289Y1010806D1*
X2490865Y1010704D1*
X2490869Y1004405D1*
X2476695D1*
X2476696Y970604D1*
X2499728Y970593D1*
Y791609D1*
X2492443D1*
X2507351Y776713D1*
X2646289Y776594D1*
X2651403Y775784D1*
X2656327Y774184D1*
X2660940Y771834D1*
X2665129Y768790D1*
X2712502Y721562D1*
X2718791Y715129D1*
X2721834Y710940D1*
X2724185Y706327D1*
X2725785Y701403D1*
X2726595Y696289D1*
X2726696Y660148D1*
X2731876Y657200D1*
X2735038Y654499D1*
X2768411Y621011D1*
X2770855Y617646D1*
X2772743Y613941D1*
X2774028Y609986D1*
X2774679Y605879D1*
X2774760Y558601D1*
X2774434Y554455D1*
X2773463Y550412D1*
X2771872Y546570D1*
X2769699Y543024D1*
X2766999Y539862D1*
X2733510Y506489D1*
X2730146Y504045D1*
X2726441Y502157D1*
X2722486Y500872D1*
X2718379Y500222D1*
X2671100Y500140D1*
X2666955Y500466D1*
X2662911Y501437D1*
X2659069Y503028D1*
X2655524Y505201D1*
X2652362Y507902D1*
X2618984Y541397D1*
X2618411Y541390D1*
X2585038Y507902D1*
X2581876Y505201D1*
X2578331Y503028D1*
X2574489Y501437D1*
X2570445Y500466D1*
X2566292Y500140D1*
X2519021Y500222D1*
X2514914Y500872D1*
X2510959Y502157D1*
X2507254Y504045D1*
X2503890Y506489D1*
X2470401Y539862D1*
X2468984Y541397D1*
X2468411Y541390D1*
X2435038Y507902D1*
X2431876Y505201D1*
X2428331Y503028D1*
X2424489Y501437D1*
X2420445Y500466D1*
X2416300Y500140D1*
X2369021Y500222D1*
X2364914Y500872D1*
X2360959Y502157D1*
X2357254Y504045D1*
X2353890Y506489D1*
X2320401Y539862D1*
X2318625Y541643D1*
X2304007Y526871D1*
X2283674Y506630D1*
X2279168Y503474D1*
X2274107Y501316D1*
X2268709Y500250D1*
X2247927Y500140D1*
X2219237Y500205D1*
X2213818Y501160D1*
X2208714Y503213D1*
X2204143Y506275D1*
X2189370Y520893D1*
X2169130Y541226D1*
X2165973Y545733D1*
X2163816Y550794D1*
X2162749Y556191D1*
X2162640Y576973D1*
X2162705Y605664D1*
X2163660Y611082D1*
X2165712Y616187D1*
X2168775Y620757D1*
X2183393Y635530D1*
X2203726Y655770D1*
X2208232Y658927D1*
X2213293Y661085D1*
X2218691Y662151D1*
X2239473Y662261D1*
X2268163Y662195D1*
X2273582Y661241D1*
X2278686Y659188D1*
X2283257Y656125D1*
X2298030Y641508D1*
X2318256Y621190D1*
X2318989Y621010D1*
X2352362Y654499D1*
X2355524Y657200D1*
X2359077Y659376D1*
X2360704Y663877D1*
Y680061D1*
X2330049Y710687D1*
X1841111Y710806D1*
X1835997Y711616D1*
X1831073Y713216D1*
X1826460Y715566D1*
X1822271Y718610D1*
X1774898Y765838D1*
X1768610Y772271D1*
X1765561Y776468D1*
X1758520Y778224D1*
X1700271D1*
Y886342D1*
X1887129D1*
Y778224D1*
X1856006Y778057D1*
X1857351Y776713D1*
X1965455Y776696D1*
X1963216Y781073D1*
X1961616Y785997D1*
X1960805Y791121D1*
X1957864Y791609D1*
X1937673D1*
Y947618D1*
X1932845Y948485D1*
X1925905Y950740D1*
X1922732Y952203D1*
X1887111Y952200D1*
X1887129Y939641D1*
X1700271D1*
Y1047759D1*
X1760951D1*
X1762315Y1053898D1*
X1764297Y1058682D1*
X1767002Y1063097D1*
X1770373Y1067041D1*
X1870373Y1167041D1*
X1870361Y1170376D1*
X1818609Y1222271D1*
X1815566Y1226460D1*
X1813215Y1231073D1*
X1811615Y1235997D1*
X1810806Y1241111D1*
X1810704Y1298423D1*
X1804083Y1304083D1*
X1799724Y1309054D1*
X1799728Y1287672D1*
X1687673D1*
Y1385672D1*
X1657355Y1385704D1*
X1565129Y1293609D1*
X1560940Y1290566D1*
X1556327Y1288215D1*
X1551403Y1286615D1*
X1546289Y1285805D1*
X1479396Y1285704D1*
X966111Y1285805D1*
X960997Y1286615D1*
X956073Y1288215D1*
X951460Y1290566D1*
X947271Y1293609D1*
X920361Y1320376D1*
X919874Y1314554D1*
X918903Y1310511D1*
X917312Y1306669D1*
X915139Y1303124D1*
X912438Y1299962D1*
X909276Y1297261D1*
X905731Y1295088D1*
X901889Y1293497D1*
X897846Y1292526D1*
X893692Y1292200D1*
X681876D1*
X677701Y1286980D1*
X672285Y1282024D1*
X668906Y1279632D1*
X686938Y1276281D1*
X704581Y1271180D1*
X721640Y1264378D1*
X737952Y1255940D1*
X753362Y1245949D1*
X767721Y1234499D1*
X780892Y1221700D1*
X792748Y1207674D1*
X803177Y1192557D1*
X812077Y1176492D1*
X819365Y1159635D1*
X824969Y1142145D1*
X828837Y1124192D1*
X830931Y1105946D1*
X831331Y1093700D1*
X830432Y1075357D1*
X827745Y1057189D1*
X823294Y1039371D1*
X817122Y1022074D1*
X809289Y1005463D1*
X799869Y989697D1*
X788954Y974928D1*
X776646Y961296D1*
X763065Y948933D1*
X748341Y937957D1*
X732614Y928473D1*
X716035Y920572D1*
X698763Y914330D1*
X680963Y909806D1*
X668822Y907809D1*
X673679Y904246D1*
X678900Y899085D1*
X683243Y893166D1*
X686601Y886637D1*
X688890Y879662D1*
X690052Y872413D1*
X690055Y865029D1*
X688899Y857779D1*
X686617Y850802D1*
X683265Y844270D1*
X678927Y838347D1*
X673711Y833181D1*
X667747Y828901D1*
X661183Y825612D1*
X654184Y823397D1*
X646923Y822312D1*
X639582Y822383D1*
X632344Y823608D1*
X625388Y825957D1*
X618889Y829372D1*
X613009Y833767D1*
X607893Y839033D1*
X603670Y845038D1*
X600445Y851633D1*
X598298Y858654D1*
X597283Y865925D1*
X597425Y873265D1*
X598720Y880491D1*
X601136Y887423D1*
X604613Y893889D1*
X609065Y899727D1*
X614380Y904791D1*
X618500Y907772D1*
X607942Y909508D1*
X590106Y913886D1*
X572784Y919987D1*
X556141Y927752D1*
X540336Y937107D1*
X525523Y947962D1*
X511841Y960213D1*
X499423Y973744D1*
X488386Y988423D1*
X478838Y1004112D1*
X470870Y1020658D1*
X464557Y1037904D1*
X459960Y1055685D1*
X457124Y1073830D1*
X456075Y1092166D1*
X456824Y1110516D1*
X459363Y1128705D1*
X463668Y1146558D1*
X469698Y1163906D1*
X477395Y1180580D1*
X486685Y1196422D1*
X497480Y1211281D1*
X509675Y1225012D1*
X523155Y1237486D1*
X537789Y1248582D1*
X553438Y1258194D1*
X569952Y1266230D1*
X587172Y1272614D1*
X604934Y1277283D1*
X618552Y1279582D1*
X613009Y1283767D1*
X607893Y1289033D1*
X605499Y1292196D1*
X432207Y1292200D1*
X432200Y432184D1*
X512963Y432200D1*
X512968Y502976D1*
X548385D1*
X548401Y601401D1*
X620492D1*
X616552Y606904D1*
X613240Y613405D1*
X610985Y620345D1*
X609843Y627552D1*
Y634848D1*
X610985Y642055D1*
X613240Y648995D1*
X616552Y655496D1*
X620841Y661399D1*
X626001Y666559D1*
X631904Y670848D1*
X638405Y674160D1*
X645345Y676415D1*
X652552Y677557D1*
X659848D1*
X663656Y677091D1*
X656109Y684771D1*
X654500Y686814D1*
X650614Y687672D1*
X629110D1*
Y799727D1*
X808094D1*
Y687672D1*
X783441D1*
X779328Y682664D1*
X765354Y668690D1*
X765377Y609285D1*
X817936Y609275D1*
Y601402D1*
X916361Y601401D1*
Y502970D1*
X951795Y502976D1*
Y432176D1*
X3855216Y432200D1*
X3855200Y3855216D1*
X1044727Y3855200D1*
X1044700Y3653364D1*
X1066748Y3675257D1*
X1072016Y3679085D1*
X1077819Y3682041D1*
X1084012Y3684054D1*
X1090444Y3685072D1*
X1130445Y3685200D1*
X1137658D1*
X1137673Y3699727D1*
X1249728D1*
Y3685194D1*
X2396956Y3685072D1*
X2403388Y3684053D1*
X2409581Y3682041D1*
X2415384Y3679085D1*
X2420652Y3675257D1*
X2449028Y3647062D1*
X2648391Y3447699D1*
X2804126Y3447700D1*
X2804110Y3462227D1*
X2983094D1*
Y3439226D1*
X3004099Y3439196D1*
X3004110Y3462227D1*
X3080750D1*
Y3312227D2*
X3183094D1*
Y3200172D1*
X3004110D1*
Y3223174D1*
X2983104Y3223204D1*
X2983094Y3200172D1*
X2804110D1*
Y3214705D1*
X1723372Y3214700D1*
X1639099Y3130409D1*
X1643687Y3123849D1*
X1649300Y3131621D1*
X1655779Y3138100D1*
X1663191Y3143485D1*
X1671355Y3147645D1*
X1680069Y3150476D1*
X1689119Y3151910D1*
X1698281D1*
X1707331Y3150476D1*
X1716045Y3147645D1*
X1724209Y3143485D1*
X1731621Y3138100D1*
X1738100Y3131621D1*
X1743687Y3123849D1*
X1749300Y3131621D1*
X1755779Y3138100D1*
X1763191Y3143485D1*
X1771355Y3147645D1*
X1780069Y3150476D1*
X1789119Y3151910D1*
X1798281D1*
X1807331Y3150476D1*
X1816045Y3147645D1*
X1824209Y3143485D1*
X1831621Y3138100D1*
X1838100Y3131621D1*
X1843687Y3123849D1*
X1849300Y3131621D1*
X1855779Y3138100D1*
X1863191Y3143485D1*
X1871355Y3147645D1*
X1880069Y3150476D1*
X1889119Y3151910D1*
X1898281D1*
X1907331Y3150476D1*
X1916045Y3147645D1*
X1924209Y3143485D1*
X1931621Y3138100D1*
X1938100Y3131621D1*
X1943687Y3123849D1*
X1949300Y3131621D1*
X1955779Y3138100D1*
X1963191Y3143485D1*
X1971355Y3147645D1*
X1980069Y3150476D1*
X1989119Y3151910D1*
X1998281D1*
X2007331Y3150476D1*
X2016045Y3147645D1*
X2024209Y3143485D1*
X2031621Y3138100D1*
X2038100Y3131621D1*
X2043687Y3123849D1*
X2049300Y3131621D1*
X2055779Y3138100D1*
X2063191Y3143485D1*
X2071355Y3147645D1*
X2080069Y3150476D1*
X2089119Y3151910D1*
X2098281D1*
X2107331Y3150476D1*
X2116045Y3147645D1*
X2124209Y3143485D1*
X2131621Y3138100D1*
X2138100Y3131621D1*
X2143687Y3123849D1*
X2149300Y3131621D1*
X2155779Y3138100D1*
X2163191Y3143485D1*
X2171355Y3147645D1*
X2180069Y3150476D1*
X2189119Y3151910D1*
X2198281D1*
X2207331Y3150476D1*
X2216045Y3147645D1*
X2224209Y3143485D1*
X2231621Y3138100D1*
X2238100Y3131621D1*
X2243687Y3123849D1*
X2249300Y3131621D1*
X2255779Y3138100D1*
X2263191Y3143485D1*
X2271355Y3147645D1*
X2280069Y3150476D1*
X2289119Y3151910D1*
X2298281D1*
X2307331Y3150476D1*
X2316045Y3147645D1*
X2324209Y3143485D1*
X2331621Y3138100D1*
X2338100Y3131621D1*
X2343687Y3123849D1*
X2349300Y3131621D1*
X2355779Y3138100D1*
X2363191Y3143485D1*
X2371355Y3147645D1*
X2380069Y3150476D1*
X2389119Y3151910D1*
X2398281D1*
X2407331Y3150476D1*
X2416045Y3147645D1*
X2424209Y3143485D1*
X2431621Y3138100D1*
X2438100Y3131621D1*
X2443687Y3123849D1*
X2449300Y3131621D1*
X2455779Y3138100D1*
X2463191Y3143485D1*
X2471355Y3147645D1*
X2480069Y3150476D1*
X2489119Y3151910D1*
X2498281D1*
X2507331Y3150476D1*
X2516045Y3147645D1*
X2524209Y3143485D1*
X2531621Y3138100D1*
X2538100Y3131621D1*
X2543485Y3124209D1*
X2547645Y3116045D1*
X2550476Y3107331D1*
X2551910Y3098281D1*
Y3089119D1*
X2550476Y3080069D1*
X2547645Y3071355D1*
X2543485Y3063191D1*
X2538100Y3055779D1*
X2531621Y3049300D1*
X2526695Y3045576D1*
X2526696Y2948548D1*
X2535265Y2942366D1*
X2542366Y2935265D1*
X2548269Y2927140D1*
X2552828Y2918192D1*
X2555932Y2908641D1*
X2557503Y2898721D1*
Y2888679D1*
X2555932Y2878759D1*
X2552828Y2869208D1*
X2548269Y2860260D1*
X2542366Y2852135D1*
X2535265Y2845034D1*
X2527140Y2839131D1*
X2518192Y2834572D1*
X2508641Y2831468D1*
X2498721Y2829897D1*
X2488679D1*
X2478759Y2831468D1*
X2469208Y2834572D1*
X2460260Y2839131D1*
X2452135Y2845034D1*
X2445034Y2852135D1*
X2443734Y2853785D1*
X2438955Y2848445D1*
X2431318Y2841923D1*
X2422755Y2836676D1*
X2413477Y2832832D1*
X2403712Y2830488D1*
X2393700Y2829700D1*
X2383688Y2830488D1*
X2373923Y2832832D1*
X2364645Y2836676D1*
X2356082Y2841923D1*
X2348445Y2848445D1*
X2343734Y2853785D1*
X2338955Y2848445D1*
X2331318Y2841923D1*
X2322755Y2836676D1*
X2313477Y2832832D1*
X2303712Y2830488D1*
X2293700Y2829700D1*
X2283688Y2830488D1*
X2273923Y2832832D1*
X2264645Y2836676D1*
X2256082Y2841923D1*
X2248445Y2848445D1*
X2243734Y2853785D1*
X2238955Y2848445D1*
X2231318Y2841923D1*
X2222755Y2836676D1*
X2213477Y2832832D1*
X2203712Y2830488D1*
X2193700Y2829700D1*
X2183688Y2830488D1*
X2173923Y2832832D1*
X2164645Y2836676D1*
X2156082Y2841923D1*
X2148445Y2848445D1*
X2143734Y2853785D1*
X2138955Y2848445D1*
X2131318Y2841923D1*
X2126712Y2838891D1*
X2126696Y2807399D1*
X2157351Y2776713D1*
X2587193Y2776696D1*
X2581735Y2781735D1*
X2577065Y2786788D1*
X2572805Y2792192D1*
X2568982Y2797913D1*
X2565620Y2803916D1*
X2562739Y2810165D1*
X2560358Y2816620D1*
X2558490Y2823243D1*
X2557148Y2829991D1*
X2556339Y2836825D1*
X2556069Y2843700D1*
X2556339Y2850575D1*
X2557148Y2857409D1*
X2558490Y2864157D1*
X2560358Y2870780D1*
X2562739Y2877235D1*
X2565620Y2883484D1*
X2568982Y2889487D1*
X2572805Y2895208D1*
X2577065Y2900612D1*
X2581735Y2905665D1*
X2586788Y2910335D1*
X2592192Y2914595D1*
X2597913Y2918418D1*
X2603916Y2921780D1*
X2610165Y2924661D1*
X2616620Y2927042D1*
X2623243Y2928910D1*
X2629991Y2930252D1*
X2636825Y2931061D1*
X2643700Y2931331D1*
X2650575Y2931061D1*
X2657409Y2930252D1*
X2664157Y2928910D1*
X2670780Y2927042D1*
X2677235Y2924661D1*
X2683484Y2921780D1*
X2689487Y2918418D1*
X2695208Y2914595D1*
X2700612Y2910335D1*
X2705665Y2905665D1*
X2710335Y2900612D1*
X2714595Y2895208D1*
X2718418Y2889487D1*
X2721780Y2883484D1*
X2724661Y2877235D1*
X2727042Y2870780D1*
X2728910Y2864157D1*
X2730252Y2857409D1*
X2731061Y2850575D1*
X2731331Y2843700D1*
X2731061Y2836825D1*
X2729492Y2826169D1*
X2772271Y2868790D1*
X2776460Y2871834D1*
X2781073Y2874184D1*
X2785997Y2875784D1*
X2791121Y2876595D1*
X2791610Y2879536D1*
Y2899727D1*
X2970594D1*
Y2876725D1*
X2991599Y2876696D1*
X2991610Y2899727D1*
X3170594D1*
Y2787672D1*
X2991610D1*
Y2810674D1*
X2970604Y2810704D1*
X2970594Y2787672D1*
X2791610D1*
Y2794957D1*
X2723490Y2726696D1*
X2791634D1*
X2791610Y2749727D1*
X2970594Y2749728D1*
Y2726726D1*
X2991599Y2726696D1*
X2991610Y2749727D1*
X3170594D1*
Y2637672D1*
X2991610D1*
Y2660674D1*
X2970604Y2660704D1*
X2970594Y2637672D1*
X2791610D1*
Y2660674D1*
X2043700Y2660704D1*
X2038538Y2661110D1*
X2033504Y2662319D1*
X2028720Y2664300D1*
X2024305Y2667006D1*
X2020368Y2670368D1*
X1968610Y2722271D1*
X1965566Y2726460D1*
X1963216Y2731073D1*
X1961616Y2735997D1*
X1960806Y2741111D1*
X1960704Y2808004D1*
Y2838829D1*
X1952135Y2845034D1*
X1945034Y2852135D1*
X1943734Y2853785D1*
X1938955Y2848445D1*
X1931318Y2841923D1*
X1926712Y2838891D1*
X1926696Y2657403D1*
X2007388Y2576675D1*
X2791585Y2576696D1*
X2791609Y2599728D1*
X2970594D1*
Y2576726D1*
X2991599Y2576696D1*
X2991610Y2599727D1*
X3170594D1*
Y2487672D1*
X2991610D1*
Y2510674D1*
X2970604Y2510704D1*
X2970594Y2487672D1*
X2791609D1*
Y2510674D1*
X1993700Y2510704D1*
X1988538Y2511110D1*
X1983504Y2512319D1*
X1978720Y2514300D1*
X1974305Y2517006D1*
X1970368Y2520368D1*
X1868610Y2622271D1*
X1865566Y2626460D1*
X1863216Y2631073D1*
X1861616Y2635997D1*
X1860806Y2641111D1*
X1860704Y2708004D1*
Y2838874D1*
X1856082Y2841923D1*
X1848445Y2848445D1*
X1843734Y2853785D1*
X1838955Y2848445D1*
X1831318Y2841923D1*
X1822755Y2836676D1*
X1813477Y2832832D1*
X1803712Y2830488D1*
X1793700Y2829700D1*
X1783688Y2830488D1*
X1773923Y2832832D1*
X1764645Y2836676D1*
X1756082Y2841923D1*
X1748445Y2848445D1*
X1743734Y2853785D1*
X1738955Y2848445D1*
X1731318Y2841923D1*
X1722755Y2836676D1*
X1713477Y2832832D1*
X1703712Y2830488D1*
X1693700Y2829700D1*
X1683688Y2830488D1*
X1673923Y2832832D1*
X1664645Y2836676D1*
X1656082Y2841923D1*
X1648445Y2848445D1*
X1643734Y2853785D1*
X1638955Y2848445D1*
X1631318Y2841923D1*
X1622755Y2836676D1*
X1613477Y2832832D1*
X1603712Y2830488D1*
X1593700Y2829700D1*
X1583688Y2830488D1*
X1573923Y2832832D1*
X1564645Y2836676D1*
X1556082Y2841923D1*
X1548445Y2848445D1*
X1543734Y2853785D1*
X1538955Y2848445D1*
X1531318Y2841923D1*
X1522755Y2836676D1*
X1513477Y2832832D1*
X1503712Y2830488D1*
X1493700Y2829700D1*
X1483688Y2830488D1*
X1473923Y2832832D1*
X1464645Y2836676D1*
X1456082Y2841923D1*
X1448445Y2848445D1*
X1443734Y2853785D1*
X1438955Y2848445D1*
X1431318Y2841923D1*
X1422755Y2836676D1*
X1413477Y2832832D1*
X1403712Y2830488D1*
X1393700Y2829700D1*
X1383688Y2830488D1*
X1373923Y2832832D1*
X1364645Y2836676D1*
X1356082Y2841923D1*
X1348445Y2848445D1*
X1341923Y2856082D1*
X1336676Y2864645D1*
X1332832Y2873923D1*
X1330488Y2883688D1*
X1329700Y2893700D1*
X1330488Y2903712D1*
X1332832Y2913477D1*
X1336676Y2922755D1*
X1341923Y2931318D1*
X1348445Y2938955D1*
X1356082Y2945477D1*
X1360688Y2948509D1*
X1360704Y3035335D1*
X1335310Y3035310D1*
Y3152090D1*
X1452090D1*
Y3134686D1*
X1459379Y3140938D1*
X1467192Y3145726D1*
X1475657Y3149232D1*
X1484566Y3151371D1*
X1493700Y3152090D1*
X1502834Y3151371D1*
X1511743Y3149232D1*
X1520208Y3145726D1*
X1528021Y3140938D1*
X1534988Y3134988D1*
X1540938Y3128021D1*
X1543687Y3123849D1*
X1549300Y3131621D1*
X1552206Y3134764D1*
X1552328Y3146956D1*
X1553347Y3153388D1*
X1555359Y3159581D1*
X1558315Y3165384D1*
X1562143Y3170652D1*
X1590338Y3199028D1*
X1679248Y3287757D1*
X1684516Y3291585D1*
X1690319Y3294541D1*
X1696512Y3296553D1*
X1702944Y3297572D1*
X1742945Y3297700D1*
X2804077D1*
X2804110Y3312227D1*
X2983094D1*
Y3289226D1*
X3004099Y3289196D1*
X3004110Y3312227D1*
X3080750D1*
X3068250Y3099727D2*
X3170594D1*
Y2987672D1*
X2991610D1*
Y3010674D1*
X2970604Y3010704D1*
X2970594Y2987672D1*
X2791610D1*
Y3010674D1*
X2776489Y3010704D1*
X2771032Y3006081D1*
X2764811Y3002268D1*
X2758069Y2999476D1*
X2750974Y2997772D1*
X2743700Y2997200D1*
X2736426Y2997772D1*
X2729331Y2999476D1*
X2722589Y3002268D1*
X2716368Y3006081D1*
X2710820Y3010820D1*
X2706081Y3016368D1*
X2702268Y3022589D1*
X2699476Y3029331D1*
X2697772Y3036426D1*
X2697200Y3043700D1*
X2697772Y3050974D1*
X2699476Y3058069D1*
X2702268Y3064811D1*
X2706081Y3071032D1*
X2710820Y3076580D1*
X2716368Y3081319D1*
X2722589Y3085132D1*
X2729331Y3087924D1*
X2736426Y3089628D1*
X2743700Y3090200D1*
X2750974Y3089628D1*
X2758069Y3087924D1*
X2764811Y3085132D1*
X2771032Y3081319D1*
X2776465Y3076687D1*
X2791605Y3076696D1*
X2791610Y3099727D1*
X2970594D1*
Y3076726D1*
X2991599Y3076696D1*
X2991610Y3099727D1*
X3068250D1*
X3618531Y907796D2*
X3607942Y909508D1*
X3590106Y913886D1*
X3572784Y919987D1*
X3556141Y927752D1*
X3540336Y937107D1*
X3525523Y947962D1*
X3511841Y960213D1*
X3499423Y973744D1*
X3488386Y988423D1*
X3478838Y1004112D1*
X3470870Y1020658D1*
X3464557Y1037904D1*
X3459960Y1055685D1*
X3458788Y1062146D1*
X3415129Y1018609D1*
X3410940Y1015566D1*
X3406327Y1013215D1*
X3401403Y1011615D1*
X3396289Y1010806D1*
X3390865Y1010704D1*
X3390870Y1004404D1*
X3376695D1*
X3376696Y970604D1*
X3399728Y970594D1*
Y876664D1*
X3596299Y876593D1*
X3597929Y876903D1*
X3599791Y884005D1*
X3602747Y890725D1*
X3606724Y896896D1*
X3611622Y902364D1*
X3617320Y906993D1*
X3618500Y907772D1*
X3831106Y3634517D2*
X3829311Y3616240D1*
X3825737Y3598226D1*
X3820420Y3580647D1*
X3813409Y3563672D1*
X3804772Y3547465D1*
X3794592Y3532179D1*
X3782967Y3517961D1*
X3770007Y3504948D1*
X3755837Y3493265D1*
X3740593Y3483023D1*
X3724421Y3474320D1*
X3707475Y3467240D1*
X3689918Y3461850D1*
X3680433Y3459712D1*
X3684179Y3454085D1*
X3687276Y3447429D1*
X3689287Y3440368D1*
X3690162Y3433079D1*
X3689874Y3425701D1*
X3688433Y3418502D1*
X3685877Y3411620D1*
X3682270Y3405226D1*
X3677701Y3399480D1*
X3672285Y3394524D1*
X3666156Y3390482D1*
X3659468Y3387455D1*
X3652386Y3385519D1*
X3645088Y3384721D1*
X3637756Y3385082D1*
X3630571Y3386592D1*
X3623714Y3389214D1*
X3617355Y3392883D1*
X3611653Y3397507D1*
X3606749Y3402971D1*
X3602767Y3409138D1*
X3599805Y3415855D1*
X3597937Y3422955D1*
X3597209Y3430260D1*
X3597641Y3437589D1*
X3599221Y3444759D1*
X3601909Y3451590D1*
X3605639Y3457913D1*
X3606969Y3459705D1*
X3590106Y3463886D1*
X3572784Y3469987D1*
X3556141Y3477752D1*
X3540336Y3487107D1*
X3525523Y3497962D1*
X3511841Y3510213D1*
X3499423Y3523744D1*
X3488386Y3538423D1*
X3478838Y3554112D1*
X3470870Y3570658D1*
X3464557Y3587904D1*
X3459960Y3605685D1*
X3457124Y3623830D1*
X3456670Y3629373D1*
X3452701Y3624480D1*
X3447285Y3619524D1*
X3441156Y3615482D1*
X3434468Y3612455D1*
X3427386Y3610519D1*
X3420088Y3609721D1*
X3412756Y3610082D1*
X3405571Y3611592D1*
X3398714Y3614214D1*
X3392355Y3617883D1*
X3386653Y3622507D1*
X3381749Y3627971D1*
X3377767Y3634138D1*
X3374805Y3640855D1*
X3372937Y3647955D1*
X3372209Y3655260D1*
X3372641Y3662589D1*
X3374221Y3669759D1*
X3376909Y3676590D1*
X3380639Y3682913D1*
X3385318Y3688571D1*
X3390828Y3693421D1*
X3397034Y3697344D1*
X3403780Y3700241D1*
X3410897Y3702041D1*
X3418209Y3702697D1*
X3425533Y3702195D1*
X3432687Y3700546D1*
X3439492Y3697792D1*
X3445779Y3694001D1*
X3451391Y3689268D1*
X3456189Y3683711D1*
X3459366Y3678737D1*
X3463668Y3696558D1*
X3469698Y3713906D1*
X3477395Y3730580D1*
X3486685Y3746422D1*
X3497480Y3761281D1*
X3509675Y3775012D1*
X3523155Y3787486D1*
X3537789Y3798582D1*
X3553438Y3808194D1*
X3569952Y3816230D1*
X3587172Y3822614D1*
X3604934Y3827283D1*
X3623068Y3830193D1*
X3641398Y3831317D1*
X3659751Y3830643D1*
X3677951Y3828179D1*
X3695822Y3823947D1*
X3713193Y3817988D1*
X3729899Y3810359D1*
X3745780Y3801133D1*
X3760682Y3790400D1*
X3774463Y3778260D1*
X3786992Y3764832D1*
X3798147Y3750243D1*
X3807824Y3734634D1*
X3815927Y3718153D1*
X3822381Y3700959D1*
X3827123Y3683216D1*
X3830107Y3665095D1*
X3831306Y3646769D1*
X3831106Y3634517D1*
X827407Y3605683D2*
X823294Y3589371D1*
X817122Y3572074D1*
X809289Y3555463D1*
X799869Y3539697D1*
X788954Y3524928D1*
X776646Y3511296D1*
X763065Y3498933D1*
X748341Y3487957D1*
X732614Y3478473D1*
X716035Y3470572D1*
X698763Y3464330D1*
X680963Y3459806D1*
X680433Y3459712D1*
X684179Y3454085D1*
X687276Y3447429D1*
X689287Y3440368D1*
X690162Y3433079D1*
X689874Y3425701D1*
X688433Y3418502D1*
X685877Y3411620D1*
X682270Y3405226D1*
X677701Y3399480D1*
X672285Y3394524D1*
X666156Y3390482D1*
X659468Y3387455D1*
X652386Y3385519D1*
X645088Y3384721D1*
X637756Y3385082D1*
X630571Y3386592D1*
X623714Y3389214D1*
X617355Y3392883D1*
X611653Y3397507D1*
X606749Y3402971D1*
X602767Y3409138D1*
X599805Y3415855D1*
X597937Y3422955D1*
X597209Y3430260D1*
X597641Y3437589D1*
X599221Y3444759D1*
X601909Y3451590D1*
X605639Y3457913D1*
X606969Y3459705D1*
X590106Y3463886D1*
X572784Y3469987D1*
X556141Y3477752D1*
X540336Y3487107D1*
X525523Y3497962D1*
X511841Y3510213D1*
X499423Y3523744D1*
X488386Y3538423D1*
X478838Y3554112D1*
X470870Y3570658D1*
X464557Y3587904D1*
X459960Y3605685D1*
X457124Y3623830D1*
X456075Y3642166D1*
X456824Y3660516D1*
X459363Y3678705D1*
X463668Y3696558D1*
X469698Y3713906D1*
X477395Y3730580D1*
X486685Y3746422D1*
X497480Y3761281D1*
X509675Y3775012D1*
X523155Y3787486D1*
X537789Y3798582D1*
X553438Y3808194D1*
X569952Y3816230D1*
X587172Y3822614D1*
X604934Y3827283D1*
X623068Y3830193D1*
X641398Y3831317D1*
X659751Y3830643D1*
X677951Y3828179D1*
X695822Y3823947D1*
X713193Y3817988D1*
X729899Y3810359D1*
X745780Y3801133D1*
X760682Y3790400D1*
X774463Y3778260D1*
X786992Y3764832D1*
X792681Y3757758D1*
X792700Y3855166D1*
X432184Y3855200D1*
X432200Y2220221D1*
X608279Y2220118D1*
X612386Y2219468D1*
X616341Y2218183D1*
X620046Y2216295D1*
X673664Y2176789D1*
X762284Y2111287D1*
X758490Y2123243D1*
X757148Y2129991D1*
X756339Y2136825D1*
X756069Y2143700D1*
X756339Y2150575D1*
X757148Y2157409D1*
X758490Y2164157D1*
X760358Y2170780D1*
X762739Y2177235D1*
X765620Y2183484D1*
X768982Y2189487D1*
X772805Y2195208D1*
X777065Y2200612D1*
X781735Y2205665D1*
X786788Y2210335D1*
X792192Y2214595D1*
X797913Y2218418D1*
X803916Y2221780D1*
X810165Y2224661D1*
X816620Y2227042D1*
X823243Y2228910D1*
X829991Y2230252D1*
X836825Y2231061D1*
X843700Y2231331D1*
X850575Y2231061D1*
X857409Y2230252D1*
X864157Y2228910D1*
X870780Y2227042D1*
X877235Y2224661D1*
X883484Y2221780D1*
X889487Y2218418D1*
X895208Y2214595D1*
X900612Y2210335D1*
X905665Y2205665D1*
X910335Y2200612D1*
X914595Y2195208D1*
X918418Y2189487D1*
X921780Y2183484D1*
X924661Y2177235D1*
X927042Y2170780D1*
X928910Y2164157D1*
X930252Y2157409D1*
X931061Y2150575D1*
X931331Y2143700D1*
X931061Y2136825D1*
X930252Y2129991D1*
X928910Y2123243D1*
X927042Y2116620D1*
X924661Y2110165D1*
X921780Y2103916D1*
X918418Y2097913D1*
X914595Y2092192D1*
X910335Y2086788D1*
X905665Y2081735D1*
X900612Y2077065D1*
X895208Y2072805D1*
X889487Y2068982D1*
X883484Y2065620D1*
X877235Y2062739D1*
X870780Y2060358D1*
X864157Y2058490D1*
X857409Y2057148D1*
X850575Y2056339D1*
X843700Y2056069D1*
X836584Y2056367D1*
X911075Y2001209D1*
X913991Y1998245D1*
X916408Y1994861D1*
X918265Y1991140D1*
X919518Y1987175D1*
X920135Y1983055D1*
X920200Y1835187D1*
X1052233Y1835200D1*
X1052090Y1851040D1*
Y1835310D1*
X935310D1*
Y1952090D1*
X960680D1*
X960704Y2038852D1*
X952135Y2045034D1*
X945034Y2052135D1*
X939131Y2060260D1*
X934572Y2069208D1*
X931468Y2078759D1*
X929897Y2088679D1*
Y2098721D1*
X931468Y2108641D1*
X934572Y2118192D1*
X939131Y2127140D1*
X945034Y2135265D1*
X952135Y2142366D1*
X960260Y2148269D1*
X969208Y2152828D1*
X978759Y2155932D1*
X988679Y2157503D1*
X998721D1*
X1008641Y2155932D1*
X1018192Y2152828D1*
X1027140Y2148269D1*
X1035265Y2142366D1*
X1042366Y2135265D1*
X1043666Y2133615D1*
X1048445Y2138955D1*
X1052212Y2142427D1*
X1052200Y2176485D1*
X612143Y2616748D1*
X608315Y2622016D1*
X605359Y2627819D1*
X603347Y2634012D1*
X602328Y2640444D1*
X602200Y2680445D1*
X602328Y3196956D1*
X603347Y3203388D1*
X605359Y3209581D1*
X608315Y3215384D1*
X612143Y3220652D1*
X640338Y3249028D1*
X724228Y3332737D1*
X729497Y3336565D1*
X735299Y3339521D1*
X741492Y3341534D1*
X747924Y3342552D1*
X787675Y3342680D1*
X787673Y3357208D1*
X899728D1*
Y3342675D1*
X907366Y3343517D1*
X999753Y3435903D1*
X999867Y3594495D1*
X1000886Y3600927D1*
X1001775Y3604076D1*
X997014Y3605200D1*
X829731Y3605286D1*
X827448Y3605701D1*
X1146859Y1599727D2*
X1152206D1*
X1152200Y1626485D1*
X1070598Y1708112D1*
X1070594Y1612672D1*
X1051468D1*
X1051499Y1449699D1*
X1070594Y1449727D1*
Y1426726D1*
X1180018Y1426696D1*
X1240984Y1487647D1*
X1137673Y1487672D1*
Y1599727D1*
X1146859D1*
X1235170D2*
X1249728D1*
Y1578448D1*
X1254083Y1583317D1*
X1260768Y1589027D1*
X1268264Y1593621D1*
X1276387Y1596985D1*
X1284935Y1599038D1*
X1293700Y1599728D1*
X1302465Y1599038D1*
X1311013Y1596985D1*
X1319136Y1593621D1*
X1326632Y1589027D1*
X1333317Y1583317D1*
X1339027Y1576632D1*
X1343700Y1568964D1*
X1348373Y1576632D1*
X1354083Y1583317D1*
X1360768Y1589027D1*
X1368264Y1593621D1*
X1376387Y1596985D1*
X1384935Y1599038D1*
X1393700Y1599728D1*
X1402465Y1599038D1*
X1411013Y1596985D1*
X1419136Y1593621D1*
X1426632Y1589027D1*
X1433317Y1583317D1*
X1439027Y1576632D1*
X1443621Y1569136D1*
X1446985Y1561013D1*
X1449038Y1552465D1*
X1449728Y1543700D1*
X1449038Y1534935D1*
X1446985Y1526387D1*
X1443621Y1518264D1*
X1439027Y1510768D1*
X1433317Y1504083D1*
X1426632Y1498373D1*
X1419136Y1493779D1*
X1411013Y1490415D1*
X1402465Y1488362D1*
X1393700Y1487672D1*
X1384935Y1488362D1*
X1376387Y1490415D1*
X1368264Y1493779D1*
X1360768Y1498373D1*
X1354083Y1504083D1*
X1348373Y1510768D1*
X1343700Y1518436D1*
X1339027Y1510768D1*
X1333317Y1504083D1*
X1326700Y1498426D1*
X1326594Y1491111D1*
X1325784Y1485997D1*
X1324184Y1481073D1*
X1321834Y1476460D1*
X1318790Y1472271D1*
X1271562Y1424898D1*
X1215129Y1368610D1*
X1210940Y1365566D1*
X1206327Y1363216D1*
X1201403Y1361616D1*
X1196289Y1360806D1*
X1129396Y1360704D1*
X1070581D1*
X1070594Y1351728D1*
X1530036Y1351696D1*
X1622271Y1443790D1*
X1626460Y1446834D1*
X1631073Y1449184D1*
X1635997Y1450784D1*
X1638548Y1451291D1*
X1638872Y1451864D1*
X1468610Y1622271D1*
X1465566Y1626460D1*
X1463216Y1631073D1*
X1461616Y1635997D1*
X1460806Y1641111D1*
X1460704Y1708004D1*
Y1710911D1*
X1456081Y1716368D1*
X1452268Y1722589D1*
X1449476Y1729331D1*
X1447772Y1736426D1*
X1447200Y1743700D1*
X1447772Y1750974D1*
X1449476Y1758069D1*
X1452268Y1764811D1*
X1456081Y1771032D1*
X1460820Y1776580D1*
X1466368Y1781319D1*
X1472589Y1785132D1*
X1479331Y1787924D1*
X1486426Y1789628D1*
X1493700Y1790200D1*
X1501156Y1789591D1*
X1468609Y1822271D1*
X1465566Y1826460D1*
X1463215Y1831073D1*
X1461615Y1835997D1*
X1460806Y1841111D1*
X1460704Y1845530D1*
X1455779Y1849300D1*
X1449300Y1855779D1*
X1443713Y1863551D1*
X1438100Y1855779D1*
X1431621Y1849300D1*
X1424209Y1843915D1*
X1416045Y1839755D1*
X1407331Y1836924D1*
X1398281Y1835490D1*
X1389119D1*
X1380069Y1836924D1*
X1371355Y1839755D1*
X1363191Y1843915D1*
X1355779Y1849300D1*
X1349300Y1855779D1*
X1343713Y1863551D1*
X1339800Y1857864D1*
X1334936Y1852361D1*
X1329421Y1847512D1*
X1323340Y1843393D1*
X1316791Y1840070D1*
X1309876Y1837596D1*
X1302705Y1836009D1*
X1295392Y1835335D1*
X1288052Y1835584D1*
X1280801Y1836753D1*
X1273755Y1838822D1*
X1267024Y1841760D1*
X1260715Y1845520D1*
X1254928Y1850042D1*
X1249754Y1855254D1*
X1245275Y1861075D1*
X1243703Y1863553D1*
X1238100Y1855779D1*
X1231621Y1849300D1*
X1224209Y1843915D1*
X1216045Y1839755D1*
X1207331Y1836924D1*
X1198281Y1835490D1*
X1189119D1*
X1180069Y1836924D1*
X1171355Y1839755D1*
X1163191Y1843915D1*
X1155779Y1849300D1*
X1149300Y1855779D1*
X1143713Y1863551D1*
X1138100Y1855779D1*
X1135194Y1852636D1*
X1135200Y1760866D1*
X1225257Y1670652D1*
X1229085Y1665384D1*
X1232041Y1659581D1*
X1234053Y1653388D1*
X1235072Y1646956D1*
X1235200Y1606955D1*
Y1599742D1*
X1249728Y1508976D2*
Y1496417D1*
X1255802Y1502466D1*
X1251096Y1507313D1*
X1249724Y1509054D1*
X899555Y3139304D2*
X898180Y3130621D1*
X895463Y3122259D1*
X891471Y3114426D1*
X886304Y3107313D1*
X881589Y3102484D1*
X1718790Y2265129D1*
X1721834Y2260940D1*
X1724184Y2256327D1*
X1725784Y2251403D1*
X1726594Y2246289D1*
X1726696Y2179396D1*
Y2148571D1*
X1735265Y2142366D1*
X1742366Y2135265D1*
X1743666Y2133615D1*
X1748445Y2138955D1*
X1756082Y2145477D1*
X1760688Y2148509D1*
X1760704Y2280047D1*
X1168609Y2872271D1*
X1165566Y2876460D1*
X1163215Y2881073D1*
X1161615Y2885997D1*
X1160806Y2891111D1*
X1160704Y2958004D1*
Y3398411D1*
X1154083Y3404083D1*
X1148373Y3410768D1*
X1143779Y3418264D1*
X1140415Y3426387D1*
X1138362Y3434935D1*
X1137672Y3443700D1*
X1138362Y3452465D1*
X1140415Y3461013D1*
X1143779Y3469136D1*
X1148373Y3476632D1*
X1154083Y3483317D1*
X1160768Y3489027D1*
X1168436Y3493700D1*
X1162366Y3497254D1*
X1156560Y3501751D1*
X1151393Y3506969D1*
X1146952Y3512818D1*
X1143314Y3519197D1*
X1140542Y3525998D1*
X1138684Y3533103D1*
X1137770Y3540390D1*
X1137818Y3547733D1*
X1138825Y3555008D1*
X1140776Y3562088D1*
X1143635Y3568852D1*
X1147355Y3575184D1*
X1151871Y3580975D1*
X1157106Y3586126D1*
X1158986Y3587669D1*
X1137673Y3587672D1*
Y3602205D1*
X1110915Y3602200D1*
X1082726Y3574036D1*
X1082612Y3415444D1*
X1081593Y3409012D1*
X1079581Y3402819D1*
X1076624Y3397016D1*
X1072796Y3391748D1*
X1044601Y3363372D1*
X950672Y3269623D1*
X945403Y3265796D1*
X939601Y3262839D1*
X933408Y3260827D1*
X926976Y3259808D1*
X899713Y3259680D1*
X899728Y3245153D1*
X895008Y3244946D1*
X897511Y3238042D1*
X899090Y3230870D1*
X899717Y3223553D1*
X899457Y3216937D1*
X898258Y3209692D1*
X896122Y3202666D1*
X893085Y3195979D1*
X889200Y3189747D1*
X884533Y3184077D1*
X883558Y3183073D1*
X889027Y3176632D1*
X893621Y3169136D1*
X896985Y3161013D1*
X899038Y3152465D1*
X899728Y3143700D1*
X899555Y3139304D1*
X810700Y3098426D2*
X804083Y3104083D1*
X798373Y3110768D1*
X793779Y3118264D1*
X790415Y3126387D1*
X788362Y3134935D1*
X787672Y3143700D1*
X788362Y3152465D1*
X790415Y3161013D1*
X793779Y3169136D1*
X798373Y3176632D1*
X803838Y3183052D1*
X799076Y3188561D1*
X795029Y3194688D1*
X791817Y3201292D1*
X789497Y3208260D1*
X788108Y3215471D1*
X787674Y3222802D1*
X788202Y3230127D1*
X789684Y3237320D1*
X792095Y3244257D1*
X792492Y3245156D1*
X787673Y3245153D1*
Y3259686D1*
X768379Y3259680D1*
X685195Y3176505D1*
X685200Y2660856D1*
X1123045Y2223045D1*
X1127274Y2218093D1*
X1130677Y2212541D1*
X1133169Y2206524D1*
X1134689Y2200192D1*
X1135200Y2193687D1*
X1135265Y2142366D1*
X1142366Y2135265D1*
X1143666Y2133615D1*
X1148445Y2138955D1*
X1156082Y2145477D1*
X1164645Y2150724D1*
X1173923Y2154568D1*
X1183688Y2156912D1*
X1193700Y2157700D1*
X1203712Y2156912D1*
X1213477Y2154568D1*
X1222755Y2150724D1*
X1231318Y2145477D1*
X1238955Y2138955D1*
X1243666Y2133615D1*
X1248714Y2139222D1*
X1254226Y2144076D1*
X1260258Y2148267D1*
X1266730Y2151740D1*
X1273558Y2154448D1*
X1280651Y2156356D1*
X1287916Y2157438D1*
X1295257Y2157681D1*
X1302577Y2157081D1*
X1309781Y2155647D1*
X1316772Y2153396D1*
X1323460Y2150360D1*
X1329756Y2146577D1*
X1335577Y2142097D1*
X1340847Y2136980D1*
X1343694Y2133647D1*
X1348445Y2138955D1*
X1356082Y2145477D1*
X1364645Y2150724D1*
X1373923Y2154568D1*
X1383688Y2156912D1*
X1393700Y2157700D1*
X1403712Y2156912D1*
X1413477Y2154568D1*
X1422755Y2150724D1*
X1431318Y2145477D1*
X1438955Y2138955D1*
X1443666Y2133615D1*
X1448445Y2138955D1*
X1456082Y2145477D1*
X1464645Y2150724D1*
X1473923Y2154568D1*
X1483688Y2156912D1*
X1493700Y2157700D1*
X1503712Y2156912D1*
X1513477Y2154568D1*
X1522755Y2150724D1*
X1531318Y2145477D1*
X1538955Y2138955D1*
X1543666Y2133615D1*
X1548445Y2138955D1*
X1556082Y2145477D1*
X1564645Y2150724D1*
X1573923Y2154568D1*
X1583688Y2156912D1*
X1593700Y2157700D1*
X1603712Y2156912D1*
X1613477Y2154568D1*
X1622755Y2150724D1*
X1631318Y2145477D1*
X1638955Y2138955D1*
X1643666Y2133615D1*
X1648445Y2138955D1*
X1656082Y2145477D1*
X1660688Y2148509D1*
X1660704Y2230024D1*
X818610Y3072271D1*
X815566Y3076460D1*
X813216Y3081073D1*
X811616Y3085997D1*
X810806Y3091111D1*
X810704Y3093710D1*
X1415700Y538563D2*
X1383674Y506630D1*
X1379168Y503473D1*
X1374107Y501316D1*
X1368709Y500249D1*
X1347927Y500140D1*
X1319237Y500205D1*
X1313818Y501160D1*
X1308714Y503213D1*
X1304143Y506275D1*
X1289370Y520893D1*
X1269130Y541226D1*
X1265973Y545732D1*
X1263816Y550793D1*
X1262749Y556191D1*
X1262640Y576973D1*
X1262705Y605663D1*
X1263660Y611082D1*
X1265712Y616186D1*
X1268775Y620757D1*
X1283393Y635530D1*
X1303726Y655770D1*
X1308232Y658927D1*
X1313293Y661084D1*
X1318691Y662151D1*
X1339473Y662260D1*
X1368163Y662195D1*
X1373582Y661240D1*
X1378686Y659188D1*
X1383257Y656125D1*
X1398030Y641507D1*
X1418256Y621189D1*
X1418994Y621016D1*
X1418402Y622334D1*
X1330025Y710712D1*
X1191111Y710806D1*
X1185997Y711615D1*
X1181073Y713215D1*
X1176460Y715566D1*
X1172271Y718609D1*
X1124898Y765838D1*
X1118609Y772271D1*
X1115561Y776468D1*
X1108520Y778224D1*
X1050271D1*
Y886342D1*
X1237129D1*
Y778224D1*
X1206006Y778057D1*
X1207351Y776713D1*
X1287681Y776696D1*
X1287673Y945790D1*
X1399728D1*
Y926664D1*
X1437681Y926696D1*
X1437673Y945790D1*
X1460674D1*
X1460704Y1004403D1*
X1446531Y1004405D1*
Y1041832D1*
X1355980Y1041806D1*
X1355905Y1085503D1*
X1232140D1*
X1194414Y1047745D1*
X1237129Y1047759D1*
Y1035235D1*
X1272704Y1035200D1*
X1279331Y1037924D1*
X1286426Y1039628D1*
X1293700Y1040200D1*
X1300974Y1039628D1*
X1308069Y1037924D1*
X1314811Y1035132D1*
X1321032Y1031319D1*
X1326580Y1026580D1*
X1331319Y1021032D1*
X1335132Y1014811D1*
X1337924Y1008069D1*
X1339628Y1000974D1*
X1340200Y993700D1*
X1339628Y986426D1*
X1337924Y979331D1*
X1335132Y972589D1*
X1331319Y966368D1*
X1326580Y960820D1*
X1321032Y956081D1*
X1314811Y952268D1*
X1308069Y949476D1*
X1300974Y947772D1*
X1293700Y947200D1*
X1286426Y947772D1*
X1279331Y949476D1*
X1272732Y952203D1*
X1237111Y952200D1*
X1237129Y939641D1*
X1050271D1*
Y1047759D1*
X1110951D1*
X1112315Y1053898D1*
X1114297Y1058682D1*
X1117002Y1063097D1*
X1120373Y1067041D1*
X1197071Y1143597D1*
X1201261Y1146640D1*
X1205875Y1148991D1*
X1210799Y1150591D1*
X1215914Y1151401D1*
X1282808Y1151503D1*
X1446547D1*
X1446531Y1157798D1*
X1540869D1*
X1540834Y1079208D1*
X1548818Y1076696D1*
X1560911D1*
X1566368Y1081319D1*
X1572589Y1085132D1*
X1579331Y1087924D1*
X1586426Y1089628D1*
X1593700Y1090200D1*
X1600974Y1089628D1*
X1608069Y1087924D1*
X1614811Y1085132D1*
X1621032Y1081319D1*
X1626580Y1076580D1*
X1631319Y1071032D1*
X1635132Y1064811D1*
X1637924Y1058069D1*
X1639628Y1050974D1*
X1640200Y1043700D1*
X1639628Y1036426D1*
X1637924Y1029331D1*
X1635132Y1022589D1*
X1631319Y1016368D1*
X1626580Y1010820D1*
X1621032Y1006081D1*
X1614811Y1002268D1*
X1608069Y999476D1*
X1600974Y997772D1*
X1593700Y997200D1*
X1586426Y997772D1*
X1579331Y999476D1*
X1572589Y1002268D1*
X1566368Y1006081D1*
X1560935Y1010713D1*
X1540843Y1010704D1*
X1540869Y1004405D1*
X1526695D1*
X1526696Y945772D1*
X1549728Y945790D1*
Y766806D1*
X1526726D1*
X1526696Y744868D1*
X1611195Y660369D1*
X1616955Y661934D1*
X1621100Y662260D1*
X1668379Y662179D1*
X1672486Y661528D1*
X1676441Y660243D1*
X1680146Y658355D1*
X1683510Y655911D1*
X1716999Y622538D1*
X1719699Y619376D1*
X1721872Y615831D1*
X1723463Y611989D1*
X1724434Y607945D1*
X1724761Y603800D1*
X1724679Y556521D1*
X1724028Y552414D1*
X1722743Y548459D1*
X1720855Y544754D1*
X1718411Y541390D1*
X1685038Y507901D1*
X1681876Y505201D1*
X1678331Y503028D1*
X1674489Y501436D1*
X1670445Y500466D1*
X1666300Y500139D1*
X1619021Y500221D1*
X1614914Y500872D1*
X1610959Y502157D1*
X1607254Y504045D1*
X1603890Y506489D1*
X1570401Y539862D1*
X1568984Y541396D1*
X1568411Y541390D1*
X1535038Y507901D1*
X1531876Y505201D1*
X1528331Y503028D1*
X1524489Y501437D1*
X1520445Y500466D1*
X1516300Y500140D1*
X1469021Y500221D1*
X1464914Y500872D1*
X1460959Y502157D1*
X1457254Y504045D1*
X1453890Y506489D1*
X1420401Y539862D1*
X1418625Y541643D1*
X1415700Y538563D1*
X1471782Y662260D2*
X1516003D1*
X1468610Y709771D1*
X1465566Y713960D1*
X1463216Y718573D1*
X1461616Y723497D1*
X1460806Y728611D1*
X1460704Y766833D1*
X1437673Y766806D1*
Y860736D1*
X1399719Y860704D1*
X1399728Y766806D1*
X1376726D1*
X1376696Y757355D1*
X1471801Y662263D1*
X1796366Y1599727D2*
X1799728D1*
Y1578448D1*
X1804083Y1583317D1*
X1810768Y1589027D1*
X1818264Y1593621D1*
X1826387Y1596985D1*
X1834935Y1599038D1*
X1843700Y1599728D1*
X1852379Y1599048D1*
X1864037Y1610700D1*
X1807384Y1610704D1*
X1796403Y1599739D1*
X1687673Y1501703D2*
Y1599727D1*
X1691010D1*
X1539628Y1750974D1*
X1540200Y1743700D1*
X1539628Y1736426D1*
X1537924Y1729331D1*
X1535132Y1722589D1*
X1531319Y1716368D1*
X1526687Y1710935D1*
X1526696Y1657399D1*
X1682343Y1501720D1*
X1687683Y1501696D1*
X1988974Y1510700D2*
X1983317Y1504083D1*
X1976700Y1498426D1*
X1976594Y1491111D1*
X1975784Y1485997D1*
X1974184Y1481073D1*
X1971834Y1476460D1*
X1968790Y1472271D1*
X1942024Y1445361D1*
X1942032Y1442032D1*
X1968790Y1415129D1*
X1971834Y1410940D1*
X1974184Y1406327D1*
X1975784Y1401403D1*
X1976594Y1396289D1*
X1976696Y1388999D1*
X1983317Y1383317D1*
X1988974Y1376700D1*
X2030001Y1376696D1*
X2110725Y1457388D1*
X2110704Y1510911D1*
X2106081Y1516368D1*
X2102268Y1522589D1*
X2099476Y1529331D1*
X2097772Y1536426D1*
X2097200Y1543700D1*
X2097772Y1550974D1*
X2099476Y1558069D1*
X2100448Y1560705D1*
X2086992Y1560704D1*
X2088915Y1554555D1*
X2090057Y1547348D1*
Y1540052D1*
X2088915Y1532845D1*
X2086660Y1525905D1*
X2083348Y1519404D1*
X2079059Y1513501D1*
X2073899Y1508341D1*
X2067996Y1504052D1*
X2061495Y1500740D1*
X2054555Y1498485D1*
X2047348Y1497343D1*
X2040052D1*
X2032845Y1498485D1*
X2025905Y1500740D1*
X2019404Y1504052D1*
X2013501Y1508341D1*
X2010935Y1510713D1*
X1988977Y1510704D1*
X1893700Y1318436D2*
X1889027Y1310768D1*
X1883317Y1304083D1*
X1876700Y1298426D1*
X1876696Y1257399D1*
X1907351Y1226713D1*
X2414057Y1226696D1*
X2368610Y1272271D1*
X2365566Y1276460D1*
X2363216Y1281073D1*
X2361616Y1285997D1*
X2360806Y1291111D1*
X2360704Y1293710D1*
X2357313Y1301096D1*
X2351096Y1307313D1*
X2349724Y1309054D1*
X2349728Y1287672D1*
X2237673D1*
Y1351223D1*
X2229555Y1348485D1*
X2222348Y1347343D1*
X2215052D1*
X2207845Y1348485D1*
X2200905Y1350740D1*
X2194404Y1354052D1*
X2188501Y1358341D1*
X2183341Y1363501D1*
X2179052Y1369404D1*
X2175740Y1375905D1*
X2173485Y1382845D1*
X2172343Y1390052D1*
Y1397348D1*
X2173485Y1404555D1*
X2175740Y1411495D1*
X2179052Y1417996D1*
X2183341Y1423899D1*
X2185713Y1426465D1*
X2185704Y1523780D1*
X2183348Y1519404D1*
X2179059Y1513501D1*
X2176687Y1510935D1*
X2176594Y1441111D1*
X2175784Y1435997D1*
X2174184Y1431073D1*
X2171834Y1426460D1*
X2168790Y1422271D1*
X2121562Y1374898D1*
X2065129Y1318610D1*
X2060940Y1315566D1*
X2056327Y1313216D1*
X2051403Y1311616D1*
X2046289Y1310806D1*
X1988977Y1310704D1*
X1983317Y1304083D1*
X1976632Y1298373D1*
X1969136Y1293779D1*
X1961013Y1290415D1*
X1952465Y1288362D1*
X1943700Y1287672D1*
X1934935Y1288362D1*
X1926387Y1290415D1*
X1918264Y1293779D1*
X1910768Y1298373D1*
X1904083Y1304083D1*
X1898373Y1310768D1*
X1893700Y1318436D1*
X2441534Y648003D2*
X2468416Y621004D1*
X2468989Y621010D1*
X2502362Y654499D1*
X2505524Y657200D1*
X2509069Y659372D1*
X2512911Y660964D1*
X2516955Y661934D1*
X2521100Y662261D1*
X2568379Y662179D1*
X2572486Y661529D1*
X2576441Y660244D1*
X2580146Y658356D1*
X2583510Y655911D1*
X2616999Y622539D1*
X2618416Y621004D1*
X2618989Y621011D1*
X2652362Y654499D1*
X2655524Y657200D1*
X2659077Y659376D1*
X2660704Y663877D1*
Y680061D1*
X2630049Y710687D1*
X2491111Y710806D1*
X2485997Y711616D1*
X2481073Y713216D1*
X2476460Y715566D1*
X2472271Y718610D1*
X2424898Y765838D1*
X2418610Y772271D1*
X2415566Y776460D1*
X2413216Y781073D1*
X2411616Y785997D1*
X2410805Y791121D1*
X2407864Y791609D1*
X2387673D1*
Y885539D1*
X2349719Y885507D1*
X2349728Y791609D1*
X2342443D1*
X2418790Y715129D1*
X2421834Y710940D1*
X2424184Y706327D1*
X2425784Y701403D1*
X2426594Y696289D1*
X2426696Y660148D1*
X2431876Y657200D1*
X2435038Y654499D1*
X2441534Y648003D1*
X2326127Y1599727D2*
X2349728D1*
Y1578448D1*
X2354083Y1583317D1*
X2360768Y1589027D1*
X2368264Y1593621D1*
X2376387Y1596985D1*
X2384935Y1599038D1*
X2393700Y1599728D1*
X2402465Y1599038D1*
X2411013Y1596985D1*
X2419136Y1593621D1*
X2426632Y1589027D1*
X2433317Y1583317D1*
X2439027Y1576632D1*
X2443700Y1568964D1*
X2448373Y1576632D1*
X2454083Y1583317D1*
X2455811Y1584916D1*
X2268610Y1772271D1*
X2265566Y1776460D1*
X2263216Y1781073D1*
X2261616Y1785997D1*
X2260806Y1791111D1*
X2260704Y1845553D1*
X2255779Y1849300D1*
X2249300Y1855779D1*
X2243713Y1863551D1*
X2238100Y1855779D1*
X2231621Y1849300D1*
X2224209Y1843915D1*
X2216045Y1839755D1*
X2207331Y1836924D1*
X2198281Y1835490D1*
X2189119D1*
X2180069Y1836924D1*
X2171355Y1839755D1*
X2163191Y1843915D1*
X2155779Y1849300D1*
X2149300Y1855779D1*
X2143713Y1863551D1*
X2138100Y1855779D1*
X2131621Y1849300D1*
X2124209Y1843915D1*
X2116045Y1839755D1*
X2107331Y1836924D1*
X2098281Y1835490D1*
X2089119D1*
X2080069Y1836924D1*
X2071355Y1839755D1*
X2063191Y1843915D1*
X2055779Y1849300D1*
X2049300Y1855779D1*
X2043713Y1863551D1*
X2038100Y1855779D1*
X2031621Y1849300D1*
X2024209Y1843915D1*
X2016045Y1839755D1*
X2007331Y1836924D1*
X1998281Y1835490D1*
X1989119D1*
X1980069Y1836924D1*
X1971355Y1839755D1*
X1963191Y1843915D1*
X1955779Y1849300D1*
X1949300Y1855779D1*
X1943713Y1863551D1*
X1938100Y1855779D1*
X1931621Y1849300D1*
X1924209Y1843915D1*
X1916045Y1839755D1*
X1907331Y1836924D1*
X1898281Y1835490D1*
X1889119D1*
X1880069Y1836924D1*
X1871355Y1839755D1*
X1863191Y1843915D1*
X1855779Y1849300D1*
X1849300Y1855779D1*
X1843713Y1863551D1*
X1838100Y1855779D1*
X1831621Y1849300D1*
X1824209Y1843915D1*
X1816045Y1839755D1*
X1807331Y1836924D1*
X1798281Y1835490D1*
X1789119D1*
X1780069Y1836924D1*
X1771355Y1839755D1*
X1763191Y1843915D1*
X1755779Y1849300D1*
X1749300Y1855779D1*
X1743713Y1863551D1*
X1738100Y1855779D1*
X1731621Y1849300D1*
X1724209Y1843915D1*
X1716045Y1839755D1*
X1707331Y1836924D1*
X1698281Y1835490D1*
X1689119D1*
X1680069Y1836924D1*
X1671355Y1839755D1*
X1663191Y1843915D1*
X1655779Y1849300D1*
X1649300Y1855779D1*
X1643713Y1863551D1*
X1638100Y1855779D1*
X1631621Y1849300D1*
X1624209Y1843915D1*
X1616045Y1839755D1*
X1607331Y1836924D1*
X1598281Y1835490D1*
X1589119D1*
X1580069Y1836924D1*
X1571355Y1839755D1*
X1563191Y1843915D1*
X1555779Y1849300D1*
X1549300Y1855779D1*
X1543713Y1863551D1*
X1538100Y1855779D1*
X1533265Y1850820D1*
X1743697Y1640366D1*
X1772271Y1668790D1*
X1776460Y1671834D1*
X1781073Y1674184D1*
X1785997Y1675784D1*
X1791111Y1676594D1*
X1858004Y1676696D1*
X2246289Y1676594D1*
X2251403Y1675784D1*
X2256327Y1674184D1*
X2260940Y1671834D1*
X2265129Y1668790D1*
X2312502Y1621562D1*
X2318790Y1615129D1*
X2321834Y1610940D1*
X2324184Y1606327D1*
X2325786Y1601393D1*
X2349728Y1508976D2*
Y1487672D1*
X2251728D1*
X2251696Y1426466D1*
X2256319Y1421032D1*
X2260132Y1414811D1*
X2262924Y1408069D1*
X2264628Y1400974D1*
X2264777Y1399714D1*
X2349728Y1399727D1*
Y1378448D1*
X2354083Y1383317D1*
X2360768Y1389027D1*
X2368264Y1393621D1*
X2376387Y1396985D1*
X2384935Y1399038D1*
X2393700Y1399728D1*
X2402465Y1399038D1*
X2411013Y1396985D1*
X2419136Y1393621D1*
X2426632Y1389027D1*
X2433317Y1383317D1*
X2439027Y1376632D1*
X2443700Y1368964D1*
X2448373Y1376632D1*
X2454083Y1383317D1*
X2460768Y1389027D1*
X2468264Y1393621D1*
X2476387Y1396985D1*
X2484935Y1399038D1*
X2493700Y1399728D1*
X2502465Y1399038D1*
X2511013Y1396985D1*
X2519136Y1393621D1*
X2526632Y1389027D1*
X2533317Y1383317D1*
X2534916Y1381589D1*
X2560687Y1407351D1*
X2560704Y1580047D1*
X2368610Y1772271D1*
X2365566Y1776460D1*
X2363216Y1781073D1*
X2361616Y1785997D1*
X2360806Y1791111D1*
X2360704Y1845553D1*
X2355779Y1849300D1*
X2349300Y1855779D1*
X2343713Y1863551D1*
X2338100Y1855779D1*
X2331621Y1849300D1*
X2326695Y1845576D1*
X2326696Y1807399D1*
X2518790Y1615129D1*
X2521834Y1610940D1*
X2524184Y1606327D1*
X2525784Y1601403D1*
X2526594Y1596289D1*
X2526696Y1593690D1*
X2530087Y1586304D1*
X2536304Y1580087D1*
X2541471Y1572974D1*
X2545463Y1565141D1*
X2548180Y1556779D1*
X2549555Y1548096D1*
Y1539304D1*
X2548180Y1530621D1*
X2545463Y1522259D1*
X2541471Y1514426D1*
X2536304Y1507313D1*
X2530087Y1501096D1*
X2522974Y1495929D1*
X2515141Y1491937D1*
X2506779Y1489220D1*
X2498096Y1487845D1*
X2489304D1*
X2480621Y1489220D1*
X2472259Y1491937D1*
X2464426Y1495929D1*
X2457313Y1501096D1*
X2451096Y1507313D1*
X2445929Y1514426D1*
X2443621Y1518264D1*
X2439027Y1510768D1*
X2433317Y1504083D1*
X2426632Y1498373D1*
X2419136Y1493779D1*
X2411013Y1490415D1*
X2402465Y1488362D1*
X2393700Y1487672D1*
X2384935Y1488362D1*
X2376387Y1490415D1*
X2368264Y1493779D1*
X2360768Y1498373D1*
X2354083Y1504083D1*
X2349724Y1509054D1*
X2237673Y1571390D2*
Y1599727D1*
X2241010D1*
X2230049Y1610687D1*
X2198527Y1610536D1*
X2237661Y1571402D1*
X3391534Y654254D2*
X3418416Y627255D1*
X3418989Y627261D1*
X3452362Y660750D1*
X3455524Y663450D1*
X3459069Y665623D1*
X3462911Y667214D1*
X3466955Y668185D1*
X3471100Y668512D1*
X3518379Y668430D1*
X3522486Y667779D1*
X3526441Y666494D1*
X3530146Y664606D1*
X3533510Y662162D1*
X3566999Y628789D1*
X3568416Y627255D1*
X3568989Y627261D1*
X3602362Y660750D1*
X3605524Y663450D1*
X3609077Y665627D1*
X3610704Y670128D1*
Y780041D1*
X3580049Y810687D1*
X3399746Y810704D1*
X3399728Y791609D1*
X3287673D1*
Y885539D1*
X3249719Y885507D1*
X3249728Y791609D1*
X3242443D1*
X3257351Y776713D1*
X3296289Y776594D1*
X3301403Y775784D1*
X3306327Y774184D1*
X3310940Y771834D1*
X3315129Y768790D1*
X3362502Y721562D1*
X3368790Y715129D1*
X3371834Y710940D1*
X3374184Y706327D1*
X3375784Y701403D1*
X3376594Y696289D1*
X3376696Y666392D1*
X3381876Y663450D1*
X3385038Y660750D1*
X3391534Y654254D1*
X1026707Y1952090D2*
X1052090D1*
X1052200Y1939632D1*
X1052135Y2045034D1*
X1045034Y2052135D1*
X1043734Y2053785D1*
X1038955Y2048445D1*
X1031318Y2041923D1*
X1026712Y2038891D1*
X1026696Y1952065D1*
X1135194Y1934764D2*
X1140938Y1928021D1*
X1143687Y1923849D1*
X1149300Y1931621D1*
X1155779Y1938100D1*
X1160705Y1941824D1*
X1160704Y2038852D1*
X1152135Y2045034D1*
X1145034Y2052135D1*
X1143734Y2053785D1*
X1138955Y2048445D1*
X1135188Y2044973D1*
X1135200Y1934769D1*
X1226695Y1941824D2*
X1231621Y1938100D1*
X1238100Y1931621D1*
X1243687Y1923849D1*
X1247779Y1929764D1*
X1252669Y1935243D1*
X1258209Y1940065D1*
X1264310Y1944154D1*
X1270876Y1947444D1*
X1277803Y1949884D1*
X1284982Y1951435D1*
X1292298Y1952073D1*
X1299637Y1951787D1*
X1306882Y1950582D1*
X1313918Y1948478D1*
X1320634Y1945507D1*
X1326924Y1941716D1*
X1332689Y1937165D1*
X1337837Y1931927D1*
X1342286Y1926084D1*
X1343699Y1923844D1*
X1349300Y1931621D1*
X1355779Y1938100D1*
X1360705Y1941824D1*
X1360704Y2038852D1*
X1352135Y2045034D1*
X1345034Y2052135D1*
X1343734Y2053785D1*
X1338114Y2047620D1*
X1332542Y2042834D1*
X1326458Y2038719D1*
X1319943Y2035328D1*
X1313082Y2032705D1*
X1305966Y2030886D1*
X1298688Y2029895D1*
X1291344Y2029743D1*
X1284032Y2030434D1*
X1276847Y2031959D1*
X1269884Y2034296D1*
X1263234Y2037416D1*
X1256986Y2041278D1*
X1251221Y2045830D1*
X1246016Y2051012D1*
X1243704Y2053746D1*
X1238955Y2048445D1*
X1231318Y2041923D1*
X1226712Y2038891D1*
X1226696Y1941874D1*
X1426695Y1941824D2*
X1431621Y1938100D1*
X1438100Y1931621D1*
X1443687Y1923849D1*
X1449300Y1931621D1*
X1455779Y1938100D1*
X1460705Y1941824D1*
X1460704Y2038852D1*
X1452135Y2045034D1*
X1445034Y2052135D1*
X1443734Y2053785D1*
X1438955Y2048445D1*
X1431318Y2041923D1*
X1426712Y2038891D1*
X1426696Y1941874D1*
X1526695Y1941824D2*
X1531621Y1938100D1*
X1538100Y1931621D1*
X1543687Y1923849D1*
X1549300Y1931621D1*
X1555779Y1938100D1*
X1560705Y1941824D1*
X1560704Y2038852D1*
X1552135Y2045034D1*
X1545034Y2052135D1*
X1543734Y2053785D1*
X1538955Y2048445D1*
X1531318Y2041923D1*
X1526712Y2038891D1*
X1526696Y1941874D1*
X1626695Y1941824D2*
X1631621Y1938100D1*
X1638100Y1931621D1*
X1643687Y1923849D1*
X1649300Y1931621D1*
X1655779Y1938100D1*
X1660705Y1941824D1*
X1660704Y2038852D1*
X1652135Y2045034D1*
X1645034Y2052135D1*
X1643734Y2053785D1*
X1638955Y2048445D1*
X1631318Y2041923D1*
X1626712Y2038891D1*
X1626696Y1941874D1*
X1726695Y1941824D2*
X1731621Y1938100D1*
X1738100Y1931621D1*
X1743687Y1923849D1*
X1749300Y1931621D1*
X1755779Y1938100D1*
X1760705Y1941824D1*
X1760704Y2038852D1*
X1752135Y2045034D1*
X1745034Y2052135D1*
X1743734Y2053785D1*
X1738955Y2048445D1*
X1731318Y2041923D1*
X1726712Y2038891D1*
X1726696Y1941874D1*
X1826695Y1941824D2*
X1831621Y1938100D1*
X1838100Y1931621D1*
X1843687Y1923849D1*
X1849300Y1931621D1*
X1855779Y1938100D1*
X1860705Y1941824D1*
X1860704Y2038852D1*
X1852135Y2045034D1*
X1845034Y2052135D1*
X1843734Y2053785D1*
X1838955Y2048445D1*
X1831318Y2041923D1*
X1826712Y2038891D1*
X1826696Y1941874D1*
X1926695Y1941824D2*
X1931621Y1938100D1*
X1938100Y1931621D1*
X1943687Y1923849D1*
X1949300Y1931621D1*
X1955779Y1938100D1*
X1960705Y1941824D1*
X1960704Y2038852D1*
X1952135Y2045034D1*
X1945034Y2052135D1*
X1943734Y2053785D1*
X1938955Y2048445D1*
X1931318Y2041923D1*
X1926712Y2038891D1*
X1926696Y1941874D1*
X2026695Y1941824D2*
X2031621Y1938100D1*
X2038100Y1931621D1*
X2043687Y1923849D1*
X2049300Y1931621D1*
X2055779Y1938100D1*
X2060705Y1941824D1*
X2060704Y2038852D1*
X2052135Y2045034D1*
X2045034Y2052135D1*
X2043734Y2053785D1*
X2038955Y2048445D1*
X2031318Y2041923D1*
X2026712Y2038891D1*
X2026696Y1941874D1*
X2126695Y1941824D2*
X2131621Y1938100D1*
X2138100Y1931621D1*
X2143687Y1923849D1*
X2149300Y1931621D1*
X2155779Y1938100D1*
X2160705Y1941824D1*
X2160704Y2038852D1*
X2152135Y2045034D1*
X2145034Y2052135D1*
X2143734Y2053785D1*
X2138955Y2048445D1*
X2131318Y2041923D1*
X2126712Y2038891D1*
X2126696Y1941874D1*
X2226695Y1941824D2*
X2231621Y1938100D1*
X2238100Y1931621D1*
X2243687Y1923849D1*
X2249300Y1931621D1*
X2255779Y1938100D1*
X2260705Y1941824D1*
X2260704Y2038852D1*
X2252135Y2045034D1*
X2245034Y2052135D1*
X2243734Y2053785D1*
X2238955Y2048445D1*
X2231318Y2041923D1*
X2226712Y2038891D1*
X2226696Y1941874D1*
X2326695Y1941824D2*
X2331621Y1938100D1*
X2338100Y1931621D1*
X2343687Y1923849D1*
X2349300Y1931621D1*
X2355779Y1938100D1*
X2360705Y1941824D1*
X2360704Y2038852D1*
X2352135Y2045034D1*
X2345034Y2052135D1*
X2343734Y2053785D1*
X2338955Y2048445D1*
X2331318Y2041923D1*
X2326712Y2038891D1*
X2326696Y1941874D1*
X2443687Y1863551D2*
X2440938Y1859379D1*
X2434988Y1852412D1*
X2428021Y1846462D1*
X2426695Y1845576D1*
X2426696Y1807399D1*
X2591630Y1642434D1*
X2591610Y1749727D1*
X2602195D1*
X2602200Y1787681D1*
X2591610Y1787672D1*
Y1899727D1*
X2770594D1*
Y1863449D1*
X2772712Y1861360D1*
Y2168214D1*
X2750881Y2189855D1*
X2730049Y2210687D1*
X2700172Y2210704D1*
X2705665Y2205665D1*
X2710335Y2200612D1*
X2714595Y2195208D1*
X2718418Y2189487D1*
X2721780Y2183484D1*
X2724661Y2177235D1*
X2727042Y2170780D1*
X2728910Y2164157D1*
X2730252Y2157409D1*
X2731061Y2150575D1*
X2731331Y2143700D1*
X2731061Y2136825D1*
X2730252Y2129991D1*
X2728910Y2123243D1*
X2727042Y2116620D1*
X2724661Y2110165D1*
X2721780Y2103916D1*
X2718418Y2097913D1*
X2714595Y2092192D1*
X2710335Y2086788D1*
X2705665Y2081735D1*
X2700612Y2077065D1*
X2695208Y2072805D1*
X2689487Y2068982D1*
X2683484Y2065620D1*
X2677235Y2062739D1*
X2670780Y2060358D1*
X2664157Y2058490D1*
X2657409Y2057148D1*
X2650575Y2056339D1*
X2643700Y2056069D1*
X2636825Y2056339D1*
X2629991Y2057148D1*
X2623243Y2058490D1*
X2616620Y2060358D1*
X2610165Y2062739D1*
X2603916Y2065620D1*
X2597913Y2068982D1*
X2592192Y2072805D1*
X2586788Y2077065D1*
X2581735Y2081735D1*
X2577065Y2086788D1*
X2572805Y2092192D1*
X2568982Y2097913D1*
X2565620Y2103916D1*
X2562739Y2110165D1*
X2560358Y2116620D1*
X2558490Y2123243D1*
X2557148Y2129991D1*
X2556339Y2136825D1*
X2556069Y2143700D1*
X2556339Y2150575D1*
X2557148Y2157409D1*
X2558490Y2164157D1*
X2560358Y2170780D1*
X2562739Y2177235D1*
X2565620Y2183484D1*
X2568982Y2189487D1*
X2572805Y2195208D1*
X2577065Y2200612D1*
X2581735Y2205665D1*
X2587274Y2210718D1*
X2057343Y2210704D1*
X2026713Y2180049D1*
X2026696Y2148522D1*
X2031318Y2145477D1*
X2038955Y2138955D1*
X2043666Y2133615D1*
X2048445Y2138955D1*
X2056082Y2145477D1*
X2064645Y2150724D1*
X2073923Y2154568D1*
X2083688Y2156912D1*
X2093700Y2157700D1*
X2103712Y2156912D1*
X2113477Y2154568D1*
X2122755Y2150724D1*
X2131318Y2145477D1*
X2138955Y2138955D1*
X2143666Y2133615D1*
X2148445Y2138955D1*
X2156082Y2145477D1*
X2164645Y2150724D1*
X2173923Y2154568D1*
X2183688Y2156912D1*
X2193700Y2157700D1*
X2203712Y2156912D1*
X2213477Y2154568D1*
X2222755Y2150724D1*
X2231318Y2145477D1*
X2238955Y2138955D1*
X2243666Y2133615D1*
X2248445Y2138955D1*
X2256082Y2145477D1*
X2264645Y2150724D1*
X2273923Y2154568D1*
X2283688Y2156912D1*
X2293700Y2157700D1*
X2303712Y2156912D1*
X2313477Y2154568D1*
X2322755Y2150724D1*
X2331318Y2145477D1*
X2338955Y2138955D1*
X2343666Y2133615D1*
X2348445Y2138955D1*
X2356082Y2145477D1*
X2364645Y2150724D1*
X2373923Y2154568D1*
X2383688Y2156912D1*
X2393700Y2157700D1*
X2403712Y2156912D1*
X2413477Y2154568D1*
X2422755Y2150724D1*
X2431318Y2145477D1*
X2438955Y2138955D1*
X2443666Y2133615D1*
X2448445Y2138955D1*
X2456082Y2145477D1*
X2464645Y2150724D1*
X2473923Y2154568D1*
X2483688Y2156912D1*
X2493700Y2157700D1*
X2503712Y2156912D1*
X2513477Y2154568D1*
X2522755Y2150724D1*
X2531318Y2145477D1*
X2538955Y2138955D1*
X2545477Y2131318D1*
X2550724Y2122755D1*
X2554568Y2113477D1*
X2556912Y2103712D1*
X2557700Y2093700D1*
X2556912Y2083688D1*
X2554568Y2073923D1*
X2550724Y2064645D1*
X2545477Y2056082D1*
X2538955Y2048445D1*
X2531318Y2041923D1*
X2526712Y2038891D1*
X2526696Y1941874D1*
X2531621Y1938100D1*
X2538100Y1931621D1*
X2543485Y1924209D1*
X2547645Y1916045D1*
X2550476Y1907331D1*
X2551910Y1898281D1*
Y1889119D1*
X2550476Y1880069D1*
X2547645Y1871355D1*
X2543485Y1863191D1*
X2538100Y1855779D1*
X2531621Y1849300D1*
X2524209Y1843915D1*
X2516045Y1839755D1*
X2507331Y1836924D1*
X2498281Y1835490D1*
X2489119D1*
X2480069Y1836924D1*
X2471355Y1839755D1*
X2463191Y1843915D1*
X2455779Y1849300D1*
X2449300Y1855779D1*
X2443713Y1863551D1*
X2426695Y1941824D2*
X2431621Y1938100D1*
X2438100Y1931621D1*
X2443687Y1923849D1*
X2449300Y1931621D1*
X2455779Y1938100D1*
X2460705Y1941824D1*
X2460704Y2038852D1*
X2452135Y2045034D1*
X2445034Y2052135D1*
X2443734Y2053785D1*
X2438955Y2048445D1*
X2431318Y2041923D1*
X2426712Y2038891D1*
X2426696Y1941874D1*
X1452090Y3052726D2*
Y3035310D1*
X1426720D1*
X1426696Y2948548D1*
X1435265Y2942366D1*
X1442366Y2935265D1*
X1443666Y2933615D1*
X1448445Y2938955D1*
X1456082Y2945477D1*
X1460688Y2948509D1*
X1460704Y3045526D1*
X1455779Y3049300D1*
X1452084Y3052767D1*
X1543687Y3063551D2*
X1540938Y3059379D1*
X1534988Y3052412D1*
X1528021Y3046462D1*
X1526695Y3045576D1*
X1526696Y2948548D1*
X1535265Y2942366D1*
X1542366Y2935265D1*
X1543666Y2933615D1*
X1548445Y2938955D1*
X1556082Y2945477D1*
X1560688Y2948509D1*
X1560704Y3045526D1*
X1555779Y3049300D1*
X1549300Y3055779D1*
X1543713Y3063551D1*
X1643687D2*
X1640938Y3059379D1*
X1634988Y3052412D1*
X1628021Y3046462D1*
X1626695Y3045576D1*
X1626696Y2948548D1*
X1635265Y2942366D1*
X1642366Y2935265D1*
X1643666Y2933615D1*
X1648445Y2938955D1*
X1656082Y2945477D1*
X1660688Y2948509D1*
X1660704Y3045526D1*
X1655779Y3049300D1*
X1649300Y3055779D1*
X1643713Y3063551D1*
X1743687D2*
X1740938Y3059379D1*
X1734988Y3052412D1*
X1728021Y3046462D1*
X1726695Y3045576D1*
X1726696Y2948548D1*
X1735265Y2942366D1*
X1742366Y2935265D1*
X1743666Y2933615D1*
X1748445Y2938955D1*
X1756082Y2945477D1*
X1760688Y2948509D1*
X1760704Y3045526D1*
X1755779Y3049300D1*
X1749300Y3055779D1*
X1743713Y3063551D1*
X1843687D2*
X1840938Y3059379D1*
X1834988Y3052412D1*
X1828021Y3046462D1*
X1826695Y3045576D1*
X1826696Y2948548D1*
X1835265Y2942366D1*
X1842366Y2935265D1*
X1843666Y2933615D1*
X1848445Y2938955D1*
X1856082Y2945477D1*
X1860688Y2948509D1*
X1860704Y3045526D1*
X1855779Y3049300D1*
X1849300Y3055779D1*
X1843713Y3063551D1*
X1943687D2*
X1940938Y3059379D1*
X1934988Y3052412D1*
X1928021Y3046462D1*
X1926695Y3045576D1*
X1926696Y2948548D1*
X1935265Y2942366D1*
X1942366Y2935265D1*
X1943666Y2933615D1*
X1948445Y2938955D1*
X1956082Y2945477D1*
X1960688Y2948509D1*
X1960704Y3045526D1*
X1955779Y3049300D1*
X1949300Y3055779D1*
X1943713Y3063551D1*
X2043687D2*
X2040938Y3059379D1*
X2034988Y3052412D1*
X2028021Y3046462D1*
X2026695Y3045576D1*
X2026696Y2948548D1*
X2035265Y2942366D1*
X2042366Y2935265D1*
X2043666Y2933615D1*
X2048445Y2938955D1*
X2056082Y2945477D1*
X2060688Y2948509D1*
X2060704Y3045526D1*
X2055779Y3049300D1*
X2049300Y3055779D1*
X2043713Y3063551D1*
X2143687D2*
X2140938Y3059379D1*
X2134988Y3052412D1*
X2128021Y3046462D1*
X2126695Y3045576D1*
X2126696Y2948548D1*
X2135265Y2942366D1*
X2142366Y2935265D1*
X2143666Y2933615D1*
X2148445Y2938955D1*
X2156082Y2945477D1*
X2160688Y2948509D1*
X2160704Y3045526D1*
X2155779Y3049300D1*
X2149300Y3055779D1*
X2143713Y3063551D1*
X2243687D2*
X2240938Y3059379D1*
X2234988Y3052412D1*
X2228021Y3046462D1*
X2226695Y3045576D1*
X2226696Y2948548D1*
X2235265Y2942366D1*
X2242366Y2935265D1*
X2243666Y2933615D1*
X2248445Y2938955D1*
X2256082Y2945477D1*
X2260688Y2948509D1*
X2260704Y3045526D1*
X2255779Y3049300D1*
X2249300Y3055779D1*
X2243713Y3063551D1*
X2343687D2*
X2340938Y3059379D1*
X2334988Y3052412D1*
X2328021Y3046462D1*
X2326695Y3045576D1*
X2326696Y2948548D1*
X2335265Y2942366D1*
X2342366Y2935265D1*
X2343666Y2933615D1*
X2348445Y2938955D1*
X2356082Y2945477D1*
X2360688Y2948509D1*
X2360704Y3045526D1*
X2355779Y3049300D1*
X2349300Y3055779D1*
X2343713Y3063551D1*
X2443687D2*
X2440938Y3059379D1*
X2434988Y3052412D1*
X2428021Y3046462D1*
X2426695Y3045576D1*
X2426696Y2948548D1*
X2435265Y2942366D1*
X2442366Y2935265D1*
X2443666Y2933615D1*
X2448445Y2938955D1*
X2456082Y2945477D1*
X2460688Y2948509D1*
X2460704Y3045526D1*
X2455779Y3049300D1*
X2449300Y3055779D1*
X2443713Y3063551D1*
X1844418Y1047759D2*
X1887129D1*
Y1035235D1*
X1922704Y1035200D1*
X1929331Y1037924D1*
X1936426Y1039628D1*
X1943700Y1040200D1*
X1950974Y1039628D1*
X1958069Y1037924D1*
X1964811Y1035132D1*
X1971032Y1031319D1*
X1976580Y1026580D1*
X1981319Y1021032D1*
X1985132Y1014811D1*
X1987924Y1008069D1*
X1989628Y1000974D1*
X1990200Y993700D1*
X1989628Y986426D1*
X1987924Y979331D1*
X1985132Y972589D1*
X1984010Y970586D1*
X2049728Y970593D1*
Y951467D1*
X2087681Y951499D1*
X2087673Y970593D1*
X2110674D1*
X2110704Y1004374D1*
X2096531Y1004405D1*
Y1041832D1*
X2005980Y1041806D1*
Y1110697D1*
X1907401Y1110700D1*
X1844440Y1047771D1*
X2726691Y1047759D2*
X2787129D1*
Y1035235D1*
X2822704Y1035200D1*
X2829331Y1037924D1*
X2836426Y1039628D1*
X2843700Y1040200D1*
X2850974Y1039628D1*
X2858069Y1037924D1*
X2864811Y1035132D1*
X2871032Y1031319D1*
X2876580Y1026580D1*
X2881319Y1021032D1*
X2885132Y1014811D1*
X2887924Y1008069D1*
X2889628Y1000974D1*
X2890200Y993700D1*
X2889628Y986426D1*
X2887924Y979331D1*
X2885132Y972589D1*
X2884010Y970586D1*
X2949728Y970594D1*
Y951467D1*
X2987681Y951499D1*
X2987672Y970594D1*
X3010674D1*
X3010704Y1004374D1*
X2996531Y1004404D1*
Y1041832D1*
X2905980Y1041806D1*
Y1120397D1*
X2932828D1*
X2917540Y1135691D1*
X2782388Y1135700D1*
X2726697Y1080027D1*
X2726700Y1047732D1*
X986164Y1724727D2*
X1056723Y1724859D1*
X1054231Y1730876D1*
X1052711Y1737208D1*
X1052200Y1743700D1*
Y1752205D1*
X989385Y1752200D1*
X990057Y1747348D1*
Y1740052D1*
X988915Y1732845D1*
X986660Y1725905D1*
X986117Y1724727D1*
X920209Y1449727D2*
X985519D1*
X985507Y1548325D1*
X981319Y1541368D1*
X976580Y1535820D1*
X971032Y1531081D1*
X964811Y1527268D1*
X958069Y1524476D1*
X950974Y1522772D1*
X943700Y1522200D1*
X936426Y1522772D1*
X929331Y1524476D1*
X922732Y1527203D1*
X920200Y1521882D1*
Y1449719D1*
X2753046Y1787672D2*
X2685225D1*
X2685200Y1749719D1*
X2770594Y1749727D1*
Y1697372D1*
X2810732Y1697365D1*
X2810704Y1730042D1*
X2753051Y1787685D1*
X2176701Y970593D2*
X2199728D1*
Y791609D1*
X2190147D1*
X2189628Y786426D1*
X2187924Y779331D1*
X2186952Y776695D1*
X2265428Y776696D1*
X2263216Y781073D1*
X2261616Y785997D1*
X2260805Y791121D1*
X2257864Y791609D1*
X2237673D1*
Y970593D1*
X2349728D1*
Y951467D1*
X2387681Y951499D1*
X2387673Y970593D1*
X2410674D1*
X2410704Y1004374D1*
X2396531Y1004405D1*
Y1041832D1*
X2305980Y1041806D1*
Y1120397D1*
X2396530D1*
X2396531Y1157798D1*
X2482904D1*
X2480049Y1160687D1*
X2098530Y1160539D1*
X2101296Y1157773D1*
X2190869Y1157798D1*
Y1080941D1*
X2197589Y1085132D1*
X2204331Y1087924D1*
X2211426Y1089628D1*
X2218700Y1090200D1*
X2225974Y1089628D1*
X2233069Y1087924D1*
X2239811Y1085132D1*
X2246032Y1081319D1*
X2251580Y1076580D1*
X2256319Y1071032D1*
X2260132Y1064811D1*
X2262924Y1058069D1*
X2264628Y1050974D1*
X2265200Y1043700D1*
X2264628Y1036426D1*
X2262924Y1029331D1*
X2260132Y1022589D1*
X2256319Y1016368D1*
X2251580Y1010820D1*
X2246032Y1006081D1*
X2239811Y1002268D1*
X2233069Y999476D1*
X2225974Y997772D1*
X2218700Y997200D1*
X2211426Y997772D1*
X2204331Y999476D1*
X2197589Y1002268D1*
X2190864Y1006478D1*
X2190869Y1004405D1*
X2176695D1*
X2176696Y970604D1*
X2087680Y866412D2*
X2087673Y885539D1*
X2049719Y885507D1*
X2049728Y791609D1*
X2042443D1*
X2057351Y776713D1*
X2100433Y776696D1*
X2098485Y782845D1*
X2097343Y790052D1*
X2097282Y791605D1*
X2087673Y791609D1*
Y866428D1*
X3076701Y970594D2*
X3099728D1*
Y791609D1*
X3090146D1*
X3089628Y786426D1*
X3087924Y779331D1*
X3086952Y776695D1*
X3165428Y776696D1*
X3162788Y782159D1*
X3161363Y787137D1*
X3160947Y789704D1*
X3157864Y791609D1*
X3137673D1*
Y970594D1*
X3249728D1*
Y951467D1*
X3287681Y951499D1*
X3287673Y970594D1*
X3310674D1*
X3310704Y1004374D1*
X3296531Y1004404D1*
Y1041832D1*
X3205980Y1041806D1*
Y1120397D1*
X3296530D1*
X3296531Y1157798D1*
X3382904D1*
X3330012Y1210725D1*
X3138622Y1210704D1*
X3142996Y1208348D1*
X3148899Y1204059D1*
X3154059Y1198899D1*
X3158348Y1192996D1*
X3161660Y1186495D1*
X3163915Y1179555D1*
X3165057Y1172348D1*
Y1165052D1*
X3163915Y1157845D1*
X3161660Y1150905D1*
X3158348Y1144404D1*
X3154059Y1138501D1*
X3151687Y1135935D1*
X3151594Y1091111D1*
X3150784Y1085997D1*
X3149184Y1081073D1*
X3146834Y1076460D1*
X3143790Y1072271D1*
X3096562Y1024898D1*
X3092024Y1020361D1*
X3090870Y1018691D1*
Y1004404D1*
X3076695D1*
X3076696Y970604D1*
X2987680Y866413D2*
X2987672Y885539D1*
X2949719Y885507D1*
X2949728Y791609D1*
X2942443D1*
X2957351Y776713D1*
X3000433Y776696D1*
X2998485Y782845D1*
X2997343Y790052D1*
X2997282Y791605D1*
X2987672Y791609D1*
Y866428D1*
X3148560Y1604995D2*
X3106177D1*
Y1618165D1*
X2926901Y1618184D1*
X2926893Y1604995D1*
X2779086D1*
X2807376Y1576688D1*
X3150425Y1576696D1*
X3148485Y1582845D1*
X3147343Y1590052D1*
Y1597348D1*
X3148613Y1605008D1*
X3658014Y1539885D2*
X3831224D1*
Y1447515D1*
X3656177D1*
Y1539885D1*
X3658014D1*
X3260358Y1942984D2*
Y1842987D1*
X3111295D1*
Y2344413D1*
X3260358D1*
X3260350Y1942987D1*
X2490870Y1149868D2*
Y1087501D1*
X2510687Y1107351D1*
X2510704Y1130051D1*
X2490858Y1149878D1*
X3390870Y1149868D2*
Y1087501D1*
X3410687Y1107351D1*
X3410704Y1130051D1*
X3390858Y1149878D1*
X1926712Y2148509D2*
X1931318Y2145477D1*
X1938955Y2138955D1*
X1943666Y2133615D1*
X1948445Y2138955D1*
X1956082Y2145477D1*
X1960688Y2148509D1*
X1960806Y2196289D1*
X1961616Y2201403D1*
X1963216Y2206327D1*
X1965566Y2210940D1*
X1968610Y2215129D1*
X2014037Y2260700D1*
X1957351Y2260704D1*
X1926713Y2230049D1*
X1926696Y2148571D1*
X2060688Y2838891D2*
X2056082Y2841923D1*
X2048445Y2848445D1*
X2043734Y2853785D1*
X2038955Y2848445D1*
X2031318Y2841923D1*
X2026712Y2838891D1*
X2026696Y2757376D1*
X2057351Y2726713D1*
X2113872Y2726864D1*
X2068609Y2772271D1*
X2065566Y2776460D1*
X2063215Y2781073D1*
X2061615Y2785997D1*
X2060805Y2791111D1*
X2060704Y2838878D1*
X931061Y2836825D2*
X930252Y2829991D1*
X928910Y2823243D1*
X927042Y2816620D1*
X924661Y2810165D1*
X921780Y2803916D1*
X918418Y2797913D1*
X914595Y2792192D1*
X910335Y2786788D1*
X905665Y2781735D1*
X900612Y2777065D1*
X895208Y2772805D1*
X889487Y2768982D1*
X883484Y2765620D1*
X877235Y2762739D1*
X870780Y2760358D1*
X864157Y2758490D1*
X857409Y2757148D1*
X850575Y2756339D1*
X843700Y2756069D1*
X836825Y2756339D1*
X829991Y2757148D1*
X823243Y2758490D1*
X816620Y2760358D1*
X810165Y2762739D1*
X803916Y2765620D1*
X797913Y2768982D1*
X792192Y2772805D1*
X786788Y2777065D1*
X781735Y2781735D1*
X777065Y2786788D1*
X772805Y2792192D1*
X768982Y2797913D1*
X765620Y2803916D1*
X762739Y2810165D1*
X760358Y2816620D1*
X758490Y2823243D1*
X757148Y2829991D1*
X756339Y2836825D1*
X756069Y2843700D1*
X756339Y2850575D1*
X757148Y2857409D1*
X758490Y2864157D1*
X760358Y2870780D1*
X762739Y2877235D1*
X765620Y2883484D1*
X768982Y2889487D1*
X772805Y2895208D1*
X777065Y2900612D1*
X781735Y2905665D1*
X786788Y2910335D1*
X792192Y2914595D1*
X797913Y2918418D1*
X803916Y2921780D1*
X810165Y2924661D1*
X816620Y2927042D1*
X823243Y2928910D1*
X829991Y2930252D1*
X836825Y2931061D1*
X843700Y2931331D1*
X850575Y2931061D1*
X857409Y2930252D1*
X864157Y2928910D1*
X870780Y2927042D1*
X877235Y2924661D1*
X883484Y2921780D1*
X889487Y2918418D1*
X895208Y2914595D1*
X900612Y2910335D1*
X905665Y2905665D1*
X910335Y2900612D1*
X914595Y2895208D1*
X918418Y2889487D1*
X921780Y2883484D1*
X924661Y2877235D1*
X927042Y2870780D1*
X928910Y2864157D1*
X930252Y2857409D1*
X931061Y2850575D1*
X931331Y2843700D1*
X931061Y2836825D1*
X2602200Y1631841D2*
Y1637654D1*
X2598912Y1635151D1*
X2602186Y1631878D1*
X2890057Y990052D2*
X2888915Y982845D1*
X2886660Y975905D1*
X2884010Y970586D1*
X2890057Y990052D1*
Y997348D1*
X2888915Y1004555D1*
X2886660Y1011495D1*
X2883348Y1017996D1*
X2879059Y1023899D1*
X2873899Y1029059D1*
X2867996Y1033348D1*
X2861495Y1036660D1*
X2854555Y1038915D1*
X2847348Y1040057D1*
X2840052D1*
X2832845Y1038915D1*
X2825905Y1036660D1*
X2822732Y1035197D1*
X2837686Y947623D2*
X2832845Y948485D1*
X2825905Y950740D1*
X2822732Y952203D1*
X601462Y2326696D2*
X810954D1*
X816368Y2331319D1*
X822589Y2335132D1*
X829331Y2337924D1*
X836426Y2339628D1*
X843700Y2340200D1*
X850974Y2339628D1*
X858069Y2337924D1*
X864811Y2335132D1*
X871032Y2331319D1*
X876580Y2326580D1*
X881319Y2321032D1*
X885132Y2314811D1*
X887924Y2308069D1*
X889628Y2300974D1*
X890200Y2293700D1*
X889628Y2286426D1*
X887924Y2279331D1*
X885132Y2272589D1*
X881319Y2266368D1*
X876580Y2260820D1*
X871032Y2256081D1*
X864811Y2252268D1*
X858069Y2249476D1*
X850974Y2247772D1*
X843700Y2247200D1*
X836426Y2247772D1*
X829331Y2249476D1*
X822589Y2252268D1*
X816368Y2256081D1*
X810935Y2260713D1*
X601446Y2260704D1*
X596032Y2256081D1*
X589811Y2252268D1*
X583069Y2249476D1*
X575974Y2247772D1*
X568700Y2247200D1*
X561426Y2247772D1*
X554331Y2249476D1*
X547589Y2252268D1*
X541368Y2256081D1*
X535820Y2260820D1*
X531081Y2266368D1*
X527268Y2272589D1*
X524476Y2279331D1*
X522772Y2286426D1*
X522200Y2293700D1*
X522772Y2300974D1*
X524476Y2308069D1*
X527268Y2314811D1*
X531081Y2321032D1*
X535820Y2326580D1*
X541368Y2331319D1*
X547589Y2335132D1*
X554331Y2337924D1*
X561426Y2339628D1*
X568700Y2340200D1*
X575974Y2339628D1*
X583069Y2337924D1*
X589811Y2335132D1*
X596032Y2331319D1*
X601465Y2326687D1*
X3131003Y3462192D2*
D95*
Y3350208D1*
Y3312192D2*
Y3200208D1*
X3118503Y3099692D2*
Y2987708D1*
Y2899692D2*
Y2787708D1*
Y2749691D2*
Y2637708D1*
Y2599691D2*
Y2487708D1*
X783562Y609239D2*
Y556200D1*
X1343700Y662242D2*
Y500158D1*
X2243700Y662243D2*
Y500158D1*
X3193700Y668493D2*
Y506409D1*
X1293700Y1952054D2*
Y1835346D1*
X3193700Y1493700D2*
Y1447551D1*
X2839369Y1493700D2*
Y1447551D1*
X3743700Y1539849D2*
Y1447551D1*
X3389369Y1539849D2*
Y1447551D1*
X3185826Y1893700D2*
Y1843023D1*
Y2344377D2*
Y2293700D1*
X643700Y868700D2*
Y822236D1*
X3643700Y1365164D2*
Y1318700D1*
Y3431200D2*
Y3384736D1*
X3418700Y3702664D2*
Y3609736D1*
X643700Y3431200D2*
Y3384736D1*
X1403149Y1081102D2*
Y1041842D1*
X2053149Y1081102D2*
Y1041842D1*
X2353149Y1120361D2*
Y1041842D1*
X2953149Y1081102D2*
Y1041842D1*
X3253149Y1120361D2*
Y1041842D1*
X1293700Y2157664D2*
Y2029736D1*
X446218Y2156331D2*
D18*
X633234D1*
X552220Y2131462D2*
X666858D1*
X658545Y2106594D2*
X700517D1*
X690876Y2081725D2*
X734176D1*
X552220Y2056856D2*
X609981D1*
X723208D2*
X767800D1*
X552220Y2031987D2*
X642313D1*
X755540D2*
X801459D1*
X552220Y2007119D2*
X674645D1*
X787871D2*
X835119D1*
X552220Y1982250D2*
X706976D1*
X813780D2*
X868742D1*
X529182Y1957381D2*
X739308D1*
X816686D2*
X878682D1*
X596824Y1932512D2*
X745695D1*
X816686D2*
X878682D1*
X615555Y1907644D2*
X722658D1*
X616381Y1882775D2*
X722658D1*
X600879Y1857906D2*
X722658D1*
X558141Y1833037D2*
X577973D1*
X446218Y1708693D2*
X520773D1*
X446218Y1683825D2*
X459662D1*
X810945Y1634087D2*
X878682D1*
X581573Y1609218D2*
X722658D1*
X582542Y1584350D2*
X722658D1*
X582542Y1559481D2*
X722658D1*
X582542Y1534612D2*
X722658D1*
X582542Y1509743D2*
X722658D1*
X839724D2*
X878682D1*
X582542Y1484875D2*
X722658D1*
X839724D2*
X878682D1*
X581573Y1460006D2*
X722658D1*
X839724D2*
X878682D1*
X829389Y1435137D2*
X878682D1*
X446218Y1360531D2*
X620890D1*
X666511D2*
X878682D1*
X446218Y1335662D2*
X597888D1*
X689513D2*
X878682D1*
X813771Y1620791D2*
X837228D1*
Y1610205D1*
X881209Y1610200D1*
X881200Y1635737D1*
X807232Y1635704D1*
X810603Y1630428D1*
X812585Y1625644D1*
X813290Y1623140D1*
X725180Y1516609D2*
X725172Y1610734D1*
X579088Y1610700D1*
X579058Y1594625D1*
X580040Y1594601D1*
Y1478614D1*
X579071D1*
X579058Y1451672D1*
X725142Y1451696D1*
X725172Y1516625D1*
X837228Y1527220D2*
Y1441806D1*
X827647D1*
X827128Y1436426D1*
X825424Y1429331D1*
X824452Y1426695D1*
X881213Y1426696D1*
X881200Y1527223D1*
X837232Y1527200D1*
X725172Y1835231D2*
X725173Y1920594D1*
X748174D1*
X748204Y1952436D1*
X607463Y2060715D1*
X549695Y2060704D1*
X549728Y1966806D1*
X526726D1*
X526696Y1951686D1*
X555633Y1951696D1*
Y1938311D1*
X561426Y1939628D1*
X568700Y1940200D1*
X575974Y1939628D1*
X583069Y1937924D1*
X589811Y1935132D1*
X596032Y1931319D1*
X601580Y1926580D1*
X606319Y1921032D1*
X610132Y1914811D1*
X612924Y1908069D1*
X614628Y1900974D1*
X615200Y1893700D1*
X614628Y1886426D1*
X612924Y1879331D1*
X610132Y1872589D1*
X606319Y1866368D1*
X601580Y1860820D1*
X596032Y1856081D1*
X589811Y1852268D1*
X583069Y1849476D1*
X575974Y1847772D1*
X568700Y1847200D1*
X561426Y1847772D1*
X555635Y1849108D1*
X555633Y1824989D1*
X566437Y1824964D1*
X572016Y1829085D1*
X577819Y1832041D1*
X584012Y1834054D1*
X590444Y1835072D1*
X630445Y1835200D1*
X725144D1*
X814201Y1920594D2*
X837228D1*
Y1902903D1*
X841171Y1906122D1*
X847393Y1909935D1*
X854134Y1912727D1*
X861229Y1914431D1*
X868503Y1915003D1*
X875777Y1914431D1*
X881211Y1913196D1*
X881200Y1974914D1*
X602079Y2181202D1*
X443681Y2181200D1*
X443700Y2145795D1*
X549728Y2145790D1*
Y2126664D1*
X621289Y2126594D1*
X626403Y2125784D1*
X631327Y2124184D1*
X635940Y2121834D1*
X653381Y2108651D1*
X803308Y1993194D1*
X806868Y1989434D1*
X809795Y1985164D1*
X812019Y1980488D1*
X813483Y1975522D1*
X814153Y1970377D1*
X814196Y1920579D1*
X598945Y1331189D2*
X600740Y1336495D1*
X604052Y1342996D1*
X608341Y1348899D1*
X613501Y1354059D1*
X619404Y1358348D1*
X623820Y1360699D1*
X491111Y1360806D1*
X485997Y1361616D1*
X481073Y1363216D1*
X476460Y1365566D1*
X472271Y1368610D1*
X443707Y1397030D1*
X443700Y1331224D1*
X598887Y1331200D1*
X663580Y1360699D2*
X667996Y1358348D1*
X673899Y1354059D1*
X679059Y1348899D1*
X683348Y1342996D1*
X686660Y1336495D1*
X688455Y1331189D1*
X881224Y1331200D1*
X881200Y1360720D1*
X663624Y1360704D1*
X522728Y1725467D2*
X443711D1*
X443700Y1665377D1*
X472271Y1693790D1*
X476460Y1696834D1*
X481073Y1699184D1*
X485997Y1700784D1*
X491111Y1701594D1*
X525386Y1701696D1*
X523485Y1707845D1*
X522343Y1715052D1*
Y1722348D1*
X522714Y1725478D1*
X610425Y1751915D2*
X623818Y1751696D1*
X725191D1*
X716896Y1752200D1*
X610786D1*
X837225Y1902865D2*
X841171Y1906122D1*
X847393Y1909935D1*
X854134Y1912727D1*
X861229Y1914431D1*
X868503Y1915003D1*
X875777Y1914431D1*
X881211Y1913196D1*
D21*
X781200Y1568700D3*
Y1493897D3*
Y1793700D3*
Y1868503D3*
D22*
X3131003Y3406200D3*
X3056200D3*
X3131003Y3256200D3*
X3056200D3*
X3118503Y3043700D3*
X3043700D3*
X3118503Y2843700D3*
X3043700D3*
X3118503Y2693700D3*
X3043700D3*
X3118503Y2543700D3*
X3043700D3*
D23*
X1193700Y1543700D3*
D24*
X1293700D3*
X1393700D3*
D26*
X681200Y556200D3*
X706791D3*
X732381D3*
X757972D3*
X783562D3*
D27*
X606397Y547342D3*
X858365D3*
D28*
X584743Y450885D3*
X880019D3*
D29*
X687106D3*
X777657D3*
D24*
X843700Y3143700D3*
Y3222440D3*
D23*
Y3301180D3*
X1193700Y3643700D3*
D24*
Y3543700D3*
Y3443700D3*
D92*
X1343700Y581200D3*
X1493700D3*
X1643700D3*
D23*
X1743700Y1543700D3*
D24*
X1843700D3*
X1943700D3*
D23*
X1743700Y1343700D3*
D24*
X1843700D3*
X1943700D3*
D92*
X2243700Y581200D3*
X2393700D3*
X2543700D3*
X2693700D3*
D23*
X2293700Y1543700D3*
D24*
X2393700D3*
X2493700D3*
D23*
X2293700Y1343700D3*
D24*
X2393700D3*
X2493700D3*
D92*
X3193700Y587451D3*
X3343700D3*
X3493700D3*
X3643700D3*
D30*
X993700Y1893700D3*
D31*
X1093700D3*
X1193700D3*
X1293700D3*
X1393700D3*
X1493700D3*
X1593700D3*
X1693700D3*
X1793700D3*
X1893700D3*
X1993700D3*
X2093700D3*
X2193700D3*
X2293700D3*
X2393700D3*
X2493700D3*
D30*
X1393700Y3093700D3*
D31*
X1493700D3*
X1593700D3*
X1693700D3*
X1793700D3*
X1893700D3*
X1993700D3*
X2093700D3*
X2193700D3*
X2293700D3*
X2393700D3*
X2493700D3*
D32*
X1143700Y993700D3*
Y832283D3*
X1793700Y993700D3*
Y832283D3*
X2693700Y993700D3*
Y832283D3*
D22*
X943700Y1668700D3*
X1018503D3*
X943700Y1393700D3*
X1018503D3*
X2856200Y3406200D3*
X2931003D3*
X2856200Y3256200D3*
X2931003D3*
X2843700Y3043700D3*
X2918503D3*
X2843700Y2843700D3*
X2918503D3*
X2843700Y2693700D3*
X2918503D3*
X2843700Y2543700D3*
X2918503D3*
D21*
X493700Y2018897D3*
Y2093700D3*
D22*
X2643700Y1843700D3*
X2718503D3*
X2643700Y1693700D3*
X2718503D3*
D21*
X1343700Y818897D3*
Y893700D3*
X1493700D3*
Y818897D3*
X2143700Y918503D3*
Y843700D3*
X1993700Y918503D3*
Y843700D3*
X2443700Y918503D3*
Y843700D3*
X2293700Y918503D3*
Y843700D3*
X3043700Y918503D3*
Y843700D3*
X2893700Y918503D3*
Y843700D3*
X3343700Y918503D3*
Y843700D3*
X3193700Y918503D3*
Y843700D3*
D22*
X681200Y743700D3*
X756003D3*
D33*
X3193700Y1493700D3*
X2839369D3*
X3193700Y1651180D3*
X2839369D3*
X3743700Y1493700D3*
X3389369D3*
X3743700Y1651180D3*
X3389369D3*
D34*
X2847243Y2293700D3*
Y2193700D3*
Y2093700D3*
Y1993700D3*
Y1893700D3*
X3185826D3*
Y1993700D3*
Y2093700D3*
Y2193700D3*
Y2293700D3*
D36*
X1493700Y1043700D3*
Y1118503D3*
X1403149Y1081102D3*
X2143700Y1043700D3*
Y1118503D3*
X2053149Y1081102D3*
X2443700Y1043700D3*
Y1118503D3*
X2353149Y1081102D3*
X3043700Y1043700D3*
Y1118503D3*
X2953149Y1081102D3*
X3343700Y1043700D3*
Y1118503D3*
X3253149Y1081102D3*
D37*
X993700Y2093700D3*
X1093700D3*
X1193700D3*
X1293700D3*
X1393700D3*
X1493700D3*
X1593700D3*
X1693700D3*
X1793700D3*
X1893700D3*
X1993700D3*
X2093700D3*
X2193700D3*
X2293700D3*
X2393700D3*
X2493700D3*
Y2893700D3*
X2393700D3*
X2293700D3*
X2193700D3*
X2093700D3*
X1993700D3*
X1893700D3*
X1793700D3*
X1693700D3*
X1593700D3*
X1493700D3*
X1393700D3*
D39*
X543700Y1593700D3*
X504330D3*
X464960D3*
X543700Y1479527D3*
X504330D3*
X464960D3*
D40*
X493700Y1893700D3*
Y1783464D3*
G36*
X706794Y747639D2*
X730419D1*
Y739761D1*
X706794D1*
Y747639D1*
G37*
G36*
X455120Y1568102D2*
X553539D1*
Y1505114D1*
X455120D1*
Y1568102D1*
G37*
M02*
