%TF.GenerationSoftware,Novarm,DipTrace,3.3.1.3*%
%TF.CreationDate,2019-12-24T00:16:19-05:00*%
%FSLAX26Y26*%
%MOIN*%
%TF.FileFunction,Legend,Top*%
%TF.Part,Single*%
%ADD10C,0.009843*%
%ADD19C,0.01131*%
%ADD20C,0.011301*%
%ADD25C,0.01578*%
%ADD35C,0.015422*%
%ADD38C,0.013783*%
%ADD87C,0.00772*%
%ADD88C,0.004632*%
%ADD90C,0.009264*%
G75*
G01*
%LPD*%
X755629Y1610060D2*
D10*
X806771D1*
Y1752340D2*
X755629D1*
X3168384Y3431771D2*
Y3380629D1*
Y3281771D2*
Y3230629D1*
X3155884Y3069271D2*
Y3018129D1*
Y2869271D2*
Y2818129D1*
Y2719271D2*
Y2668129D1*
Y2569271D2*
Y2518129D1*
X1143700Y1493700D2*
Y1593700D1*
X1443700D1*
Y1493700D2*
Y1593700D1*
X1143700Y1493700D2*
X1443700D1*
D25*
X681201Y602450D3*
X582757Y502846D2*
D10*
Y493395D1*
Y407565D2*
Y342617D1*
X882005D1*
Y407565D1*
Y502846D2*
Y493395D1*
X739367Y3385826D2*
X948031D1*
Y3059054D1*
X739367D1*
Y3385826D1*
X705905Y3301192D2*
Y3143688D1*
X1143700Y3693700D2*
X1243700D1*
Y3393700D1*
X1143700D2*
X1243700D1*
X1143700Y3693700D2*
Y3393700D1*
X1237401Y628448D2*
Y407971D1*
X1749212Y628448D2*
Y407971D1*
X1237401Y628448D2*
X1304346D1*
X1749212D2*
X1682267D1*
X1693700Y1493700D2*
Y1593700D1*
X1993700D1*
Y1493700D2*
Y1593700D1*
X1693700Y1493700D2*
X1993700D1*
X1693700Y1293700D2*
Y1393700D1*
X1993700D1*
Y1293700D2*
Y1393700D1*
X1693700Y1293700D2*
X1993700D1*
X2137401Y628449D2*
Y407965D1*
X2798818Y628449D2*
Y407965D1*
X2137401Y628449D2*
X2204336D1*
X2798818D2*
X2731883D1*
X2243700Y1493700D2*
Y1593700D1*
X2543700D1*
Y1493700D2*
Y1593700D1*
X2243700Y1493700D2*
X2543700D1*
X2243700Y1293700D2*
Y1393700D1*
X2543700D1*
Y1293700D2*
Y1393700D1*
X2243700Y1293700D2*
X2543700D1*
X3087401Y634700D2*
Y414215D1*
X3748818Y634700D2*
Y414215D1*
X3087401Y634700D2*
X3154336D1*
X3748818D2*
X3681883D1*
X933857Y1942913D2*
X2553543D1*
Y1844487D1*
X933857D1*
Y1942913D1*
X1333857Y3142913D2*
X2553543D1*
Y3044487D1*
X1333857D1*
Y3142913D1*
X1206680Y944497D2*
Y881485D1*
X1080720Y944497D2*
Y881485D1*
X1856680Y944497D2*
Y881485D1*
X1730720Y944497D2*
Y881485D1*
X2756680Y944497D2*
Y881485D1*
X2630720Y944497D2*
Y881485D1*
X639840Y718129D2*
Y769271D1*
X797342Y771261D2*
Y716139D1*
X2914161Y1651180D2*
X3118908D1*
X2914161Y1493700D2*
X3118908D1*
X3464161Y1651180D2*
X3668908D1*
X3464161Y1493700D2*
X3668908D1*
X3016535Y2388976D2*
X3185829D1*
Y2325964D2*
Y2388976D1*
X3016535D2*
X2847240D1*
Y2325964D1*
X3016535Y1798424D2*
X3185829D1*
X3016535D2*
X2847240D1*
Y1861436D1*
X3185829Y1798424D2*
Y1861436D1*
D35*
X1508409Y1012851D3*
X1458267Y1022052D2*
D10*
Y1140157D1*
X1438582D1*
Y1022052D1*
X1458267D1*
D35*
X2158409Y1012851D3*
X2108267Y1022052D2*
D10*
Y1140157D1*
X2088582D1*
Y1022052D1*
X2108267D1*
D35*
X2458409Y1012851D3*
X2408267Y1022052D2*
D10*
Y1140157D1*
X2388582D1*
Y1022052D1*
X2408267D1*
D35*
X3058409Y1012851D3*
X3008267Y1022052D2*
D10*
Y1140157D1*
X2988582D1*
Y1022052D1*
X3008267D1*
D35*
X3358409Y1012851D3*
X3308267Y1022052D2*
D10*
Y1140157D1*
X3288582D1*
Y1022052D1*
X3308267D1*
X743700Y2043700D2*
X2743700D1*
Y2943700D1*
X743700D1*
Y2043700D1*
X441338Y1455912D2*
Y1617322D1*
X567322Y1455912D2*
Y1617322D1*
D38*
X463977Y1439175D3*
X525165Y1850361D2*
D10*
Y1826802D1*
X462235Y1850361D2*
Y1826802D1*
Y1842947D2*
X525165D1*
X462235Y1850396D2*
X525165D1*
X1031200Y3818700D2*
D19*
X2718700D1*
Y3268700D1*
X1031200D1*
Y3818700D1*
X2768700Y3456200D2*
X3831200D1*
Y2981200D1*
X2768700D1*
Y3456200D1*
G36*
Y3818700D2*
X3381200D1*
Y3468700D1*
X2768700D1*
Y3818700D1*
G37*
X1193700Y1593700D2*
D20*
Y1643700D1*
X1293700D1*
Y1593700D1*
X2493700Y1493700D2*
Y1393700D1*
X2293700Y1493700D2*
Y1393700D1*
X1943700Y1493700D2*
Y1393700D1*
X1743700Y1493700D2*
Y1393700D1*
X1056200Y1843700D2*
X2606200D1*
Y1193700D1*
X1518700D2*
X2606200D1*
X1056200Y1306200D2*
X1518700D1*
Y1843700D2*
Y1193700D1*
X1056200Y1843700D2*
Y1306200D1*
G36*
X1081200Y2681200D2*
X2418700D1*
Y2331200D1*
X1081200D1*
Y2681200D1*
G37*
X2768700Y2968700D2*
D19*
X3831200D1*
Y2481200D1*
X2768700D1*
Y2968700D1*
Y2468700D2*
X3831200D1*
Y1781200D1*
X2768700D1*
Y2468700D1*
Y1768700D2*
X3831200D1*
Y1356200D1*
X2768700D1*
Y1768700D1*
X690388Y1543402D2*
D87*
X685634Y1541025D1*
X680826Y1536217D1*
X678449Y1531463D1*
Y1521902D1*
X680826Y1517093D1*
X685634Y1512340D1*
X690388Y1509908D1*
X697573Y1507532D1*
X709566D1*
X716696Y1509908D1*
X721504Y1512340D1*
X726258Y1517093D1*
X728689Y1521902D1*
Y1531463D1*
X726258Y1536217D1*
X721504Y1541025D1*
X716696Y1543402D1*
X688066Y1558841D2*
X685634Y1563649D1*
X678505Y1570834D1*
X728689D1*
X840388Y1816686D2*
X835634Y1814309D1*
X830826Y1809501D1*
X828449Y1804748D1*
Y1795186D1*
X830826Y1790378D1*
X835634Y1785624D1*
X840388Y1783193D1*
X847573Y1780816D1*
X859566D1*
X866696Y1783193D1*
X871504Y1785624D1*
X876258Y1790378D1*
X878689Y1795186D1*
Y1804748D1*
X876258Y1809501D1*
X871504Y1814309D1*
X866696Y1816686D1*
X840443Y1834557D2*
X838066D1*
X833258Y1836934D1*
X830881Y1839310D1*
X828505Y1844119D1*
Y1853680D1*
X830881Y1858433D1*
X833258Y1860810D1*
X838066Y1863242D1*
X842820D1*
X847628Y1860810D1*
X854758Y1856057D1*
X878689Y1832125D1*
Y1865618D1*
X3069034Y3508951D2*
Y3458711D1*
X3085780D1*
X3092965Y3461142D1*
X3097774Y3465896D1*
X3100150Y3470704D1*
X3102527Y3477834D1*
Y3489827D1*
X3100150Y3497012D1*
X3097774Y3501766D1*
X3092965Y3506574D1*
X3085780Y3508951D1*
X3069034D1*
X3117966Y3499334D2*
X3122775Y3501766D1*
X3129960Y3508895D1*
Y3458711D1*
X3058284Y3358951D2*
Y3308711D1*
X3075030D1*
X3082215Y3311142D1*
X3087024Y3315896D1*
X3089400Y3320704D1*
X3091777Y3327834D1*
Y3339827D1*
X3089400Y3347012D1*
X3087024Y3351766D1*
X3082215Y3356574D1*
X3075030Y3358951D1*
X3058284D1*
X3109648Y3346957D2*
Y3349334D1*
X3112025Y3354142D1*
X3114401Y3356519D1*
X3119210Y3358895D1*
X3128771D1*
X3133525Y3356519D1*
X3135901Y3354142D1*
X3138333Y3349334D1*
Y3344581D1*
X3135901Y3339772D1*
X3131148Y3332642D1*
X3107216Y3308711D1*
X3140710D1*
X3045784Y3146451D2*
Y3096211D1*
X3062530D1*
X3069715Y3098642D1*
X3074524Y3103396D1*
X3076900Y3108204D1*
X3079277Y3115334D1*
Y3127327D1*
X3076900Y3134512D1*
X3074524Y3139266D1*
X3069715Y3144074D1*
X3062530Y3146451D1*
X3045784D1*
X3099525Y3146395D2*
X3125778D1*
X3111463Y3127272D1*
X3118648D1*
X3123401Y3124896D1*
X3125778Y3122519D1*
X3128210Y3115334D1*
Y3110581D1*
X3125778Y3103396D1*
X3121025Y3098587D1*
X3113839Y3096211D1*
X3106654D1*
X3099525Y3098587D1*
X3097148Y3101019D1*
X3094716Y3105772D1*
X3044595Y2946451D2*
Y2896211D1*
X3061342D1*
X3068527Y2898642D1*
X3073335Y2903396D1*
X3075712Y2908204D1*
X3078089Y2915334D1*
Y2927327D1*
X3075712Y2934512D1*
X3073335Y2939266D1*
X3068527Y2944074D1*
X3061342Y2946451D1*
X3044595D1*
X3117460Y2896211D2*
Y2946395D1*
X3093528Y2912957D1*
X3129398D1*
X3045784Y2796451D2*
Y2746211D1*
X3062530D1*
X3069715Y2748642D1*
X3074524Y2753396D1*
X3076900Y2758204D1*
X3079277Y2765334D1*
Y2777327D1*
X3076900Y2784512D1*
X3074524Y2789266D1*
X3069715Y2794074D1*
X3062530Y2796451D1*
X3045784D1*
X3123401Y2796395D2*
X3099525D1*
X3097148Y2774896D1*
X3099525Y2777272D1*
X3106710Y2779704D1*
X3113839D1*
X3121025Y2777272D1*
X3125833Y2772519D1*
X3128210Y2765334D1*
Y2760581D1*
X3125833Y2753396D1*
X3121025Y2748587D1*
X3113839Y2746211D1*
X3106710D1*
X3099525Y2748587D1*
X3097148Y2751019D1*
X3094716Y2755772D1*
X3047000Y2646451D2*
Y2596211D1*
X3063746D1*
X3070931Y2598642D1*
X3075740Y2603396D1*
X3078116Y2608204D1*
X3080493Y2615334D1*
Y2627327D1*
X3078116Y2634512D1*
X3075740Y2639266D1*
X3070931Y2644074D1*
X3063746Y2646451D1*
X3047000D1*
X3124617Y2639266D2*
X3122240Y2644019D1*
X3115055Y2646395D1*
X3110302D1*
X3103117Y2644019D1*
X3098309Y2636834D1*
X3095932Y2624896D1*
Y2612957D1*
X3098309Y2603396D1*
X3103117Y2598587D1*
X3110302Y2596211D1*
X3112679D1*
X3119809Y2598587D1*
X3124617Y2603396D1*
X3126994Y2610581D1*
Y2612957D1*
X3124617Y2620142D1*
X3119809Y2624896D1*
X3112679Y2627272D1*
X3110302D1*
X3103117Y2624896D1*
X3098309Y2620142D1*
X3095932Y2612957D1*
X1098199Y1566923D2*
Y1528677D1*
X1095822Y1521492D1*
X1093390Y1519115D1*
X1088637Y1516683D1*
X1083829D1*
X1079076Y1519115D1*
X1076699Y1521492D1*
X1074267Y1528677D1*
Y1533430D1*
X1113638Y1557306D2*
X1118447Y1559738D1*
X1125632Y1566868D1*
Y1516683D1*
X719881Y683557D2*
Y645310D1*
X717504Y638125D1*
X715072Y635749D1*
X710319Y633317D1*
X705511D1*
X700757Y635749D1*
X698381Y638125D1*
X695949Y645310D1*
Y650064D1*
X740128Y683502D2*
X766381D1*
X752067Y664378D1*
X759252D1*
X764005Y662002D1*
X766381Y659625D1*
X768813Y652440D1*
Y647687D1*
X766381Y640502D1*
X761628Y635694D1*
X754443Y633317D1*
X747258D1*
X740128Y635694D1*
X737752Y638125D1*
X735320Y642879D1*
X813279Y3459049D2*
Y3420803D1*
X810902Y3413618D1*
X808471Y3411241D1*
X803717Y3408809D1*
X798909D1*
X794156Y3411241D1*
X791779Y3413618D1*
X789347Y3420803D1*
Y3425556D1*
X852650Y3408809D2*
Y3458994D1*
X828718Y3425556D1*
X864588D1*
X1181200Y3766923D2*
Y3728677D1*
X1178823Y3721492D1*
X1176391Y3719115D1*
X1171638Y3716683D1*
X1166829D1*
X1162076Y3719115D1*
X1159700Y3721492D1*
X1157268Y3728677D1*
Y3733430D1*
X1225324Y3766868D2*
X1201447D1*
X1199071Y3745368D1*
X1201447Y3747745D1*
X1208632Y3750176D1*
X1215762D1*
X1222947Y3747745D1*
X1227756Y3742991D1*
X1230132Y3735806D1*
Y3731053D1*
X1227756Y3723868D1*
X1222947Y3719060D1*
X1215762Y3716683D1*
X1208632D1*
X1201447Y3719060D1*
X1199071Y3721492D1*
X1196639Y3726245D1*
X1482022Y765232D2*
Y726986D1*
X1479645Y719801D1*
X1477213Y717424D1*
X1472460Y714992D1*
X1467652D1*
X1462899Y717424D1*
X1460522Y719801D1*
X1458090Y726986D1*
Y731739D1*
X1526146Y758047D2*
X1523769Y762800D1*
X1516584Y765177D1*
X1511831D1*
X1504646Y762800D1*
X1499838Y755615D1*
X1497461Y743677D1*
Y731739D1*
X1499838Y722177D1*
X1504646Y717369D1*
X1511831Y714992D1*
X1514208D1*
X1521337Y717369D1*
X1526146Y722177D1*
X1528523Y729362D1*
Y731739D1*
X1526146Y738924D1*
X1521337Y743677D1*
X1514208Y746054D1*
X1511831D1*
X1504646Y743677D1*
X1499838Y738924D1*
X1497461Y731739D1*
X1606227Y1566923D2*
Y1528677D1*
X1603851Y1521492D1*
X1601419Y1519115D1*
X1596666Y1516683D1*
X1591857D1*
X1587104Y1519115D1*
X1584727Y1521492D1*
X1582295Y1528677D1*
Y1533430D1*
X1633605Y1566868D2*
X1626475Y1564491D1*
X1624043Y1559738D1*
Y1554930D1*
X1626475Y1550176D1*
X1631228Y1547745D1*
X1640790Y1545368D1*
X1647975Y1542991D1*
X1652728Y1538183D1*
X1655105Y1533430D1*
Y1526245D1*
X1652728Y1521492D1*
X1650351Y1519060D1*
X1643166Y1516683D1*
X1633605D1*
X1626475Y1519060D1*
X1624043Y1521492D1*
X1621666Y1526245D1*
Y1533430D1*
X1624043Y1538183D1*
X1628851Y1542991D1*
X1635981Y1545368D1*
X1645543Y1547745D1*
X1650351Y1550176D1*
X1652728Y1554930D1*
Y1559738D1*
X1650351Y1564491D1*
X1643166Y1566868D1*
X1633605D1*
X1607388Y1366923D2*
Y1328677D1*
X1605011Y1321492D1*
X1602579Y1319115D1*
X1597826Y1316683D1*
X1593018D1*
X1588265Y1319115D1*
X1585888Y1321492D1*
X1583456Y1328677D1*
Y1333430D1*
X1653944Y1350176D2*
X1651512Y1342991D1*
X1646759Y1338183D1*
X1639574Y1335806D1*
X1637197D1*
X1630012Y1338183D1*
X1625259Y1342991D1*
X1622827Y1350176D1*
Y1352553D1*
X1625259Y1359738D1*
X1630012Y1364491D1*
X1637197Y1366868D1*
X1639574D1*
X1646759Y1364491D1*
X1651512Y1359738D1*
X1653944Y1350176D1*
Y1338183D1*
X1651512Y1326245D1*
X1646759Y1319060D1*
X1639574Y1316683D1*
X1634821D1*
X1627636Y1319060D1*
X1625259Y1323868D1*
X2441893Y771484D2*
Y733237D1*
X2439516Y726052D1*
X2437084Y723676D1*
X2432331Y721244D1*
X2427523D1*
X2422769Y723676D1*
X2420393Y726052D1*
X2417961Y733237D1*
Y737990D1*
X2457332Y761867D2*
X2462140Y764299D1*
X2469325Y771429D1*
Y721244D1*
X2499135Y771429D2*
X2491950Y769052D1*
X2487141Y761867D1*
X2484765Y749929D1*
Y742744D1*
X2487141Y730805D1*
X2491950Y723620D1*
X2499135Y721244D1*
X2503888D1*
X2511073Y723620D1*
X2515826Y730805D1*
X2518258Y742744D1*
Y749929D1*
X2515826Y761867D1*
X2511073Y769052D1*
X2503888Y771429D1*
X2499135D1*
X2515826Y761867D2*
X2487141Y730805D1*
X2153233Y1566923D2*
Y1528677D1*
X2150857Y1521492D1*
X2148425Y1519115D1*
X2143671Y1516683D1*
X2138863D1*
X2134110Y1519115D1*
X2131733Y1521492D1*
X2129301Y1528677D1*
Y1533430D1*
X2168672Y1557306D2*
X2173481Y1559738D1*
X2180666Y1566868D1*
Y1516683D1*
X2196105Y1557306D2*
X2200914Y1559738D1*
X2208099Y1566868D1*
Y1516683D1*
X2142483Y1366923D2*
Y1328677D1*
X2140107Y1321492D1*
X2137675Y1319115D1*
X2132922Y1316683D1*
X2128113D1*
X2123360Y1319115D1*
X2120983Y1321492D1*
X2118551Y1328677D1*
Y1333430D1*
X2157922Y1357306D2*
X2162731Y1359738D1*
X2169916Y1366868D1*
Y1316683D1*
X2187787Y1354930D2*
Y1357306D1*
X2190164Y1362115D1*
X2192540Y1364491D1*
X2197349Y1366868D1*
X2206910D1*
X2211663Y1364491D1*
X2214040Y1362115D1*
X2216472Y1357306D1*
Y1352553D1*
X2214040Y1347745D1*
X2209287Y1340615D1*
X2185355Y1316683D1*
X2218849D1*
X3391893Y771484D2*
Y733237D1*
X3389516Y726052D1*
X3387084Y723676D1*
X3382331Y721244D1*
X3377523D1*
X3372769Y723676D1*
X3370393Y726052D1*
X3367961Y733237D1*
Y737990D1*
X3407332Y761867D2*
X3412140Y764299D1*
X3419325Y771429D1*
Y721244D1*
X3439573Y771429D2*
X3465826D1*
X3451511Y752305D1*
X3458696D1*
X3463450Y749929D1*
X3465826Y747552D1*
X3468258Y740367D1*
Y735614D1*
X3465826Y728429D1*
X3461073Y723620D1*
X3453888Y721244D1*
X3446703D1*
X3439573Y723620D1*
X3437196Y726052D1*
X3434765Y730805D1*
X1716295Y2016136D2*
Y1977889D1*
X1713918Y1970704D1*
X1711486Y1968328D1*
X1706733Y1965896D1*
X1701925D1*
X1697172Y1968328D1*
X1694795Y1970704D1*
X1692363Y1977889D1*
Y1982642D1*
X1731734Y2006519D2*
X1736543Y2008951D1*
X1743728Y2016080D1*
Y1965896D1*
X1783099D2*
Y2016080D1*
X1759167Y1982642D1*
X1795037D1*
X1917483Y3216136D2*
Y3177889D1*
X1915107Y3170704D1*
X1912675Y3168328D1*
X1907922Y3165896D1*
X1903113D1*
X1898360Y3168328D1*
X1895983Y3170704D1*
X1893551Y3177889D1*
Y3182642D1*
X1932922Y3206519D2*
X1937731Y3208951D1*
X1944916Y3216080D1*
Y3165896D1*
X1989040Y3216080D2*
X1965164D1*
X1962787Y3194581D1*
X1965164Y3196957D1*
X1972349Y3199389D1*
X1979478D1*
X1986663Y3196957D1*
X1991472Y3192204D1*
X1993849Y3185019D1*
Y3180266D1*
X1991472Y3173081D1*
X1986663Y3168272D1*
X1979478Y3165896D1*
X1972349D1*
X1965164Y3168272D1*
X1962787Y3170704D1*
X1960355Y3175457D1*
X1029856Y832408D2*
Y853963D1*
X1027480Y861092D1*
X1025048Y863524D1*
X1020295Y865901D1*
X1013109D1*
X1008356Y863524D1*
X1005924Y861092D1*
X1003548Y853963D1*
Y832408D1*
X1053788D1*
X1003548Y898087D2*
X1053788D1*
X1003548Y881340D2*
Y914833D1*
X1015486Y966143D2*
X1010733Y963766D1*
X1005924Y958958D1*
X1003548Y954204D1*
Y944643D1*
X1005924Y939834D1*
X1010733Y935081D1*
X1015486Y932649D1*
X1022671Y930273D1*
X1034665D1*
X1041794Y932649D1*
X1046603Y935081D1*
X1051356Y939834D1*
X1053788Y944643D1*
Y954204D1*
X1051356Y958957D1*
X1046603Y963766D1*
X1041794Y966143D1*
X1013165Y981582D2*
X1010733Y986390D1*
X1003603Y993575D1*
X1053788D1*
X1679856Y821658D2*
Y843213D1*
X1677480Y850342D1*
X1675048Y852774D1*
X1670295Y855151D1*
X1663109D1*
X1658356Y852774D1*
X1655924Y850342D1*
X1653548Y843213D1*
Y821658D1*
X1703788D1*
X1653548Y887337D2*
X1703788D1*
X1653548Y870590D2*
Y904083D1*
X1665486Y955393D2*
X1660733Y953016D1*
X1655924Y948208D1*
X1653548Y943454D1*
Y933893D1*
X1655924Y929084D1*
X1660733Y924331D1*
X1665486Y921899D1*
X1672671Y919523D1*
X1684665D1*
X1691794Y921899D1*
X1696603Y924331D1*
X1701356Y929084D1*
X1703788Y933893D1*
Y943454D1*
X1701356Y948208D1*
X1696603Y953016D1*
X1691794Y955393D1*
X1665541Y973264D2*
X1663165D1*
X1658356Y975640D1*
X1655980Y978017D1*
X1653603Y982825D1*
Y992387D1*
X1655980Y997140D1*
X1658356Y999517D1*
X1663165Y1001949D1*
X1667918D1*
X1672726Y999517D1*
X1679856Y994764D1*
X1703788Y970832D1*
Y1004325D1*
X2579856Y821658D2*
Y843213D1*
X2577480Y850342D1*
X2575048Y852774D1*
X2570295Y855151D1*
X2563109D1*
X2558356Y852774D1*
X2555924Y850342D1*
X2553548Y843213D1*
Y821658D1*
X2603788D1*
X2553548Y887337D2*
X2603788D1*
X2553548Y870590D2*
Y904083D1*
X2565486Y955393D2*
X2560733Y953016D1*
X2555924Y948208D1*
X2553548Y943454D1*
Y933893D1*
X2555924Y929084D1*
X2560733Y924331D1*
X2565486Y921899D1*
X2572671Y919523D1*
X2584665D1*
X2591794Y921899D1*
X2596603Y924331D1*
X2601356Y929084D1*
X2603788Y933893D1*
Y943454D1*
X2601356Y948208D1*
X2596603Y953016D1*
X2591794Y955393D1*
X2553603Y975640D2*
Y1001893D1*
X2572726Y987579D1*
Y994764D1*
X2575103Y999517D1*
X2577480Y1001893D1*
X2584665Y1004325D1*
X2589418D1*
X2596603Y1001893D1*
X2601411Y997140D1*
X2603788Y989955D1*
Y982770D1*
X2601411Y975640D1*
X2598979Y973264D1*
X2594226Y970832D1*
X950639Y1747519D2*
X972138D1*
X979323Y1749951D1*
X981755Y1752327D1*
X984132Y1757081D1*
Y1761889D1*
X981755Y1766642D1*
X979323Y1769074D1*
X972138Y1771451D1*
X950639D1*
Y1721211D1*
X967385Y1747519D2*
X984132Y1721211D1*
X999571Y1761834D2*
X1004380Y1764266D1*
X1011565Y1771395D1*
Y1721211D1*
X939889Y1472519D2*
X961388D1*
X968574Y1474951D1*
X971005Y1477327D1*
X973382Y1482081D1*
Y1486889D1*
X971005Y1491642D1*
X968574Y1494074D1*
X961388Y1496451D1*
X939889D1*
Y1446211D1*
X956635Y1472519D2*
X973382Y1446211D1*
X991253Y1484457D2*
Y1486834D1*
X993630Y1491642D1*
X996006Y1494019D1*
X1000815Y1496395D1*
X1010376D1*
X1015129Y1494019D1*
X1017506Y1491642D1*
X1019938Y1486834D1*
Y1482081D1*
X1017506Y1477272D1*
X1012753Y1470142D1*
X988821Y1446211D1*
X1022315D1*
X2852389Y3485019D2*
X2873888D1*
X2881074Y3487451D1*
X2883505Y3489827D1*
X2885882Y3494581D1*
Y3499389D1*
X2883505Y3504142D1*
X2881074Y3506574D1*
X2873888Y3508951D1*
X2852389D1*
Y3458711D1*
X2869135Y3485019D2*
X2885882Y3458711D1*
X2906130Y3508895D2*
X2932383D1*
X2918068Y3489772D1*
X2925253D1*
X2930006Y3487396D1*
X2932383Y3485019D1*
X2934815Y3477834D1*
Y3473081D1*
X2932383Y3465896D1*
X2927629Y3461087D1*
X2920444Y3458711D1*
X2913259D1*
X2906130Y3461087D1*
X2903753Y3463519D1*
X2901321Y3468272D1*
X2851200Y3335019D2*
X2872700D1*
X2879885Y3337451D1*
X2882317Y3339827D1*
X2884694Y3344581D1*
Y3349389D1*
X2882317Y3354142D1*
X2879885Y3356574D1*
X2872700Y3358951D1*
X2851200D1*
Y3308711D1*
X2867947Y3335019D2*
X2884694Y3308711D1*
X2924065D2*
Y3358895D1*
X2900133Y3325457D1*
X2936003D1*
X2839889Y3122519D2*
X2861388D1*
X2868574Y3124951D1*
X2871005Y3127327D1*
X2873382Y3132081D1*
Y3136889D1*
X2871005Y3141642D1*
X2868574Y3144074D1*
X2861388Y3146451D1*
X2839889D1*
Y3096211D1*
X2856635Y3122519D2*
X2873382Y3096211D1*
X2917506Y3146395D2*
X2893630D1*
X2891253Y3124896D1*
X2893630Y3127272D1*
X2900815Y3129704D1*
X2907944D1*
X2915129Y3127272D1*
X2919938Y3122519D1*
X2922315Y3115334D1*
Y3110581D1*
X2919938Y3103396D1*
X2915129Y3098587D1*
X2907944Y3096211D1*
X2900815D1*
X2893630Y3098587D1*
X2891253Y3101019D1*
X2888821Y3105772D1*
X2841105Y2922519D2*
X2862604D1*
X2869789Y2924951D1*
X2872221Y2927327D1*
X2874598Y2932081D1*
Y2936889D1*
X2872221Y2941642D1*
X2869789Y2944074D1*
X2862604Y2946451D1*
X2841105D1*
Y2896211D1*
X2857851Y2922519D2*
X2874598Y2896211D1*
X2918722Y2939266D2*
X2916345Y2944019D1*
X2909160Y2946395D1*
X2904407D1*
X2897222Y2944019D1*
X2892414Y2936834D1*
X2890037Y2924896D1*
Y2912957D1*
X2892414Y2903396D1*
X2897222Y2898587D1*
X2904407Y2896211D1*
X2906784D1*
X2913914Y2898587D1*
X2918722Y2903396D1*
X2921099Y2910581D1*
Y2912957D1*
X2918722Y2920142D1*
X2913914Y2924896D1*
X2906784Y2927272D1*
X2904407D1*
X2897222Y2924896D1*
X2892414Y2920142D1*
X2890037Y2912957D1*
X2839889Y2772519D2*
X2861388D1*
X2868574Y2774951D1*
X2871005Y2777327D1*
X2873382Y2782081D1*
Y2786889D1*
X2871005Y2791642D1*
X2868574Y2794074D1*
X2861388Y2796451D1*
X2839889D1*
Y2746211D1*
X2856635Y2772519D2*
X2873382Y2746211D1*
X2898383D2*
X2922315Y2796395D1*
X2888821D1*
X2839916Y2622519D2*
X2861416D1*
X2868601Y2624951D1*
X2871033Y2627327D1*
X2873410Y2632081D1*
Y2636889D1*
X2871033Y2641642D1*
X2868601Y2644074D1*
X2861416Y2646451D1*
X2839916D1*
Y2596211D1*
X2856663Y2622519D2*
X2873410Y2596211D1*
X2900787Y2646395D2*
X2893657Y2644019D1*
X2891225Y2639266D1*
Y2634457D1*
X2893657Y2629704D1*
X2898410Y2627272D1*
X2907972Y2624896D1*
X2915157Y2622519D1*
X2919910Y2617710D1*
X2922287Y2612957D1*
Y2605772D1*
X2919910Y2601019D1*
X2917534Y2598587D1*
X2910349Y2596211D1*
X2900787D1*
X2893657Y2598587D1*
X2891225Y2601019D1*
X2888849Y2605772D1*
Y2612957D1*
X2891225Y2617710D1*
X2896034Y2622519D1*
X2903164Y2624896D1*
X2912725Y2627272D1*
X2917534Y2629704D1*
X2919910Y2634457D1*
Y2639266D1*
X2917534Y2644019D1*
X2910349Y2646395D1*
X2900787D1*
X589881Y2016274D2*
Y2037774D1*
X587449Y2044959D1*
X585073Y2047391D1*
X580320Y2049767D1*
X575511D1*
X570758Y2047391D1*
X568326Y2044959D1*
X565949Y2037774D1*
Y2016274D1*
X616189D1*
X589881Y2033021D2*
X616189Y2049767D1*
X582696Y2096323D2*
X589881Y2093891D1*
X594690Y2089138D1*
X597066Y2081953D1*
Y2079576D1*
X594690Y2072391D1*
X589881Y2067638D1*
X582696Y2065206D1*
X580320D1*
X573134Y2067638D1*
X568381Y2072391D1*
X566005Y2079576D1*
Y2081953D1*
X568381Y2089138D1*
X573134Y2093891D1*
X582696Y2096323D1*
X594690D1*
X606628Y2093891D1*
X613813Y2089138D1*
X616189Y2081953D1*
Y2077200D1*
X613813Y2070015D1*
X609004Y2067638D1*
X2626172Y1922519D2*
X2647672D1*
X2654857Y1924951D1*
X2657289Y1927327D1*
X2659666Y1932081D1*
Y1936889D1*
X2657289Y1941642D1*
X2654857Y1944074D1*
X2647672Y1946451D1*
X2626172D1*
Y1896211D1*
X2642919Y1922519D2*
X2659666Y1896211D1*
X2675105Y1936834D2*
X2679913Y1939266D1*
X2687098Y1946395D1*
Y1896211D1*
X2716908Y1946395D2*
X2709723Y1944019D1*
X2704914Y1936834D1*
X2702538Y1924896D1*
Y1917710D1*
X2704914Y1905772D1*
X2709723Y1898587D1*
X2716908Y1896211D1*
X2721661D1*
X2728846Y1898587D1*
X2733599Y1905772D1*
X2736031Y1917710D1*
Y1924896D1*
X2733599Y1936834D1*
X2728846Y1944019D1*
X2721661Y1946395D1*
X2716908D1*
X2733599Y1936834D2*
X2704914Y1905772D1*
X2636922Y1772519D2*
X2658422D1*
X2665607Y1774951D1*
X2668039Y1777327D1*
X2670416Y1782081D1*
Y1786889D1*
X2668039Y1791642D1*
X2665607Y1794074D1*
X2658422Y1796451D1*
X2636922D1*
Y1746211D1*
X2653669Y1772519D2*
X2670416Y1746211D1*
X2685855Y1786834D2*
X2690663Y1789266D1*
X2697848Y1796395D1*
Y1746211D1*
X2713287Y1786834D2*
X2718096Y1789266D1*
X2725281Y1796395D1*
Y1746211D1*
X1264881Y801369D2*
Y822869D1*
X1262449Y830054D1*
X1260073Y832486D1*
X1255320Y834863D1*
X1250511D1*
X1245758Y832486D1*
X1243326Y830054D1*
X1240949Y822869D1*
Y801369D1*
X1291189D1*
X1264881Y818116D2*
X1291189Y834862D1*
X1250566Y850302D2*
X1248134Y855110D1*
X1241005Y862295D1*
X1291189D1*
X1252943Y880166D2*
X1250566D1*
X1245758Y882543D1*
X1243381Y884920D1*
X1241005Y889728D1*
Y899290D1*
X1243381Y904043D1*
X1245758Y906419D1*
X1250566Y908851D1*
X1255319D1*
X1260128Y906419D1*
X1267258Y901666D1*
X1291189Y877734D1*
Y911228D1*
X1414881Y801369D2*
Y822869D1*
X1412449Y830054D1*
X1410073Y832486D1*
X1405320Y834863D1*
X1400511D1*
X1395758Y832486D1*
X1393326Y830054D1*
X1390949Y822869D1*
Y801369D1*
X1441189D1*
X1414881Y818116D2*
X1441189Y834862D1*
X1400566Y850302D2*
X1398134Y855110D1*
X1391005Y862295D1*
X1441189D1*
X1391005Y882543D2*
Y908796D1*
X1410128Y894481D1*
Y901666D1*
X1412505Y906419D1*
X1414881Y908796D1*
X1422066Y911228D1*
X1426819D1*
X1434004Y908796D1*
X1438813Y904043D1*
X1441189Y896858D1*
Y889673D1*
X1438813Y882543D1*
X1436381Y880166D1*
X1431628Y877734D1*
X2064881Y824984D2*
Y846484D1*
X2062449Y853669D1*
X2060073Y856101D1*
X2055320Y858477D1*
X2050511D1*
X2045758Y856101D1*
X2043326Y853669D1*
X2040949Y846484D1*
Y824984D1*
X2091189D1*
X2064881Y841731D2*
X2091189Y858477D1*
X2050566Y873917D2*
X2048134Y878725D1*
X2041005Y885910D1*
X2091189D1*
Y925281D2*
X2041005D1*
X2074443Y901349D1*
Y937219D1*
X1914881Y826172D2*
Y847672D1*
X1912449Y854857D1*
X1910073Y857289D1*
X1905320Y859666D1*
X1900511D1*
X1895758Y857289D1*
X1893326Y854857D1*
X1890949Y847672D1*
Y826172D1*
X1941189D1*
X1914881Y842919D2*
X1941189Y859666D1*
X1900566Y875105D2*
X1898134Y879913D1*
X1891005Y887098D1*
X1941189D1*
X1891005Y931222D2*
Y907346D1*
X1912505Y904969D1*
X1910128Y907346D1*
X1907696Y914531D1*
Y921661D1*
X1910128Y928846D1*
X1914881Y933654D1*
X1922066Y936031D1*
X1926819D1*
X1934004Y933654D1*
X1938813Y928846D1*
X1941189Y921661D1*
Y914531D1*
X1938813Y907346D1*
X1936381Y904969D1*
X1931628Y902538D1*
X2364881Y827388D2*
Y848888D1*
X2362449Y856073D1*
X2360073Y858505D1*
X2355320Y860882D1*
X2350511D1*
X2345758Y858505D1*
X2343326Y856073D1*
X2340949Y848888D1*
Y827388D1*
X2391189D1*
X2364881Y844135D2*
X2391189Y860882D1*
X2350566Y876321D2*
X2348134Y881129D1*
X2341005Y888314D1*
X2391189D1*
X2348134Y932438D2*
X2343381Y930062D1*
X2341005Y922877D1*
Y918124D1*
X2343381Y910939D1*
X2350566Y906130D1*
X2362505Y903754D1*
X2374443D1*
X2384004Y906130D1*
X2388813Y910939D1*
X2391189Y918124D1*
Y920500D1*
X2388813Y927630D1*
X2384004Y932438D1*
X2376819Y934815D1*
X2374443D1*
X2367258Y932438D1*
X2362505Y927630D1*
X2360128Y920500D1*
Y918124D1*
X2362505Y910939D1*
X2367258Y906130D1*
X2374443Y903754D1*
X2214881Y826172D2*
Y847672D1*
X2212449Y854857D1*
X2210073Y857289D1*
X2205320Y859666D1*
X2200511D1*
X2195758Y857289D1*
X2193326Y854857D1*
X2190949Y847672D1*
Y826172D1*
X2241189D1*
X2214881Y842919D2*
X2241189Y859666D1*
X2200566Y875105D2*
X2198134Y879913D1*
X2191005Y887098D1*
X2241189D1*
Y912099D2*
X2191005Y936031D1*
Y902538D1*
X2964881Y826200D2*
Y847700D1*
X2962449Y854885D1*
X2960073Y857317D1*
X2955320Y859693D1*
X2950511D1*
X2945758Y857317D1*
X2943326Y854885D1*
X2940949Y847700D1*
Y826200D1*
X2991189D1*
X2964881Y842947D2*
X2991189Y859693D1*
X2950566Y875133D2*
X2948134Y879941D1*
X2941005Y887126D1*
X2991189D1*
X2941005Y914503D2*
X2943381Y907374D1*
X2948134Y904942D1*
X2952943D1*
X2957696Y907374D1*
X2960128Y912127D1*
X2962505Y921688D1*
X2964881Y928874D1*
X2969690Y933627D1*
X2974443Y936003D1*
X2981628D1*
X2986381Y933627D1*
X2988813Y931250D1*
X2991189Y924065D1*
Y914503D1*
X2988813Y907374D1*
X2986381Y904942D1*
X2981628Y902565D1*
X2974443D1*
X2969690Y904942D1*
X2964881Y909750D1*
X2962505Y916880D1*
X2960128Y926442D1*
X2957696Y931250D1*
X2952943Y933627D1*
X2948134D1*
X2943381Y931250D1*
X2941005Y924065D1*
Y914503D1*
X2814881Y827361D2*
Y848860D1*
X2812449Y856046D1*
X2810073Y858477D1*
X2805320Y860854D1*
X2800511D1*
X2795758Y858477D1*
X2793326Y856046D1*
X2790949Y848861D1*
Y827361D1*
X2841189D1*
X2814881Y844107D2*
X2841189Y860854D1*
X2800566Y876293D2*
X2798134Y881102D1*
X2791005Y888287D1*
X2841189D1*
X2807696Y934843D2*
X2814881Y932411D1*
X2819690Y927658D1*
X2822066Y920473D1*
Y918096D1*
X2819690Y910911D1*
X2814881Y906158D1*
X2807696Y903726D1*
X2805320D1*
X2798134Y906158D1*
X2793381Y910911D1*
X2791005Y918096D1*
Y920473D1*
X2793381Y927658D1*
X2798134Y932411D1*
X2807696Y934843D1*
X2819690D1*
X2831628Y932411D1*
X2838813Y927658D1*
X2841189Y920473D1*
Y915719D1*
X2838813Y908534D1*
X2834004Y906158D1*
X3264881Y815422D2*
Y836922D1*
X3262449Y844107D1*
X3260073Y846539D1*
X3255320Y848916D1*
X3250511D1*
X3245758Y846539D1*
X3243326Y844107D1*
X3240949Y836922D1*
Y815422D1*
X3291189D1*
X3264881Y832169D2*
X3291189Y848916D1*
X3252943Y866787D2*
X3250566D1*
X3245758Y869163D1*
X3243381Y871540D1*
X3241005Y876348D1*
Y885910D1*
X3243381Y890663D1*
X3245758Y893040D1*
X3250566Y895472D1*
X3255320D1*
X3260128Y893040D1*
X3267258Y888287D1*
X3291189Y864355D1*
Y897848D1*
X3241005Y927658D2*
X3243381Y920473D1*
X3250566Y915664D1*
X3262505Y913288D1*
X3269690D1*
X3281628Y915664D1*
X3288813Y920473D1*
X3291189Y927658D1*
Y932411D1*
X3288813Y939596D1*
X3281628Y944349D1*
X3269690Y946781D1*
X3262505D1*
X3250566Y944349D1*
X3243381Y939596D1*
X3241005Y932411D1*
Y927658D1*
X3250566Y944349D2*
X3281628Y915664D1*
X3114881Y826172D2*
Y847672D1*
X3112449Y854857D1*
X3110073Y857289D1*
X3105320Y859666D1*
X3100511D1*
X3095758Y857289D1*
X3093326Y854857D1*
X3090949Y847672D1*
Y826172D1*
X3141189D1*
X3114881Y842919D2*
X3141189Y859666D1*
X3102943Y877537D2*
X3100566D1*
X3095758Y879913D1*
X3093381Y882290D1*
X3091005Y887098D1*
Y896660D1*
X3093381Y901413D1*
X3095758Y903790D1*
X3100566Y906222D1*
X3105320D1*
X3110128Y903790D1*
X3117258Y899037D1*
X3141189Y875105D1*
Y908598D1*
X3100566Y924037D2*
X3098134Y928846D1*
X3091005Y936031D1*
X3141189D1*
X652912Y822519D2*
X674412D1*
X681597Y824951D1*
X684029Y827327D1*
X686405Y832081D1*
Y836889D1*
X684029Y841642D1*
X681597Y844074D1*
X674412Y846451D1*
X652912D1*
Y796211D1*
X669658Y822519D2*
X686405Y796211D1*
X704276Y834457D2*
Y836834D1*
X706653Y841642D1*
X709029Y844019D1*
X713838Y846395D1*
X723400D1*
X728153Y844019D1*
X730529Y841642D1*
X732961Y836834D1*
Y832081D1*
X730529Y827272D1*
X725776Y820142D1*
X701844Y796211D1*
X735338D1*
X753209Y834457D2*
Y836834D1*
X755585Y841642D1*
X757962Y844019D1*
X762770Y846395D1*
X772332D1*
X777085Y844019D1*
X779462Y841642D1*
X781894Y836834D1*
Y832081D1*
X779462Y827272D1*
X774709Y820142D1*
X750777Y796211D1*
X784270D1*
X3019565Y1736903D2*
X3014812Y1741712D1*
X3007627Y1744088D1*
X2998065D1*
X2990880Y1741712D1*
X2986072Y1736903D1*
Y1732150D1*
X2988503Y1727342D1*
X2990880Y1724965D1*
X2995633Y1722589D1*
X3010003Y1717780D1*
X3014812Y1715404D1*
X3017188Y1712972D1*
X3019565Y1708219D1*
Y1701033D1*
X3014812Y1696280D1*
X3007627Y1693848D1*
X2998065D1*
X2990880Y1696280D1*
X2986072Y1701033D1*
X3035004Y1734472D2*
X3039813Y1736903D1*
X3046998Y1744033D1*
Y1693848D1*
X3558815Y1736903D2*
X3554062Y1741712D1*
X3546877Y1744088D1*
X3537315D1*
X3530130Y1741712D1*
X3525322Y1736903D1*
Y1732150D1*
X3527754Y1727342D1*
X3530130Y1724965D1*
X3534883Y1722589D1*
X3549253Y1717780D1*
X3554062Y1715404D1*
X3556438Y1712972D1*
X3558815Y1708219D1*
Y1701033D1*
X3554062Y1696280D1*
X3546877Y1693848D1*
X3537315D1*
X3530130Y1696280D1*
X3525322Y1701033D1*
X3576686Y1732095D2*
Y1734472D1*
X3579063Y1739280D1*
X3581439Y1741657D1*
X3586248Y1744033D1*
X3595809D1*
X3600563Y1741657D1*
X3602939Y1739280D1*
X3605371Y1734472D1*
Y1729718D1*
X3602939Y1724910D1*
X3598186Y1717780D1*
X3574254Y1693848D1*
X3607748D1*
X3008815Y2442514D2*
X3004062Y2447322D1*
X2996877Y2449699D1*
X2987315D1*
X2980130Y2447322D1*
X2975322Y2442514D1*
Y2437760D1*
X2977754Y2432952D1*
X2980130Y2430575D1*
X2984883Y2428199D1*
X2999253Y2423390D1*
X3004062Y2421014D1*
X3006438Y2418582D1*
X3008815Y2413829D1*
Y2406644D1*
X3004062Y2401891D1*
X2996877Y2399459D1*
X2987315D1*
X2980130Y2401891D1*
X2975322Y2406644D1*
X3029063Y2449643D2*
X3055316D1*
X3041001Y2430520D1*
X3048186D1*
X3052939Y2428144D1*
X3055316Y2425767D1*
X3057748Y2418582D1*
Y2413829D1*
X3055316Y2406644D1*
X3050563Y2401835D1*
X3043378Y2399459D1*
X3036192D1*
X3029063Y2401835D1*
X3026686Y2404267D1*
X3024254Y2409020D1*
X1309256Y1007627D2*
X1359497D1*
X1309256Y990881D2*
X1309257Y1024374D1*
Y1039813D2*
X1359496Y1058936D1*
X1309257Y1078060D1*
X1316442Y1126992D2*
X1311633Y1122239D1*
X1309257Y1115054D1*
Y1105492D1*
X1311633Y1098307D1*
X1316442Y1093499D1*
X1321195D1*
X1326003Y1095931D1*
X1328380Y1098307D1*
X1330756Y1103061D1*
X1335565Y1117431D1*
X1337941Y1122239D1*
X1340373Y1124616D1*
X1345126Y1126992D1*
X1352311D1*
X1357065Y1122239D1*
X1359496Y1115054D1*
Y1105492D1*
X1357065Y1098307D1*
X1352311Y1093499D1*
X1318873Y1142431D2*
X1316442Y1147240D1*
X1309312Y1154425D1*
X1359496D1*
X1959256Y996877D2*
X2009497D1*
X1959256Y980131D2*
X1959257Y1013624D1*
Y1029063D2*
X2009496Y1048186D1*
X1959257Y1067310D1*
X1966442Y1116242D2*
X1961633Y1111489D1*
X1959257Y1104304D1*
Y1094742D1*
X1961633Y1087557D1*
X1966442Y1082749D1*
X1971195D1*
X1976003Y1085181D1*
X1978380Y1087557D1*
X1980756Y1092311D1*
X1985565Y1106681D1*
X1987941Y1111489D1*
X1990373Y1113866D1*
X1995126Y1116242D1*
X2002311D1*
X2007065Y1111489D1*
X2009496Y1104304D1*
Y1094742D1*
X2007065Y1087557D1*
X2002311Y1082749D1*
X1971250Y1134113D2*
X1968873D1*
X1964065Y1136490D1*
X1961688Y1138867D1*
X1959312Y1143675D1*
Y1153237D1*
X1961688Y1157990D1*
X1964065Y1160366D1*
X1968873Y1162798D1*
X1973627D1*
X1978435Y1160366D1*
X1985565Y1155613D1*
X2009496Y1131682D1*
Y1165175D1*
X2259256Y996877D2*
X2309497D1*
X2259256Y980131D2*
X2259257Y1013624D1*
Y1029063D2*
X2309496Y1048186D1*
X2259257Y1067310D1*
X2266442Y1116242D2*
X2261633Y1111489D1*
X2259257Y1104304D1*
Y1094742D1*
X2261633Y1087557D1*
X2266442Y1082749D1*
X2271195D1*
X2276003Y1085181D1*
X2278380Y1087557D1*
X2280756Y1092311D1*
X2285565Y1106681D1*
X2287941Y1111489D1*
X2290373Y1113866D1*
X2295126Y1116242D1*
X2302311D1*
X2307065Y1111489D1*
X2309496Y1104304D1*
Y1094742D1*
X2307065Y1087557D1*
X2302311Y1082749D1*
X2259312Y1136490D2*
Y1162743D1*
X2278435Y1148428D1*
Y1155613D1*
X2280812Y1160366D1*
X2283188Y1162743D1*
X2290373Y1165175D1*
X2295126D1*
X2302311Y1162743D1*
X2307120Y1157990D1*
X2309496Y1150805D1*
Y1143620D1*
X2307120Y1136490D1*
X2304688Y1134113D1*
X2299935Y1131682D1*
X2859256Y995689D2*
X2909497D1*
X2859256Y978942D2*
X2859257Y1012436D1*
Y1027875D2*
X2909496Y1046998D1*
X2859257Y1066121D1*
X2866442Y1115054D2*
X2861633Y1110301D1*
X2859257Y1103116D1*
Y1093554D1*
X2861633Y1086369D1*
X2866442Y1081561D1*
X2871195D1*
X2876003Y1083993D1*
X2878380Y1086369D1*
X2880756Y1091122D1*
X2885565Y1105492D1*
X2887941Y1110301D1*
X2890373Y1112677D1*
X2895126Y1115054D1*
X2902311D1*
X2907065Y1110301D1*
X2909496Y1103116D1*
Y1093554D1*
X2907065Y1086369D1*
X2902311Y1081561D1*
X2909496Y1154425D2*
X2859312D1*
X2892750Y1130493D1*
Y1166363D1*
X3159256Y996877D2*
X3209497D1*
X3159256Y980131D2*
X3159257Y1013624D1*
Y1029063D2*
X3209496Y1048186D1*
X3159257Y1067310D1*
X3166442Y1116242D2*
X3161633Y1111489D1*
X3159257Y1104304D1*
Y1094742D1*
X3161633Y1087557D1*
X3166442Y1082749D1*
X3171195D1*
X3176003Y1085181D1*
X3178380Y1087557D1*
X3180756Y1092311D1*
X3185565Y1106681D1*
X3187941Y1111489D1*
X3190373Y1113866D1*
X3195126Y1116242D1*
X3202311D1*
X3207065Y1111489D1*
X3209496Y1104304D1*
Y1094742D1*
X3207065Y1087557D1*
X3202311Y1082749D1*
X3159312Y1160366D2*
Y1136490D1*
X3180812Y1134113D1*
X3178435Y1136490D1*
X3176003Y1143675D1*
Y1150805D1*
X3178435Y1157990D1*
X3183188Y1162798D1*
X3190373Y1165175D1*
X3195126D1*
X3202311Y1162798D1*
X3207120Y1157990D1*
X3209496Y1150805D1*
Y1143675D1*
X3207120Y1136490D1*
X3204688Y1134113D1*
X3199935Y1131682D1*
X1713237Y3016923D2*
Y2981053D1*
X1715614Y2973868D1*
X1720422Y2969115D1*
X1727607Y2966683D1*
X1732360D1*
X1739545Y2969115D1*
X1744354Y2973868D1*
X1746730Y2981053D1*
Y3016923D1*
X1762170Y3007306D2*
X1766978Y3009738D1*
X1774163Y3016868D1*
Y2966683D1*
X463117Y1690545D2*
Y1654675D1*
X465494Y1647490D1*
X470302Y1642737D1*
X477487Y1640305D1*
X482240D1*
X489425Y1642737D1*
X494234Y1647490D1*
X496610Y1654675D1*
Y1690545D1*
X514481Y1678552D2*
Y1680928D1*
X516858Y1685737D1*
X519235Y1688113D1*
X524043Y1690490D1*
X533605D1*
X538358Y1688113D1*
X540734Y1685737D1*
X543166Y1680928D1*
Y1676175D1*
X540734Y1671367D1*
X535981Y1664237D1*
X512050Y1640305D1*
X545543D1*
X560044Y1797369D2*
X595914D1*
X603099Y1799746D1*
X607852Y1804554D1*
X610284Y1811739D1*
Y1816492D1*
X607852Y1823677D1*
X603099Y1828486D1*
X595914Y1830862D1*
X560044D1*
X560099Y1851110D2*
Y1877363D1*
X579222Y1863048D1*
Y1870233D1*
X581599Y1874986D1*
X583976Y1877363D1*
X591161Y1879795D1*
X595914D1*
X603099Y1877363D1*
X607907Y1872610D1*
X610284Y1865425D1*
Y1858240D1*
X607907Y1851110D1*
X605475Y1848733D1*
X600722Y1846302D1*
X3207149Y3371905D2*
X3233402D1*
X3219087Y3352782D1*
X3226272D1*
X3231026Y3350405D1*
X3233402Y3348029D1*
X3235834Y3340844D1*
Y3336091D1*
X3233402Y3328906D1*
X3228649Y3324097D1*
X3221464Y3321720D1*
X3214279D1*
X3207149Y3324097D1*
X3204773Y3326529D1*
X3202341Y3331282D1*
X3251273Y3371960D2*
X3270396Y3321720D1*
X3289520Y3371960D1*
X3309767Y3371905D2*
X3336020D1*
X3321706Y3352782D1*
X3328891D1*
X3333644Y3350405D1*
X3336020Y3348029D1*
X3338452Y3340844D1*
Y3336091D1*
X3336020Y3328906D1*
X3331267Y3324097D1*
X3324082Y3321720D1*
X3316897D1*
X3309767Y3324097D1*
X3307391Y3326529D1*
X3304959Y3331282D1*
X3402493Y3345652D2*
X3424048D1*
X3431177Y3348029D1*
X3433609Y3350461D1*
X3435986Y3355214D1*
Y3362399D1*
X3433609Y3367152D1*
X3431177Y3369584D1*
X3424048Y3371960D1*
X3402493D1*
Y3321720D1*
X3451425Y3371960D2*
X3463419Y3321720D1*
X3475357Y3371960D1*
X3487295Y3321720D1*
X3499289Y3371960D1*
X3514728Y3348029D2*
X3536228D1*
X3543413Y3350461D1*
X3545845Y3352837D1*
X3548221Y3357590D1*
Y3362399D1*
X3545845Y3367152D1*
X3543413Y3369584D1*
X3536228Y3371960D1*
X3514728D1*
Y3321720D1*
X3531474Y3348029D2*
X3548221Y3321720D1*
X3231026Y3221905D2*
X3207149D1*
X3204773Y3200405D1*
X3207149Y3202782D1*
X3214334Y3205214D1*
X3221464D1*
X3228649Y3202782D1*
X3233457Y3198029D1*
X3235834Y3190844D1*
Y3186091D1*
X3233457Y3178906D1*
X3228649Y3174097D1*
X3221464Y3171720D1*
X3214334D1*
X3207149Y3174097D1*
X3204773Y3176529D1*
X3202341Y3181282D1*
X3251273Y3221960D2*
X3270396Y3171720D1*
X3289520Y3221960D1*
X3402161Y3195652D2*
X3423716D1*
X3430846Y3198029D1*
X3433278Y3200461D1*
X3435654Y3205214D1*
Y3212399D1*
X3433278Y3217152D1*
X3430846Y3219584D1*
X3423716Y3221960D1*
X3402161D1*
Y3171720D1*
X3451094Y3221960D2*
X3463087Y3171720D1*
X3475025Y3221960D1*
X3486963Y3171720D1*
X3498957Y3221960D1*
X3514396Y3198029D2*
X3535896D1*
X3543081Y3200461D1*
X3545513Y3202837D1*
X3547890Y3207590D1*
Y3212399D1*
X3545513Y3217152D1*
X3543081Y3219584D1*
X3535896Y3221960D1*
X3514396D1*
Y3171720D1*
X3531143Y3198029D2*
X3547890Y3171720D1*
X3202341Y3071960D2*
Y3021720D1*
X3223896D1*
X3231081Y3024152D1*
X3233457Y3026529D1*
X3235834Y3031282D1*
Y3038467D1*
X3233457Y3043276D1*
X3231081Y3045652D1*
X3223896Y3048029D1*
X3231081Y3050461D1*
X3233457Y3052837D1*
X3235834Y3057590D1*
Y3062399D1*
X3233457Y3067152D1*
X3231081Y3069584D1*
X3223896Y3071960D1*
X3202341D1*
Y3048029D2*
X3223896D1*
X3289575Y3021720D2*
X3270396Y3071960D1*
X3251273Y3021720D1*
X3258458Y3038467D2*
X3282390D1*
X3321761Y3071960D2*
Y3021720D1*
X3305014Y3071960D2*
X3338508D1*
X3402548Y3045652D2*
X3424103D1*
X3431233Y3048029D1*
X3433665Y3050461D1*
X3436041Y3055214D1*
Y3062399D1*
X3433665Y3067152D1*
X3431233Y3069584D1*
X3424103Y3071960D1*
X3402548D1*
Y3021720D1*
X3451480Y3071960D2*
X3463474Y3021720D1*
X3475412Y3071960D1*
X3487350Y3021720D1*
X3499344Y3071960D1*
X3514783Y3048029D2*
X3536283D1*
X3543468Y3050461D1*
X3545900Y3052837D1*
X3548276Y3057590D1*
Y3062399D1*
X3545900Y3067152D1*
X3543468Y3069584D1*
X3536283Y3071960D1*
X3514783D1*
Y3021720D1*
X3531530Y3048029D2*
X3548276Y3021720D1*
X3210834Y2864775D2*
X3206081Y2869584D1*
X3198896Y2871960D1*
X3189334D1*
X3182149Y2869584D1*
X3177341Y2864775D1*
Y2860022D1*
X3179773Y2855214D1*
X3182149Y2852837D1*
X3186902Y2850461D1*
X3201272Y2845652D1*
X3206081Y2843276D1*
X3208457Y2840844D1*
X3210834Y2836091D1*
Y2828906D1*
X3206081Y2824152D1*
X3198896Y2821720D1*
X3189334D1*
X3182149Y2824152D1*
X3177341Y2828906D1*
X3226273Y2871960D2*
X3245396Y2848029D1*
Y2821720D1*
X3264520Y2871960D2*
X3245396Y2848029D1*
X3313452Y2864775D2*
X3308699Y2869584D1*
X3301514Y2871960D1*
X3291952D1*
X3284767Y2869584D1*
X3279959Y2864775D1*
Y2860022D1*
X3282391Y2855214D1*
X3284767Y2852837D1*
X3289521Y2850461D1*
X3303891Y2845652D1*
X3308699Y2843276D1*
X3311076Y2840844D1*
X3313452Y2836091D1*
Y2828906D1*
X3308699Y2824152D1*
X3301514Y2821720D1*
X3291952D1*
X3284767Y2824152D1*
X3279959Y2828906D1*
X3377493Y2871960D2*
Y2821720D1*
X3410986Y2871960D2*
Y2821720D1*
X3377493Y2848029D2*
X3410986D1*
X3457487Y2871960D2*
X3426425D1*
Y2821720D1*
X3457487D1*
X3426425Y2848029D2*
X3445548D1*
X3511228Y2821720D2*
X3492049Y2871960D1*
X3472926Y2821720D1*
X3480111Y2838467D2*
X3504043D1*
X3526667Y2848029D2*
X3548167D1*
X3555352Y2850461D1*
X3557784Y2852837D1*
X3560160Y2857590D1*
Y2862399D1*
X3557784Y2867152D1*
X3555352Y2869584D1*
X3548167Y2871960D1*
X3526667D1*
Y2821720D1*
X3543414Y2848029D2*
X3560160Y2821720D1*
X3592346Y2871960D2*
Y2821720D1*
X3575599Y2871960D2*
X3609093D1*
X3624532D2*
Y2821720D1*
X3646087D1*
X3653272Y2824152D1*
X3655649Y2826529D1*
X3658025Y2831282D1*
Y2838467D1*
X3655649Y2843276D1*
X3653272Y2845652D1*
X3646087Y2848029D1*
X3653272Y2850461D1*
X3655649Y2852837D1*
X3658025Y2857590D1*
Y2862399D1*
X3655649Y2867152D1*
X3653272Y2869584D1*
X3646087Y2871960D1*
X3624532D1*
Y2848029D2*
X3646087D1*
X3704526Y2871960D2*
X3673465D1*
Y2821720D1*
X3704526D1*
X3673465Y2848029D2*
X3692588D1*
X3758267Y2821720D2*
X3739089Y2871960D1*
X3719965Y2821720D1*
X3727150Y2838467D2*
X3751082D1*
X3790453Y2871960D2*
Y2821720D1*
X3773706Y2871960D2*
X3807200D1*
X3210834Y2714775D2*
X3206081Y2719584D1*
X3198896Y2721960D1*
X3189334D1*
X3182149Y2719584D1*
X3177341Y2714775D1*
Y2710022D1*
X3179773Y2705214D1*
X3182149Y2702837D1*
X3186902Y2700461D1*
X3201272Y2695652D1*
X3206081Y2693276D1*
X3208457Y2690844D1*
X3210834Y2686091D1*
Y2678906D1*
X3206081Y2674152D1*
X3198896Y2671720D1*
X3189334D1*
X3182149Y2674152D1*
X3177341Y2678906D1*
X3226273Y2721960D2*
X3245396Y2698029D1*
Y2671720D1*
X3264520Y2721960D2*
X3245396Y2698029D1*
X3313452Y2714775D2*
X3308699Y2719584D1*
X3301514Y2721960D1*
X3291952D1*
X3284767Y2719584D1*
X3279959Y2714775D1*
Y2710022D1*
X3282391Y2705214D1*
X3284767Y2702837D1*
X3289521Y2700461D1*
X3303891Y2695652D1*
X3308699Y2693276D1*
X3311076Y2690844D1*
X3313452Y2686091D1*
Y2678906D1*
X3308699Y2674152D1*
X3301514Y2671720D1*
X3291952D1*
X3284767Y2674152D1*
X3279959Y2678906D1*
X3377493Y2721960D2*
Y2671720D1*
X3406177D1*
X3435987Y2721960D2*
X3431178Y2719584D1*
X3426425Y2714775D1*
X3423993Y2710022D1*
X3421617Y2702837D1*
Y2690844D1*
X3423993Y2683714D1*
X3426425Y2678906D1*
X3431178Y2674152D1*
X3435987Y2671720D1*
X3445548D1*
X3450302Y2674152D1*
X3455110Y2678906D1*
X3457487Y2683714D1*
X3459863Y2690844D1*
Y2702837D1*
X3457487Y2710022D1*
X3455110Y2714775D1*
X3450302Y2719584D1*
X3445548Y2721960D1*
X3435987D1*
X3511172Y2710022D2*
X3508796Y2714775D1*
X3503987Y2719584D1*
X3499234Y2721960D1*
X3489673D1*
X3484864Y2719584D1*
X3480111Y2714775D1*
X3477679Y2710022D1*
X3475302Y2702837D1*
Y2690844D1*
X3477679Y2683714D1*
X3480111Y2678906D1*
X3484864Y2674152D1*
X3489673Y2671720D1*
X3499234D1*
X3503987Y2674152D1*
X3508796Y2678906D1*
X3511172Y2683714D1*
X3564913Y2671720D2*
X3545735Y2721960D1*
X3526612Y2671720D1*
X3533797Y2688467D2*
X3557728D1*
X3597099Y2721960D2*
Y2671720D1*
X3580353Y2721960D2*
X3613846D1*
X3660347D2*
X3629285D1*
Y2671720D1*
X3660347D1*
X3629285Y2698029D2*
X3648408D1*
X3210834Y2564775D2*
X3206081Y2569584D1*
X3198896Y2571960D1*
X3189334D1*
X3182149Y2569584D1*
X3177341Y2564775D1*
Y2560022D1*
X3179773Y2555214D1*
X3182149Y2552837D1*
X3186902Y2550461D1*
X3201272Y2545652D1*
X3206081Y2543276D1*
X3208457Y2540844D1*
X3210834Y2536091D1*
Y2528906D1*
X3206081Y2524152D1*
X3198896Y2521720D1*
X3189334D1*
X3182149Y2524152D1*
X3177341Y2528906D1*
X3226273Y2571960D2*
X3245396Y2548029D1*
Y2521720D1*
X3264520Y2571960D2*
X3245396Y2548029D1*
X3313452Y2564775D2*
X3308699Y2569584D1*
X3301514Y2571960D1*
X3291952D1*
X3284767Y2569584D1*
X3279959Y2564775D1*
Y2560022D1*
X3282391Y2555214D1*
X3284767Y2552837D1*
X3289521Y2550461D1*
X3303891Y2545652D1*
X3308699Y2543276D1*
X3311076Y2540844D1*
X3313452Y2536091D1*
Y2528906D1*
X3308699Y2524152D1*
X3301514Y2521720D1*
X3291952D1*
X3284767Y2524152D1*
X3279959Y2528906D1*
X3415794Y2521720D2*
X3396616Y2571960D1*
X3377493Y2521720D1*
X3384678Y2538467D2*
X3408609D1*
X3467104Y2560022D2*
X3464727Y2564775D1*
X3459918Y2569584D1*
X3455165Y2571960D1*
X3445604D1*
X3440795Y2569584D1*
X3436042Y2564775D1*
X3433610Y2560022D1*
X3431234Y2552837D1*
Y2540844D1*
X3433610Y2533714D1*
X3436042Y2528906D1*
X3440795Y2524152D1*
X3445604Y2521720D1*
X3455165D1*
X3459918Y2524152D1*
X3464727Y2528906D1*
X3467104Y2533714D1*
X3499289Y2571960D2*
Y2521720D1*
X3482543Y2571960D2*
X3516036D1*
X3531475D2*
Y2521720D1*
X3546915Y2571960D2*
X3566038Y2521720D1*
X3585161Y2571960D1*
X3600600D2*
Y2521720D1*
X3632786Y2571960D2*
Y2521720D1*
X3616040Y2571960D2*
X3649533D1*
X3664972D2*
X3684095Y2548029D1*
Y2521720D1*
X3703219Y2571960D2*
X3684095Y2548029D1*
X3289841Y2321960D2*
Y2271720D1*
X3306587D1*
X3313772Y2274152D1*
X3318581Y2278906D1*
X3320957Y2283714D1*
X3323334Y2290844D1*
Y2302837D1*
X3320957Y2310022D1*
X3318581Y2314775D1*
X3313772Y2319584D1*
X3306587Y2321960D1*
X3289841D1*
X3338773D2*
Y2271720D1*
X3354212Y2295652D2*
X3375768D1*
X3382897Y2298029D1*
X3385329Y2300461D1*
X3387706Y2305214D1*
Y2312399D1*
X3385329Y2317152D1*
X3382897Y2319584D1*
X3375768Y2321960D1*
X3354212D1*
Y2271720D1*
X3490048D2*
X3470869Y2321960D1*
X3451746Y2271720D1*
X3458931Y2288467D2*
X3482863D1*
X3505487Y2321960D2*
Y2271720D1*
X3522234D1*
X3529419Y2274152D1*
X3534227Y2278906D1*
X3536604Y2283714D1*
X3538980Y2290844D1*
Y2302837D1*
X3536604Y2310022D1*
X3534227Y2314775D1*
X3529419Y2319584D1*
X3522234Y2321960D1*
X3505487D1*
X3554420D2*
Y2271720D1*
X3571166D1*
X3578351Y2274152D1*
X3583160Y2278906D1*
X3585536Y2283714D1*
X3587913Y2290844D1*
Y2302837D1*
X3585536Y2310022D1*
X3583160Y2314775D1*
X3578351Y2319584D1*
X3571166Y2321960D1*
X3554420D1*
X3603352Y2298029D2*
X3624852D1*
X3632037Y2300461D1*
X3634469Y2302837D1*
X3636846Y2307590D1*
Y2312399D1*
X3634469Y2317152D1*
X3632037Y2319584D1*
X3624852Y2321960D1*
X3603352D1*
Y2271720D1*
X3620099Y2298029D2*
X3636846Y2271720D1*
X3700886Y2312344D2*
X3705694Y2314775D1*
X3712879Y2321905D1*
Y2271720D1*
X3289841Y2221960D2*
Y2171720D1*
X3306587D1*
X3313772Y2174152D1*
X3318581Y2178906D1*
X3320957Y2183714D1*
X3323334Y2190844D1*
Y2202837D1*
X3320957Y2210022D1*
X3318581Y2214775D1*
X3313772Y2219584D1*
X3306587Y2221960D1*
X3289841D1*
X3338773D2*
Y2171720D1*
X3354212Y2195652D2*
X3375768D1*
X3382897Y2198029D1*
X3385329Y2200461D1*
X3387706Y2205214D1*
Y2212399D1*
X3385329Y2217152D1*
X3382897Y2219584D1*
X3375768Y2221960D1*
X3354212D1*
Y2171720D1*
X3490048D2*
X3470869Y2221960D1*
X3451746Y2171720D1*
X3458931Y2188467D2*
X3482863D1*
X3505487Y2221960D2*
Y2171720D1*
X3522234D1*
X3529419Y2174152D1*
X3534227Y2178906D1*
X3536604Y2183714D1*
X3538980Y2190844D1*
Y2202837D1*
X3536604Y2210022D1*
X3534227Y2214775D1*
X3529419Y2219584D1*
X3522234Y2221960D1*
X3505487D1*
X3554420D2*
Y2171720D1*
X3571166D1*
X3578351Y2174152D1*
X3583160Y2178906D1*
X3585536Y2183714D1*
X3587913Y2190844D1*
Y2202837D1*
X3585536Y2210022D1*
X3583160Y2214775D1*
X3578351Y2219584D1*
X3571166Y2221960D1*
X3554420D1*
X3603352Y2198029D2*
X3624852D1*
X3632037Y2200461D1*
X3634469Y2202837D1*
X3636846Y2207590D1*
Y2212399D1*
X3634469Y2217152D1*
X3632037Y2219584D1*
X3624852Y2221960D1*
X3603352D1*
Y2171720D1*
X3620099Y2198029D2*
X3636846Y2171720D1*
X3703318Y2209967D2*
Y2212344D1*
X3705694Y2217152D1*
X3708071Y2219529D1*
X3712879Y2221905D1*
X3722441D1*
X3727194Y2219529D1*
X3729571Y2217152D1*
X3732003Y2212344D1*
Y2207590D1*
X3729571Y2202782D1*
X3724817Y2195652D1*
X3700886Y2171720D1*
X3734379D1*
X3289841Y2121960D2*
Y2071720D1*
X3306587D1*
X3313772Y2074152D1*
X3318581Y2078906D1*
X3320957Y2083714D1*
X3323334Y2090844D1*
Y2102837D1*
X3320957Y2110022D1*
X3318581Y2114775D1*
X3313772Y2119584D1*
X3306587Y2121960D1*
X3289841D1*
X3338773D2*
Y2071720D1*
X3354212Y2095652D2*
X3375768D1*
X3382897Y2098029D1*
X3385329Y2100461D1*
X3387706Y2105214D1*
Y2112399D1*
X3385329Y2117152D1*
X3382897Y2119584D1*
X3375768Y2121960D1*
X3354212D1*
Y2071720D1*
X3490048D2*
X3470869Y2121960D1*
X3451746Y2071720D1*
X3458931Y2088467D2*
X3482863D1*
X3505487Y2121960D2*
Y2071720D1*
X3522234D1*
X3529419Y2074152D1*
X3534227Y2078906D1*
X3536604Y2083714D1*
X3538980Y2090844D1*
Y2102837D1*
X3536604Y2110022D1*
X3534227Y2114775D1*
X3529419Y2119584D1*
X3522234Y2121960D1*
X3505487D1*
X3554420D2*
Y2071720D1*
X3571166D1*
X3578351Y2074152D1*
X3583160Y2078906D1*
X3585536Y2083714D1*
X3587913Y2090844D1*
Y2102837D1*
X3585536Y2110022D1*
X3583160Y2114775D1*
X3578351Y2119584D1*
X3571166Y2121960D1*
X3554420D1*
X3603352Y2098029D2*
X3624852D1*
X3632037Y2100461D1*
X3634469Y2102837D1*
X3636846Y2107590D1*
Y2112399D1*
X3634469Y2117152D1*
X3632037Y2119584D1*
X3624852Y2121960D1*
X3603352D1*
Y2071720D1*
X3620099Y2098029D2*
X3636846Y2071720D1*
X3724817D2*
Y2121905D1*
X3700886Y2088467D1*
X3736756D1*
X3289841Y2021960D2*
Y1971720D1*
X3306587D1*
X3313772Y1974152D1*
X3318581Y1978906D1*
X3320957Y1983714D1*
X3323334Y1990844D1*
Y2002837D1*
X3320957Y2010022D1*
X3318581Y2014775D1*
X3313772Y2019584D1*
X3306587Y2021960D1*
X3289841D1*
X3338773D2*
Y1971720D1*
X3354212Y1995652D2*
X3375768D1*
X3382897Y1998029D1*
X3385329Y2000461D1*
X3387706Y2005214D1*
Y2012399D1*
X3385329Y2017152D1*
X3382897Y2019584D1*
X3375768Y2021960D1*
X3354212D1*
Y1971720D1*
X3490048D2*
X3470869Y2021960D1*
X3451746Y1971720D1*
X3458931Y1988467D2*
X3482863D1*
X3505487Y2021960D2*
Y1971720D1*
X3522234D1*
X3529419Y1974152D1*
X3534227Y1978906D1*
X3536604Y1983714D1*
X3538980Y1990844D1*
Y2002837D1*
X3536604Y2010022D1*
X3534227Y2014775D1*
X3529419Y2019584D1*
X3522234Y2021960D1*
X3505487D1*
X3554420D2*
Y1971720D1*
X3571166D1*
X3578351Y1974152D1*
X3583160Y1978906D1*
X3585536Y1983714D1*
X3587913Y1990844D1*
Y2002837D1*
X3585536Y2010022D1*
X3583160Y2014775D1*
X3578351Y2019584D1*
X3571166Y2021960D1*
X3554420D1*
X3603352Y1998029D2*
X3624852D1*
X3632037Y2000461D1*
X3634469Y2002837D1*
X3636846Y2007590D1*
Y2012399D1*
X3634469Y2017152D1*
X3632037Y2019584D1*
X3624852Y2021960D1*
X3603352D1*
Y1971720D1*
X3620099Y1998029D2*
X3636846Y1971720D1*
X3712824Y2021905D2*
X3705694Y2019529D1*
X3703262Y2014775D1*
Y2009967D1*
X3705694Y2005214D1*
X3710447Y2002782D1*
X3720009Y2000405D1*
X3727194Y1998029D1*
X3731947Y1993220D1*
X3734324Y1988467D1*
Y1981282D1*
X3731947Y1976529D1*
X3729571Y1974097D1*
X3722386Y1971720D1*
X3712824D1*
X3705694Y1974097D1*
X3703262Y1976529D1*
X3700886Y1981282D1*
Y1988467D1*
X3703262Y1993220D1*
X3708071Y1998029D1*
X3715201Y2000405D1*
X3724762Y2002782D1*
X3729571Y2005214D1*
X3731947Y2009967D1*
Y2014775D1*
X3729571Y2019529D1*
X3722386Y2021905D1*
X3712824D1*
X3289841Y1921960D2*
Y1871720D1*
X3306587D1*
X3313772Y1874152D1*
X3318581Y1878906D1*
X3320957Y1883714D1*
X3323334Y1890844D1*
Y1902837D1*
X3320957Y1910022D1*
X3318581Y1914775D1*
X3313772Y1919584D1*
X3306587Y1921960D1*
X3289841D1*
X3338773D2*
Y1871720D1*
X3354212Y1895652D2*
X3375768D1*
X3382897Y1898029D1*
X3385329Y1900461D1*
X3387706Y1905214D1*
Y1912399D1*
X3385329Y1917152D1*
X3382897Y1919584D1*
X3375768Y1921960D1*
X3354212D1*
Y1871720D1*
X3490048D2*
X3470869Y1921960D1*
X3451746Y1871720D1*
X3458931Y1888467D2*
X3482863D1*
X3505487Y1921960D2*
Y1871720D1*
X3522234D1*
X3529419Y1874152D1*
X3534227Y1878906D1*
X3536604Y1883714D1*
X3538980Y1890844D1*
Y1902837D1*
X3536604Y1910022D1*
X3534227Y1914775D1*
X3529419Y1919584D1*
X3522234Y1921960D1*
X3505487D1*
X3554420D2*
Y1871720D1*
X3571166D1*
X3578351Y1874152D1*
X3583160Y1878906D1*
X3585536Y1883714D1*
X3587913Y1890844D1*
Y1902837D1*
X3585536Y1910022D1*
X3583160Y1914775D1*
X3578351Y1919584D1*
X3571166Y1921960D1*
X3554420D1*
X3603352Y1898029D2*
X3624852D1*
X3632037Y1900461D1*
X3634469Y1902837D1*
X3636846Y1907590D1*
Y1912399D1*
X3634469Y1917152D1*
X3632037Y1919584D1*
X3624852Y1921960D1*
X3603352D1*
Y1871720D1*
X3620099Y1898029D2*
X3636846Y1871720D1*
X3700886Y1912344D2*
X3705694Y1914775D1*
X3712879Y1921905D1*
Y1871720D1*
X3757003Y1914775D2*
X3754627Y1919529D1*
X3747442Y1921905D1*
X3742689D1*
X3735504Y1919529D1*
X3730695Y1912344D1*
X3728319Y1900405D1*
Y1888467D1*
X3730695Y1878906D1*
X3735504Y1874097D1*
X3742689Y1871720D1*
X3745065D1*
X3752195Y1874097D1*
X3757003Y1878906D1*
X3759380Y1886091D1*
Y1888467D1*
X3757003Y1895652D1*
X3752195Y1900405D1*
X3745065Y1902782D1*
X3742689D1*
X3735504Y1900405D1*
X3730695Y1895652D1*
X3728319Y1888467D1*
X2877341Y1421960D2*
Y1371720D1*
X2906026D1*
X2935835Y1421960D2*
X2931026Y1419584D1*
X2926273Y1414775D1*
X2923841Y1410022D1*
X2921465Y1402837D1*
Y1390844D1*
X2923841Y1383714D1*
X2926273Y1378906D1*
X2931026Y1374152D1*
X2935835Y1371720D1*
X2945396D1*
X2950150Y1374152D1*
X2954958Y1378906D1*
X2957335Y1383714D1*
X2959711Y1390844D1*
Y1402837D1*
X2957335Y1410022D1*
X2954958Y1414775D1*
X2950150Y1419584D1*
X2945396Y1421960D1*
X2935835D1*
X3011020Y1410022D2*
X3008644Y1414775D1*
X3003835Y1419584D1*
X2999082Y1421960D1*
X2989521D1*
X2984712Y1419584D1*
X2979959Y1414775D1*
X2977527Y1410022D1*
X2975151Y1402837D1*
Y1390844D1*
X2977527Y1383714D1*
X2979959Y1378906D1*
X2984712Y1374152D1*
X2989521Y1371720D1*
X2999082D1*
X3003835Y1374152D1*
X3008644Y1378906D1*
X3011020Y1383714D1*
X3064762Y1371720D2*
X3045583Y1421960D1*
X3026460Y1371720D1*
X3033645Y1388467D2*
X3057576D1*
X3096947Y1421960D2*
Y1371720D1*
X3080201Y1421960D2*
X3113694D1*
X3160195D2*
X3129133D1*
Y1371720D1*
X3160195D1*
X3129133Y1398029D2*
X3148257D1*
X3477341Y1421960D2*
Y1386091D1*
X3479717Y1378906D1*
X3484526Y1374152D1*
X3491711Y1371720D1*
X3496464D1*
X3503649Y1374152D1*
X3508457Y1378906D1*
X3510834Y1386091D1*
Y1421960D1*
X3559767Y1414775D2*
X3555013Y1419584D1*
X3547828Y1421960D1*
X3538267D1*
X3531082Y1419584D1*
X3526273Y1414775D1*
Y1410022D1*
X3528705Y1405214D1*
X3531082Y1402837D1*
X3535835Y1400461D1*
X3550205Y1395652D1*
X3555013Y1393276D1*
X3557390Y1390844D1*
X3559767Y1386091D1*
Y1378906D1*
X3555013Y1374152D1*
X3547828Y1371720D1*
X3538267D1*
X3531082Y1374152D1*
X3526273Y1378906D1*
X3606267Y1421960D2*
X3575206D1*
Y1371720D1*
X3606267D1*
X3575206Y1398029D2*
X3594329D1*
X3621707D2*
X3643206D1*
X3650391Y1400461D1*
X3652823Y1402837D1*
X3655200Y1407590D1*
Y1412399D1*
X3652823Y1417152D1*
X3650391Y1419584D1*
X3643206Y1421960D1*
X3621707D1*
Y1371720D1*
X3638453Y1398029D2*
X3655200Y1371720D1*
X1539841Y3571960D2*
Y3521720D1*
X1588773Y3571960D2*
Y3521720D1*
X1555280Y3571960D1*
Y3521720D1*
X1620959Y3571960D2*
Y3521720D1*
X1604212Y3571960D2*
X1637706D1*
X1684207D2*
X1653145D1*
Y3521720D1*
X1684207D1*
X1653145Y3548029D2*
X1672268D1*
X1699646D2*
X1721146D1*
X1728331Y3550461D1*
X1730763Y3552837D1*
X1733139Y3557590D1*
Y3562399D1*
X1730763Y3567152D1*
X1728331Y3569584D1*
X1721146Y3571960D1*
X1699646D1*
Y3521720D1*
X1716392Y3548029D2*
X1733139Y3521720D1*
X1782072Y3571960D2*
Y3521720D1*
X1748578Y3571960D1*
Y3521720D1*
X1835813D2*
X1816634Y3571960D1*
X1797511Y3521720D1*
X1804696Y3538467D2*
X1828628D1*
X1851252Y3571960D2*
Y3521720D1*
X1879937D1*
X1977470Y3564775D2*
X1972717Y3569584D1*
X1965532Y3571960D1*
X1955971D1*
X1948786Y3569584D1*
X1943977Y3564775D1*
Y3560022D1*
X1946409Y3555214D1*
X1948786Y3552837D1*
X1953539Y3550461D1*
X1967909Y3545652D1*
X1972717Y3543276D1*
X1975094Y3540844D1*
X1977470Y3536091D1*
Y3528906D1*
X1972717Y3524152D1*
X1965532Y3521720D1*
X1955971D1*
X1948786Y3524152D1*
X1943977Y3528906D1*
X2023971Y3571960D2*
X1992910D1*
Y3521720D1*
X2023971D1*
X1992910Y3548029D2*
X2012033D1*
X2072904Y3571960D2*
Y3521720D1*
X2039410Y3571960D1*
Y3521720D1*
X2121836Y3564775D2*
X2117083Y3569584D1*
X2109898Y3571960D1*
X2100336D1*
X2093151Y3569584D1*
X2088343Y3564775D1*
Y3560022D1*
X2090775Y3555214D1*
X2093151Y3552837D1*
X2097905Y3550461D1*
X2112275Y3545652D1*
X2117083Y3543276D1*
X2119460Y3540844D1*
X2121836Y3536091D1*
Y3528906D1*
X2117083Y3524152D1*
X2109898Y3521720D1*
X2100336D1*
X2093151Y3524152D1*
X2088343Y3528906D1*
X2151646Y3571960D2*
X2146837Y3569584D1*
X2142084Y3564775D1*
X2139652Y3560022D1*
X2137276Y3552837D1*
Y3540844D1*
X2139652Y3533714D1*
X2142084Y3528906D1*
X2146837Y3524152D1*
X2151646Y3521720D1*
X2161207D1*
X2165960Y3524152D1*
X2170769Y3528906D1*
X2173145Y3533714D1*
X2175522Y3540844D1*
Y3552837D1*
X2173145Y3560022D1*
X2170769Y3564775D1*
X2165960Y3569584D1*
X2161207Y3571960D1*
X2151646D1*
X2190961Y3548029D2*
X2212461D1*
X2219646Y3550461D1*
X2222078Y3552837D1*
X2224455Y3557590D1*
Y3562399D1*
X2222078Y3567152D1*
X2219646Y3569584D1*
X2212461Y3571960D1*
X2190961D1*
Y3521720D1*
X2207708Y3548029D2*
X2224455Y3521720D1*
X2319556Y3571960D2*
X2288495D1*
Y3521720D1*
X2319556D1*
X2288495Y3548029D2*
X2307618D1*
X2334996Y3571960D2*
X2368489Y3521720D1*
Y3571960D2*
X2334996Y3521720D1*
X2383928Y3545652D2*
X2405483D1*
X2412613Y3548029D1*
X2415045Y3550461D1*
X2417422Y3555214D1*
Y3562399D1*
X2415045Y3567152D1*
X2412613Y3569584D1*
X2405483Y3571960D1*
X2383928D1*
Y3521720D1*
X2471163D2*
X2451984Y3571960D1*
X2432861Y3521720D1*
X2440046Y3538467D2*
X2463978D1*
X2520095Y3571960D2*
Y3521720D1*
X2486602Y3571960D1*
Y3521720D1*
X2569028Y3564775D2*
X2564275Y3569584D1*
X2557090Y3571960D1*
X2547528D1*
X2540343Y3569584D1*
X2535534Y3564775D1*
Y3560022D1*
X2537966Y3555214D1*
X2540343Y3552837D1*
X2545096Y3550461D1*
X2559466Y3545652D1*
X2564275Y3543276D1*
X2566651Y3540844D1*
X2569028Y3536091D1*
Y3528906D1*
X2564275Y3524152D1*
X2557090Y3521720D1*
X2547528D1*
X2540343Y3524152D1*
X2535534Y3528906D1*
X2584467Y3571960D2*
Y3521720D1*
X2614276Y3571960D2*
X2609468Y3569584D1*
X2604715Y3564775D1*
X2602283Y3560022D1*
X2599906Y3552837D1*
Y3540844D1*
X2602283Y3533714D1*
X2604715Y3528906D1*
X2609468Y3524152D1*
X2614276Y3521720D1*
X2623838D1*
X2628591Y3524152D1*
X2633400Y3528906D1*
X2635776Y3533714D1*
X2638153Y3540844D1*
Y3552837D1*
X2635776Y3560022D1*
X2633400Y3564775D1*
X2628591Y3569584D1*
X2623838Y3571960D1*
X2614276D1*
X2687085D2*
Y3521720D1*
X2653592Y3571960D1*
Y3521720D1*
X1148446Y441707D2*
X1146014Y446515D1*
X1138885Y453700D1*
X1189069D1*
X1163977Y469140D2*
Y496774D1*
X1138829Y512214D2*
X1189069Y524207D1*
X1138829Y536145D1*
X1189069Y548083D1*
X1138829Y560077D1*
Y575516D2*
X1189069D1*
X1162761Y590955D2*
Y612455D1*
X1160329Y619640D1*
X1157953Y622072D1*
X1153199Y624449D1*
X1148391D1*
X1143638Y622072D1*
X1141206Y619640D1*
X1138829Y612455D1*
Y590955D1*
X1189069D1*
X1162761Y607702D2*
X1189069Y624449D1*
X1138829Y670950D2*
Y639888D1*
X1189069D1*
Y670950D1*
X1162761Y639888D2*
Y659011D1*
X1963268Y477577D2*
X1958514Y475200D1*
X1953706Y470392D1*
X1951329Y465639D1*
Y456077D1*
X1953706Y451269D1*
X1958514Y446515D1*
X1963268Y444084D1*
X1970453Y441707D1*
X1982446D1*
X1989576Y444084D1*
X1994384Y446515D1*
X1999137Y451269D1*
X2001569Y456077D1*
Y465639D1*
X1999138Y470392D1*
X1994384Y475200D1*
X1989576Y477577D1*
X1982446D1*
Y465639D1*
X1977638Y493016D2*
Y514571D1*
X1975261Y521701D1*
X1972829Y524133D1*
X1968076Y526509D1*
X1960891D1*
X1956138Y524133D1*
X1953706Y521701D1*
X1951329Y514571D1*
Y493016D1*
X2001569D1*
X1951329Y541949D2*
X2001569D1*
X1951329Y571758D2*
X1953706Y566949D1*
X1958514Y562196D1*
X1963268Y559764D1*
X1970453Y557388D1*
X1982446D1*
X1989576Y559764D1*
X1994384Y562196D1*
X1999137Y566949D1*
X2001569Y571758D1*
Y581320D1*
X1999137Y586073D1*
X1994384Y590881D1*
X1989576Y593258D1*
X1982446Y595634D1*
X1970453D1*
X1963268Y593258D1*
X1958514Y590881D1*
X1953706Y586073D1*
X1951329Y581320D1*
Y571758D1*
X2089069Y480009D2*
X2038829Y460830D1*
X2089069Y441707D1*
X2072323Y448892D2*
Y472824D1*
X2055576Y540879D2*
Y538448D1*
X2058008Y536071D1*
X2062761Y533694D1*
X2074699Y528886D1*
X2081884Y524133D1*
X2086693Y519380D1*
X2089069Y514571D1*
Y505009D1*
X2086693Y500256D1*
X2084261Y497824D1*
X2079508Y495448D1*
X2074699D1*
X2069946Y497824D1*
X2067570Y500256D1*
X2058008Y516948D1*
X2055576Y519380D1*
X2050823Y521756D1*
X2046014D1*
X2041261Y519380D1*
X2038885Y514571D1*
X2041261Y509818D1*
X2046014Y507386D1*
X2050823D1*
X2058008Y509818D1*
X2065138Y514571D1*
X2081884Y526509D1*
X2086693Y531318D1*
X2089069Y536071D1*
Y540879D1*
X2038829Y556319D2*
X2089069D1*
Y577874D1*
X2086637Y585059D1*
X2084261Y587435D1*
X2079508Y589812D1*
X2072323D1*
X2067514Y587435D1*
X2065138Y585059D1*
X2062761Y577874D1*
X2060329Y585059D1*
X2057953Y587435D1*
X2053199Y589812D1*
X2048391D1*
X2043638Y587435D1*
X2041206Y585059D1*
X2038829Y577874D1*
Y556319D1*
X2062761D2*
Y577874D1*
X2925768Y477577D2*
X2921014Y475200D1*
X2916206Y470392D1*
X2913829Y465639D1*
Y456077D1*
X2916206Y451269D1*
X2921014Y446515D1*
X2925768Y444084D1*
X2932953Y441707D1*
X2944946D1*
X2952076Y444084D1*
X2956884Y446515D1*
X2961637Y451269D1*
X2964069Y456077D1*
Y465639D1*
X2961638Y470392D1*
X2956884Y475200D1*
X2952076Y477577D1*
X2944946D1*
Y465639D1*
X2940138Y493016D2*
Y514571D1*
X2937761Y521701D1*
X2935329Y524133D1*
X2930576Y526509D1*
X2923391D1*
X2918638Y524133D1*
X2916206Y521701D1*
X2913829Y514571D1*
Y493016D1*
X2964069D1*
X2913829Y541949D2*
X2964069D1*
X2913829Y571758D2*
X2916206Y566949D1*
X2921014Y562196D1*
X2925768Y559764D1*
X2932953Y557388D1*
X2944946D1*
X2952076Y559764D1*
X2956884Y562196D1*
X2961637Y566949D1*
X2964069Y571758D1*
Y581320D1*
X2961637Y586073D1*
X2956884Y590881D1*
X2952076Y593258D1*
X2944946Y595634D1*
X2932953D1*
X2925768Y593258D1*
X2921014Y590881D1*
X2916206Y586073D1*
X2913829Y581320D1*
Y571758D1*
X3013268Y477577D2*
X3008514Y475200D1*
X3003706Y470392D1*
X3001329Y465639D1*
Y456077D1*
X3003706Y451269D1*
X3008514Y446515D1*
X3013268Y444084D1*
X3020453Y441707D1*
X3032446D1*
X3039576Y444084D1*
X3044384Y446515D1*
X3049137Y451269D1*
X3051569Y456077D1*
Y465639D1*
X3049138Y470392D1*
X3044384Y475200D1*
X3039576Y477577D1*
X3018076Y538448D2*
Y536016D1*
X3020508Y533639D1*
X3025261Y531263D1*
X3037199Y526454D1*
X3044384Y521701D1*
X3049193Y516948D1*
X3051569Y512139D1*
Y502578D1*
X3049193Y497824D1*
X3046761Y495393D1*
X3042008Y493016D1*
X3037199D1*
X3032446Y495393D1*
X3030070Y497824D1*
X3020508Y514516D1*
X3018076Y516948D1*
X3013323Y519324D1*
X3008514D1*
X3003761Y516948D1*
X3001385Y512139D1*
X3003761Y507386D1*
X3008514Y504954D1*
X3013323D1*
X3020508Y507386D1*
X3027638Y512139D1*
X3044384Y524077D1*
X3049193Y528886D1*
X3051569Y533639D1*
Y538448D1*
X3001329Y553887D2*
X3051569D1*
Y570633D1*
X3049137Y577818D1*
X3044384Y582627D1*
X3039576Y585004D1*
X3032446Y587380D1*
X3020453D1*
X3013268Y585004D1*
X3008514Y582627D1*
X3003706Y577819D1*
X3001329Y570633D1*
Y553887D1*
X477638Y441707D2*
Y463262D1*
X475261Y470392D1*
X472829Y472824D1*
X468076Y475200D1*
X460891D1*
X456138Y472824D1*
X453706Y470392D1*
X451329Y463262D1*
Y441707D1*
X501569D1*
X451329Y490639D2*
X501569Y502633D1*
X451329Y514571D1*
X501569Y526509D1*
X451329Y538503D1*
X475261Y553942D2*
Y575442D1*
X472829Y582627D1*
X470453Y585059D1*
X465699Y587435D1*
X460891D1*
X456138Y585059D1*
X453706Y582627D1*
X451329Y575442D1*
Y553942D1*
X501569D1*
X475261Y570689D2*
X501569Y587435D1*
X451329Y651476D2*
X501569D1*
X451329Y700408D2*
X501569D1*
X451329Y666915D1*
X501569D1*
X1209952Y1448655D2*
Y1419970D1*
X1197959Y1441526D2*
X1221890Y1427155D1*
Y1441526D2*
X1197959Y1427155D1*
X1237330Y1459460D2*
Y1409220D1*
X1255201Y1447467D2*
Y1449844D1*
X1257577Y1454652D1*
X1259954Y1457029D1*
X1264762Y1459405D1*
X1274324D1*
X1279077Y1457029D1*
X1281454Y1454652D1*
X1283886Y1449844D1*
Y1445090D1*
X1281454Y1440282D1*
X1276701Y1433152D1*
X1252769Y1409220D1*
X1286262D1*
X1337571Y1447522D2*
X1335195Y1452275D1*
X1330386Y1457084D1*
X1325633Y1459460D1*
X1316072D1*
X1311263Y1457084D1*
X1306510Y1452275D1*
X1304078Y1447522D1*
X1301702Y1440337D1*
Y1428344D1*
X1304078Y1421214D1*
X1306510Y1416406D1*
X1311263Y1411652D1*
X1316072Y1409220D1*
X1325633D1*
X1330386Y1411652D1*
X1335195Y1416406D1*
X1337571Y1421214D1*
X1365004Y1448655D2*
Y1419970D1*
X1353011Y1441526D2*
X1376942Y1427155D1*
Y1441526D2*
X1353011Y1427155D1*
X1125803Y1361155D2*
Y1332470D1*
X1113809Y1354026D2*
X1137741Y1339655D1*
Y1354026D2*
X1113809Y1339655D1*
X1153180Y1345652D2*
X1174735D1*
X1181865Y1348029D1*
X1184297Y1350461D1*
X1186673Y1355214D1*
Y1362399D1*
X1184297Y1367152D1*
X1181865Y1369584D1*
X1174735Y1371960D1*
X1153180D1*
Y1321720D1*
X1202113Y1371960D2*
Y1336091D1*
X1204489Y1328906D1*
X1209298Y1324152D1*
X1216483Y1321720D1*
X1221236D1*
X1228421Y1324152D1*
X1233229Y1328906D1*
X1235606Y1336091D1*
Y1371960D1*
X1251045D2*
Y1321720D1*
X1279730D1*
X1295169Y1371960D2*
Y1321720D1*
X1323854D1*
X1339294Y1371960D2*
Y1336091D1*
X1341670Y1328906D1*
X1346479Y1324152D1*
X1353664Y1321720D1*
X1358417D1*
X1365602Y1324152D1*
X1370410Y1328906D1*
X1372787Y1336091D1*
Y1371960D1*
X1388226Y1345652D2*
X1409781D1*
X1416911Y1348029D1*
X1419343Y1350461D1*
X1421719Y1355214D1*
Y1362399D1*
X1419343Y1367152D1*
X1416911Y1369584D1*
X1409781Y1371960D1*
X1388226D1*
Y1321720D1*
X1449152Y1361155D2*
Y1332470D1*
X1437159Y1354026D2*
X1461090Y1339655D1*
Y1354026D2*
X1437159Y1339655D1*
X539279Y3346905D2*
X565532D1*
X551217Y3327782D1*
X558402D1*
X563155Y3325405D1*
X565532Y3323029D1*
X567964Y3315844D1*
Y3311091D1*
X565532Y3303906D1*
X560779Y3299097D1*
X553594Y3296720D1*
X546409D1*
X539279Y3299097D1*
X536902Y3301529D1*
X534471Y3306282D1*
X583403Y3346960D2*
X602526Y3296720D1*
X621650Y3346960D1*
X641897Y3346905D2*
X668150D1*
X653836Y3327782D1*
X661021D1*
X665774Y3325405D1*
X668150Y3323029D1*
X670582Y3315844D1*
Y3311091D1*
X668150Y3303906D1*
X663397Y3299097D1*
X656212Y3296720D1*
X649027D1*
X641897Y3299097D1*
X639521Y3301529D1*
X637089Y3306282D1*
X563211Y3235022D2*
X560834Y3239775D1*
X556026Y3244584D1*
X551272Y3246960D1*
X541711D1*
X536902Y3244584D1*
X532149Y3239775D1*
X529717Y3235022D1*
X527341Y3227837D1*
Y3215844D1*
X529717Y3208714D1*
X532149Y3203906D1*
X536902Y3199152D1*
X541711Y3196720D1*
X551272D1*
X556026Y3199152D1*
X560834Y3203906D1*
X563211Y3208714D1*
X593020Y3246960D2*
X588211Y3244584D1*
X583458Y3239775D1*
X581026Y3235022D1*
X578650Y3227837D1*
Y3215844D1*
X581026Y3208714D1*
X583458Y3203906D1*
X588211Y3199152D1*
X593020Y3196720D1*
X602582D1*
X607335Y3199152D1*
X612143Y3203906D1*
X614520Y3208714D1*
X616896Y3215844D1*
Y3227837D1*
X614520Y3235022D1*
X612143Y3239775D1*
X607335Y3244584D1*
X602582Y3246960D1*
X593020D1*
X670582Y3196720D2*
Y3246960D1*
X651459Y3196720D1*
X632336Y3246960D1*
Y3196720D1*
X603834Y3139775D2*
X599081Y3144584D1*
X591896Y3146960D1*
X582334D1*
X575149Y3144584D1*
X570341Y3139775D1*
Y3135022D1*
X572773Y3130214D1*
X575149Y3127837D1*
X579902Y3125461D1*
X594272Y3120652D1*
X599081Y3118276D1*
X601457Y3115844D1*
X603834Y3111091D1*
Y3103906D1*
X599081Y3099152D1*
X591896Y3096720D1*
X582334D1*
X575149Y3099152D1*
X570341Y3103906D1*
X619273Y3146960D2*
Y3096720D1*
X670582Y3135022D2*
X668206Y3139775D1*
X663397Y3144584D1*
X658644Y3146960D1*
X649083D1*
X644274Y3144584D1*
X639521Y3139775D1*
X637089Y3135022D1*
X634712Y3127837D1*
Y3115844D1*
X637089Y3108714D1*
X639521Y3103906D1*
X644274Y3099152D1*
X649083Y3096720D1*
X658644D1*
X663397Y3099152D1*
X668206Y3103906D1*
X670582Y3108714D1*
Y3115844D1*
X658644D1*
X823334Y2652275D2*
X818581Y2657084D1*
X811396Y2659460D1*
X801834D1*
X794649Y2657084D1*
X789841Y2652275D1*
Y2647522D1*
X792273Y2642714D1*
X794649Y2640337D1*
X799402Y2637961D1*
X813772Y2633152D1*
X818581Y2630776D1*
X820957Y2628344D1*
X823334Y2623591D1*
Y2616406D1*
X818581Y2611652D1*
X811396Y2609220D1*
X801834D1*
X794649Y2611652D1*
X789841Y2616406D1*
X869835Y2659460D2*
X838773D1*
Y2609220D1*
X869835D1*
X838773Y2635529D2*
X857896D1*
X885274D2*
X906774D1*
X913959Y2637961D1*
X916391Y2640337D1*
X918767Y2645090D1*
Y2649899D1*
X916391Y2654652D1*
X913959Y2657084D1*
X906774Y2659460D1*
X885274D1*
Y2609220D1*
X902021Y2635529D2*
X918767Y2609220D1*
X934207Y2659460D2*
Y2609220D1*
X987948D2*
X968769Y2659460D1*
X949646Y2609220D1*
X956831Y2625967D2*
X980763D1*
X1003387Y2659460D2*
Y2609220D1*
X1032072D1*
X1049943Y2642714D2*
X1047511Y2640282D1*
X1049943Y2637905D1*
X1052319Y2640282D1*
X1049943Y2642714D1*
Y2614029D2*
X1047511Y2611597D1*
X1049943Y2609220D1*
X1052319Y2611597D1*
X1049943Y2614029D1*
X1269649Y3671905D2*
X1295902D1*
X1281587Y3652782D1*
X1288772D1*
X1293526Y3650405D1*
X1295902Y3648029D1*
X1298334Y3640844D1*
Y3636091D1*
X1295902Y3628906D1*
X1291149Y3624097D1*
X1283964Y3621720D1*
X1276779D1*
X1269649Y3624097D1*
X1267273Y3626529D1*
X1264841Y3631282D1*
X1313773Y3671960D2*
X1332896Y3621720D1*
X1352020Y3671960D1*
X1372267Y3671905D2*
X1398520D1*
X1384206Y3652782D1*
X1391391D1*
X1396144Y3650405D1*
X1398520Y3648029D1*
X1400952Y3640844D1*
Y3636091D1*
X1398520Y3628906D1*
X1393767Y3624097D1*
X1386582Y3621720D1*
X1379397D1*
X1372267Y3624097D1*
X1369891Y3626529D1*
X1367459Y3631282D1*
X1300711Y3560022D2*
X1298334Y3564775D1*
X1293526Y3569584D1*
X1288772Y3571960D1*
X1279211D1*
X1274402Y3569584D1*
X1269649Y3564775D1*
X1267217Y3560022D1*
X1264841Y3552837D1*
Y3540844D1*
X1267217Y3533714D1*
X1269649Y3528906D1*
X1274402Y3524152D1*
X1279211Y3521720D1*
X1288772D1*
X1293526Y3524152D1*
X1298334Y3528906D1*
X1300711Y3533714D1*
X1330520Y3571960D2*
X1325711Y3569584D1*
X1320958Y3564775D1*
X1318526Y3560022D1*
X1316150Y3552837D1*
Y3540844D1*
X1318526Y3533714D1*
X1320958Y3528906D1*
X1325711Y3524152D1*
X1330520Y3521720D1*
X1340082D1*
X1344835Y3524152D1*
X1349643Y3528906D1*
X1352020Y3533714D1*
X1354396Y3540844D1*
Y3552837D1*
X1352020Y3560022D1*
X1349643Y3564775D1*
X1344835Y3569584D1*
X1340082Y3571960D1*
X1330520D1*
X1408082Y3521720D2*
Y3571960D1*
X1388959Y3521720D1*
X1369836Y3571960D1*
Y3521720D1*
X1298334Y3464775D2*
X1293581Y3469584D1*
X1286396Y3471960D1*
X1276834D1*
X1269649Y3469584D1*
X1264841Y3464775D1*
Y3460022D1*
X1267273Y3455214D1*
X1269649Y3452837D1*
X1274402Y3450461D1*
X1288772Y3445652D1*
X1293581Y3443276D1*
X1295957Y3440844D1*
X1298334Y3436091D1*
Y3428906D1*
X1293581Y3424152D1*
X1286396Y3421720D1*
X1276834D1*
X1269649Y3424152D1*
X1264841Y3428906D1*
X1313773Y3471960D2*
Y3421720D1*
X1365082Y3460022D2*
X1362706Y3464775D1*
X1357897Y3469584D1*
X1353144Y3471960D1*
X1343583D1*
X1338774Y3469584D1*
X1334021Y3464775D1*
X1331589Y3460022D1*
X1329212Y3452837D1*
Y3440844D1*
X1331589Y3433714D1*
X1334021Y3428906D1*
X1338774Y3424152D1*
X1343583Y3421720D1*
X1353144D1*
X1357897Y3424152D1*
X1362706Y3428906D1*
X1365082Y3433714D1*
Y3440844D1*
X1353144D1*
X3170009Y694068D2*
D88*
X3168583Y696920D1*
X3165698Y699805D1*
X3162846Y701231D1*
X3157109D1*
X3154224Y699805D1*
X3151372Y696920D1*
X3149913Y694068D1*
X3148487Y689757D1*
Y682561D1*
X3149913Y678283D1*
X3151372Y675398D1*
X3154224Y672546D1*
X3157109Y671087D1*
X3162846D1*
X3165698Y672546D1*
X3168583Y675398D1*
X3170009Y678283D1*
X3187895Y701231D2*
X3185009Y699805D1*
X3182158Y696920D1*
X3180698Y694068D1*
X3179273Y689757D1*
Y682561D1*
X3180698Y678283D1*
X3182158Y675398D1*
X3185009Y672546D1*
X3187895Y671087D1*
X3193632D1*
X3196483Y672546D1*
X3199369Y675398D1*
X3200794Y678283D1*
X3202220Y682561D1*
Y689757D1*
X3200794Y694068D1*
X3199369Y696920D1*
X3196483Y699805D1*
X3193632Y701231D1*
X3187895D1*
X3234432Y671087D2*
Y701231D1*
X3222958Y671087D1*
X3211484Y701231D1*
Y671087D1*
X3301372Y701198D2*
X3317124D1*
X3308535Y689724D1*
X3312846D1*
X3315698Y688298D1*
X3317124Y686872D1*
X3318583Y682561D1*
Y679709D1*
X3317124Y675398D1*
X3314272Y672513D1*
X3309961Y671087D1*
X3305650D1*
X3301372Y672513D1*
X3299946Y673972D1*
X3298487Y676824D1*
X3327847Y701231D2*
X3339321Y671087D1*
X3350794Y701231D1*
X3362943Y701198D2*
X3378695D1*
X3370106Y689724D1*
X3374417D1*
X3377269Y688298D1*
X3378695Y686872D1*
X3380154Y682561D1*
Y679709D1*
X3378695Y675398D1*
X3375843Y672513D1*
X3371532Y671087D1*
X3367221D1*
X3362943Y672513D1*
X3361517Y673972D1*
X3360058Y676824D1*
X3501258Y694068D2*
X3499832Y696920D1*
X3496947Y699805D1*
X3494095Y701231D1*
X3488358D1*
X3485473Y699805D1*
X3482621Y696920D1*
X3481162Y694068D1*
X3479736Y689757D1*
Y682561D1*
X3481162Y678283D1*
X3482621Y675398D1*
X3485473Y672546D1*
X3488358Y671087D1*
X3494095D1*
X3496947Y672546D1*
X3499832Y675398D1*
X3501258Y678283D1*
X3635987Y701231D2*
Y671087D1*
X3646035D1*
X3650346Y672546D1*
X3653231Y675398D1*
X3654657Y678283D1*
X3656083Y682561D1*
Y689757D1*
X3654657Y694068D1*
X3653231Y696920D1*
X3650346Y699805D1*
X3646035Y701231D1*
X3635987D1*
X2220009Y694068D2*
X2218583Y696920D1*
X2215698Y699805D1*
X2212846Y701231D1*
X2207109D1*
X2204224Y699805D1*
X2201372Y696920D1*
X2199913Y694068D1*
X2198487Y689757D1*
Y682561D1*
X2199913Y678283D1*
X2201372Y675398D1*
X2204224Y672546D1*
X2207109Y671087D1*
X2212846D1*
X2215698Y672546D1*
X2218583Y675398D1*
X2220009Y678283D1*
X2237895Y701231D2*
X2235009Y699805D1*
X2232158Y696920D1*
X2230698Y694068D1*
X2229273Y689757D1*
Y682561D1*
X2230698Y678283D1*
X2232158Y675398D1*
X2235009Y672546D1*
X2237895Y671087D1*
X2243632D1*
X2246483Y672546D1*
X2249369Y675398D1*
X2250794Y678283D1*
X2252220Y682561D1*
Y689757D1*
X2250794Y694068D1*
X2249369Y696920D1*
X2246483Y699805D1*
X2243632Y701231D1*
X2237895D1*
X2284432Y671087D2*
Y701231D1*
X2272958Y671087D1*
X2261484Y701231D1*
Y671087D1*
X2351372Y701198D2*
X2367124D1*
X2358535Y689724D1*
X2362846D1*
X2365698Y688298D1*
X2367124Y686872D1*
X2368583Y682561D1*
Y679709D1*
X2367124Y675398D1*
X2364272Y672513D1*
X2359961Y671087D1*
X2355650D1*
X2351372Y672513D1*
X2349946Y673972D1*
X2348487Y676824D1*
X2377847Y701231D2*
X2389321Y671087D1*
X2400794Y701231D1*
X2412943Y701198D2*
X2428695D1*
X2420106Y689724D1*
X2424417D1*
X2427269Y688298D1*
X2428695Y686872D1*
X2430154Y682561D1*
Y679709D1*
X2428695Y675398D1*
X2425843Y672513D1*
X2421532Y671087D1*
X2417221D1*
X2412943Y672513D1*
X2411517Y673972D1*
X2410058Y676824D1*
X2552717Y671087D2*
X2541210Y701231D1*
X2529736Y671087D1*
X2534047Y681135D2*
X2548406D1*
X2685987Y701231D2*
Y671087D1*
X2698920D1*
X2703231Y672546D1*
X2704657Y673972D1*
X2706083Y676824D1*
Y681135D1*
X2704657Y684020D1*
X2703231Y685446D1*
X2698920Y686872D1*
X2703231Y688331D1*
X2704657Y689757D1*
X2706083Y692609D1*
Y695494D1*
X2704657Y698346D1*
X2703231Y699805D1*
X2698920Y701231D1*
X2685987D1*
Y686872D2*
X2698920D1*
X1320009Y694068D2*
X1318583Y696920D1*
X1315698Y699805D1*
X1312846Y701231D1*
X1307109D1*
X1304224Y699805D1*
X1301372Y696920D1*
X1299913Y694068D1*
X1298487Y689757D1*
Y682561D1*
X1299913Y678283D1*
X1301372Y675398D1*
X1304224Y672546D1*
X1307109Y671087D1*
X1312846D1*
X1315698Y672546D1*
X1318583Y675398D1*
X1320009Y678283D1*
X1337895Y701231D2*
X1335009Y699805D1*
X1332158Y696920D1*
X1330698Y694068D1*
X1329273Y689757D1*
Y682561D1*
X1330698Y678283D1*
X1332158Y675398D1*
X1335009Y672546D1*
X1337895Y671087D1*
X1343632D1*
X1346483Y672546D1*
X1349369Y675398D1*
X1350794Y678283D1*
X1352220Y682561D1*
Y689757D1*
X1350794Y694068D1*
X1349369Y696920D1*
X1346483Y699805D1*
X1343632Y701231D1*
X1337895D1*
X1384432Y671087D2*
Y701231D1*
X1372958Y671087D1*
X1361484Y701231D1*
Y671087D1*
X1451372Y701198D2*
X1467124D1*
X1458535Y689724D1*
X1462846D1*
X1465698Y688298D1*
X1467124Y686872D1*
X1468583Y682561D1*
Y679709D1*
X1467124Y675398D1*
X1464272Y672513D1*
X1459961Y671087D1*
X1455650D1*
X1451372Y672513D1*
X1449946Y673972D1*
X1448487Y676824D1*
X1477847Y701231D2*
X1489321Y671087D1*
X1500794Y701231D1*
X1512943Y701198D2*
X1528695D1*
X1520106Y689724D1*
X1524417D1*
X1527269Y688298D1*
X1528695Y686872D1*
X1530154Y682561D1*
Y679709D1*
X1528695Y675398D1*
X1525843Y672513D1*
X1521532Y671087D1*
X1517221D1*
X1512943Y672513D1*
X1511517Y673972D1*
X1510058Y676824D1*
X1604736Y695461D2*
X1607621Y696920D1*
X1611932Y701198D1*
Y671087D1*
X1621196Y686142D2*
X1637777D1*
X1647040Y701231D2*
X1654237Y671087D1*
X1661399Y701231D1*
X1668562Y671087D1*
X1675758Y701231D1*
X1801946Y1632237D2*
D87*
Y1615490D1*
X1878439D1*
Y1632237D1*
X1865285Y1685978D2*
X1815045Y1666800D1*
X1865285Y1647676D1*
X1848538Y1654861D2*
Y1678793D1*
X1831791Y1746849D2*
Y1744417D1*
X1834223Y1742040D1*
X1838976Y1739664D1*
X1850914Y1734855D1*
X1858100Y1730102D1*
X1862908Y1725349D1*
X1865285Y1720540D1*
Y1710979D1*
X1862908Y1706226D1*
X1860476Y1703794D1*
X1855723Y1701417D1*
X1850914D1*
X1846161Y1703794D1*
X1843785Y1706226D1*
X1834223Y1722917D1*
X1831791Y1725349D1*
X1827038Y1727726D1*
X1822230D1*
X1817476Y1725349D1*
X1815100Y1720541D1*
X1817476Y1715787D1*
X1822230Y1713355D1*
X1827038D1*
X1834223Y1715787D1*
X1841353Y1720540D1*
X1858100Y1732479D1*
X1862908Y1737287D1*
X1865285Y1742040D1*
Y1746849D1*
X1815045Y1762288D2*
X1865285D1*
Y1783843D1*
X1862853Y1791028D1*
X1860476Y1793405D1*
X1855723Y1795781D1*
X1848538D1*
X1843729Y1793405D1*
X1841353Y1791028D1*
X1838976Y1783843D1*
X1836544Y1791028D1*
X1834168Y1793405D1*
X1829415Y1795781D1*
X1824606D1*
X1819853Y1793405D1*
X1817421Y1791028D1*
X1815045Y1783843D1*
Y1762288D1*
X1838976D2*
Y1783843D1*
X1801946Y1811221D2*
Y1827967D1*
X1878439D1*
Y1811221D1*
X1681119Y1256870D2*
Y1228186D1*
X1669125Y1249741D2*
X1693057Y1235371D1*
Y1249741D2*
X1669125Y1235371D1*
X1744366Y1255737D2*
X1741990Y1260491D1*
X1737181Y1265299D1*
X1732428Y1267676D1*
X1722866D1*
X1718058Y1265299D1*
X1713305Y1260491D1*
X1710873Y1255737D1*
X1708496Y1248552D1*
Y1236559D1*
X1710873Y1229429D1*
X1713305Y1224621D1*
X1718058Y1219868D1*
X1722866Y1217436D1*
X1732428D1*
X1737181Y1219868D1*
X1741990Y1224621D1*
X1744366Y1229429D1*
Y1236559D1*
X1732428D1*
X1759806Y1241367D2*
X1781361D1*
X1788490Y1243744D1*
X1790922Y1246176D1*
X1793299Y1250929D1*
Y1258114D1*
X1790922Y1262867D1*
X1788490Y1265299D1*
X1781361Y1267676D1*
X1759806D1*
Y1217436D1*
X1808738Y1267676D2*
Y1217436D1*
X1838547Y1267676D2*
X1833739Y1265299D1*
X1828986Y1260491D1*
X1826554Y1255737D1*
X1824177Y1248552D1*
Y1236559D1*
X1826554Y1229429D1*
X1828986Y1224621D1*
X1833739Y1219868D1*
X1838547Y1217436D1*
X1848109D1*
X1852862Y1219868D1*
X1857671Y1224621D1*
X1860047Y1229429D1*
X1862424Y1236559D1*
Y1248552D1*
X1860047Y1255737D1*
X1857671Y1260491D1*
X1852862Y1265299D1*
X1848109Y1267676D1*
X1838547D1*
X1926464Y1241367D2*
X1948019D1*
X1955149Y1243744D1*
X1957581Y1246176D1*
X1959957Y1250929D1*
Y1258114D1*
X1957581Y1262867D1*
X1955149Y1265299D1*
X1948019Y1267676D1*
X1926464D1*
Y1217436D1*
X1989767Y1267676D2*
X1984958Y1265299D1*
X1980205Y1260491D1*
X1977773Y1255737D1*
X1975397Y1248552D1*
Y1236559D1*
X1977773Y1229429D1*
X1980205Y1224621D1*
X1984958Y1219868D1*
X1989767Y1217436D1*
X1999328D1*
X2004082Y1219868D1*
X2008890Y1224621D1*
X2011267Y1229429D1*
X2013643Y1236559D1*
Y1248552D1*
X2011267Y1255737D1*
X2008890Y1260491D1*
X2004082Y1265299D1*
X1999328Y1267676D1*
X1989767D1*
X2029082Y1243744D2*
X2050582D1*
X2057767Y1246176D1*
X2060199Y1248552D1*
X2062576Y1253306D1*
Y1258114D1*
X2060199Y1262867D1*
X2057767Y1265299D1*
X2050582Y1267676D1*
X2029082D1*
Y1217436D1*
X2045829Y1243744D2*
X2062576Y1217436D1*
X2094762Y1267676D2*
Y1217436D1*
X2078015Y1267676D2*
X2111508D1*
X2211419Y1255737D2*
X2209042Y1260491D1*
X2204233Y1265299D1*
X2199480Y1267676D1*
X2189919D1*
X2185110Y1265299D1*
X2180357Y1260491D1*
X2177925Y1255737D1*
X2175549Y1248552D1*
Y1236559D1*
X2177925Y1229429D1*
X2180357Y1224621D1*
X2185110Y1219868D1*
X2189919Y1217436D1*
X2199480D1*
X2204233Y1219868D1*
X2209042Y1224621D1*
X2211419Y1229429D1*
X2241228Y1267676D2*
X2236419Y1265299D1*
X2231666Y1260491D1*
X2229234Y1255737D1*
X2226858Y1248552D1*
Y1236559D1*
X2229234Y1229429D1*
X2231666Y1224621D1*
X2236419Y1219868D1*
X2241228Y1217436D1*
X2250789D1*
X2255543Y1219868D1*
X2260351Y1224621D1*
X2262728Y1229429D1*
X2265104Y1236559D1*
Y1248552D1*
X2262728Y1255737D1*
X2260351Y1260491D1*
X2255543Y1265299D1*
X2250789Y1267676D1*
X2241228D1*
X2314037D2*
Y1217436D1*
X2280544Y1267676D1*
Y1217436D1*
X2360593Y1267676D2*
X2329476D1*
Y1217436D1*
Y1243744D2*
X2348599D1*
X2376032Y1267676D2*
Y1217436D1*
X2427341Y1255737D2*
X2424965Y1260491D1*
X2420156Y1265299D1*
X2415403Y1267676D1*
X2405841D1*
X2401033Y1265299D1*
X2396280Y1260491D1*
X2393848Y1255737D1*
X2391471Y1248552D1*
Y1236559D1*
X2393848Y1229429D1*
X2396280Y1224621D1*
X2401033Y1219868D1*
X2405841Y1217436D1*
X2415403D1*
X2420156Y1219868D1*
X2424965Y1224621D1*
X2427341Y1229429D1*
Y1236559D1*
X2415403D1*
X2454774Y1256870D2*
Y1228186D1*
X2442781Y1249741D2*
X2466712Y1235371D1*
Y1249741D2*
X2442781Y1235371D1*
X1765285Y1653792D2*
X1715045Y1634614D1*
X1765285Y1615490D1*
X1748538Y1622675D2*
Y1646607D1*
X1715045Y1669231D2*
X1765285D1*
Y1685978D1*
X1762853Y1693163D1*
X1758100Y1697971D1*
X1753291Y1700348D1*
X1746161Y1702725D1*
X1734168D1*
X1726983Y1700348D1*
X1722230Y1697971D1*
X1717421Y1693163D1*
X1715045Y1685978D1*
Y1669231D1*
X1726983Y1754034D2*
X1722230Y1751657D1*
X1717421Y1746849D1*
X1715045Y1742096D1*
Y1732534D1*
X1717421Y1727726D1*
X1722230Y1722972D1*
X1726983Y1720540D1*
X1734168Y1718164D1*
X1746161D1*
X1753291Y1720540D1*
X1758100Y1722972D1*
X1762853Y1727726D1*
X1765285Y1732534D1*
Y1742096D1*
X1762853Y1746849D1*
X1758100Y1751657D1*
X1753291Y1754034D1*
X1915045Y1615490D2*
X1965285D1*
X1927038Y1633361D2*
X1924661D1*
X1919853Y1635738D1*
X1917476Y1638115D1*
X1915100Y1642923D1*
Y1652485D1*
X1917476Y1657238D1*
X1919853Y1659614D1*
X1924661Y1662046D1*
X1929415D1*
X1934223Y1659614D1*
X1941353Y1654861D1*
X1965285Y1630930D1*
Y1664423D1*
X1926983Y1715732D2*
X1922230Y1713355D1*
X1917421Y1708547D1*
X1915045Y1703794D1*
Y1694232D1*
X1917421Y1689424D1*
X1922230Y1684671D1*
X1926983Y1682239D1*
X1934168Y1679862D1*
X1946161D1*
X1953291Y1682239D1*
X1958100Y1684671D1*
X1962853Y1689424D1*
X1965285Y1694232D1*
Y1703794D1*
X1962853Y1708547D1*
X1958100Y1713355D1*
X1953291Y1715732D1*
X2315285Y1653792D2*
X2265045Y1634614D1*
X2315285Y1615490D1*
X2298538Y1622675D2*
Y1646607D1*
X2265045Y1669231D2*
X2315285D1*
Y1685978D1*
X2312853Y1693163D1*
X2308100Y1697971D1*
X2303291Y1700348D1*
X2296161Y1702725D1*
X2284168D1*
X2276983Y1700348D1*
X2272230Y1697971D1*
X2267421Y1693163D1*
X2265045Y1685978D1*
Y1669231D1*
X2276983Y1754034D2*
X2272230Y1751657D1*
X2267421Y1746849D1*
X2265045Y1742096D1*
Y1732534D1*
X2267421Y1727726D1*
X2272230Y1722972D1*
X2276983Y1720540D1*
X2284168Y1718164D1*
X2296161D1*
X2303291Y1720540D1*
X2308100Y1722972D1*
X2312853Y1727726D1*
X2315285Y1732534D1*
Y1742096D1*
X2312853Y1746849D1*
X2308100Y1751657D1*
X2303291Y1754034D1*
X2465045Y1615490D2*
X2500914D1*
X2508099Y1617867D1*
X2512853Y1622675D1*
X2515285Y1629860D1*
Y1634614D1*
X2512853Y1641799D1*
X2508100Y1646607D1*
X2500915Y1648984D1*
X2465045D1*
X2515285Y1702725D2*
X2465045Y1683546D1*
X2515285Y1664423D1*
X2498538Y1671608D2*
Y1695540D1*
X2488976Y1718164D2*
Y1739664D1*
X2486544Y1746849D1*
X2484168Y1749281D1*
X2479415Y1751657D1*
X2474606D1*
X2469853Y1749281D1*
X2467421Y1746849D1*
X2465045Y1739664D1*
Y1718164D1*
X2515285D1*
X2488976Y1734911D2*
X2515285Y1751657D1*
X2465045Y1783843D2*
X2515285D1*
X2465045Y1767096D2*
Y1800590D1*
X2351946Y1632237D2*
Y1615490D1*
X2428439D1*
Y1632237D1*
X2376983Y1683546D2*
X2372230Y1681170D1*
X2367421Y1676361D1*
X2365045Y1671608D1*
Y1662046D1*
X2367421Y1657238D1*
X2372230Y1652485D1*
X2376983Y1650053D1*
X2384168Y1647676D1*
X2396161D1*
X2403291Y1650053D1*
X2408100Y1652485D1*
X2412853Y1657238D1*
X2415285Y1662046D1*
Y1671608D1*
X2412853Y1676361D1*
X2408100Y1681170D1*
X2403291Y1683546D1*
X2381791Y1744417D2*
Y1741985D1*
X2384223Y1739608D1*
X2388976Y1737232D1*
X2400914Y1732423D1*
X2408100Y1727670D1*
X2412908Y1722917D1*
X2415285Y1718109D1*
Y1708547D1*
X2412908Y1703794D1*
X2410476Y1701362D1*
X2405723Y1698985D1*
X2400914D1*
X2396161Y1701362D1*
X2393785Y1703794D1*
X2384223Y1720485D1*
X2381791Y1722917D1*
X2377038Y1725294D1*
X2372230D1*
X2367476Y1722917D1*
X2365100Y1718109D1*
X2367476Y1713355D1*
X2372230Y1710924D1*
X2377038D1*
X2384223Y1713355D1*
X2391353Y1718109D1*
X2408100Y1730047D1*
X2412908Y1734855D1*
X2415285Y1739608D1*
Y1744417D1*
X2365045Y1759856D2*
X2415285D1*
Y1776603D1*
X2412853Y1783788D1*
X2408100Y1788596D1*
X2403291Y1790973D1*
X2396161Y1793349D1*
X2384168D1*
X2376983Y1790973D1*
X2372230Y1788596D1*
X2367421Y1783788D1*
X2365045Y1776603D1*
Y1759856D1*
X2351946Y1808789D2*
Y1825535D1*
X2428439D1*
Y1808789D1*
X789841Y2535529D2*
X811341D1*
X818526Y2537961D1*
X820957Y2540337D1*
X823334Y2545090D1*
Y2549899D1*
X820957Y2554652D1*
X818526Y2557084D1*
X811341Y2559460D1*
X789841D1*
Y2509220D1*
X806587Y2535529D2*
X823334Y2509220D1*
X874643Y2547522D2*
X872267Y2552275D1*
X867458Y2557084D1*
X862705Y2559460D1*
X853143D1*
X848335Y2557084D1*
X843582Y2552275D1*
X841150Y2547522D1*
X838773Y2540337D1*
Y2528344D1*
X841150Y2521214D1*
X843582Y2516406D1*
X848335Y2511652D1*
X853143Y2509220D1*
X862705D1*
X867458Y2511652D1*
X872267Y2516406D1*
X874643Y2521214D1*
X925952Y2547522D2*
X923576Y2552275D1*
X918767Y2557084D1*
X914014Y2559460D1*
X904452D1*
X899644Y2557084D1*
X894891Y2552275D1*
X892459Y2547522D1*
X890082Y2540337D1*
Y2528344D1*
X892459Y2521214D1*
X894891Y2516406D1*
X899644Y2511652D1*
X904452Y2509220D1*
X914014D1*
X918767Y2511652D1*
X923576Y2516406D1*
X925952Y2521214D1*
X979638Y2509220D2*
Y2559460D1*
X960515Y2509220D1*
X941392Y2559460D1*
Y2509220D1*
X789841Y2442714D2*
X804211Y2409220D1*
X818526Y2442714D1*
X833965Y2449844D2*
X838773Y2452275D1*
X845958Y2459405D1*
Y2409220D1*
X863774Y2414029D2*
X861398Y2411597D1*
X863774Y2409220D1*
X866206Y2411597D1*
X863774Y2414029D1*
X896015Y2459405D2*
X888830Y2457029D1*
X884022Y2449844D1*
X881645Y2437905D1*
Y2430720D1*
X884022Y2418782D1*
X888830Y2411597D1*
X896015Y2409220D1*
X900768D1*
X907954Y2411597D1*
X912707Y2418782D1*
X915139Y2430720D1*
Y2437905D1*
X912707Y2449844D1*
X907954Y2457029D1*
X900768Y2459405D1*
X896015D1*
X912707Y2449844D2*
X884022Y2418782D1*
X993234Y2171026D2*
D88*
Y2183926D1*
X991775Y2188237D1*
X990349Y2189696D1*
X987497Y2191122D1*
X984612D1*
X981760Y2189696D1*
X980301Y2188237D1*
X978875Y2183926D1*
Y2171026D1*
X1009019D1*
X993234Y2181074D2*
X1009019Y2191122D1*
X983186Y2220481D2*
X980301Y2217630D1*
X978875Y2213319D1*
Y2207582D1*
X980301Y2203271D1*
X983186Y2200386D1*
X986038D1*
X988923Y2201845D1*
X990349Y2203271D1*
X991775Y2206122D1*
X994660Y2214744D1*
X996086Y2217630D1*
X997545Y2219056D1*
X1000397Y2220481D1*
X1004708D1*
X1007560Y2217630D1*
X1009019Y2213319D1*
Y2207582D1*
X1007560Y2203271D1*
X1004708Y2200385D1*
X978875Y2239793D2*
X1009019D1*
X978875Y2229745D2*
Y2249841D1*
X1078908Y2173911D2*
Y2189663D1*
X1090382Y2181074D1*
Y2185385D1*
X1091808Y2188237D1*
X1093234Y2189663D1*
X1097545Y2191122D1*
X1100397D1*
X1104708Y2189663D1*
X1107593Y2186811D1*
X1109019Y2182500D1*
Y2178189D1*
X1107593Y2173911D1*
X1106134Y2172485D1*
X1103282Y2171026D1*
X1078875Y2200386D2*
X1109019Y2211859D1*
X1078875Y2223333D1*
X1078908Y2235482D2*
Y2251234D1*
X1090382Y2242645D1*
Y2246956D1*
X1091808Y2249808D1*
X1093234Y2251234D1*
X1097545Y2252693D1*
X1100397D1*
X1104708Y2251234D1*
X1107593Y2248382D1*
X1109019Y2244071D1*
Y2239760D1*
X1107593Y2235482D1*
X1106134Y2234056D1*
X1103282Y2232597D1*
X1209019Y2193974D2*
X1178875D1*
X1209019Y2182500D1*
X1178875Y2171026D1*
X1209019D1*
X1178875Y2203237D2*
X1209019D1*
Y2213285D1*
X1207560Y2217596D1*
X1204708Y2220481D1*
X1201823Y2221907D1*
X1197545Y2223333D1*
X1190349D1*
X1186038Y2221907D1*
X1183186Y2220481D1*
X1180301Y2217596D1*
X1178875Y2213285D1*
Y2203237D1*
X1286038Y2192548D2*
X1283186Y2191122D1*
X1280301Y2188237D1*
X1278875Y2185385D1*
Y2179648D1*
X1280301Y2176763D1*
X1283186Y2173911D1*
X1286038Y2172452D1*
X1290349Y2171026D1*
X1297545D1*
X1301823Y2172452D1*
X1304708Y2173911D1*
X1307560Y2176763D1*
X1309019Y2179648D1*
Y2185385D1*
X1307560Y2188237D1*
X1304708Y2191122D1*
X1301823Y2192548D1*
X1297545D1*
Y2185385D1*
X1278875Y2221907D2*
X1309019D1*
X1278875Y2201811D1*
X1309019D1*
X1278875Y2231171D2*
X1309019D1*
Y2241219D1*
X1307560Y2245530D1*
X1304708Y2248415D1*
X1301823Y2249841D1*
X1297545Y2251267D1*
X1290349D1*
X1286038Y2249841D1*
X1283186Y2248415D1*
X1280301Y2245530D1*
X1278875Y2241219D1*
Y2231171D1*
X1409019Y2194007D2*
X1378875Y2182500D1*
X1409019Y2171026D1*
X1398971Y2175337D2*
Y2189696D1*
X1378908Y2211893D2*
X1380334Y2207582D1*
X1384645Y2204697D1*
X1391808Y2203271D1*
X1396119D1*
X1403282Y2204696D1*
X1407593Y2207582D1*
X1409019Y2211893D1*
Y2214744D1*
X1407593Y2219055D1*
X1403282Y2221907D1*
X1396119Y2223367D1*
X1391808D1*
X1384645Y2221907D1*
X1380334Y2219056D1*
X1378908Y2214745D1*
Y2211893D1*
X1384645Y2221907D2*
X1403282Y2204696D1*
X1509019Y2194007D2*
X1478875Y2182500D1*
X1509019Y2171026D1*
X1498971Y2175337D2*
Y2189696D1*
X1484645Y2203271D2*
X1483186Y2206156D1*
X1478908Y2210467D1*
X1509019D1*
X1609019Y2194007D2*
X1578875Y2182500D1*
X1609019Y2171026D1*
X1598971Y2175337D2*
Y2189696D1*
X1586071Y2204730D2*
X1584645D1*
X1581760Y2206156D1*
X1580334Y2207582D1*
X1578908Y2210467D1*
Y2216204D1*
X1580334Y2219056D1*
X1581760Y2220481D1*
X1584645Y2221941D1*
X1587497D1*
X1590382Y2220481D1*
X1594660Y2217630D1*
X1609019Y2203271D1*
Y2223367D1*
X1709019Y2194007D2*
X1678875Y2182500D1*
X1709019Y2171026D1*
X1698971Y2175337D2*
Y2189696D1*
X1678908Y2206156D2*
Y2221907D1*
X1690382Y2213319D1*
Y2217630D1*
X1691808Y2220481D1*
X1693234Y2221907D1*
X1697545Y2223367D1*
X1700397D1*
X1704708Y2221907D1*
X1707593Y2219055D1*
X1709019Y2214744D1*
Y2210433D1*
X1707593Y2206156D1*
X1706134Y2204730D1*
X1703282Y2203271D1*
X1809019Y2194007D2*
X1778875Y2182500D1*
X1809019Y2171026D1*
X1798971Y2175337D2*
Y2189696D1*
X1809019Y2217630D2*
X1778908D1*
X1798971Y2203271D1*
Y2224792D1*
X1909019Y2194007D2*
X1878875Y2182500D1*
X1909019Y2171026D1*
X1898971Y2175337D2*
Y2189696D1*
X1878908Y2220481D2*
Y2206156D1*
X1891808Y2204730D1*
X1890382Y2206156D1*
X1888923Y2210467D1*
Y2214745D1*
X1890382Y2219056D1*
X1893234Y2221941D1*
X1897545Y2223367D1*
X1900397D1*
X1904708Y2221941D1*
X1907593Y2219055D1*
X1909019Y2214744D1*
Y2210467D1*
X1907593Y2206156D1*
X1906134Y2204730D1*
X1903282Y2203271D1*
X1983186Y2191122D2*
X1980301Y2188270D1*
X1978875Y2183959D1*
Y2178222D1*
X1980301Y2173911D1*
X1983186Y2171026D1*
X1986038D1*
X1988923Y2172485D1*
X1990349Y2173911D1*
X1991775Y2176763D1*
X1994660Y2185385D1*
X1996086Y2188270D1*
X1997545Y2189696D1*
X2000397Y2191122D1*
X2004708D1*
X2007560Y2188270D1*
X2009019Y2183959D1*
Y2178222D1*
X2007560Y2173911D1*
X2004708Y2171026D1*
X1986038Y2221907D2*
X1983186Y2220481D1*
X1980301Y2217596D1*
X1978875Y2214745D1*
Y2209008D1*
X1980301Y2206122D1*
X1983186Y2203271D1*
X1986038Y2201811D1*
X1990349Y2200386D1*
X1997545Y2200385D1*
X2001823Y2201811D1*
X2004708Y2203271D1*
X2007560Y2206122D1*
X2009019Y2209007D1*
Y2214744D1*
X2007560Y2217596D1*
X2004708Y2220481D1*
X2001823Y2221907D1*
X1978875Y2231171D2*
X2009019D1*
X1978875Y2251267D2*
X1998971Y2231171D1*
X1991775Y2238334D2*
X2009019Y2251267D1*
X2109019Y2193974D2*
X2078875D1*
X2109019Y2182500D1*
X2078875Y2171026D1*
X2109019D1*
X2078875Y2211859D2*
X2080301Y2208974D1*
X2083186Y2206122D1*
X2086038Y2204663D1*
X2090349Y2203237D1*
X2097545D1*
X2101823Y2204663D1*
X2104708Y2206122D1*
X2107560Y2208974D1*
X2109019Y2211859D1*
Y2217596D1*
X2107560Y2220448D1*
X2104708Y2223333D1*
X2101823Y2224759D1*
X2097545Y2226185D1*
X2090349D1*
X2086038Y2224759D1*
X2083186Y2223333D1*
X2080301Y2220448D1*
X2078875Y2217596D1*
Y2211859D1*
X2209019Y2193974D2*
X2178875D1*
X2209019Y2182500D1*
X2178875Y2171026D1*
X2209019D1*
X2178875Y2203237D2*
X2209019D1*
X2293234Y2171026D2*
Y2183926D1*
X2291775Y2188237D1*
X2290349Y2189696D1*
X2287497Y2191122D1*
X2284612D1*
X2281760Y2189696D1*
X2280301Y2188237D1*
X2278875Y2183926D1*
Y2171026D1*
X2309019D1*
X2293234Y2181074D2*
X2309019Y2191122D1*
X2278875Y2200386D2*
X2309019Y2220481D1*
X2278875D2*
X2309019Y2200385D1*
X2378875Y2181074D2*
X2409019D1*
X2378875Y2171026D2*
Y2191122D1*
Y2200386D2*
X2409019Y2220481D1*
X2378875D2*
X2409019Y2200385D1*
X2478875Y2191122D2*
X2509019D1*
X2478875Y2171026D1*
X2509019D1*
X2486038Y2221907D2*
X2483186Y2220481D1*
X2480301Y2217596D1*
X2478875Y2214745D1*
Y2209008D1*
X2480301Y2206122D1*
X2483186Y2203271D1*
X2486038Y2201811D1*
X2490349Y2200386D1*
X2497545Y2200385D1*
X2501823Y2201811D1*
X2504708Y2203271D1*
X2507560Y2206122D1*
X2509019Y2209007D1*
Y2214744D1*
X2507560Y2217596D1*
X2504708Y2220481D1*
X2501823Y2221907D1*
X1378875Y2763226D2*
X1409019D1*
Y2780437D1*
X1378875Y2789700D2*
X1380301Y2791126D1*
X1378875Y2792586D1*
X1377416Y2791126D1*
X1378875Y2789700D1*
X1388923Y2791126D2*
X1409019D1*
X1381047Y2814749D2*
X1406880D1*
X1393980Y2801849D2*
Y2827682D1*
X1478875Y2798333D2*
Y2779696D1*
X1509019D1*
Y2798333D1*
X1493234Y2779696D2*
Y2791170D1*
X1478875Y2827692D2*
X1509019D1*
X1478875Y2807596D1*
X1509019D1*
X1578875Y2716696D2*
X1609019Y2728170D1*
X1578875Y2739644D1*
Y2748907D2*
X1600397D1*
X1604708Y2750333D1*
X1607560Y2753218D1*
X1609019Y2757529D1*
Y2760381D1*
X1607560Y2764692D1*
X1604708Y2767577D1*
X1600397Y2769003D1*
X1578875D1*
X1583186Y2798363D2*
X1580301Y2795511D1*
X1578875Y2791200D1*
Y2785463D1*
X1580301Y2781152D1*
X1583186Y2778267D1*
X1586038D1*
X1588923Y2779726D1*
X1590349Y2781152D1*
X1591775Y2784004D1*
X1594660Y2792626D1*
X1596086Y2795511D1*
X1597545Y2796937D1*
X1600397Y2798363D1*
X1604708D1*
X1607560Y2795511D1*
X1609019Y2791200D1*
Y2785463D1*
X1607560Y2781152D1*
X1604708Y2778267D1*
X1578875Y2807626D2*
X1609019D1*
Y2820560D1*
X1607560Y2824871D1*
X1606134Y2826296D1*
X1603282Y2827722D1*
X1598971D1*
X1596086Y2826297D1*
X1594660Y2824871D1*
X1593234Y2820560D1*
X1591775Y2824871D1*
X1590349Y2826297D1*
X1587497Y2827722D1*
X1584612D1*
X1581760Y2826297D1*
X1580301Y2824871D1*
X1578875Y2820560D1*
Y2807626D1*
X1593234D2*
Y2820560D1*
X1678875Y2778256D2*
X1709019D1*
Y2788304D1*
X1707560Y2792615D1*
X1704708Y2795500D1*
X1701823Y2796926D1*
X1697545Y2798352D1*
X1690349D1*
X1686038Y2796926D1*
X1683186Y2795500D1*
X1680301Y2792615D1*
X1678875Y2788304D1*
Y2778256D1*
X1678908Y2814778D2*
X1680334Y2810501D1*
X1683186Y2809041D1*
X1686071D1*
X1688923Y2810501D1*
X1690382Y2813352D1*
X1691808Y2819089D1*
X1693234Y2823400D1*
X1696119Y2826252D1*
X1698971Y2827678D1*
X1703282D1*
X1706134Y2826252D1*
X1707593Y2824826D1*
X1709019Y2820515D1*
Y2814778D1*
X1707593Y2810501D1*
X1706134Y2809041D1*
X1703282Y2807615D1*
X1698971D1*
X1696119Y2809041D1*
X1693234Y2811927D1*
X1691808Y2816204D1*
X1690382Y2821941D1*
X1688923Y2824826D1*
X1686071Y2826252D1*
X1683186D1*
X1680334Y2824826D1*
X1678908Y2820515D1*
Y2814778D1*
X1778875Y2778256D2*
X1809019D1*
Y2788304D1*
X1807560Y2792615D1*
X1804708Y2795500D1*
X1801823Y2796926D1*
X1797545Y2798352D1*
X1790349D1*
X1786038Y2796926D1*
X1783186Y2795500D1*
X1780301Y2792615D1*
X1778875Y2788304D1*
Y2778256D1*
X1809019Y2813352D2*
X1778908Y2827711D1*
Y2807616D1*
X1878875Y2779696D2*
X1909019D1*
Y2789744D1*
X1907560Y2794055D1*
X1904708Y2796940D1*
X1901823Y2798366D1*
X1897545Y2799792D1*
X1890349D1*
X1886038Y2798366D1*
X1883186Y2796940D1*
X1880301Y2794055D1*
X1878875Y2789744D1*
Y2779696D1*
X1883186Y2826266D2*
X1880334Y2824840D1*
X1878908Y2820529D1*
Y2817678D1*
X1880334Y2813367D1*
X1884645Y2810481D1*
X1891808Y2809056D1*
X1898971Y2809055D1*
X1904708Y2810481D1*
X1907593Y2813366D1*
X1909019Y2817677D1*
Y2819103D1*
X1907593Y2823381D1*
X1904708Y2826266D1*
X1900397Y2827692D1*
X1898971D1*
X1894660Y2826266D1*
X1891808Y2823381D1*
X1890382Y2819103D1*
Y2817678D1*
X1891808Y2813367D1*
X1894660Y2810481D1*
X1898971Y2809055D1*
X1978875Y2778256D2*
X2009019D1*
Y2788304D1*
X2007560Y2792615D1*
X2004708Y2795500D1*
X2001823Y2796926D1*
X1997545Y2798352D1*
X1990349D1*
X1986038Y2796926D1*
X1983186Y2795500D1*
X1980301Y2792615D1*
X1978875Y2788304D1*
Y2778256D1*
X1978908Y2824826D2*
Y2810501D1*
X1991808Y2809075D1*
X1990382Y2810501D1*
X1988923Y2814812D1*
Y2819089D1*
X1990382Y2823400D1*
X1993234Y2826286D1*
X1997545Y2827711D1*
X2000397D1*
X2004708Y2826285D1*
X2007593Y2823400D1*
X2009019Y2819089D1*
Y2814812D1*
X2007593Y2810501D1*
X2006134Y2809075D1*
X2003282Y2807615D1*
X2078875Y2776816D2*
X2109019D1*
Y2786864D1*
X2107560Y2791175D1*
X2104708Y2794060D1*
X2101823Y2795486D1*
X2097545Y2796912D1*
X2090349D1*
X2086038Y2795486D1*
X2083186Y2794060D1*
X2080301Y2791175D1*
X2078875Y2786864D1*
Y2776816D1*
X2109019Y2820534D2*
X2078908Y2820535D1*
X2098971Y2806175D1*
Y2827697D1*
X2178875Y2778256D2*
X2209019D1*
Y2788304D1*
X2207560Y2792615D1*
X2204708Y2795500D1*
X2201823Y2796926D1*
X2197545Y2798352D1*
X2190349D1*
X2186038Y2796926D1*
X2183186Y2795500D1*
X2180301Y2792615D1*
X2178875Y2788304D1*
Y2778256D1*
X2178908Y2810501D2*
Y2826252D1*
X2190382Y2817663D1*
Y2821975D1*
X2191808Y2824826D1*
X2193234Y2826252D1*
X2197545Y2827711D1*
X2200397D1*
X2204708Y2826252D1*
X2207593Y2823400D1*
X2209019Y2819089D1*
Y2814778D1*
X2207593Y2810501D1*
X2206134Y2809075D1*
X2203282Y2807615D1*
X2278875Y2778256D2*
X2309019D1*
Y2788304D1*
X2307560Y2792615D1*
X2304708Y2795500D1*
X2301823Y2796926D1*
X2297545Y2798352D1*
X2290349D1*
X2286038Y2796926D1*
X2283186Y2795500D1*
X2280301Y2792615D1*
X2278875Y2788304D1*
Y2778256D1*
X2286071Y2809075D2*
X2284645D1*
X2281760Y2810501D1*
X2280334Y2811927D1*
X2278908Y2814812D1*
Y2820549D1*
X2280334Y2823400D1*
X2281760Y2824826D1*
X2284645Y2826286D1*
X2287497D1*
X2290382Y2824826D1*
X2294660Y2821974D1*
X2309019Y2807615D1*
Y2827711D1*
X2383186Y2770452D2*
X2380301Y2767600D1*
X2378875Y2763289D1*
Y2757552D1*
X2380301Y2753241D1*
X2383186Y2750356D1*
X2386038D1*
X2388923Y2751815D1*
X2390349Y2753241D1*
X2391775Y2756093D1*
X2394660Y2764715D1*
X2396086Y2767600D1*
X2397545Y2769026D1*
X2400397Y2770452D1*
X2404708D1*
X2407560Y2767600D1*
X2409019Y2763289D1*
Y2757552D1*
X2407560Y2753241D1*
X2404708Y2750356D1*
X2386038Y2801237D2*
X2383186Y2799811D1*
X2380301Y2796926D1*
X2378875Y2794075D1*
Y2788338D1*
X2380301Y2785452D1*
X2383186Y2782601D1*
X2386038Y2781141D1*
X2390349Y2779716D1*
X2397545Y2779715D1*
X2401823Y2781141D1*
X2404708Y2782601D1*
X2407560Y2785452D1*
X2409019Y2788337D1*
Y2794074D1*
X2407560Y2796926D1*
X2404708Y2799811D1*
X2401823Y2801237D1*
X2378875Y2810501D2*
X2409019D1*
Y2827712D1*
X2483186Y2766132D2*
X2480301Y2763280D1*
X2478875Y2758969D1*
Y2753232D1*
X2480301Y2748921D1*
X2483186Y2746036D1*
X2486038D1*
X2488923Y2747495D1*
X2490349Y2748921D1*
X2491775Y2751773D1*
X2494660Y2760395D1*
X2496086Y2763280D1*
X2497545Y2764706D1*
X2500397Y2766132D1*
X2504708D1*
X2507560Y2763280D1*
X2509019Y2758969D1*
Y2753232D1*
X2507560Y2748921D1*
X2504708Y2746036D1*
X2478875Y2775396D2*
X2509019Y2775395D1*
Y2785443D1*
X2507560Y2789754D1*
X2504708Y2792640D1*
X2501823Y2794066D1*
X2497545Y2795491D1*
X2490349D1*
X2486038Y2794066D1*
X2483186Y2792640D1*
X2480301Y2789755D1*
X2478875Y2785444D1*
Y2775396D1*
X2509019Y2827736D2*
X2478875Y2816229D1*
X2509019Y2804755D1*
X2498971Y2809066D2*
Y2823425D1*
X2520620Y2285842D2*
D90*
Y2311708D1*
X2517769Y2320264D1*
X2514850Y2323182D1*
X2509146Y2326034D1*
X2500524D1*
X2494821Y2323182D1*
X2491902Y2320264D1*
X2489050Y2311708D1*
Y2285842D1*
X2549338D1*
Y2390523D2*
X2489050Y2367509D1*
X2549338Y2344561D1*
X2529242Y2353183D2*
Y2381901D1*
X2517769Y2409050D2*
Y2434850D1*
X2514850Y2443472D1*
X2511998Y2446390D1*
X2506295Y2449242D1*
X2500524D1*
X2494821Y2446390D1*
X2491902Y2443472D1*
X2489050Y2434850D1*
Y2409050D1*
X2549338D1*
X2517769Y2429146D2*
X2549338Y2449242D1*
X2489050Y2487865D2*
X2549338D1*
X2489050Y2467769D2*
Y2507961D1*
Y2526488D2*
X2549338D1*
X2503376Y2588059D2*
X2497673Y2585207D1*
X2491902Y2579437D1*
X2489050Y2573733D1*
Y2562260D1*
X2491902Y2556489D1*
X2497673Y2550786D1*
X2503376Y2547867D1*
X2511998Y2545015D1*
X2526391D1*
X2534946Y2547867D1*
X2540716Y2550786D1*
X2546420Y2556489D1*
X2549338Y2562260D1*
Y2573733D1*
X2546420Y2579437D1*
X2540716Y2585207D1*
X2534946Y2588059D1*
X2489050Y2606586D2*
X2549338D1*
Y2641008D1*
X2489050Y2696809D2*
Y2659535D1*
X2549338D1*
Y2696809D1*
X2517768Y2659535D2*
Y2682483D1*
X2674338Y2427678D2*
X2614050D1*
X2674339Y2404730D1*
X2614050Y2381782D1*
X2674338D1*
X2614050Y2483479D2*
Y2446205D1*
X2674338D1*
Y2483478D1*
X2642769Y2446205D2*
Y2469153D1*
X2622673Y2542198D2*
X2616902Y2536494D1*
X2614050Y2527872D1*
Y2516398D1*
X2616902Y2507776D1*
X2622673Y2502006D1*
X2628376D1*
X2634146Y2504924D1*
X2636998Y2507776D1*
X2639850Y2513480D1*
X2645620Y2530724D1*
X2648472Y2536494D1*
X2651391Y2539346D1*
X2657094Y2542198D1*
X2665716D1*
X2671420Y2536494D1*
X2674338Y2527872D1*
Y2516398D1*
X2671420Y2507776D1*
X2665716Y2502006D1*
X2614050Y2560725D2*
X2674338D1*
X2614050Y2600917D2*
X2674338D1*
X2642769Y2560725D2*
Y2600917D1*
M02*
